%
M48
M72
T01C0.0130
T02C0.0236
T03C0.0276
T04C0.0925
T05C0.1024
%
T01
X1440Y5196
T02
X2385Y4251
X4550Y8385
X6145Y7597
X6479Y5510
X6952Y4251
X7818Y8286
X9314Y4408
T03
X7755Y6455
X7558Y7046
X6967Y6455
X6574Y7046
X6180Y6455
X5786Y7046
X5393Y6455
X4802Y7046
X4605Y6455
T04
X3593Y7833
X8767Y7833
T05
X10839Y12241
X10938Y21749
X1312Y21663
X1312Y12241
M30
