G75*
%MOIN*%
%OFA0B0*%
%FSLAX24Y24*%
%IPPOS*%
%LPD*%
%AMOC8*
5,1,8,0,0,1.08239X$1,22.5*
%
%ADD10R,0.0236X0.1004*%
%ADD11R,0.2283X1.1220*%
%ADD12R,0.2283X1.1339*%
%ADD13C,0.0500*%
%ADD14C,0.0060*%
%ADD15C,0.0376*%
%ADD16R,0.0270X0.0270*%
D10*
X001430Y003333D03*
X001745Y003333D03*
X002060Y003333D03*
X002375Y003333D03*
X002690Y003333D03*
X003005Y003333D03*
X003320Y003333D03*
X003635Y003333D03*
X005210Y003333D03*
X005524Y003333D03*
X005839Y003333D03*
X006154Y003333D03*
X006469Y003333D03*
X006784Y003333D03*
X007099Y003333D03*
X007414Y003333D03*
X007729Y003333D03*
X008044Y003333D03*
X008359Y003333D03*
X008674Y003333D03*
X008989Y003333D03*
X009304Y003333D03*
X009619Y003333D03*
X009934Y003333D03*
X010249Y003333D03*
X010564Y003333D03*
D11*
X001312Y016768D03*
D12*
X010839Y016768D03*
D13*
X007558Y007046D03*
X007755Y006455D03*
X006967Y006455D03*
X006574Y007046D03*
X006180Y006455D03*
X005786Y007046D03*
X005393Y006455D03*
X004802Y007046D03*
X004605Y006455D03*
D14*
X004435Y006753D02*
X003797Y006753D01*
X003855Y006811D02*
X004556Y006811D01*
X004572Y006795D02*
X004538Y006795D01*
X004413Y006744D01*
X004317Y006648D01*
X004265Y006523D01*
X004265Y006388D01*
X004317Y006263D01*
X004413Y006167D01*
X004538Y006115D01*
X004673Y006115D01*
X004798Y006167D01*
X004883Y006252D01*
X004883Y006010D01*
X004881Y006007D01*
X004883Y005960D01*
X004883Y005914D01*
X004885Y005911D01*
X004885Y005908D01*
X004920Y005876D01*
X004953Y005843D01*
X004957Y005843D01*
X005719Y005152D01*
X005719Y003925D01*
X005684Y003925D01*
X005682Y003923D01*
X005680Y003925D01*
X005369Y003925D01*
X005316Y003873D01*
X005316Y003621D01*
X005121Y003621D01*
X005121Y003789D01*
X005104Y003806D01*
X005035Y003806D01*
X005035Y004219D01*
X004941Y004415D01*
X004771Y004550D01*
X004560Y004598D01*
X004348Y004550D01*
X004179Y004415D01*
X004179Y004415D01*
X004179Y004415D01*
X004085Y004219D01*
X004085Y003806D01*
X003843Y003806D01*
X003843Y003873D01*
X003790Y003925D01*
X003479Y003925D01*
X003477Y003923D01*
X003475Y003925D01*
X003164Y003925D01*
X003162Y003923D01*
X003160Y003925D01*
X002849Y003925D01*
X002847Y003923D01*
X002845Y003925D01*
X002534Y003925D01*
X002532Y003923D01*
X002530Y003925D01*
X002219Y003925D01*
X002217Y003923D01*
X002215Y003925D01*
X001905Y003925D01*
X001852Y003873D01*
X001852Y003621D01*
X001638Y003621D01*
X001638Y003873D01*
X001585Y003925D01*
X001275Y003925D01*
X001222Y003873D01*
X001222Y003806D01*
X001197Y003806D01*
X001197Y003875D01*
X001121Y004057D01*
X000982Y004196D01*
X000800Y004271D01*
X000360Y004271D01*
X000360Y022338D01*
X001135Y022338D01*
X000920Y022249D01*
X000725Y022055D01*
X000620Y021800D01*
X000620Y021525D01*
X000725Y021271D01*
X000920Y021076D01*
X001174Y020971D01*
X001449Y020971D01*
X001704Y021076D01*
X001898Y021271D01*
X002004Y021525D01*
X002004Y021800D01*
X001898Y022055D01*
X001704Y022249D01*
X001489Y022338D01*
X010554Y022338D01*
X010546Y022335D01*
X010351Y022141D01*
X010246Y021886D01*
X010246Y021611D01*
X010351Y021357D01*
X010546Y021162D01*
X010800Y021057D01*
X011075Y021057D01*
X011330Y021162D01*
X011524Y021357D01*
X011630Y021611D01*
X011630Y021886D01*
X011524Y022141D01*
X011330Y022335D01*
X011322Y022338D01*
X011811Y022338D01*
X011811Y013467D01*
X011801Y013457D01*
X011801Y004271D01*
X011375Y004271D01*
X011351Y004271D01*
X011169Y004196D01*
X011030Y004057D01*
X011030Y004057D01*
X010955Y003875D01*
X010955Y003806D01*
X010772Y003806D01*
X010772Y003873D01*
X010719Y003925D01*
X010408Y003925D01*
X010356Y003873D01*
X010356Y003621D01*
X010142Y003621D01*
X010142Y003873D01*
X010089Y003925D01*
X009779Y003925D01*
X009776Y003923D01*
X009774Y003925D01*
X009464Y003925D01*
X009461Y003923D01*
X009459Y003925D01*
X009149Y003925D01*
X009147Y003923D01*
X009144Y003925D01*
X008834Y003925D01*
X008781Y003873D01*
X008781Y003621D01*
X008567Y003621D01*
X008567Y003873D01*
X008515Y003925D01*
X008204Y003925D01*
X008202Y003923D01*
X008200Y003925D01*
X007889Y003925D01*
X007836Y003873D01*
X007836Y003621D01*
X007622Y003621D01*
X007622Y003873D01*
X007570Y003925D01*
X007259Y003925D01*
X007257Y003923D01*
X007255Y003925D01*
X006944Y003925D01*
X006942Y003923D01*
X006940Y003925D01*
X006629Y003925D01*
X006576Y003873D01*
X006576Y003621D01*
X006363Y003621D01*
X006363Y003873D01*
X006310Y003925D01*
X005999Y003925D01*
X005997Y003923D01*
X005995Y003925D01*
X005959Y003925D01*
X005959Y005159D01*
X005962Y005162D01*
X005959Y005208D01*
X005959Y005255D01*
X005957Y005258D01*
X005957Y005261D01*
X005922Y005292D01*
X005889Y005325D01*
X005886Y005325D01*
X005123Y006016D01*
X005123Y006244D01*
X005200Y006167D01*
X005325Y006115D01*
X005460Y006115D01*
X005585Y006167D01*
X005681Y006263D01*
X005733Y006388D01*
X005733Y006523D01*
X005681Y006648D01*
X005585Y006744D01*
X005460Y006795D01*
X005325Y006795D01*
X005200Y006744D01*
X005123Y006666D01*
X005123Y006757D01*
X005129Y006796D01*
X005123Y006805D01*
X005123Y006816D01*
X005095Y006844D01*
X005089Y006852D01*
X005090Y006853D01*
X005142Y006978D01*
X005142Y007114D01*
X005090Y007239D01*
X004995Y007334D01*
X004870Y007386D01*
X004734Y007386D01*
X004609Y007334D01*
X004514Y007239D01*
X004462Y007114D01*
X004462Y006978D01*
X004514Y006853D01*
X004572Y006795D01*
X004507Y006870D02*
X003914Y006870D01*
X003972Y006928D02*
X004483Y006928D01*
X004462Y006987D02*
X004031Y006987D01*
X004089Y007045D02*
X004462Y007045D01*
X004462Y007104D02*
X004148Y007104D01*
X004206Y007162D02*
X004482Y007162D01*
X004506Y007221D02*
X004265Y007221D01*
X004323Y007279D02*
X004555Y007279D01*
X004618Y007338D02*
X004382Y007338D01*
X004440Y007396D02*
X007038Y007396D01*
X007096Y007338D02*
X006757Y007338D01*
X006766Y007334D02*
X006641Y007386D01*
X006506Y007386D01*
X006381Y007334D01*
X006285Y007239D01*
X006234Y007114D01*
X006234Y006978D01*
X006285Y006853D01*
X006337Y006802D01*
X006291Y006821D01*
X006217Y006835D01*
X006210Y006835D01*
X006210Y006485D01*
X006560Y006485D01*
X006560Y006493D01*
X006545Y006566D01*
X006517Y006635D01*
X006475Y006698D01*
X006439Y006734D01*
X006506Y006706D01*
X006641Y006706D01*
X006766Y006758D01*
X006862Y006853D01*
X006914Y006978D01*
X006914Y007114D01*
X006862Y007239D01*
X006766Y007334D01*
X006821Y007279D02*
X007155Y007279D01*
X007213Y007221D02*
X006869Y007221D01*
X006893Y007162D02*
X007238Y007162D01*
X007248Y007186D02*
X007218Y007114D01*
X007218Y006978D01*
X007270Y006853D01*
X007365Y006758D01*
X007490Y006706D01*
X007525Y006706D01*
X007467Y006648D01*
X007415Y006523D01*
X007415Y006388D01*
X007467Y006263D01*
X007562Y006167D01*
X007687Y006115D01*
X007822Y006115D01*
X007947Y006167D01*
X008043Y006263D01*
X008095Y006388D01*
X008095Y006523D01*
X008043Y006648D01*
X007947Y006744D01*
X007822Y006795D01*
X007788Y006795D01*
X007846Y006853D01*
X007898Y006978D01*
X007898Y007114D01*
X007846Y007239D01*
X007751Y007334D01*
X007626Y007386D01*
X007490Y007386D01*
X007418Y007356D01*
X006505Y008268D01*
X004973Y008268D01*
X004903Y008198D01*
X003595Y006890D01*
X002965Y006890D01*
X002895Y006820D01*
X001495Y005421D01*
X001268Y005421D01*
X001215Y005368D01*
X001215Y005023D01*
X001268Y004971D01*
X001612Y004971D01*
X001665Y005023D01*
X001665Y005251D01*
X003064Y006650D01*
X003694Y006650D01*
X005072Y008028D01*
X006406Y008028D01*
X007248Y007186D01*
X007218Y007104D02*
X006914Y007104D01*
X006914Y007045D02*
X007218Y007045D01*
X007218Y006987D02*
X006914Y006987D01*
X006893Y006928D02*
X007239Y006928D01*
X007263Y006870D02*
X006869Y006870D01*
X006820Y006811D02*
X007312Y006811D01*
X007377Y006753D02*
X007138Y006753D01*
X007160Y006744D02*
X007035Y006795D01*
X006900Y006795D01*
X006775Y006744D01*
X006679Y006648D01*
X006627Y006523D01*
X006627Y006388D01*
X006679Y006263D01*
X006775Y006167D01*
X006900Y006115D01*
X007035Y006115D01*
X007160Y006167D01*
X007256Y006263D01*
X007307Y006388D01*
X007307Y006523D01*
X007256Y006648D01*
X007160Y006744D01*
X007209Y006694D02*
X007513Y006694D01*
X007462Y006636D02*
X007261Y006636D01*
X007285Y006577D02*
X007437Y006577D01*
X007415Y006519D02*
X007307Y006519D01*
X007307Y006460D02*
X007415Y006460D01*
X007415Y006402D02*
X007307Y006402D01*
X007289Y006343D02*
X007433Y006343D01*
X007457Y006285D02*
X007265Y006285D01*
X007219Y006226D02*
X007503Y006226D01*
X007562Y006168D02*
X007161Y006168D01*
X006774Y006168D02*
X006430Y006168D01*
X006422Y006160D02*
X006475Y006213D01*
X006517Y006275D01*
X006545Y006345D01*
X006560Y006418D01*
X006560Y006425D01*
X006210Y006425D01*
X006210Y006075D01*
X006217Y006075D01*
X006291Y006090D01*
X006360Y006119D01*
X006422Y006160D01*
X006484Y006226D02*
X006716Y006226D01*
X006670Y006285D02*
X006521Y006285D01*
X006545Y006343D02*
X006646Y006343D01*
X006627Y006402D02*
X006557Y006402D01*
X006627Y006460D02*
X006210Y006460D01*
X006210Y006485D02*
X006210Y006425D01*
X006150Y006425D01*
X006150Y006075D01*
X006143Y006075D01*
X006069Y006090D01*
X006000Y006119D01*
X005938Y006160D01*
X005885Y006213D01*
X005843Y006275D01*
X005815Y006345D01*
X005800Y006418D01*
X005800Y006425D01*
X006150Y006425D01*
X006150Y006485D01*
X005800Y006485D01*
X005800Y006493D01*
X005815Y006566D01*
X005843Y006635D01*
X005885Y006698D01*
X005921Y006734D01*
X005854Y006706D01*
X005719Y006706D01*
X005594Y006758D01*
X005498Y006853D01*
X005446Y006978D01*
X005446Y007114D01*
X005498Y007239D01*
X005594Y007334D01*
X005719Y007386D01*
X005854Y007386D01*
X005979Y007334D01*
X006075Y007239D01*
X006126Y007114D01*
X006126Y006978D01*
X006075Y006853D01*
X006023Y006802D01*
X006069Y006821D01*
X006143Y006835D01*
X006150Y006835D01*
X006150Y006485D01*
X006210Y006485D01*
X006210Y006519D02*
X006150Y006519D01*
X006150Y006577D02*
X006210Y006577D01*
X006210Y006636D02*
X006150Y006636D01*
X006150Y006694D02*
X006210Y006694D01*
X006210Y006753D02*
X006150Y006753D01*
X006150Y006811D02*
X006210Y006811D01*
X006279Y006870D02*
X006081Y006870D01*
X006106Y006928D02*
X006254Y006928D01*
X006234Y006987D02*
X006126Y006987D01*
X006126Y007045D02*
X006234Y007045D01*
X006234Y007104D02*
X006126Y007104D01*
X006106Y007162D02*
X006254Y007162D01*
X006278Y007221D02*
X006082Y007221D01*
X006034Y007279D02*
X006326Y007279D01*
X006390Y007338D02*
X005970Y007338D01*
X006033Y006811D02*
X006046Y006811D01*
X005883Y006694D02*
X005634Y006694D01*
X005605Y006753D02*
X005563Y006753D01*
X005540Y006811D02*
X005123Y006811D01*
X005123Y006753D02*
X005222Y006753D01*
X005151Y006694D02*
X005123Y006694D01*
X005003Y006766D02*
X005003Y005963D01*
X005839Y005205D01*
X005839Y003333D01*
X005719Y003945D02*
X005035Y003945D01*
X005035Y004003D02*
X005719Y004003D01*
X005719Y004062D02*
X005035Y004062D01*
X005035Y004120D02*
X005719Y004120D01*
X005719Y004179D02*
X005035Y004179D01*
X005027Y004237D02*
X005719Y004237D01*
X005719Y004296D02*
X004998Y004296D01*
X004970Y004354D02*
X005719Y004354D01*
X005719Y004413D02*
X004942Y004413D01*
X004941Y004415D02*
X004941Y004415D01*
X004870Y004471D02*
X005719Y004471D01*
X005719Y004530D02*
X004797Y004530D01*
X004771Y004550D02*
X004771Y004550D01*
X004604Y004588D02*
X005719Y004588D01*
X005719Y004647D02*
X000360Y004647D01*
X000360Y004705D02*
X005719Y004705D01*
X005719Y004764D02*
X000360Y004764D01*
X000360Y004822D02*
X005719Y004822D01*
X005719Y004881D02*
X000360Y004881D01*
X000360Y004939D02*
X005719Y004939D01*
X005719Y004998D02*
X001639Y004998D01*
X001665Y005056D02*
X005719Y005056D01*
X005719Y005115D02*
X001665Y005115D01*
X001665Y005173D02*
X005696Y005173D01*
X005631Y005232D02*
X001665Y005232D01*
X001704Y005290D02*
X005567Y005290D01*
X005502Y005349D02*
X001763Y005349D01*
X001821Y005407D02*
X005438Y005407D01*
X005373Y005466D02*
X001880Y005466D01*
X001938Y005524D02*
X005309Y005524D01*
X005244Y005583D02*
X001997Y005583D01*
X002055Y005641D02*
X005179Y005641D01*
X005115Y005700D02*
X002114Y005700D01*
X002172Y005758D02*
X005050Y005758D01*
X004986Y005817D02*
X002231Y005817D01*
X002289Y005875D02*
X004921Y005875D01*
X004883Y005934D02*
X002348Y005934D01*
X002406Y005992D02*
X004881Y005992D01*
X004883Y006051D02*
X002465Y006051D01*
X002523Y006109D02*
X004883Y006109D01*
X004883Y006168D02*
X004798Y006168D01*
X004857Y006226D02*
X004883Y006226D01*
X005123Y006226D02*
X005141Y006226D01*
X005123Y006168D02*
X005199Y006168D01*
X005123Y006109D02*
X006022Y006109D01*
X005930Y006168D02*
X005586Y006168D01*
X005644Y006226D02*
X005876Y006226D01*
X005839Y006285D02*
X005690Y006285D01*
X005714Y006343D02*
X005815Y006343D01*
X005803Y006402D02*
X005733Y006402D01*
X005733Y006460D02*
X006150Y006460D01*
X006150Y006402D02*
X006210Y006402D01*
X006210Y006343D02*
X006150Y006343D01*
X006150Y006285D02*
X006210Y006285D01*
X006210Y006226D02*
X006150Y006226D01*
X006150Y006168D02*
X006210Y006168D01*
X006210Y006109D02*
X006150Y006109D01*
X006338Y006109D02*
X011801Y006109D01*
X011801Y006051D02*
X005123Y006051D01*
X005149Y005992D02*
X011801Y005992D01*
X011801Y005934D02*
X005214Y005934D01*
X005279Y005875D02*
X011801Y005875D01*
X011801Y005817D02*
X005343Y005817D01*
X005408Y005758D02*
X011801Y005758D01*
X011801Y005700D02*
X005472Y005700D01*
X005537Y005641D02*
X011801Y005641D01*
X011801Y005583D02*
X005602Y005583D01*
X005666Y005524D02*
X011801Y005524D01*
X011801Y005466D02*
X005731Y005466D01*
X005795Y005407D02*
X011801Y005407D01*
X011801Y005349D02*
X005860Y005349D01*
X005924Y005290D02*
X011801Y005290D01*
X011801Y005232D02*
X005959Y005232D01*
X005961Y005173D02*
X011801Y005173D01*
X011801Y005115D02*
X005959Y005115D01*
X005959Y005056D02*
X011801Y005056D01*
X011801Y004998D02*
X005959Y004998D01*
X005959Y004939D02*
X011801Y004939D01*
X011801Y004881D02*
X005959Y004881D01*
X005959Y004822D02*
X011801Y004822D01*
X011801Y004764D02*
X005959Y004764D01*
X005959Y004705D02*
X011801Y004705D01*
X011801Y004647D02*
X005959Y004647D01*
X005959Y004588D02*
X011801Y004588D01*
X011801Y004530D02*
X005959Y004530D01*
X005959Y004471D02*
X011801Y004471D01*
X011801Y004413D02*
X005959Y004413D01*
X005959Y004354D02*
X011801Y004354D01*
X011801Y004296D02*
X005959Y004296D01*
X005959Y004237D02*
X011269Y004237D01*
X011351Y004271D02*
X011351Y004271D01*
X011169Y004196D02*
X011169Y004196D01*
X011152Y004179D02*
X005959Y004179D01*
X005959Y004120D02*
X011094Y004120D01*
X011035Y004062D02*
X005959Y004062D01*
X005959Y004003D02*
X011008Y004003D01*
X010984Y003945D02*
X005959Y003945D01*
X006349Y003886D02*
X006590Y003886D01*
X006576Y003828D02*
X006363Y003828D01*
X006363Y003769D02*
X006576Y003769D01*
X006576Y003711D02*
X006363Y003711D01*
X006363Y003652D02*
X006576Y003652D01*
X007622Y003652D02*
X007836Y003652D01*
X007836Y003711D02*
X007622Y003711D01*
X007622Y003769D02*
X007836Y003769D01*
X007836Y003828D02*
X007622Y003828D01*
X007609Y003886D02*
X007850Y003886D01*
X008553Y003886D02*
X008795Y003886D01*
X008781Y003828D02*
X008567Y003828D01*
X008567Y003769D02*
X008781Y003769D01*
X008781Y003711D02*
X008567Y003711D01*
X008567Y003652D02*
X008781Y003652D01*
X010142Y003652D02*
X010356Y003652D01*
X010356Y003711D02*
X010142Y003711D01*
X010142Y003769D02*
X010356Y003769D01*
X010356Y003828D02*
X010142Y003828D01*
X010128Y003886D02*
X010370Y003886D01*
X010758Y003886D02*
X010960Y003886D01*
X010955Y003828D02*
X010772Y003828D01*
X011801Y006168D02*
X007948Y006168D01*
X008007Y006226D02*
X011801Y006226D01*
X011801Y006285D02*
X008052Y006285D01*
X008076Y006343D02*
X011801Y006343D01*
X011801Y006402D02*
X008095Y006402D01*
X008095Y006460D02*
X011801Y006460D01*
X011801Y006519D02*
X008095Y006519D01*
X008072Y006577D02*
X011801Y006577D01*
X011801Y006636D02*
X008048Y006636D01*
X007997Y006694D02*
X011801Y006694D01*
X011801Y006753D02*
X007925Y006753D01*
X007804Y006811D02*
X011801Y006811D01*
X011801Y006870D02*
X007853Y006870D01*
X007877Y006928D02*
X011801Y006928D01*
X011801Y006987D02*
X007898Y006987D01*
X007898Y007045D02*
X011801Y007045D01*
X011801Y007104D02*
X007898Y007104D01*
X007878Y007162D02*
X011801Y007162D01*
X011801Y007221D02*
X008967Y007221D01*
X008894Y007191D02*
X009131Y007289D01*
X009311Y007469D01*
X009409Y007706D01*
X009409Y007961D01*
X009311Y008197D01*
X009131Y008378D01*
X008894Y008476D01*
X008639Y008476D01*
X008403Y008378D01*
X008222Y008197D01*
X008124Y007961D01*
X008124Y007706D01*
X008222Y007469D01*
X008403Y007289D01*
X008639Y007191D01*
X008894Y007191D01*
X009108Y007279D02*
X011801Y007279D01*
X011801Y007338D02*
X009180Y007338D01*
X009238Y007396D02*
X011801Y007396D01*
X011801Y007455D02*
X009297Y007455D01*
X009330Y007513D02*
X011801Y007513D01*
X011801Y007572D02*
X009354Y007572D01*
X009378Y007630D02*
X011801Y007630D01*
X011801Y007689D02*
X009402Y007689D01*
X009409Y007747D02*
X011801Y007747D01*
X011801Y007806D02*
X009409Y007806D01*
X009409Y007864D02*
X011801Y007864D01*
X011801Y007923D02*
X009409Y007923D01*
X009401Y007981D02*
X011801Y007981D01*
X011801Y008040D02*
X009377Y008040D01*
X009352Y008098D02*
X011801Y008098D01*
X011801Y008157D02*
X009328Y008157D01*
X009293Y008215D02*
X011801Y008215D01*
X011801Y008274D02*
X009235Y008274D01*
X009176Y008332D02*
X011801Y008332D01*
X011801Y008391D02*
X009100Y008391D01*
X008959Y008449D02*
X011801Y008449D01*
X011801Y008508D02*
X000360Y008508D01*
X000360Y008566D02*
X011801Y008566D01*
X011801Y008625D02*
X000360Y008625D01*
X000360Y008683D02*
X011801Y008683D01*
X011801Y008742D02*
X000360Y008742D01*
X000360Y008800D02*
X011801Y008800D01*
X011801Y008859D02*
X000360Y008859D01*
X000360Y008917D02*
X011801Y008917D01*
X011801Y008976D02*
X000360Y008976D01*
X000360Y009034D02*
X011801Y009034D01*
X011801Y009093D02*
X000360Y009093D01*
X000360Y009151D02*
X011801Y009151D01*
X011801Y009210D02*
X000360Y009210D01*
X000360Y009268D02*
X011801Y009268D01*
X011801Y009327D02*
X000360Y009327D01*
X000360Y009385D02*
X011801Y009385D01*
X011801Y009444D02*
X000360Y009444D01*
X000360Y009502D02*
X011801Y009502D01*
X011801Y009561D02*
X000360Y009561D01*
X000360Y009619D02*
X011801Y009619D01*
X011801Y009678D02*
X000360Y009678D01*
X000360Y009736D02*
X011801Y009736D01*
X011801Y009795D02*
X000360Y009795D01*
X000360Y009853D02*
X011801Y009853D01*
X011801Y009912D02*
X000360Y009912D01*
X000360Y009970D02*
X011801Y009970D01*
X011801Y010029D02*
X000360Y010029D01*
X000360Y010087D02*
X011801Y010087D01*
X011801Y010146D02*
X000360Y010146D01*
X000360Y010204D02*
X011801Y010204D01*
X011801Y010263D02*
X000360Y010263D01*
X000360Y010321D02*
X011801Y010321D01*
X011801Y010380D02*
X000360Y010380D01*
X000360Y010438D02*
X011801Y010438D01*
X011801Y010497D02*
X000360Y010497D01*
X000360Y010555D02*
X011801Y010555D01*
X011801Y010614D02*
X000360Y010614D01*
X000360Y010672D02*
X011801Y010672D01*
X011801Y010731D02*
X000360Y010731D01*
X000360Y010789D02*
X011801Y010789D01*
X011801Y010848D02*
X000360Y010848D01*
X000360Y010906D02*
X011801Y010906D01*
X011801Y010965D02*
X000360Y010965D01*
X000360Y011023D02*
X011801Y011023D01*
X011801Y011082D02*
X000360Y011082D01*
X000360Y011140D02*
X011801Y011140D01*
X011801Y011199D02*
X000360Y011199D01*
X000360Y011257D02*
X011801Y011257D01*
X011801Y011316D02*
X000360Y011316D01*
X000360Y011374D02*
X011801Y011374D01*
X011801Y011433D02*
X000360Y011433D01*
X000360Y011491D02*
X011801Y011491D01*
X011801Y011550D02*
X010979Y011550D01*
X010977Y011549D02*
X011231Y011654D01*
X011426Y011849D01*
X011531Y012103D01*
X011531Y012378D01*
X011426Y012633D01*
X011231Y012827D01*
X010977Y012933D01*
X010702Y012933D01*
X010448Y012827D01*
X010253Y012633D01*
X010148Y012378D01*
X010148Y012103D01*
X010253Y011849D01*
X010448Y011654D01*
X010702Y011549D01*
X010977Y011549D01*
X011120Y011608D02*
X011801Y011608D01*
X011801Y011667D02*
X011244Y011667D01*
X011302Y011725D02*
X011801Y011725D01*
X011801Y011784D02*
X011361Y011784D01*
X011419Y011842D02*
X011801Y011842D01*
X011801Y011901D02*
X011447Y011901D01*
X011472Y011959D02*
X011801Y011959D01*
X011801Y012018D02*
X011496Y012018D01*
X011520Y012076D02*
X011801Y012076D01*
X011801Y012135D02*
X011531Y012135D01*
X011531Y012193D02*
X011801Y012193D01*
X011801Y012252D02*
X011531Y012252D01*
X011531Y012310D02*
X011801Y012310D01*
X011801Y012369D02*
X011531Y012369D01*
X011511Y012427D02*
X011801Y012427D01*
X011801Y012486D02*
X011487Y012486D01*
X011463Y012544D02*
X011801Y012544D01*
X011801Y012603D02*
X011438Y012603D01*
X011397Y012661D02*
X011801Y012661D01*
X011801Y012720D02*
X011339Y012720D01*
X011280Y012778D02*
X011801Y012778D01*
X011801Y012837D02*
X011208Y012837D01*
X011067Y012895D02*
X011801Y012895D01*
X011801Y012954D02*
X000360Y012954D01*
X000360Y013012D02*
X011801Y013012D01*
X011801Y013071D02*
X000360Y013071D01*
X000360Y013129D02*
X011801Y013129D01*
X011801Y013188D02*
X000360Y013188D01*
X000360Y013246D02*
X011801Y013246D01*
X011801Y013305D02*
X000360Y013305D01*
X000360Y013363D02*
X011801Y013363D01*
X011801Y013422D02*
X000360Y013422D01*
X000360Y013480D02*
X011811Y013480D01*
X011811Y013539D02*
X000360Y013539D01*
X000360Y013597D02*
X011811Y013597D01*
X011811Y013656D02*
X000360Y013656D01*
X000360Y013714D02*
X011811Y013714D01*
X011811Y013773D02*
X000360Y013773D01*
X000360Y013831D02*
X011811Y013831D01*
X011811Y013890D02*
X000360Y013890D01*
X000360Y013948D02*
X011811Y013948D01*
X011811Y014007D02*
X000360Y014007D01*
X000360Y014065D02*
X011811Y014065D01*
X011811Y014124D02*
X000360Y014124D01*
X000360Y014182D02*
X011811Y014182D01*
X011811Y014241D02*
X000360Y014241D01*
X000360Y014299D02*
X011811Y014299D01*
X011811Y014358D02*
X000360Y014358D01*
X000360Y014416D02*
X011811Y014416D01*
X011811Y014475D02*
X000360Y014475D01*
X000360Y014533D02*
X011811Y014533D01*
X011811Y014592D02*
X000360Y014592D01*
X000360Y014650D02*
X011811Y014650D01*
X011811Y014709D02*
X000360Y014709D01*
X000360Y014767D02*
X011811Y014767D01*
X011811Y014826D02*
X000360Y014826D01*
X000360Y014884D02*
X011811Y014884D01*
X011811Y014943D02*
X000360Y014943D01*
X000360Y015001D02*
X011811Y015001D01*
X011811Y015060D02*
X000360Y015060D01*
X000360Y015118D02*
X011811Y015118D01*
X011811Y015177D02*
X000360Y015177D01*
X000360Y015235D02*
X011811Y015235D01*
X011811Y015294D02*
X000360Y015294D01*
X000360Y015352D02*
X011811Y015352D01*
X011811Y015411D02*
X000360Y015411D01*
X000360Y015469D02*
X011811Y015469D01*
X011811Y015528D02*
X000360Y015528D01*
X000360Y015586D02*
X011811Y015586D01*
X011811Y015645D02*
X000360Y015645D01*
X000360Y015703D02*
X011811Y015703D01*
X011811Y015762D02*
X000360Y015762D01*
X000360Y015820D02*
X011811Y015820D01*
X011811Y015879D02*
X000360Y015879D01*
X000360Y015937D02*
X011811Y015937D01*
X011811Y015996D02*
X000360Y015996D01*
X000360Y016054D02*
X011811Y016054D01*
X011811Y016113D02*
X000360Y016113D01*
X000360Y016171D02*
X011811Y016171D01*
X011811Y016230D02*
X000360Y016230D01*
X000360Y016288D02*
X011811Y016288D01*
X011811Y016347D02*
X000360Y016347D01*
X000360Y016405D02*
X011811Y016405D01*
X011811Y016464D02*
X000360Y016464D01*
X000360Y016522D02*
X011811Y016522D01*
X011811Y016581D02*
X000360Y016581D01*
X000360Y016639D02*
X011811Y016639D01*
X011811Y016698D02*
X000360Y016698D01*
X000360Y016756D02*
X011811Y016756D01*
X011811Y016815D02*
X000360Y016815D01*
X000360Y016873D02*
X011811Y016873D01*
X011811Y016932D02*
X000360Y016932D01*
X000360Y016990D02*
X011811Y016990D01*
X011811Y017049D02*
X000360Y017049D01*
X000360Y017107D02*
X011811Y017107D01*
X011811Y017166D02*
X000360Y017166D01*
X000360Y017224D02*
X011811Y017224D01*
X011811Y017283D02*
X000360Y017283D01*
X000360Y017341D02*
X011811Y017341D01*
X011811Y017400D02*
X000360Y017400D01*
X000360Y017458D02*
X011811Y017458D01*
X011811Y017517D02*
X000360Y017517D01*
X000360Y017575D02*
X011811Y017575D01*
X011811Y017634D02*
X000360Y017634D01*
X000360Y017692D02*
X011811Y017692D01*
X011811Y017751D02*
X000360Y017751D01*
X000360Y017809D02*
X011811Y017809D01*
X011811Y017868D02*
X000360Y017868D01*
X000360Y017926D02*
X011811Y017926D01*
X011811Y017985D02*
X000360Y017985D01*
X000360Y018043D02*
X011811Y018043D01*
X011811Y018102D02*
X000360Y018102D01*
X000360Y018160D02*
X011811Y018160D01*
X011811Y018219D02*
X000360Y018219D01*
X000360Y018277D02*
X011811Y018277D01*
X011811Y018336D02*
X000360Y018336D01*
X000360Y018394D02*
X011811Y018394D01*
X011811Y018453D02*
X000360Y018453D01*
X000360Y018511D02*
X011811Y018511D01*
X011811Y018570D02*
X000360Y018570D01*
X000360Y018628D02*
X011811Y018628D01*
X011811Y018687D02*
X000360Y018687D01*
X000360Y018745D02*
X011811Y018745D01*
X011811Y018804D02*
X000360Y018804D01*
X000360Y018862D02*
X011811Y018862D01*
X011811Y018921D02*
X000360Y018921D01*
X000360Y018979D02*
X011811Y018979D01*
X011811Y019038D02*
X000360Y019038D01*
X000360Y019096D02*
X011811Y019096D01*
X011811Y019155D02*
X000360Y019155D01*
X000360Y019213D02*
X011811Y019213D01*
X011811Y019272D02*
X000360Y019272D01*
X000360Y019330D02*
X011811Y019330D01*
X011811Y019389D02*
X000360Y019389D01*
X000360Y019447D02*
X011811Y019447D01*
X011811Y019506D02*
X000360Y019506D01*
X000360Y019564D02*
X011811Y019564D01*
X011811Y019623D02*
X000360Y019623D01*
X000360Y019681D02*
X011811Y019681D01*
X011811Y019740D02*
X000360Y019740D01*
X000360Y019798D02*
X011811Y019798D01*
X011811Y019857D02*
X000360Y019857D01*
X000360Y019915D02*
X011811Y019915D01*
X011811Y019974D02*
X000360Y019974D01*
X000360Y020032D02*
X011811Y020032D01*
X011811Y020091D02*
X000360Y020091D01*
X000360Y020149D02*
X011811Y020149D01*
X011811Y020208D02*
X000360Y020208D01*
X000360Y020266D02*
X011811Y020266D01*
X011811Y020325D02*
X000360Y020325D01*
X000360Y020383D02*
X011811Y020383D01*
X011811Y020442D02*
X000360Y020442D01*
X000360Y020500D02*
X011811Y020500D01*
X011811Y020559D02*
X000360Y020559D01*
X000360Y020617D02*
X011811Y020617D01*
X011811Y020676D02*
X000360Y020676D01*
X000360Y020734D02*
X011811Y020734D01*
X011811Y020793D02*
X000360Y020793D01*
X000360Y020851D02*
X011811Y020851D01*
X011811Y020910D02*
X000360Y020910D01*
X000360Y020968D02*
X011811Y020968D01*
X011811Y021027D02*
X001584Y021027D01*
X001713Y021085D02*
X010731Y021085D01*
X010590Y021144D02*
X001771Y021144D01*
X001830Y021202D02*
X010506Y021202D01*
X010447Y021261D02*
X001888Y021261D01*
X001918Y021319D02*
X010389Y021319D01*
X010343Y021378D02*
X001943Y021378D01*
X001967Y021436D02*
X010318Y021436D01*
X010294Y021495D02*
X001991Y021495D01*
X002004Y021553D02*
X010270Y021553D01*
X010246Y021612D02*
X002004Y021612D01*
X002004Y021670D02*
X010246Y021670D01*
X010246Y021729D02*
X002004Y021729D01*
X002004Y021787D02*
X010246Y021787D01*
X010246Y021846D02*
X001985Y021846D01*
X001961Y021904D02*
X010254Y021904D01*
X010278Y021963D02*
X001936Y021963D01*
X001912Y022021D02*
X010302Y022021D01*
X010326Y022080D02*
X001873Y022080D01*
X001815Y022138D02*
X010350Y022138D01*
X010408Y022197D02*
X001756Y022197D01*
X001689Y022255D02*
X010466Y022255D01*
X010525Y022314D02*
X001548Y022314D01*
X001076Y022314D02*
X000360Y022314D01*
X000360Y022255D02*
X000935Y022255D01*
X000868Y022197D02*
X000360Y022197D01*
X000360Y022138D02*
X000809Y022138D01*
X000751Y022080D02*
X000360Y022080D01*
X000360Y022021D02*
X000712Y022021D01*
X000687Y021963D02*
X000360Y021963D01*
X000360Y021904D02*
X000663Y021904D01*
X000639Y021846D02*
X000360Y021846D01*
X000360Y021787D02*
X000620Y021787D01*
X000620Y021729D02*
X000360Y021729D01*
X000360Y021670D02*
X000620Y021670D01*
X000620Y021612D02*
X000360Y021612D01*
X000360Y021553D02*
X000620Y021553D01*
X000633Y021495D02*
X000360Y021495D01*
X000360Y021436D02*
X000657Y021436D01*
X000681Y021378D02*
X000360Y021378D01*
X000360Y021319D02*
X000705Y021319D01*
X000735Y021261D02*
X000360Y021261D01*
X000360Y021202D02*
X000794Y021202D01*
X000852Y021144D02*
X000360Y021144D01*
X000360Y021085D02*
X000911Y021085D01*
X001039Y021027D02*
X000360Y021027D01*
X001174Y012933D02*
X000920Y012827D01*
X000725Y012633D01*
X000620Y012378D01*
X000620Y012103D01*
X000725Y011849D01*
X000920Y011654D01*
X001174Y011549D01*
X001449Y011549D01*
X001704Y011654D01*
X001898Y011849D01*
X002004Y012103D01*
X002004Y012378D01*
X001898Y012633D01*
X001704Y012827D01*
X001449Y012933D01*
X001174Y012933D01*
X001084Y012895D02*
X000360Y012895D01*
X000360Y012837D02*
X000943Y012837D01*
X000871Y012778D02*
X000360Y012778D01*
X000360Y012720D02*
X000813Y012720D01*
X000754Y012661D02*
X000360Y012661D01*
X000360Y012603D02*
X000713Y012603D01*
X000689Y012544D02*
X000360Y012544D01*
X000360Y012486D02*
X000665Y012486D01*
X000640Y012427D02*
X000360Y012427D01*
X000360Y012369D02*
X000620Y012369D01*
X000620Y012310D02*
X000360Y012310D01*
X000360Y012252D02*
X000620Y012252D01*
X000620Y012193D02*
X000360Y012193D01*
X000360Y012135D02*
X000620Y012135D01*
X000631Y012076D02*
X000360Y012076D01*
X000360Y012018D02*
X000655Y012018D01*
X000680Y011959D02*
X000360Y011959D01*
X000360Y011901D02*
X000704Y011901D01*
X000732Y011842D02*
X000360Y011842D01*
X000360Y011784D02*
X000790Y011784D01*
X000849Y011725D02*
X000360Y011725D01*
X000360Y011667D02*
X000907Y011667D01*
X001031Y011608D02*
X000360Y011608D01*
X000360Y011550D02*
X001172Y011550D01*
X001452Y011550D02*
X010700Y011550D01*
X010559Y011608D02*
X001593Y011608D01*
X001716Y011667D02*
X010435Y011667D01*
X010377Y011725D02*
X001775Y011725D01*
X001833Y011784D02*
X010318Y011784D01*
X010260Y011842D02*
X001892Y011842D01*
X001920Y011901D02*
X010231Y011901D01*
X010207Y011959D02*
X001944Y011959D01*
X001968Y012018D02*
X010183Y012018D01*
X010159Y012076D02*
X001993Y012076D01*
X002004Y012135D02*
X010148Y012135D01*
X010148Y012193D02*
X002004Y012193D01*
X002004Y012252D02*
X010148Y012252D01*
X010148Y012310D02*
X002004Y012310D01*
X002004Y012369D02*
X010148Y012369D01*
X010168Y012427D02*
X001983Y012427D01*
X001959Y012486D02*
X010192Y012486D01*
X010216Y012544D02*
X001935Y012544D01*
X001911Y012603D02*
X010241Y012603D01*
X010282Y012661D02*
X001870Y012661D01*
X001811Y012720D02*
X010340Y012720D01*
X010399Y012778D02*
X001753Y012778D01*
X001681Y012837D02*
X010471Y012837D01*
X010612Y012895D02*
X001539Y012895D01*
X000360Y008449D02*
X003401Y008449D01*
X003466Y008476D02*
X003229Y008378D01*
X003049Y008197D01*
X002951Y007961D01*
X002951Y007706D01*
X003049Y007469D01*
X003229Y007289D01*
X003466Y007191D01*
X003721Y007191D01*
X003957Y007289D01*
X004138Y007469D01*
X004236Y007706D01*
X004236Y007961D01*
X004138Y008197D01*
X003957Y008378D01*
X003721Y008476D01*
X003466Y008476D01*
X003260Y008391D02*
X000360Y008391D01*
X000360Y008332D02*
X003184Y008332D01*
X003125Y008274D02*
X000360Y008274D01*
X000360Y008215D02*
X003067Y008215D01*
X003032Y008157D02*
X000360Y008157D01*
X000360Y008098D02*
X003008Y008098D01*
X002983Y008040D02*
X000360Y008040D01*
X000360Y007981D02*
X002959Y007981D01*
X002951Y007923D02*
X000360Y007923D01*
X000360Y007864D02*
X002951Y007864D01*
X002951Y007806D02*
X000360Y007806D01*
X000360Y007747D02*
X002951Y007747D01*
X002958Y007689D02*
X000360Y007689D01*
X000360Y007630D02*
X002982Y007630D01*
X003006Y007572D02*
X000360Y007572D01*
X000360Y007513D02*
X003030Y007513D01*
X003063Y007455D02*
X000360Y007455D01*
X000360Y007396D02*
X003122Y007396D01*
X003180Y007338D02*
X000360Y007338D01*
X000360Y007279D02*
X003252Y007279D01*
X003393Y007221D02*
X000360Y007221D01*
X000360Y007162D02*
X003867Y007162D01*
X003808Y007104D02*
X000360Y007104D01*
X000360Y007045D02*
X003750Y007045D01*
X003691Y006987D02*
X000360Y006987D01*
X000360Y006928D02*
X003633Y006928D01*
X003645Y006770D02*
X005023Y008148D01*
X006456Y008148D01*
X007558Y007046D01*
X007742Y007338D02*
X008353Y007338D01*
X008295Y007396D02*
X007377Y007396D01*
X007319Y007455D02*
X008236Y007455D01*
X008204Y007513D02*
X007260Y007513D01*
X007202Y007572D02*
X008179Y007572D01*
X008155Y007630D02*
X007143Y007630D01*
X007085Y007689D02*
X008131Y007689D01*
X008124Y007747D02*
X007026Y007747D01*
X006968Y007806D02*
X008124Y007806D01*
X008124Y007864D02*
X006909Y007864D01*
X006851Y007923D02*
X008124Y007923D01*
X008132Y007981D02*
X006792Y007981D01*
X006734Y008040D02*
X008157Y008040D01*
X008181Y008098D02*
X006675Y008098D01*
X006617Y008157D02*
X008205Y008157D01*
X008240Y008215D02*
X006558Y008215D01*
X006453Y007981D02*
X005025Y007981D01*
X004967Y007923D02*
X006511Y007923D01*
X006570Y007864D02*
X004908Y007864D01*
X004850Y007806D02*
X006628Y007806D01*
X006687Y007747D02*
X004791Y007747D01*
X004733Y007689D02*
X006745Y007689D01*
X006804Y007630D02*
X004674Y007630D01*
X004616Y007572D02*
X006862Y007572D01*
X006921Y007513D02*
X004557Y007513D01*
X004499Y007455D02*
X006979Y007455D01*
X006797Y006753D02*
X006755Y006753D01*
X006726Y006694D02*
X006477Y006694D01*
X006516Y006636D02*
X006674Y006636D01*
X006650Y006577D02*
X006541Y006577D01*
X006555Y006519D02*
X006627Y006519D01*
X006327Y006811D02*
X006314Y006811D01*
X005844Y006636D02*
X005686Y006636D01*
X005710Y006577D02*
X005819Y006577D01*
X005805Y006519D02*
X005733Y006519D01*
X005491Y006870D02*
X005097Y006870D01*
X005121Y006928D02*
X005467Y006928D01*
X005446Y006987D02*
X005142Y006987D01*
X005142Y007045D02*
X005446Y007045D01*
X005446Y007104D02*
X005142Y007104D01*
X005122Y007162D02*
X005467Y007162D01*
X005491Y007221D02*
X005098Y007221D01*
X005049Y007279D02*
X005539Y007279D01*
X005603Y007338D02*
X004986Y007338D01*
X004802Y007046D02*
X005003Y006766D01*
X004412Y006168D02*
X002582Y006168D01*
X002640Y006226D02*
X004353Y006226D01*
X004308Y006285D02*
X002699Y006285D01*
X002757Y006343D02*
X004284Y006343D01*
X004265Y006402D02*
X002816Y006402D01*
X002874Y006460D02*
X004265Y006460D01*
X004265Y006519D02*
X002933Y006519D01*
X002991Y006577D02*
X004288Y006577D01*
X004312Y006636D02*
X003050Y006636D01*
X003015Y006770D02*
X003645Y006770D01*
X003738Y006694D02*
X004363Y006694D01*
X003925Y007221D02*
X003794Y007221D01*
X003935Y007279D02*
X003984Y007279D01*
X004007Y007338D02*
X004042Y007338D01*
X004065Y007396D02*
X004101Y007396D01*
X004124Y007455D02*
X004159Y007455D01*
X004156Y007513D02*
X004218Y007513D01*
X004181Y007572D02*
X004276Y007572D01*
X004335Y007630D02*
X004205Y007630D01*
X004229Y007689D02*
X004393Y007689D01*
X004452Y007747D02*
X004236Y007747D01*
X004236Y007806D02*
X004510Y007806D01*
X004569Y007864D02*
X004236Y007864D01*
X004236Y007923D02*
X004627Y007923D01*
X004686Y007981D02*
X004228Y007981D01*
X004203Y008040D02*
X004744Y008040D01*
X004803Y008098D02*
X004179Y008098D01*
X004155Y008157D02*
X004861Y008157D01*
X004920Y008215D02*
X004120Y008215D01*
X004062Y008274D02*
X008298Y008274D01*
X008357Y008332D02*
X004003Y008332D01*
X003927Y008391D02*
X008433Y008391D01*
X008575Y008449D02*
X003785Y008449D01*
X002944Y006870D02*
X000360Y006870D01*
X000360Y006811D02*
X002886Y006811D01*
X002827Y006753D02*
X000360Y006753D01*
X000360Y006694D02*
X002769Y006694D01*
X002710Y006636D02*
X000360Y006636D01*
X000360Y006577D02*
X002652Y006577D01*
X002593Y006519D02*
X000360Y006519D01*
X000360Y006460D02*
X002535Y006460D01*
X002476Y006402D02*
X000360Y006402D01*
X000360Y006343D02*
X002418Y006343D01*
X002359Y006285D02*
X000360Y006285D01*
X000360Y006226D02*
X002301Y006226D01*
X002242Y006168D02*
X000360Y006168D01*
X000360Y006109D02*
X002184Y006109D01*
X002125Y006051D02*
X000360Y006051D01*
X000360Y005992D02*
X002067Y005992D01*
X002008Y005934D02*
X000360Y005934D01*
X000360Y005875D02*
X001950Y005875D01*
X001891Y005817D02*
X000360Y005817D01*
X000360Y005758D02*
X001833Y005758D01*
X001774Y005700D02*
X000360Y005700D01*
X000360Y005641D02*
X001716Y005641D01*
X001657Y005583D02*
X000360Y005583D01*
X000360Y005524D02*
X001599Y005524D01*
X001540Y005466D02*
X000360Y005466D01*
X000360Y005407D02*
X001254Y005407D01*
X001215Y005349D02*
X000360Y005349D01*
X000360Y005290D02*
X001215Y005290D01*
X001215Y005232D02*
X000360Y005232D01*
X000360Y005173D02*
X001215Y005173D01*
X001215Y005115D02*
X000360Y005115D01*
X000360Y005056D02*
X001215Y005056D01*
X001240Y004998D02*
X000360Y004998D01*
X000360Y004588D02*
X004516Y004588D01*
X004560Y004598D02*
X004560Y004598D01*
X004348Y004550D02*
X004348Y004550D01*
X004323Y004530D02*
X000360Y004530D01*
X000360Y004471D02*
X004250Y004471D01*
X004178Y004413D02*
X000360Y004413D01*
X000360Y004354D02*
X004150Y004354D01*
X004121Y004296D02*
X000360Y004296D01*
X000882Y004237D02*
X004093Y004237D01*
X004085Y004179D02*
X000999Y004179D01*
X000982Y004196D02*
X000982Y004196D01*
X001058Y004120D02*
X004085Y004120D01*
X004085Y004062D02*
X001116Y004062D01*
X001121Y004057D02*
X001121Y004057D01*
X001143Y004003D02*
X004085Y004003D01*
X004085Y003945D02*
X001168Y003945D01*
X001192Y003886D02*
X001236Y003886D01*
X001222Y003828D02*
X001197Y003828D01*
X001624Y003886D02*
X001866Y003886D01*
X001852Y003828D02*
X001638Y003828D01*
X001638Y003769D02*
X001852Y003769D01*
X001852Y003711D02*
X001638Y003711D01*
X001638Y003652D02*
X001852Y003652D01*
X001440Y005196D02*
X003015Y006770D01*
X003829Y003886D02*
X004085Y003886D01*
X004085Y003828D02*
X003843Y003828D01*
X005035Y003828D02*
X005316Y003828D01*
X005316Y003769D02*
X005121Y003769D01*
X005121Y003711D02*
X005316Y003711D01*
X005316Y003652D02*
X005121Y003652D01*
X005035Y003886D02*
X005330Y003886D01*
X007854Y007221D02*
X008566Y007221D01*
X008425Y007279D02*
X007805Y007279D01*
X011144Y021085D02*
X011811Y021085D01*
X011811Y021144D02*
X011286Y021144D01*
X011370Y021202D02*
X011811Y021202D01*
X011811Y021261D02*
X011428Y021261D01*
X011487Y021319D02*
X011811Y021319D01*
X011811Y021378D02*
X011533Y021378D01*
X011557Y021436D02*
X011811Y021436D01*
X011811Y021495D02*
X011582Y021495D01*
X011606Y021553D02*
X011811Y021553D01*
X011811Y021612D02*
X011630Y021612D01*
X011630Y021670D02*
X011811Y021670D01*
X011811Y021729D02*
X011630Y021729D01*
X011630Y021787D02*
X011811Y021787D01*
X011811Y021846D02*
X011630Y021846D01*
X011622Y021904D02*
X011811Y021904D01*
X011811Y021963D02*
X011598Y021963D01*
X011574Y022021D02*
X011811Y022021D01*
X011811Y022080D02*
X011549Y022080D01*
X011525Y022138D02*
X011811Y022138D01*
X011811Y022197D02*
X011468Y022197D01*
X011410Y022255D02*
X011811Y022255D01*
X011811Y022314D02*
X011351Y022314D01*
D15*
X004550Y008385D03*
X006145Y007597D03*
X006479Y005510D03*
X006952Y004251D03*
X007818Y008286D03*
X009314Y004408D03*
X002385Y004251D03*
D16*
X001440Y005196D03*
M02*
