G75*
%MOIN*%
%OFA0B0*%
%FSLAX24Y24*%
%IPPOS*%
%LPD*%
%AMOC8*
5,1,8,0,0,1.08239X$1,22.5*
%
%ADD10R,0.0296X0.1064*%
%ADD11R,0.2343X1.1280*%
%ADD12R,0.2343X1.1399*%
%ADD13C,0.1084*%
%ADD14C,0.0560*%
%ADD15C,0.0985*%
%ADD16C,0.0436*%
%ADD17R,0.0330X0.0330*%
D10*
X001430Y003333D03*
X001745Y003333D03*
X002060Y003333D03*
X002375Y003333D03*
X002690Y003333D03*
X003005Y003333D03*
X003320Y003333D03*
X003635Y003333D03*
X005210Y003333D03*
X005524Y003333D03*
X005839Y003333D03*
X006154Y003333D03*
X006469Y003333D03*
X006784Y003333D03*
X007099Y003333D03*
X007414Y003333D03*
X007729Y003333D03*
X008044Y003333D03*
X008359Y003333D03*
X008674Y003333D03*
X008989Y003333D03*
X009304Y003333D03*
X009619Y003333D03*
X009934Y003333D03*
X010249Y003333D03*
X010564Y003333D03*
D11*
X001312Y016768D03*
D12*
X010839Y016768D03*
D13*
X010839Y012241D03*
X010938Y021749D03*
X001312Y021663D03*
X001312Y012241D03*
D14*
X004605Y006455D03*
X004802Y007046D03*
X005393Y006455D03*
X005786Y007046D03*
X006180Y006455D03*
X006574Y007046D03*
X006967Y006455D03*
X007558Y007046D03*
X007755Y006455D03*
D15*
X008767Y007833D03*
X003593Y007833D03*
D16*
X004550Y008385D03*
X006145Y007597D03*
X006479Y005510D03*
X006952Y004251D03*
X007818Y008286D03*
X009314Y004408D03*
X002385Y004251D03*
D17*
X001440Y005196D03*
M02*
