G75*
%MOIN*%
%OFA0B0*%
%FSLAX24Y24*%
%IPPOS*%
%LPD*%
%AMOC8*
5,1,8,0,0,1.08239X$1,22.5*
%
%ADD10R,0.0236X0.1004*%
%ADD11R,0.2283X1.1220*%
%ADD12R,0.2283X1.1339*%
%ADD13C,0.0500*%
%ADD14C,0.0060*%
%ADD15C,0.0376*%
%ADD16R,0.0270X0.0270*%
D10*
X001430Y003333D03*
X001745Y003333D03*
X002060Y003333D03*
X002375Y003333D03*
X002690Y003333D03*
X003005Y003333D03*
X003320Y003333D03*
X003635Y003333D03*
X005210Y003333D03*
X005524Y003333D03*
X005839Y003333D03*
X006154Y003333D03*
X006469Y003333D03*
X006784Y003333D03*
X007099Y003333D03*
X007414Y003333D03*
X007729Y003333D03*
X008044Y003333D03*
X008359Y003333D03*
X008674Y003333D03*
X008989Y003333D03*
X009304Y003333D03*
X009619Y003333D03*
X009934Y003333D03*
X010249Y003333D03*
X010564Y003333D03*
D11*
X001312Y016768D03*
D12*
X010839Y016768D03*
D13*
X007558Y007046D03*
X007755Y006455D03*
X006967Y006455D03*
X006574Y007046D03*
X006180Y006455D03*
X005786Y007046D03*
X005393Y006455D03*
X004802Y007046D03*
X004605Y006455D03*
D14*
X004605Y006471D01*
X004806Y006672D01*
X004904Y006672D01*
X005003Y006573D01*
X005003Y005674D01*
X004880Y005551D01*
X004634Y005551D01*
X003882Y006303D01*
X003882Y006844D01*
X004634Y007596D01*
X004904Y007596D01*
X004904Y007716D02*
X004584Y007716D01*
X003762Y006894D01*
X003762Y006253D01*
X004584Y005431D01*
X004929Y005431D01*
X005393Y005894D01*
X005393Y006455D01*
X005513Y006137D02*
X005585Y006167D01*
X005668Y006250D01*
X005922Y005995D01*
X005145Y005218D01*
X003540Y005218D01*
X003023Y004701D01*
X002953Y004630D01*
X002953Y004163D01*
X002885Y004095D01*
X002885Y003925D01*
X002849Y003925D01*
X002797Y003873D01*
X002797Y003621D01*
X002268Y003621D01*
X002268Y003873D01*
X002215Y003925D01*
X001905Y003925D01*
X001902Y003923D01*
X001900Y003925D01*
X001590Y003925D01*
X001587Y003923D01*
X001585Y003925D01*
X001560Y003925D01*
X001560Y004971D01*
X001612Y004971D01*
X001665Y005023D01*
X001665Y005368D01*
X001612Y005421D01*
X001268Y005421D01*
X001215Y005368D01*
X001215Y005023D01*
X001268Y004971D01*
X001320Y004971D01*
X001320Y003925D01*
X001275Y003925D01*
X001222Y003873D01*
X001222Y003806D01*
X001197Y003806D01*
X001197Y003875D01*
X001121Y004057D01*
X000982Y004196D01*
X000800Y004271D01*
X000360Y004271D01*
X000360Y022338D01*
X001135Y022338D01*
X000920Y022249D01*
X000725Y022055D01*
X000620Y021800D01*
X000620Y021525D01*
X000725Y021271D01*
X000920Y021076D01*
X001174Y020971D01*
X001449Y020971D01*
X001704Y021076D01*
X001898Y021271D01*
X002004Y021525D01*
X002004Y021800D01*
X001898Y022055D01*
X001704Y022249D01*
X001489Y022338D01*
X010554Y022338D01*
X010546Y022335D01*
X010351Y022141D01*
X010246Y021886D01*
X010246Y021611D01*
X010351Y021357D01*
X010546Y021162D01*
X010800Y021057D01*
X011075Y021057D01*
X011330Y021162D01*
X011524Y021357D01*
X011630Y021611D01*
X011630Y021886D01*
X011524Y022141D01*
X011330Y022335D01*
X011322Y022338D01*
X011811Y022338D01*
X011811Y013467D01*
X011801Y013457D01*
X011801Y004271D01*
X011351Y004271D01*
X011169Y004196D01*
X011030Y004057D01*
X011030Y004057D01*
X010955Y003875D01*
X010955Y003806D01*
X010772Y003806D01*
X010772Y003873D01*
X010719Y003925D01*
X010408Y003925D01*
X010406Y003923D01*
X010404Y003925D01*
X010094Y003925D01*
X010091Y003923D01*
X010089Y003925D01*
X009779Y003925D01*
X009776Y003923D01*
X009774Y003925D01*
X009464Y003925D01*
X009411Y003873D01*
X009411Y003621D01*
X009197Y003621D01*
X009197Y003873D01*
X009144Y003925D01*
X008834Y003925D01*
X008832Y003923D01*
X008829Y003925D01*
X008519Y003925D01*
X008466Y003873D01*
X008466Y003621D01*
X007938Y003621D01*
X007938Y004136D01*
X008361Y004559D01*
X008431Y004629D01*
X008431Y007239D01*
X007904Y007766D01*
X007833Y007836D01*
X007478Y007836D01*
X007478Y007914D01*
X007386Y008074D01*
X007226Y008166D01*
X005142Y008166D01*
X004982Y008074D01*
X004982Y008074D01*
X004982Y008074D01*
X004889Y007914D01*
X004889Y007836D01*
X004535Y007836D01*
X003712Y007014D01*
X003642Y006943D01*
X003642Y006204D01*
X003712Y006133D01*
X004464Y005381D01*
X004535Y005311D01*
X004979Y005311D01*
X005442Y005774D01*
X005513Y005844D01*
X005513Y006137D01*
X005513Y006109D02*
X005808Y006109D01*
X005867Y006051D02*
X005513Y006051D01*
X005513Y005992D02*
X005919Y005992D01*
X005861Y005934D02*
X005513Y005934D01*
X005513Y005875D02*
X005802Y005875D01*
X005744Y005817D02*
X005485Y005817D01*
X005427Y005758D02*
X005685Y005758D01*
X005627Y005700D02*
X005368Y005700D01*
X005310Y005641D02*
X005568Y005641D01*
X005510Y005583D02*
X005251Y005583D01*
X005193Y005524D02*
X005451Y005524D01*
X005393Y005466D02*
X005134Y005466D01*
X005075Y005407D02*
X005334Y005407D01*
X005276Y005349D02*
X005017Y005349D01*
X005159Y005232D02*
X001665Y005232D01*
X001665Y005290D02*
X005217Y005290D01*
X005195Y005098D02*
X003590Y005098D01*
X003073Y004581D01*
X003073Y004113D01*
X003005Y004045D01*
X003005Y003333D01*
X002797Y003652D02*
X002268Y003652D01*
X002268Y003711D02*
X002797Y003711D01*
X002797Y003769D02*
X002268Y003769D01*
X002268Y003828D02*
X002797Y003828D01*
X002810Y003886D02*
X002254Y003886D01*
X002885Y003945D02*
X001560Y003945D01*
X001560Y004003D02*
X002885Y004003D01*
X002885Y004062D02*
X001560Y004062D01*
X001560Y004120D02*
X002911Y004120D01*
X002953Y004179D02*
X001560Y004179D01*
X001560Y004237D02*
X002953Y004237D01*
X002953Y004296D02*
X001560Y004296D01*
X001560Y004354D02*
X002953Y004354D01*
X002953Y004413D02*
X001560Y004413D01*
X001560Y004471D02*
X002953Y004471D01*
X002953Y004530D02*
X001560Y004530D01*
X001560Y004588D02*
X002953Y004588D01*
X002969Y004647D02*
X001560Y004647D01*
X001560Y004705D02*
X003028Y004705D01*
X003086Y004764D02*
X001560Y004764D01*
X001560Y004822D02*
X003145Y004822D01*
X003203Y004881D02*
X001560Y004881D01*
X001560Y004939D02*
X003262Y004939D01*
X003320Y004998D02*
X001639Y004998D01*
X001665Y005056D02*
X003379Y005056D01*
X003437Y005115D02*
X001665Y005115D01*
X001665Y005173D02*
X003496Y005173D01*
X003640Y004978D02*
X003193Y004531D01*
X003193Y004113D01*
X003320Y003986D01*
X003320Y003333D01*
X003528Y003621D02*
X003528Y003873D01*
X003475Y003925D01*
X003440Y003925D01*
X003440Y004036D01*
X003313Y004163D01*
X003313Y004481D01*
X003690Y004858D01*
X005294Y004858D01*
X005364Y004928D01*
X006623Y006188D01*
X006689Y006253D01*
X006775Y006167D01*
X006900Y006115D01*
X007035Y006115D01*
X007047Y006120D01*
X007185Y005982D01*
X007185Y005467D01*
X006152Y004433D01*
X006152Y004064D01*
X006034Y003947D01*
X006034Y003925D01*
X005999Y003925D01*
X005946Y003873D01*
X005946Y003621D01*
X005733Y003621D01*
X005733Y003873D01*
X005680Y003925D01*
X005369Y003925D01*
X005367Y003923D01*
X005365Y003925D01*
X005054Y003925D01*
X005035Y003906D01*
X005035Y004219D01*
X004941Y004415D01*
X004771Y004550D01*
X004560Y004598D01*
X004348Y004550D01*
X004179Y004415D01*
X004179Y004415D01*
X004179Y004415D01*
X004085Y004219D01*
X004085Y003806D01*
X003740Y003806D01*
X003723Y003789D01*
X003723Y003621D01*
X003528Y003621D01*
X003528Y003652D02*
X003723Y003652D01*
X003723Y003711D02*
X003528Y003711D01*
X003528Y003769D02*
X003723Y003769D01*
X003528Y003828D02*
X004085Y003828D01*
X004085Y003886D02*
X003514Y003886D01*
X003440Y003945D02*
X004085Y003945D01*
X004085Y004003D02*
X003440Y004003D01*
X003413Y004062D02*
X004085Y004062D01*
X004085Y004120D02*
X003355Y004120D01*
X003313Y004179D02*
X004085Y004179D01*
X004093Y004237D02*
X003313Y004237D01*
X003313Y004296D02*
X004121Y004296D01*
X004150Y004354D02*
X003313Y004354D01*
X003313Y004413D02*
X004178Y004413D01*
X004250Y004471D02*
X003313Y004471D01*
X003361Y004530D02*
X004323Y004530D01*
X004348Y004550D02*
X004348Y004550D01*
X004516Y004588D02*
X003420Y004588D01*
X003478Y004647D02*
X006365Y004647D01*
X006423Y004705D02*
X003537Y004705D01*
X003595Y004764D02*
X006482Y004764D01*
X006540Y004822D02*
X003654Y004822D01*
X003640Y004978D02*
X005244Y004978D01*
X006574Y006308D01*
X006574Y007046D01*
X006757Y007338D02*
X007374Y007338D01*
X007365Y007334D02*
X007270Y007239D01*
X007218Y007114D01*
X007218Y006978D01*
X007270Y006853D01*
X007365Y006758D01*
X007490Y006706D01*
X007525Y006706D01*
X007467Y006648D01*
X007415Y006523D01*
X007415Y006388D01*
X007467Y006263D01*
X007476Y006253D01*
X007365Y006142D01*
X007355Y006152D01*
X007250Y006257D01*
X007256Y006263D01*
X007307Y006388D01*
X007307Y006523D01*
X007256Y006648D01*
X007160Y006744D01*
X007035Y006795D01*
X006900Y006795D01*
X006775Y006744D01*
X006694Y006663D01*
X006694Y006728D01*
X006766Y006758D01*
X006862Y006853D01*
X006914Y006978D01*
X006914Y007114D01*
X006862Y007239D01*
X006766Y007334D01*
X006641Y007386D01*
X006506Y007386D01*
X006381Y007334D01*
X006285Y007239D01*
X006234Y007114D01*
X006234Y006978D01*
X006285Y006853D01*
X006337Y006802D01*
X006291Y006821D01*
X006217Y006835D01*
X006210Y006835D01*
X006210Y006485D01*
X006150Y006485D01*
X006150Y006835D01*
X006143Y006835D01*
X006069Y006821D01*
X006023Y006802D01*
X006075Y006853D01*
X006126Y006978D01*
X006126Y007114D01*
X006075Y007239D01*
X005979Y007334D01*
X005854Y007386D01*
X005719Y007386D01*
X005594Y007334D01*
X005498Y007239D01*
X005446Y007114D01*
X005446Y006978D01*
X005498Y006853D01*
X005594Y006758D01*
X005666Y006728D01*
X005666Y006663D01*
X005585Y006744D01*
X005460Y006795D01*
X005325Y006795D01*
X005200Y006744D01*
X005104Y006648D01*
X005103Y006644D01*
X005024Y006722D01*
X004990Y006756D01*
X004995Y006758D01*
X005090Y006853D01*
X005142Y006978D01*
X005142Y007114D01*
X005090Y007239D01*
X004995Y007334D01*
X004870Y007386D01*
X004734Y007386D01*
X004609Y007334D01*
X004514Y007239D01*
X004462Y007114D01*
X004462Y006978D01*
X004514Y006853D01*
X004572Y006795D01*
X004538Y006795D01*
X004413Y006744D01*
X004317Y006648D01*
X004265Y006523D01*
X004265Y006388D01*
X004317Y006263D01*
X004413Y006167D01*
X004538Y006115D01*
X004673Y006115D01*
X004798Y006167D01*
X004883Y006252D01*
X004883Y005724D01*
X004830Y005671D01*
X004684Y005671D01*
X004002Y006353D01*
X004002Y006794D01*
X004684Y007476D01*
X004997Y007476D01*
X005157Y007569D01*
X005249Y007729D01*
X005249Y007806D01*
X007118Y007806D01*
X007118Y007729D01*
X007211Y007569D01*
X007371Y007476D01*
X007684Y007476D01*
X008071Y007089D01*
X008071Y006581D01*
X008043Y006648D01*
X007947Y006744D01*
X007822Y006795D01*
X007788Y006795D01*
X007846Y006853D01*
X007898Y006978D01*
X007898Y007114D01*
X007846Y007239D01*
X007751Y007334D01*
X007626Y007386D01*
X007490Y007386D01*
X007365Y007334D01*
X007311Y007279D02*
X006821Y007279D01*
X006869Y007221D02*
X007262Y007221D01*
X007238Y007162D02*
X006893Y007162D01*
X006914Y007104D02*
X007218Y007104D01*
X007218Y007045D02*
X006914Y007045D01*
X006914Y006987D02*
X007218Y006987D01*
X007239Y006928D02*
X006893Y006928D01*
X006869Y006870D02*
X007263Y006870D01*
X007312Y006811D02*
X006820Y006811D01*
X006797Y006753D02*
X006755Y006753D01*
X006726Y006694D02*
X006694Y006694D01*
X006716Y006226D02*
X006662Y006226D01*
X006604Y006168D02*
X006774Y006168D01*
X006545Y006109D02*
X007058Y006109D01*
X007117Y006051D02*
X006487Y006051D01*
X006428Y005992D02*
X007175Y005992D01*
X007185Y005934D02*
X006370Y005934D01*
X006311Y005875D02*
X007185Y005875D01*
X007185Y005817D02*
X006253Y005817D01*
X006194Y005758D02*
X007185Y005758D01*
X007185Y005700D02*
X006136Y005700D01*
X006077Y005641D02*
X007185Y005641D01*
X007185Y005583D02*
X006019Y005583D01*
X005960Y005524D02*
X007185Y005524D01*
X007184Y005466D02*
X005902Y005466D01*
X005843Y005407D02*
X007125Y005407D01*
X007067Y005349D02*
X005785Y005349D01*
X005726Y005290D02*
X007008Y005290D01*
X006950Y005232D02*
X005668Y005232D01*
X005609Y005173D02*
X006891Y005173D01*
X006833Y005115D02*
X005551Y005115D01*
X005492Y005056D02*
X006774Y005056D01*
X006716Y004998D02*
X005434Y004998D01*
X005375Y004939D02*
X006657Y004939D01*
X006599Y004881D02*
X005317Y004881D01*
X005195Y005098D02*
X006092Y005995D01*
X005786Y006301D01*
X005786Y007046D01*
X005603Y007338D02*
X004986Y007338D01*
X005049Y007279D02*
X005539Y007279D01*
X005491Y007221D02*
X005098Y007221D01*
X005122Y007162D02*
X005467Y007162D01*
X005446Y007104D02*
X005142Y007104D01*
X005142Y007045D02*
X005446Y007045D01*
X005446Y006987D02*
X005142Y006987D01*
X005121Y006928D02*
X005467Y006928D01*
X005491Y006870D02*
X005097Y006870D01*
X005048Y006811D02*
X005540Y006811D01*
X005563Y006753D02*
X005605Y006753D01*
X005634Y006694D02*
X005666Y006694D01*
X005644Y006226D02*
X005691Y006226D01*
X005750Y006168D02*
X005586Y006168D01*
X005151Y006694D02*
X005052Y006694D01*
X004993Y006753D02*
X005222Y006753D01*
X004883Y006226D02*
X004857Y006226D01*
X004883Y006168D02*
X004798Y006168D01*
X004883Y006109D02*
X004245Y006109D01*
X004304Y006051D02*
X004883Y006051D01*
X004883Y005992D02*
X004362Y005992D01*
X004421Y005934D02*
X004883Y005934D01*
X004883Y005875D02*
X004479Y005875D01*
X004538Y005817D02*
X004883Y005817D01*
X004883Y005758D02*
X004596Y005758D01*
X004655Y005700D02*
X004859Y005700D01*
X004497Y005349D02*
X001665Y005349D01*
X001625Y005407D02*
X004438Y005407D01*
X004464Y005381D02*
X004464Y005381D01*
X004380Y005466D02*
X000360Y005466D01*
X000360Y005524D02*
X004321Y005524D01*
X004263Y005583D02*
X000360Y005583D01*
X000360Y005641D02*
X004204Y005641D01*
X004146Y005700D02*
X000360Y005700D01*
X000360Y005758D02*
X004087Y005758D01*
X004029Y005817D02*
X000360Y005817D01*
X000360Y005875D02*
X003970Y005875D01*
X003912Y005934D02*
X000360Y005934D01*
X000360Y005992D02*
X003853Y005992D01*
X003795Y006051D02*
X000360Y006051D01*
X000360Y006109D02*
X003736Y006109D01*
X003712Y006133D02*
X003712Y006133D01*
X003678Y006168D02*
X000360Y006168D01*
X000360Y006226D02*
X003642Y006226D01*
X003642Y006285D02*
X000360Y006285D01*
X000360Y006343D02*
X003642Y006343D01*
X003642Y006402D02*
X000360Y006402D01*
X000360Y006460D02*
X003642Y006460D01*
X003642Y006519D02*
X000360Y006519D01*
X000360Y006577D02*
X003642Y006577D01*
X003642Y006636D02*
X000360Y006636D01*
X000360Y006694D02*
X003642Y006694D01*
X003642Y006753D02*
X000360Y006753D01*
X000360Y006811D02*
X003642Y006811D01*
X003642Y006870D02*
X000360Y006870D01*
X000360Y006928D02*
X003642Y006928D01*
X003685Y006987D02*
X000360Y006987D01*
X000360Y007045D02*
X003744Y007045D01*
X003802Y007104D02*
X000360Y007104D01*
X000360Y007162D02*
X003861Y007162D01*
X003919Y007221D02*
X003794Y007221D01*
X003721Y007191D02*
X003957Y007289D01*
X004138Y007469D01*
X004236Y007706D01*
X004236Y007961D01*
X004138Y008197D01*
X003957Y008378D01*
X003721Y008476D01*
X003466Y008476D01*
X003229Y008378D01*
X003049Y008197D01*
X002951Y007961D01*
X002951Y007706D01*
X003049Y007469D01*
X003229Y007289D01*
X003466Y007191D01*
X003721Y007191D01*
X003935Y007279D02*
X003978Y007279D01*
X004007Y007338D02*
X004036Y007338D01*
X004065Y007396D02*
X004095Y007396D01*
X004124Y007455D02*
X004153Y007455D01*
X004156Y007513D02*
X004212Y007513D01*
X004181Y007572D02*
X004270Y007572D01*
X004329Y007630D02*
X004205Y007630D01*
X004229Y007689D02*
X004387Y007689D01*
X004446Y007747D02*
X004236Y007747D01*
X004236Y007806D02*
X004504Y007806D01*
X004662Y007455D02*
X007705Y007455D01*
X007764Y007396D02*
X004604Y007396D01*
X004618Y007338D02*
X004545Y007338D01*
X004555Y007279D02*
X004487Y007279D01*
X004506Y007221D02*
X004428Y007221D01*
X004482Y007162D02*
X004370Y007162D01*
X004311Y007104D02*
X004462Y007104D01*
X004462Y007045D02*
X004253Y007045D01*
X004194Y006987D02*
X004462Y006987D01*
X004483Y006928D02*
X004136Y006928D01*
X004077Y006870D02*
X004507Y006870D01*
X004556Y006811D02*
X004019Y006811D01*
X004002Y006753D02*
X004435Y006753D01*
X004363Y006694D02*
X004002Y006694D01*
X004002Y006636D02*
X004312Y006636D01*
X004288Y006577D02*
X004002Y006577D01*
X004002Y006519D02*
X004265Y006519D01*
X004265Y006460D02*
X004002Y006460D01*
X004002Y006402D02*
X004265Y006402D01*
X004284Y006343D02*
X004011Y006343D01*
X004070Y006285D02*
X004308Y006285D01*
X004353Y006226D02*
X004128Y006226D01*
X004187Y006168D02*
X004412Y006168D01*
X005061Y007513D02*
X007307Y007513D01*
X007211Y007569D02*
X007211Y007569D01*
X007211Y007569D01*
X007209Y007572D02*
X005159Y007572D01*
X005157Y007569D02*
X005157Y007569D01*
X005157Y007569D01*
X005193Y007630D02*
X007175Y007630D01*
X007141Y007689D02*
X005226Y007689D01*
X005249Y007747D02*
X007118Y007747D01*
X007118Y007806D02*
X005249Y007806D01*
X005234Y007926D02*
X005216Y007924D01*
X005198Y007920D01*
X005182Y007912D01*
X005167Y007901D01*
X005154Y007888D01*
X005143Y007874D01*
X005135Y007857D01*
X005131Y007839D01*
X005129Y007821D01*
X005009Y007821D02*
X005011Y007848D01*
X005016Y007875D01*
X005024Y007901D01*
X005035Y007926D01*
X005049Y007949D01*
X005066Y007970D01*
X005085Y007989D01*
X005106Y008006D01*
X005129Y008020D01*
X005154Y008031D01*
X005180Y008039D01*
X005207Y008044D01*
X005234Y008046D01*
X007133Y008046D01*
X007133Y007926D02*
X005234Y007926D01*
X005126Y008157D02*
X004155Y008157D01*
X004179Y008098D02*
X005025Y008098D01*
X004962Y008040D02*
X004203Y008040D01*
X004228Y007981D02*
X004929Y007981D01*
X004895Y007923D02*
X004236Y007923D01*
X004236Y007864D02*
X004889Y007864D01*
X005129Y007821D02*
X005127Y007794D01*
X005122Y007767D01*
X005114Y007741D01*
X005103Y007716D01*
X005089Y007693D01*
X005072Y007672D01*
X005053Y007653D01*
X005032Y007636D01*
X005009Y007622D01*
X004984Y007611D01*
X004958Y007603D01*
X004931Y007598D01*
X004904Y007596D01*
X004904Y007716D02*
X004922Y007718D01*
X004940Y007722D01*
X004957Y007730D01*
X004971Y007741D01*
X004984Y007754D01*
X004995Y007769D01*
X005003Y007785D01*
X005007Y007803D01*
X005009Y007821D01*
X004120Y008215D02*
X008240Y008215D01*
X008222Y008197D02*
X008124Y007961D01*
X008124Y007706D01*
X008222Y007469D01*
X008403Y007289D01*
X008639Y007191D01*
X008894Y007191D01*
X009131Y007289D01*
X009311Y007469D01*
X009409Y007706D01*
X009409Y007961D01*
X009311Y008197D01*
X009131Y008378D01*
X008894Y008476D01*
X008639Y008476D01*
X008403Y008378D01*
X008222Y008197D01*
X008205Y008157D02*
X007242Y008157D01*
X007343Y008098D02*
X008181Y008098D01*
X008157Y008040D02*
X007406Y008040D01*
X007386Y008074D02*
X007386Y008074D01*
X007386Y008074D01*
X007439Y007981D02*
X008132Y007981D01*
X008124Y007923D02*
X007473Y007923D01*
X007478Y007864D02*
X008124Y007864D01*
X008124Y007806D02*
X007864Y007806D01*
X007922Y007747D02*
X008124Y007747D01*
X008131Y007689D02*
X007981Y007689D01*
X008039Y007630D02*
X008155Y007630D01*
X008179Y007572D02*
X008098Y007572D01*
X008156Y007513D02*
X008204Y007513D01*
X008215Y007455D02*
X008236Y007455D01*
X008273Y007396D02*
X008295Y007396D01*
X008332Y007338D02*
X008353Y007338D01*
X008390Y007279D02*
X008425Y007279D01*
X008431Y007221D02*
X008566Y007221D01*
X008431Y007162D02*
X011801Y007162D01*
X011801Y007104D02*
X008431Y007104D01*
X008431Y007045D02*
X011801Y007045D01*
X011801Y006987D02*
X008431Y006987D01*
X008431Y006928D02*
X011801Y006928D01*
X011801Y006870D02*
X008431Y006870D01*
X008431Y006811D02*
X011801Y006811D01*
X011801Y006753D02*
X008431Y006753D01*
X008431Y006694D02*
X011801Y006694D01*
X011801Y006636D02*
X008431Y006636D01*
X008431Y006577D02*
X011801Y006577D01*
X011801Y006519D02*
X008431Y006519D01*
X008431Y006460D02*
X011801Y006460D01*
X011801Y006402D02*
X008431Y006402D01*
X008431Y006343D02*
X011801Y006343D01*
X011801Y006285D02*
X008431Y006285D01*
X008431Y006226D02*
X011801Y006226D01*
X011801Y006168D02*
X008431Y006168D01*
X008431Y006109D02*
X011801Y006109D01*
X011801Y006051D02*
X008431Y006051D01*
X008431Y005992D02*
X011801Y005992D01*
X011801Y005934D02*
X008431Y005934D01*
X008431Y005875D02*
X011801Y005875D01*
X011801Y005817D02*
X008431Y005817D01*
X008431Y005758D02*
X011801Y005758D01*
X011801Y005700D02*
X008431Y005700D01*
X008431Y005641D02*
X011801Y005641D01*
X011801Y005583D02*
X008431Y005583D01*
X008431Y005524D02*
X011801Y005524D01*
X011801Y005466D02*
X008431Y005466D01*
X008431Y005407D02*
X011801Y005407D01*
X011801Y005349D02*
X008431Y005349D01*
X008431Y005290D02*
X011801Y005290D01*
X011801Y005232D02*
X008431Y005232D01*
X008431Y005173D02*
X011801Y005173D01*
X011801Y005115D02*
X008431Y005115D01*
X008431Y005056D02*
X011801Y005056D01*
X011801Y004998D02*
X008431Y004998D01*
X008431Y004939D02*
X011801Y004939D01*
X011801Y004881D02*
X008431Y004881D01*
X008431Y004822D02*
X011801Y004822D01*
X011801Y004764D02*
X008431Y004764D01*
X008431Y004705D02*
X011801Y004705D01*
X011801Y004647D02*
X008431Y004647D01*
X008390Y004588D02*
X011801Y004588D01*
X011801Y004530D02*
X008332Y004530D01*
X008361Y004559D02*
X008361Y004559D01*
X008273Y004471D02*
X011801Y004471D01*
X011801Y004413D02*
X008215Y004413D01*
X008156Y004354D02*
X011801Y004354D01*
X011801Y004296D02*
X008098Y004296D01*
X008039Y004237D02*
X011269Y004237D01*
X011169Y004196D02*
X011169Y004196D01*
X011152Y004179D02*
X007981Y004179D01*
X007938Y004120D02*
X011094Y004120D01*
X011035Y004062D02*
X007938Y004062D01*
X007938Y004003D02*
X011008Y004003D01*
X010984Y003945D02*
X007938Y003945D01*
X007938Y003886D02*
X008480Y003886D01*
X008466Y003828D02*
X007938Y003828D01*
X007938Y003769D02*
X008466Y003769D01*
X008466Y003711D02*
X007938Y003711D01*
X007938Y003652D02*
X008466Y003652D01*
X007818Y004185D02*
X008311Y004679D01*
X008311Y007189D01*
X007784Y007716D01*
X007463Y007716D01*
X007463Y007596D02*
X007436Y007598D01*
X007409Y007603D01*
X007383Y007611D01*
X007358Y007622D01*
X007335Y007636D01*
X007314Y007653D01*
X007295Y007672D01*
X007278Y007693D01*
X007264Y007716D01*
X007253Y007741D01*
X007245Y007767D01*
X007240Y007794D01*
X007238Y007821D01*
X007236Y007839D01*
X007232Y007857D01*
X007224Y007874D01*
X007213Y007888D01*
X007200Y007901D01*
X007186Y007912D01*
X007169Y007920D01*
X007151Y007924D01*
X007133Y007926D01*
X007133Y008046D02*
X007160Y008044D01*
X007187Y008039D01*
X007213Y008031D01*
X007238Y008020D01*
X007261Y008006D01*
X007282Y007989D01*
X007301Y007970D01*
X007318Y007949D01*
X007332Y007926D01*
X007343Y007901D01*
X007351Y007875D01*
X007356Y007848D01*
X007358Y007821D01*
X007360Y007803D01*
X007364Y007785D01*
X007372Y007769D01*
X007383Y007754D01*
X007396Y007741D01*
X007411Y007730D01*
X007427Y007722D01*
X007445Y007718D01*
X007463Y007716D01*
X007463Y007596D02*
X007734Y007596D01*
X008191Y007139D01*
X008191Y004728D01*
X008012Y004549D01*
X007821Y004372D01*
X007326Y003877D01*
X007326Y003422D01*
X007414Y003333D01*
X007206Y003621D02*
X006677Y003621D01*
X006677Y003873D01*
X006625Y003925D01*
X006589Y003925D01*
X006589Y003986D01*
X006519Y004057D01*
X006512Y004064D01*
X006512Y004284D01*
X007475Y005248D01*
X007545Y005318D01*
X007545Y005982D01*
X007681Y006118D01*
X007687Y006115D01*
X007822Y006115D01*
X007947Y006167D01*
X008043Y006263D01*
X008071Y006330D01*
X008071Y004778D01*
X007928Y004635D01*
X007774Y004492D01*
X007771Y004492D01*
X007738Y004458D01*
X007703Y004426D01*
X007703Y004423D01*
X007276Y003997D01*
X007206Y003926D01*
X007206Y003621D01*
X007206Y003652D02*
X006677Y003652D01*
X006677Y003711D02*
X007206Y003711D01*
X007206Y003769D02*
X006677Y003769D01*
X006677Y003828D02*
X007206Y003828D01*
X007206Y003886D02*
X006664Y003886D01*
X006589Y003945D02*
X007224Y003945D01*
X007283Y004003D02*
X006572Y004003D01*
X006519Y004057D02*
X006519Y004057D01*
X006514Y004062D02*
X007341Y004062D01*
X007400Y004120D02*
X006512Y004120D01*
X006512Y004179D02*
X007458Y004179D01*
X007517Y004237D02*
X006512Y004237D01*
X006523Y004296D02*
X007575Y004296D01*
X007634Y004354D02*
X006582Y004354D01*
X006640Y004413D02*
X007692Y004413D01*
X007751Y004471D02*
X006699Y004471D01*
X006757Y004530D02*
X007815Y004530D01*
X007878Y004588D02*
X006816Y004588D01*
X006874Y004647D02*
X007940Y004647D01*
X007998Y004705D02*
X006933Y004705D01*
X006991Y004764D02*
X008057Y004764D01*
X008071Y004822D02*
X007050Y004822D01*
X007108Y004881D02*
X008071Y004881D01*
X008071Y004939D02*
X007167Y004939D01*
X007225Y004998D02*
X008071Y004998D01*
X008071Y005056D02*
X007284Y005056D01*
X007342Y005115D02*
X008071Y005115D01*
X008071Y005173D02*
X007401Y005173D01*
X007459Y005232D02*
X008071Y005232D01*
X008071Y005290D02*
X007518Y005290D01*
X007545Y005349D02*
X008071Y005349D01*
X008071Y005407D02*
X007545Y005407D01*
X007545Y005466D02*
X008071Y005466D01*
X008071Y005524D02*
X007545Y005524D01*
X007545Y005583D02*
X008071Y005583D01*
X008071Y005641D02*
X007545Y005641D01*
X007545Y005700D02*
X008071Y005700D01*
X008071Y005758D02*
X007545Y005758D01*
X007545Y005817D02*
X008071Y005817D01*
X008071Y005875D02*
X007545Y005875D01*
X007545Y005934D02*
X008071Y005934D01*
X008071Y005992D02*
X007555Y005992D01*
X007613Y006051D02*
X008071Y006051D01*
X008071Y006109D02*
X007672Y006109D01*
X007450Y006226D02*
X007281Y006226D01*
X007265Y006285D02*
X007457Y006285D01*
X007433Y006343D02*
X007289Y006343D01*
X007307Y006402D02*
X007415Y006402D01*
X007415Y006460D02*
X007307Y006460D01*
X007307Y006519D02*
X007415Y006519D01*
X007437Y006577D02*
X007285Y006577D01*
X007261Y006636D02*
X007462Y006636D01*
X007513Y006694D02*
X007209Y006694D01*
X007138Y006753D02*
X007377Y006753D01*
X007391Y006168D02*
X007339Y006168D01*
X007305Y006032D02*
X007305Y005417D01*
X006272Y004384D01*
X006272Y004014D01*
X006154Y003897D01*
X006154Y003333D01*
X005946Y003652D02*
X005733Y003652D01*
X005733Y003711D02*
X005946Y003711D01*
X005946Y003769D02*
X005733Y003769D01*
X005733Y003828D02*
X005946Y003828D01*
X005960Y003886D02*
X005719Y003886D01*
X006034Y003945D02*
X005035Y003945D01*
X005035Y004003D02*
X006091Y004003D01*
X006149Y004062D02*
X005035Y004062D01*
X005035Y004120D02*
X006152Y004120D01*
X006152Y004179D02*
X005035Y004179D01*
X005027Y004237D02*
X006152Y004237D01*
X006152Y004296D02*
X004998Y004296D01*
X004970Y004354D02*
X006152Y004354D01*
X006152Y004413D02*
X004942Y004413D01*
X004941Y004415D02*
X004941Y004415D01*
X004870Y004471D02*
X006189Y004471D01*
X006248Y004530D02*
X004797Y004530D01*
X004771Y004550D02*
X004771Y004550D01*
X004604Y004588D02*
X006306Y004588D01*
X006392Y004334D02*
X007425Y005368D01*
X007425Y006032D01*
X007755Y006362D01*
X007755Y006455D01*
X008007Y006226D02*
X008071Y006226D01*
X008071Y006168D02*
X007948Y006168D01*
X008052Y006285D02*
X008071Y006285D01*
X008048Y006636D02*
X008071Y006636D01*
X008071Y006694D02*
X007997Y006694D01*
X007925Y006753D02*
X008071Y006753D01*
X008071Y006811D02*
X007804Y006811D01*
X007853Y006870D02*
X008071Y006870D01*
X008071Y006928D02*
X007877Y006928D01*
X007898Y006987D02*
X008071Y006987D01*
X008071Y007045D02*
X007898Y007045D01*
X007898Y007104D02*
X008056Y007104D01*
X007998Y007162D02*
X007878Y007162D01*
X007854Y007221D02*
X007939Y007221D01*
X007881Y007279D02*
X007805Y007279D01*
X007822Y007338D02*
X007742Y007338D01*
X008298Y008274D02*
X004062Y008274D01*
X004003Y008332D02*
X008357Y008332D01*
X008433Y008391D02*
X003927Y008391D01*
X003785Y008449D02*
X008575Y008449D01*
X008959Y008449D02*
X011801Y008449D01*
X011801Y008391D02*
X009100Y008391D01*
X009176Y008332D02*
X011801Y008332D01*
X011801Y008274D02*
X009235Y008274D01*
X009293Y008215D02*
X011801Y008215D01*
X011801Y008157D02*
X009328Y008157D01*
X009352Y008098D02*
X011801Y008098D01*
X011801Y008040D02*
X009377Y008040D01*
X009401Y007981D02*
X011801Y007981D01*
X011801Y007923D02*
X009409Y007923D01*
X009409Y007864D02*
X011801Y007864D01*
X011801Y007806D02*
X009409Y007806D01*
X009409Y007747D02*
X011801Y007747D01*
X011801Y007689D02*
X009402Y007689D01*
X009378Y007630D02*
X011801Y007630D01*
X011801Y007572D02*
X009354Y007572D01*
X009330Y007513D02*
X011801Y007513D01*
X011801Y007455D02*
X009297Y007455D01*
X009238Y007396D02*
X011801Y007396D01*
X011801Y007338D02*
X009180Y007338D01*
X009108Y007279D02*
X011801Y007279D01*
X011801Y007221D02*
X008967Y007221D01*
X007305Y006032D02*
X006967Y006370D01*
X006967Y006455D01*
X006390Y007338D02*
X005970Y007338D01*
X006034Y007279D02*
X006326Y007279D01*
X006278Y007221D02*
X006082Y007221D01*
X006106Y007162D02*
X006254Y007162D01*
X006234Y007104D02*
X006126Y007104D01*
X006126Y007045D02*
X006234Y007045D01*
X006234Y006987D02*
X006126Y006987D01*
X006106Y006928D02*
X006254Y006928D01*
X006279Y006870D02*
X006081Y006870D01*
X006046Y006811D02*
X006033Y006811D01*
X006150Y006811D02*
X006210Y006811D01*
X006210Y006753D02*
X006150Y006753D01*
X006150Y006694D02*
X006210Y006694D01*
X006210Y006636D02*
X006150Y006636D01*
X006150Y006577D02*
X006210Y006577D01*
X006210Y006519D02*
X006150Y006519D01*
X006314Y006811D02*
X006327Y006811D01*
X006392Y004334D02*
X006392Y004014D01*
X006469Y003937D01*
X006469Y003333D01*
X007729Y003333D02*
X007729Y003532D01*
X007818Y003621D01*
X007818Y004185D01*
X009183Y003886D02*
X009425Y003886D01*
X009411Y003828D02*
X009197Y003828D01*
X009197Y003769D02*
X009411Y003769D01*
X009411Y003711D02*
X009197Y003711D01*
X009197Y003652D02*
X009411Y003652D01*
X010758Y003886D02*
X010960Y003886D01*
X010955Y003828D02*
X010772Y003828D01*
X011801Y008508D02*
X000360Y008508D01*
X000360Y008566D02*
X011801Y008566D01*
X011801Y008625D02*
X000360Y008625D01*
X000360Y008683D02*
X011801Y008683D01*
X011801Y008742D02*
X000360Y008742D01*
X000360Y008800D02*
X011801Y008800D01*
X011801Y008859D02*
X000360Y008859D01*
X000360Y008917D02*
X011801Y008917D01*
X011801Y008976D02*
X000360Y008976D01*
X000360Y009034D02*
X011801Y009034D01*
X011801Y009093D02*
X000360Y009093D01*
X000360Y009151D02*
X011801Y009151D01*
X011801Y009210D02*
X000360Y009210D01*
X000360Y009268D02*
X011801Y009268D01*
X011801Y009327D02*
X000360Y009327D01*
X000360Y009385D02*
X011801Y009385D01*
X011801Y009444D02*
X000360Y009444D01*
X000360Y009502D02*
X011801Y009502D01*
X011801Y009561D02*
X000360Y009561D01*
X000360Y009619D02*
X011801Y009619D01*
X011801Y009678D02*
X000360Y009678D01*
X000360Y009736D02*
X011801Y009736D01*
X011801Y009795D02*
X000360Y009795D01*
X000360Y009853D02*
X011801Y009853D01*
X011801Y009912D02*
X000360Y009912D01*
X000360Y009970D02*
X011801Y009970D01*
X011801Y010029D02*
X000360Y010029D01*
X000360Y010087D02*
X011801Y010087D01*
X011801Y010146D02*
X000360Y010146D01*
X000360Y010204D02*
X011801Y010204D01*
X011801Y010263D02*
X000360Y010263D01*
X000360Y010321D02*
X011801Y010321D01*
X011801Y010380D02*
X000360Y010380D01*
X000360Y010438D02*
X011801Y010438D01*
X011801Y010497D02*
X000360Y010497D01*
X000360Y010555D02*
X011801Y010555D01*
X011801Y010614D02*
X000360Y010614D01*
X000360Y010672D02*
X011801Y010672D01*
X011801Y010731D02*
X000360Y010731D01*
X000360Y010789D02*
X011801Y010789D01*
X011801Y010848D02*
X000360Y010848D01*
X000360Y010906D02*
X011801Y010906D01*
X011801Y010965D02*
X000360Y010965D01*
X000360Y011023D02*
X011801Y011023D01*
X011801Y011082D02*
X000360Y011082D01*
X000360Y011140D02*
X011801Y011140D01*
X011801Y011199D02*
X000360Y011199D01*
X000360Y011257D02*
X011801Y011257D01*
X011801Y011316D02*
X000360Y011316D01*
X000360Y011374D02*
X011801Y011374D01*
X011801Y011433D02*
X000360Y011433D01*
X000360Y011491D02*
X011801Y011491D01*
X011801Y011550D02*
X010979Y011550D01*
X010977Y011549D02*
X011231Y011654D01*
X011426Y011849D01*
X011531Y012103D01*
X011531Y012378D01*
X011426Y012633D01*
X011231Y012827D01*
X010977Y012933D01*
X010702Y012933D01*
X010448Y012827D01*
X010253Y012633D01*
X010148Y012378D01*
X010148Y012103D01*
X010253Y011849D01*
X010448Y011654D01*
X010702Y011549D01*
X010977Y011549D01*
X011120Y011608D02*
X011801Y011608D01*
X011801Y011667D02*
X011244Y011667D01*
X011302Y011725D02*
X011801Y011725D01*
X011801Y011784D02*
X011361Y011784D01*
X011419Y011842D02*
X011801Y011842D01*
X011801Y011901D02*
X011447Y011901D01*
X011472Y011959D02*
X011801Y011959D01*
X011801Y012018D02*
X011496Y012018D01*
X011520Y012076D02*
X011801Y012076D01*
X011801Y012135D02*
X011531Y012135D01*
X011531Y012193D02*
X011801Y012193D01*
X011801Y012252D02*
X011531Y012252D01*
X011531Y012310D02*
X011801Y012310D01*
X011801Y012369D02*
X011531Y012369D01*
X011511Y012427D02*
X011801Y012427D01*
X011801Y012486D02*
X011487Y012486D01*
X011463Y012544D02*
X011801Y012544D01*
X011801Y012603D02*
X011438Y012603D01*
X011397Y012661D02*
X011801Y012661D01*
X011801Y012720D02*
X011339Y012720D01*
X011280Y012778D02*
X011801Y012778D01*
X011801Y012837D02*
X011208Y012837D01*
X011067Y012895D02*
X011801Y012895D01*
X011801Y012954D02*
X000360Y012954D01*
X000360Y013012D02*
X011801Y013012D01*
X011801Y013071D02*
X000360Y013071D01*
X000360Y013129D02*
X011801Y013129D01*
X011801Y013188D02*
X000360Y013188D01*
X000360Y013246D02*
X011801Y013246D01*
X011801Y013305D02*
X000360Y013305D01*
X000360Y013363D02*
X011801Y013363D01*
X011801Y013422D02*
X000360Y013422D01*
X000360Y013480D02*
X011811Y013480D01*
X011811Y013539D02*
X000360Y013539D01*
X000360Y013597D02*
X011811Y013597D01*
X011811Y013656D02*
X000360Y013656D01*
X000360Y013714D02*
X011811Y013714D01*
X011811Y013773D02*
X000360Y013773D01*
X000360Y013831D02*
X011811Y013831D01*
X011811Y013890D02*
X000360Y013890D01*
X000360Y013948D02*
X011811Y013948D01*
X011811Y014007D02*
X000360Y014007D01*
X000360Y014065D02*
X011811Y014065D01*
X011811Y014124D02*
X000360Y014124D01*
X000360Y014182D02*
X011811Y014182D01*
X011811Y014241D02*
X000360Y014241D01*
X000360Y014299D02*
X011811Y014299D01*
X011811Y014358D02*
X000360Y014358D01*
X000360Y014416D02*
X011811Y014416D01*
X011811Y014475D02*
X000360Y014475D01*
X000360Y014533D02*
X011811Y014533D01*
X011811Y014592D02*
X000360Y014592D01*
X000360Y014650D02*
X011811Y014650D01*
X011811Y014709D02*
X000360Y014709D01*
X000360Y014767D02*
X011811Y014767D01*
X011811Y014826D02*
X000360Y014826D01*
X000360Y014884D02*
X011811Y014884D01*
X011811Y014943D02*
X000360Y014943D01*
X000360Y015001D02*
X011811Y015001D01*
X011811Y015060D02*
X000360Y015060D01*
X000360Y015118D02*
X011811Y015118D01*
X011811Y015177D02*
X000360Y015177D01*
X000360Y015235D02*
X011811Y015235D01*
X011811Y015294D02*
X000360Y015294D01*
X000360Y015352D02*
X011811Y015352D01*
X011811Y015411D02*
X000360Y015411D01*
X000360Y015469D02*
X011811Y015469D01*
X011811Y015528D02*
X000360Y015528D01*
X000360Y015586D02*
X011811Y015586D01*
X011811Y015645D02*
X000360Y015645D01*
X000360Y015703D02*
X011811Y015703D01*
X011811Y015762D02*
X000360Y015762D01*
X000360Y015820D02*
X011811Y015820D01*
X011811Y015879D02*
X000360Y015879D01*
X000360Y015937D02*
X011811Y015937D01*
X011811Y015996D02*
X000360Y015996D01*
X000360Y016054D02*
X011811Y016054D01*
X011811Y016113D02*
X000360Y016113D01*
X000360Y016171D02*
X011811Y016171D01*
X011811Y016230D02*
X000360Y016230D01*
X000360Y016288D02*
X011811Y016288D01*
X011811Y016347D02*
X000360Y016347D01*
X000360Y016405D02*
X011811Y016405D01*
X011811Y016464D02*
X000360Y016464D01*
X000360Y016522D02*
X011811Y016522D01*
X011811Y016581D02*
X000360Y016581D01*
X000360Y016639D02*
X011811Y016639D01*
X011811Y016698D02*
X000360Y016698D01*
X000360Y016756D02*
X011811Y016756D01*
X011811Y016815D02*
X000360Y016815D01*
X000360Y016873D02*
X011811Y016873D01*
X011811Y016932D02*
X000360Y016932D01*
X000360Y016990D02*
X011811Y016990D01*
X011811Y017049D02*
X000360Y017049D01*
X000360Y017107D02*
X011811Y017107D01*
X011811Y017166D02*
X000360Y017166D01*
X000360Y017224D02*
X011811Y017224D01*
X011811Y017283D02*
X000360Y017283D01*
X000360Y017341D02*
X011811Y017341D01*
X011811Y017400D02*
X000360Y017400D01*
X000360Y017458D02*
X011811Y017458D01*
X011811Y017517D02*
X000360Y017517D01*
X000360Y017575D02*
X011811Y017575D01*
X011811Y017634D02*
X000360Y017634D01*
X000360Y017692D02*
X011811Y017692D01*
X011811Y017751D02*
X000360Y017751D01*
X000360Y017809D02*
X011811Y017809D01*
X011811Y017868D02*
X000360Y017868D01*
X000360Y017926D02*
X011811Y017926D01*
X011811Y017985D02*
X000360Y017985D01*
X000360Y018043D02*
X011811Y018043D01*
X011811Y018102D02*
X000360Y018102D01*
X000360Y018160D02*
X011811Y018160D01*
X011811Y018219D02*
X000360Y018219D01*
X000360Y018277D02*
X011811Y018277D01*
X011811Y018336D02*
X000360Y018336D01*
X000360Y018394D02*
X011811Y018394D01*
X011811Y018453D02*
X000360Y018453D01*
X000360Y018511D02*
X011811Y018511D01*
X011811Y018570D02*
X000360Y018570D01*
X000360Y018628D02*
X011811Y018628D01*
X011811Y018687D02*
X000360Y018687D01*
X000360Y018745D02*
X011811Y018745D01*
X011811Y018804D02*
X000360Y018804D01*
X000360Y018862D02*
X011811Y018862D01*
X011811Y018921D02*
X000360Y018921D01*
X000360Y018979D02*
X011811Y018979D01*
X011811Y019038D02*
X000360Y019038D01*
X000360Y019096D02*
X011811Y019096D01*
X011811Y019155D02*
X000360Y019155D01*
X000360Y019213D02*
X011811Y019213D01*
X011811Y019272D02*
X000360Y019272D01*
X000360Y019330D02*
X011811Y019330D01*
X011811Y019389D02*
X000360Y019389D01*
X000360Y019447D02*
X011811Y019447D01*
X011811Y019506D02*
X000360Y019506D01*
X000360Y019564D02*
X011811Y019564D01*
X011811Y019623D02*
X000360Y019623D01*
X000360Y019681D02*
X011811Y019681D01*
X011811Y019740D02*
X000360Y019740D01*
X000360Y019798D02*
X011811Y019798D01*
X011811Y019857D02*
X000360Y019857D01*
X000360Y019915D02*
X011811Y019915D01*
X011811Y019974D02*
X000360Y019974D01*
X000360Y020032D02*
X011811Y020032D01*
X011811Y020091D02*
X000360Y020091D01*
X000360Y020149D02*
X011811Y020149D01*
X011811Y020208D02*
X000360Y020208D01*
X000360Y020266D02*
X011811Y020266D01*
X011811Y020325D02*
X000360Y020325D01*
X000360Y020383D02*
X011811Y020383D01*
X011811Y020442D02*
X000360Y020442D01*
X000360Y020500D02*
X011811Y020500D01*
X011811Y020559D02*
X000360Y020559D01*
X000360Y020617D02*
X011811Y020617D01*
X011811Y020676D02*
X000360Y020676D01*
X000360Y020734D02*
X011811Y020734D01*
X011811Y020793D02*
X000360Y020793D01*
X000360Y020851D02*
X011811Y020851D01*
X011811Y020910D02*
X000360Y020910D01*
X000360Y020968D02*
X011811Y020968D01*
X011811Y021027D02*
X001584Y021027D01*
X001713Y021085D02*
X010731Y021085D01*
X010590Y021144D02*
X001771Y021144D01*
X001830Y021202D02*
X010506Y021202D01*
X010447Y021261D02*
X001888Y021261D01*
X001918Y021319D02*
X010389Y021319D01*
X010343Y021378D02*
X001943Y021378D01*
X001967Y021436D02*
X010318Y021436D01*
X010294Y021495D02*
X001991Y021495D01*
X002004Y021553D02*
X010270Y021553D01*
X010246Y021612D02*
X002004Y021612D01*
X002004Y021670D02*
X010246Y021670D01*
X010246Y021729D02*
X002004Y021729D01*
X002004Y021787D02*
X010246Y021787D01*
X010246Y021846D02*
X001985Y021846D01*
X001961Y021904D02*
X010254Y021904D01*
X010278Y021963D02*
X001936Y021963D01*
X001912Y022021D02*
X010302Y022021D01*
X010326Y022080D02*
X001873Y022080D01*
X001815Y022138D02*
X010350Y022138D01*
X010408Y022197D02*
X001756Y022197D01*
X001689Y022255D02*
X010466Y022255D01*
X010525Y022314D02*
X001548Y022314D01*
X001076Y022314D02*
X000360Y022314D01*
X000360Y022255D02*
X000935Y022255D01*
X000868Y022197D02*
X000360Y022197D01*
X000360Y022138D02*
X000809Y022138D01*
X000751Y022080D02*
X000360Y022080D01*
X000360Y022021D02*
X000712Y022021D01*
X000687Y021963D02*
X000360Y021963D01*
X000360Y021904D02*
X000663Y021904D01*
X000639Y021846D02*
X000360Y021846D01*
X000360Y021787D02*
X000620Y021787D01*
X000620Y021729D02*
X000360Y021729D01*
X000360Y021670D02*
X000620Y021670D01*
X000620Y021612D02*
X000360Y021612D01*
X000360Y021553D02*
X000620Y021553D01*
X000633Y021495D02*
X000360Y021495D01*
X000360Y021436D02*
X000657Y021436D01*
X000681Y021378D02*
X000360Y021378D01*
X000360Y021319D02*
X000705Y021319D01*
X000735Y021261D02*
X000360Y021261D01*
X000360Y021202D02*
X000794Y021202D01*
X000852Y021144D02*
X000360Y021144D01*
X000360Y021085D02*
X000911Y021085D01*
X001039Y021027D02*
X000360Y021027D01*
X001174Y012933D02*
X000920Y012827D01*
X000725Y012633D01*
X000620Y012378D01*
X000620Y012103D01*
X000725Y011849D01*
X000920Y011654D01*
X001174Y011549D01*
X001449Y011549D01*
X001704Y011654D01*
X001898Y011849D01*
X002004Y012103D01*
X002004Y012378D01*
X001898Y012633D01*
X001704Y012827D01*
X001449Y012933D01*
X001174Y012933D01*
X001084Y012895D02*
X000360Y012895D01*
X000360Y012837D02*
X000943Y012837D01*
X000871Y012778D02*
X000360Y012778D01*
X000360Y012720D02*
X000813Y012720D01*
X000754Y012661D02*
X000360Y012661D01*
X000360Y012603D02*
X000713Y012603D01*
X000689Y012544D02*
X000360Y012544D01*
X000360Y012486D02*
X000665Y012486D01*
X000640Y012427D02*
X000360Y012427D01*
X000360Y012369D02*
X000620Y012369D01*
X000620Y012310D02*
X000360Y012310D01*
X000360Y012252D02*
X000620Y012252D01*
X000620Y012193D02*
X000360Y012193D01*
X000360Y012135D02*
X000620Y012135D01*
X000631Y012076D02*
X000360Y012076D01*
X000360Y012018D02*
X000655Y012018D01*
X000680Y011959D02*
X000360Y011959D01*
X000360Y011901D02*
X000704Y011901D01*
X000732Y011842D02*
X000360Y011842D01*
X000360Y011784D02*
X000790Y011784D01*
X000849Y011725D02*
X000360Y011725D01*
X000360Y011667D02*
X000907Y011667D01*
X001031Y011608D02*
X000360Y011608D01*
X000360Y011550D02*
X001172Y011550D01*
X001452Y011550D02*
X010700Y011550D01*
X010559Y011608D02*
X001593Y011608D01*
X001716Y011667D02*
X010435Y011667D01*
X010377Y011725D02*
X001775Y011725D01*
X001833Y011784D02*
X010318Y011784D01*
X010260Y011842D02*
X001892Y011842D01*
X001920Y011901D02*
X010231Y011901D01*
X010207Y011959D02*
X001944Y011959D01*
X001968Y012018D02*
X010183Y012018D01*
X010159Y012076D02*
X001993Y012076D01*
X002004Y012135D02*
X010148Y012135D01*
X010148Y012193D02*
X002004Y012193D01*
X002004Y012252D02*
X010148Y012252D01*
X010148Y012310D02*
X002004Y012310D01*
X002004Y012369D02*
X010148Y012369D01*
X010168Y012427D02*
X001983Y012427D01*
X001959Y012486D02*
X010192Y012486D01*
X010216Y012544D02*
X001935Y012544D01*
X001911Y012603D02*
X010241Y012603D01*
X010282Y012661D02*
X001870Y012661D01*
X001811Y012720D02*
X010340Y012720D01*
X010399Y012778D02*
X001753Y012778D01*
X001681Y012837D02*
X010471Y012837D01*
X010612Y012895D02*
X001539Y012895D01*
X000360Y008449D02*
X003401Y008449D01*
X003260Y008391D02*
X000360Y008391D01*
X000360Y008332D02*
X003184Y008332D01*
X003125Y008274D02*
X000360Y008274D01*
X000360Y008215D02*
X003067Y008215D01*
X003032Y008157D02*
X000360Y008157D01*
X000360Y008098D02*
X003008Y008098D01*
X002983Y008040D02*
X000360Y008040D01*
X000360Y007981D02*
X002959Y007981D01*
X002951Y007923D02*
X000360Y007923D01*
X000360Y007864D02*
X002951Y007864D01*
X002951Y007806D02*
X000360Y007806D01*
X000360Y007747D02*
X002951Y007747D01*
X002958Y007689D02*
X000360Y007689D01*
X000360Y007630D02*
X002982Y007630D01*
X003006Y007572D02*
X000360Y007572D01*
X000360Y007513D02*
X003030Y007513D01*
X003063Y007455D02*
X000360Y007455D01*
X000360Y007396D02*
X003122Y007396D01*
X003180Y007338D02*
X000360Y007338D01*
X000360Y007279D02*
X003252Y007279D01*
X003393Y007221D02*
X000360Y007221D01*
X000360Y005407D02*
X001254Y005407D01*
X001215Y005349D02*
X000360Y005349D01*
X000360Y005290D02*
X001215Y005290D01*
X001215Y005232D02*
X000360Y005232D01*
X000360Y005173D02*
X001215Y005173D01*
X001215Y005115D02*
X000360Y005115D01*
X000360Y005056D02*
X001215Y005056D01*
X001240Y004998D02*
X000360Y004998D01*
X000360Y004939D02*
X001320Y004939D01*
X001320Y004881D02*
X000360Y004881D01*
X000360Y004822D02*
X001320Y004822D01*
X001320Y004764D02*
X000360Y004764D01*
X000360Y004705D02*
X001320Y004705D01*
X001320Y004647D02*
X000360Y004647D01*
X000360Y004588D02*
X001320Y004588D01*
X001320Y004530D02*
X000360Y004530D01*
X000360Y004471D02*
X001320Y004471D01*
X001320Y004413D02*
X000360Y004413D01*
X000360Y004354D02*
X001320Y004354D01*
X001320Y004296D02*
X000360Y004296D01*
X000882Y004237D02*
X001320Y004237D01*
X001320Y004179D02*
X000999Y004179D01*
X000982Y004196D02*
X000982Y004196D01*
X001058Y004120D02*
X001320Y004120D01*
X001320Y004062D02*
X001116Y004062D01*
X001121Y004057D02*
X001121Y004057D01*
X001143Y004003D02*
X001320Y004003D01*
X001320Y003945D02*
X001168Y003945D01*
X001192Y003886D02*
X001236Y003886D01*
X001222Y003828D02*
X001197Y003828D01*
X001440Y003343D02*
X001440Y005196D01*
X001440Y003343D02*
X001430Y003333D01*
X004560Y004598D02*
X004560Y004598D01*
X011144Y021085D02*
X011811Y021085D01*
X011811Y021144D02*
X011286Y021144D01*
X011370Y021202D02*
X011811Y021202D01*
X011811Y021261D02*
X011428Y021261D01*
X011487Y021319D02*
X011811Y021319D01*
X011811Y021378D02*
X011533Y021378D01*
X011557Y021436D02*
X011811Y021436D01*
X011811Y021495D02*
X011582Y021495D01*
X011606Y021553D02*
X011811Y021553D01*
X011811Y021612D02*
X011630Y021612D01*
X011630Y021670D02*
X011811Y021670D01*
X011811Y021729D02*
X011630Y021729D01*
X011630Y021787D02*
X011811Y021787D01*
X011811Y021846D02*
X011630Y021846D01*
X011622Y021904D02*
X011811Y021904D01*
X011811Y021963D02*
X011598Y021963D01*
X011574Y022021D02*
X011811Y022021D01*
X011811Y022080D02*
X011549Y022080D01*
X011525Y022138D02*
X011811Y022138D01*
X011811Y022197D02*
X011468Y022197D01*
X011410Y022255D02*
X011811Y022255D01*
X011811Y022314D02*
X011351Y022314D01*
D15*
X004550Y008385D03*
X006145Y007597D03*
X006479Y005510D03*
X006952Y004251D03*
X007818Y008286D03*
X009314Y004408D03*
X002385Y004251D03*
D16*
X001440Y005196D03*
M02*
