G75*
%MOIN*%
%OFA0B0*%
%FSLAX24Y24*%
%IPPOS*%
%LPD*%
%AMOC8*
5,1,8,0,0,1.08239X$1,22.5*
%
%ADD10C,0.0000*%
D10*
X000180Y002833D02*
X000180Y022518D01*
X011991Y022518D01*
X011991Y002833D01*
X000180Y002833D01*
X001017Y003776D02*
X001015Y003809D01*
X001010Y003841D01*
X001002Y003873D01*
X000990Y003904D01*
X000975Y003934D01*
X000957Y003961D01*
X000936Y003987D01*
X000913Y004010D01*
X000887Y004031D01*
X000860Y004049D01*
X000830Y004064D01*
X000799Y004076D01*
X000767Y004084D01*
X000735Y004089D01*
X000702Y004091D01*
X000170Y004091D01*
X000170Y013383D01*
X000800Y012241D02*
X000802Y012286D01*
X000808Y012330D01*
X000817Y012374D01*
X000831Y012416D01*
X000848Y012457D01*
X000869Y012497D01*
X000893Y012535D01*
X000920Y012570D01*
X000950Y012603D01*
X000983Y012633D01*
X001018Y012660D01*
X001056Y012684D01*
X001096Y012705D01*
X001137Y012722D01*
X001179Y012736D01*
X001223Y012745D01*
X001267Y012751D01*
X001312Y012753D01*
X001357Y012751D01*
X001401Y012745D01*
X001445Y012736D01*
X001487Y012722D01*
X001528Y012705D01*
X001568Y012684D01*
X001606Y012660D01*
X001641Y012633D01*
X001674Y012603D01*
X001704Y012570D01*
X001731Y012535D01*
X001755Y012497D01*
X001776Y012457D01*
X001793Y012416D01*
X001807Y012374D01*
X001816Y012330D01*
X001822Y012286D01*
X001824Y012241D01*
X001822Y012196D01*
X001816Y012152D01*
X001807Y012108D01*
X001793Y012066D01*
X001776Y012025D01*
X001755Y011985D01*
X001731Y011947D01*
X001704Y011912D01*
X001674Y011879D01*
X001641Y011849D01*
X001606Y011822D01*
X001568Y011798D01*
X001528Y011777D01*
X001487Y011760D01*
X001445Y011746D01*
X001401Y011737D01*
X001357Y011731D01*
X001312Y011729D01*
X001267Y011731D01*
X001223Y011737D01*
X001179Y011746D01*
X001137Y011760D01*
X001096Y011777D01*
X001056Y011798D01*
X001018Y011822D01*
X000983Y011849D01*
X000950Y011879D01*
X000920Y011912D01*
X000893Y011947D01*
X000869Y011985D01*
X000848Y012025D01*
X000831Y012066D01*
X000817Y012108D01*
X000808Y012152D01*
X000802Y012196D01*
X000800Y012241D01*
X003130Y007833D02*
X003132Y007876D01*
X003138Y007918D01*
X003148Y007960D01*
X003161Y008000D01*
X003179Y008039D01*
X003199Y008077D01*
X003224Y008112D01*
X003251Y008145D01*
X003281Y008175D01*
X003314Y008202D01*
X003349Y008227D01*
X003387Y008247D01*
X003426Y008265D01*
X003466Y008278D01*
X003508Y008288D01*
X003550Y008294D01*
X003593Y008296D01*
X003636Y008294D01*
X003678Y008288D01*
X003720Y008278D01*
X003760Y008265D01*
X003799Y008247D01*
X003837Y008227D01*
X003872Y008202D01*
X003905Y008175D01*
X003935Y008145D01*
X003962Y008112D01*
X003987Y008077D01*
X004007Y008039D01*
X004025Y008000D01*
X004038Y007960D01*
X004048Y007918D01*
X004054Y007876D01*
X004056Y007833D01*
X004054Y007790D01*
X004048Y007748D01*
X004038Y007706D01*
X004025Y007666D01*
X004007Y007627D01*
X003987Y007589D01*
X003962Y007554D01*
X003935Y007521D01*
X003905Y007491D01*
X003872Y007464D01*
X003837Y007439D01*
X003799Y007419D01*
X003760Y007401D01*
X003720Y007388D01*
X003678Y007378D01*
X003636Y007372D01*
X003593Y007370D01*
X003550Y007372D01*
X003508Y007378D01*
X003466Y007388D01*
X003426Y007401D01*
X003387Y007419D01*
X003349Y007439D01*
X003314Y007464D01*
X003281Y007491D01*
X003251Y007521D01*
X003224Y007554D01*
X003199Y007589D01*
X003179Y007627D01*
X003161Y007666D01*
X003148Y007706D01*
X003138Y007748D01*
X003132Y007790D01*
X003130Y007833D01*
X004265Y004111D02*
X004265Y002831D01*
X001017Y002831D01*
X001017Y003776D01*
X004265Y004111D02*
X004267Y004144D01*
X004272Y004177D01*
X004282Y004208D01*
X004294Y004239D01*
X004310Y004268D01*
X004329Y004295D01*
X004351Y004320D01*
X004376Y004342D01*
X004403Y004361D01*
X004432Y004377D01*
X004463Y004389D01*
X004494Y004399D01*
X004527Y004404D01*
X004560Y004406D01*
X004593Y004404D01*
X004626Y004399D01*
X004657Y004389D01*
X004688Y004377D01*
X004717Y004361D01*
X004744Y004342D01*
X004769Y004320D01*
X004791Y004295D01*
X004810Y004268D01*
X004826Y004239D01*
X004838Y004208D01*
X004848Y004177D01*
X004853Y004144D01*
X004855Y004111D01*
X004855Y002831D01*
X011135Y002831D01*
X011135Y003776D01*
X011137Y003809D01*
X011142Y003841D01*
X011150Y003873D01*
X011162Y003904D01*
X011177Y003934D01*
X011195Y003961D01*
X011216Y003987D01*
X011239Y004010D01*
X011265Y004031D01*
X011293Y004049D01*
X011322Y004064D01*
X011353Y004076D01*
X011385Y004084D01*
X011417Y004089D01*
X011450Y004091D01*
X011981Y004091D01*
X011981Y013383D01*
X010327Y012241D02*
X010329Y012286D01*
X010335Y012330D01*
X010344Y012374D01*
X010358Y012416D01*
X010375Y012457D01*
X010396Y012497D01*
X010420Y012535D01*
X010447Y012570D01*
X010477Y012603D01*
X010510Y012633D01*
X010545Y012660D01*
X010583Y012684D01*
X010623Y012705D01*
X010664Y012722D01*
X010706Y012736D01*
X010750Y012745D01*
X010794Y012751D01*
X010839Y012753D01*
X010884Y012751D01*
X010928Y012745D01*
X010972Y012736D01*
X011014Y012722D01*
X011055Y012705D01*
X011095Y012684D01*
X011133Y012660D01*
X011168Y012633D01*
X011201Y012603D01*
X011231Y012570D01*
X011258Y012535D01*
X011282Y012497D01*
X011303Y012457D01*
X011320Y012416D01*
X011334Y012374D01*
X011343Y012330D01*
X011349Y012286D01*
X011351Y012241D01*
X011349Y012196D01*
X011343Y012152D01*
X011334Y012108D01*
X011320Y012066D01*
X011303Y012025D01*
X011282Y011985D01*
X011258Y011947D01*
X011231Y011912D01*
X011201Y011879D01*
X011168Y011849D01*
X011133Y011822D01*
X011095Y011798D01*
X011055Y011777D01*
X011014Y011760D01*
X010972Y011746D01*
X010928Y011737D01*
X010884Y011731D01*
X010839Y011729D01*
X010794Y011731D01*
X010750Y011737D01*
X010706Y011746D01*
X010664Y011760D01*
X010623Y011777D01*
X010583Y011798D01*
X010545Y011822D01*
X010510Y011849D01*
X010477Y011879D01*
X010447Y011912D01*
X010420Y011947D01*
X010396Y011985D01*
X010375Y012025D01*
X010358Y012066D01*
X010344Y012108D01*
X010335Y012152D01*
X010329Y012196D01*
X010327Y012241D01*
X008304Y007833D02*
X008306Y007876D01*
X008312Y007918D01*
X008322Y007960D01*
X008335Y008000D01*
X008353Y008039D01*
X008373Y008077D01*
X008398Y008112D01*
X008425Y008145D01*
X008455Y008175D01*
X008488Y008202D01*
X008523Y008227D01*
X008561Y008247D01*
X008600Y008265D01*
X008640Y008278D01*
X008682Y008288D01*
X008724Y008294D01*
X008767Y008296D01*
X008810Y008294D01*
X008852Y008288D01*
X008894Y008278D01*
X008934Y008265D01*
X008973Y008247D01*
X009011Y008227D01*
X009046Y008202D01*
X009079Y008175D01*
X009109Y008145D01*
X009136Y008112D01*
X009161Y008077D01*
X009181Y008039D01*
X009199Y008000D01*
X009212Y007960D01*
X009222Y007918D01*
X009228Y007876D01*
X009230Y007833D01*
X009228Y007790D01*
X009222Y007748D01*
X009212Y007706D01*
X009199Y007666D01*
X009181Y007627D01*
X009161Y007589D01*
X009136Y007554D01*
X009109Y007521D01*
X009079Y007491D01*
X009046Y007464D01*
X009011Y007439D01*
X008973Y007419D01*
X008934Y007401D01*
X008894Y007388D01*
X008852Y007378D01*
X008810Y007372D01*
X008767Y007370D01*
X008724Y007372D01*
X008682Y007378D01*
X008640Y007388D01*
X008600Y007401D01*
X008561Y007419D01*
X008523Y007439D01*
X008488Y007464D01*
X008455Y007491D01*
X008425Y007521D01*
X008398Y007554D01*
X008373Y007589D01*
X008353Y007627D01*
X008335Y007666D01*
X008322Y007706D01*
X008312Y007748D01*
X008306Y007790D01*
X008304Y007833D01*
X000800Y021663D02*
X000802Y021708D01*
X000808Y021752D01*
X000817Y021796D01*
X000831Y021838D01*
X000848Y021879D01*
X000869Y021919D01*
X000893Y021957D01*
X000920Y021992D01*
X000950Y022025D01*
X000983Y022055D01*
X001018Y022082D01*
X001056Y022106D01*
X001096Y022127D01*
X001137Y022144D01*
X001179Y022158D01*
X001223Y022167D01*
X001267Y022173D01*
X001312Y022175D01*
X001357Y022173D01*
X001401Y022167D01*
X001445Y022158D01*
X001487Y022144D01*
X001528Y022127D01*
X001568Y022106D01*
X001606Y022082D01*
X001641Y022055D01*
X001674Y022025D01*
X001704Y021992D01*
X001731Y021957D01*
X001755Y021919D01*
X001776Y021879D01*
X001793Y021838D01*
X001807Y021796D01*
X001816Y021752D01*
X001822Y021708D01*
X001824Y021663D01*
X001822Y021618D01*
X001816Y021574D01*
X001807Y021530D01*
X001793Y021488D01*
X001776Y021447D01*
X001755Y021407D01*
X001731Y021369D01*
X001704Y021334D01*
X001674Y021301D01*
X001641Y021271D01*
X001606Y021244D01*
X001568Y021220D01*
X001528Y021199D01*
X001487Y021182D01*
X001445Y021168D01*
X001401Y021159D01*
X001357Y021153D01*
X001312Y021151D01*
X001267Y021153D01*
X001223Y021159D01*
X001179Y021168D01*
X001137Y021182D01*
X001096Y021199D01*
X001056Y021220D01*
X001018Y021244D01*
X000983Y021271D01*
X000950Y021301D01*
X000920Y021334D01*
X000893Y021369D01*
X000869Y021407D01*
X000848Y021447D01*
X000831Y021488D01*
X000817Y021530D01*
X000808Y021574D01*
X000802Y021618D01*
X000800Y021663D01*
X010426Y021749D02*
X010428Y021794D01*
X010434Y021838D01*
X010443Y021882D01*
X010457Y021924D01*
X010474Y021965D01*
X010495Y022005D01*
X010519Y022043D01*
X010546Y022078D01*
X010576Y022111D01*
X010609Y022141D01*
X010644Y022168D01*
X010682Y022192D01*
X010722Y022213D01*
X010763Y022230D01*
X010805Y022244D01*
X010849Y022253D01*
X010893Y022259D01*
X010938Y022261D01*
X010983Y022259D01*
X011027Y022253D01*
X011071Y022244D01*
X011113Y022230D01*
X011154Y022213D01*
X011194Y022192D01*
X011232Y022168D01*
X011267Y022141D01*
X011300Y022111D01*
X011330Y022078D01*
X011357Y022043D01*
X011381Y022005D01*
X011402Y021965D01*
X011419Y021924D01*
X011433Y021882D01*
X011442Y021838D01*
X011448Y021794D01*
X011450Y021749D01*
X011448Y021704D01*
X011442Y021660D01*
X011433Y021616D01*
X011419Y021574D01*
X011402Y021533D01*
X011381Y021493D01*
X011357Y021455D01*
X011330Y021420D01*
X011300Y021387D01*
X011267Y021357D01*
X011232Y021330D01*
X011194Y021306D01*
X011154Y021285D01*
X011113Y021268D01*
X011071Y021254D01*
X011027Y021245D01*
X010983Y021239D01*
X010938Y021237D01*
X010893Y021239D01*
X010849Y021245D01*
X010805Y021254D01*
X010763Y021268D01*
X010722Y021285D01*
X010682Y021306D01*
X010644Y021330D01*
X010609Y021357D01*
X010576Y021387D01*
X010546Y021420D01*
X010519Y021455D01*
X010495Y021493D01*
X010474Y021533D01*
X010457Y021574D01*
X010443Y021616D01*
X010434Y021660D01*
X010428Y021704D01*
X010426Y021749D01*
M02*
