G75*
%MOIN*%
%OFA0B0*%
%FSLAX24Y24*%
%IPPOS*%
%LPD*%
%AMOC8*
5,1,8,0,0,1.08239X$1,22.5*
%
%ADD10C,0.0560*%
%ADD11C,0.0985*%
%ADD12C,0.0134*%
%ADD13R,0.0560X0.0560*%
%ADD14C,0.0651*%
%ADD15OC8,0.0690*%
%ADD16C,0.0436*%
%ADD17C,0.0320*%
D10*
X003221Y004795D03*
X003418Y005385D03*
X004008Y004795D03*
X004402Y005385D03*
X004796Y004795D03*
X005189Y005385D03*
X005583Y004795D03*
X006174Y005385D03*
X006370Y004795D03*
X010189Y011921D03*
X009993Y012511D03*
X010780Y012511D03*
X011174Y011921D03*
X011567Y012511D03*
X011961Y011921D03*
X012355Y012511D03*
X012945Y011921D03*
X013142Y012511D03*
X011705Y015759D03*
X010918Y015759D03*
X010130Y015759D03*
X009343Y015759D03*
X009737Y016547D03*
X010524Y016547D03*
X011311Y016547D03*
X011311Y017531D03*
X010524Y017531D03*
X009737Y017531D03*
X010130Y018319D03*
X009343Y018319D03*
X008162Y017531D03*
X007374Y017531D03*
X006587Y017531D03*
X005800Y017531D03*
X005012Y017531D03*
X004619Y018319D03*
X005406Y018319D03*
X006193Y018319D03*
X006981Y018319D03*
X007768Y018319D03*
X007374Y016547D03*
X006587Y016547D03*
X005800Y016547D03*
X005012Y016547D03*
X004225Y016547D03*
X004619Y015759D03*
X005406Y015759D03*
X006193Y015759D03*
X006981Y015759D03*
X007768Y015759D03*
X008162Y016547D03*
X010918Y018319D03*
X011705Y018319D03*
D11*
X012414Y017039D03*
X008811Y017039D03*
X008981Y011133D03*
X007382Y006173D03*
X002209Y006173D03*
X014154Y011133D03*
D12*
X000448Y002320D02*
X000448Y000820D01*
X000246Y000820D01*
X000246Y002320D01*
X000448Y002320D01*
X000448Y000953D02*
X000246Y000953D01*
X000246Y001086D02*
X000448Y001086D01*
X000448Y001219D02*
X000246Y001219D01*
X000246Y001352D02*
X000448Y001352D01*
X000448Y001485D02*
X000246Y001485D01*
X000246Y001618D02*
X000448Y001618D01*
X000448Y001751D02*
X000246Y001751D01*
X000246Y001884D02*
X000448Y001884D01*
X000448Y002017D02*
X000246Y002017D01*
X000246Y002150D02*
X000448Y002150D01*
X000448Y002283D02*
X000246Y002283D01*
X000842Y002320D02*
X000842Y000820D01*
X000640Y000820D01*
X000640Y002320D01*
X000842Y002320D01*
X000842Y000953D02*
X000640Y000953D01*
X000640Y001086D02*
X000842Y001086D01*
X000842Y001219D02*
X000640Y001219D01*
X000640Y001352D02*
X000842Y001352D01*
X000842Y001485D02*
X000640Y001485D01*
X000640Y001618D02*
X000842Y001618D01*
X000842Y001751D02*
X000640Y001751D01*
X000640Y001884D02*
X000842Y001884D01*
X000842Y002017D02*
X000640Y002017D01*
X000640Y002150D02*
X000842Y002150D01*
X000842Y002283D02*
X000640Y002283D01*
X001235Y002320D02*
X001235Y000820D01*
X001033Y000820D01*
X001033Y002320D01*
X001235Y002320D01*
X001235Y000953D02*
X001033Y000953D01*
X001033Y001086D02*
X001235Y001086D01*
X001235Y001219D02*
X001033Y001219D01*
X001033Y001352D02*
X001235Y001352D01*
X001235Y001485D02*
X001033Y001485D01*
X001033Y001618D02*
X001235Y001618D01*
X001235Y001751D02*
X001033Y001751D01*
X001033Y001884D02*
X001235Y001884D01*
X001235Y002017D02*
X001033Y002017D01*
X001033Y002150D02*
X001235Y002150D01*
X001235Y002283D02*
X001033Y002283D01*
X001629Y002320D02*
X001629Y000820D01*
X001427Y000820D01*
X001427Y002320D01*
X001629Y002320D01*
X001629Y000953D02*
X001427Y000953D01*
X001427Y001086D02*
X001629Y001086D01*
X001629Y001219D02*
X001427Y001219D01*
X001427Y001352D02*
X001629Y001352D01*
X001629Y001485D02*
X001427Y001485D01*
X001427Y001618D02*
X001629Y001618D01*
X001629Y001751D02*
X001427Y001751D01*
X001427Y001884D02*
X001629Y001884D01*
X001629Y002017D02*
X001427Y002017D01*
X001427Y002150D02*
X001629Y002150D01*
X001629Y002283D02*
X001427Y002283D01*
X002023Y002320D02*
X002023Y000820D01*
X001821Y000820D01*
X001821Y002320D01*
X002023Y002320D01*
X002023Y000953D02*
X001821Y000953D01*
X001821Y001086D02*
X002023Y001086D01*
X002023Y001219D02*
X001821Y001219D01*
X001821Y001352D02*
X002023Y001352D01*
X002023Y001485D02*
X001821Y001485D01*
X001821Y001618D02*
X002023Y001618D01*
X002023Y001751D02*
X001821Y001751D01*
X001821Y001884D02*
X002023Y001884D01*
X002023Y002017D02*
X001821Y002017D01*
X001821Y002150D02*
X002023Y002150D01*
X002023Y002283D02*
X001821Y002283D01*
X002416Y002320D02*
X002416Y000820D01*
X002214Y000820D01*
X002214Y002320D01*
X002416Y002320D01*
X002416Y000953D02*
X002214Y000953D01*
X002214Y001086D02*
X002416Y001086D01*
X002416Y001219D02*
X002214Y001219D01*
X002214Y001352D02*
X002416Y001352D01*
X002416Y001485D02*
X002214Y001485D01*
X002214Y001618D02*
X002416Y001618D01*
X002416Y001751D02*
X002214Y001751D01*
X002214Y001884D02*
X002416Y001884D01*
X002416Y002017D02*
X002214Y002017D01*
X002214Y002150D02*
X002416Y002150D01*
X002416Y002283D02*
X002214Y002283D01*
X002810Y002320D02*
X002810Y000820D01*
X002608Y000820D01*
X002608Y002320D01*
X002810Y002320D01*
X002810Y000953D02*
X002608Y000953D01*
X002608Y001086D02*
X002810Y001086D01*
X002810Y001219D02*
X002608Y001219D01*
X002608Y001352D02*
X002810Y001352D01*
X002810Y001485D02*
X002608Y001485D01*
X002608Y001618D02*
X002810Y001618D01*
X002810Y001751D02*
X002608Y001751D01*
X002608Y001884D02*
X002810Y001884D01*
X002810Y002017D02*
X002608Y002017D01*
X002608Y002150D02*
X002810Y002150D01*
X002810Y002283D02*
X002608Y002283D01*
X003204Y002320D02*
X003204Y000820D01*
X003002Y000820D01*
X003002Y002320D01*
X003204Y002320D01*
X003204Y000953D02*
X003002Y000953D01*
X003002Y001086D02*
X003204Y001086D01*
X003204Y001219D02*
X003002Y001219D01*
X003002Y001352D02*
X003204Y001352D01*
X003204Y001485D02*
X003002Y001485D01*
X003002Y001618D02*
X003204Y001618D01*
X003204Y001751D02*
X003002Y001751D01*
X003002Y001884D02*
X003204Y001884D01*
X003204Y002017D02*
X003002Y002017D01*
X003002Y002150D02*
X003204Y002150D01*
X003204Y002283D02*
X003002Y002283D01*
X003597Y002320D02*
X003597Y000820D01*
X003395Y000820D01*
X003395Y002320D01*
X003597Y002320D01*
X003597Y000953D02*
X003395Y000953D01*
X003395Y001086D02*
X003597Y001086D01*
X003597Y001219D02*
X003395Y001219D01*
X003395Y001352D02*
X003597Y001352D01*
X003597Y001485D02*
X003395Y001485D01*
X003395Y001618D02*
X003597Y001618D01*
X003597Y001751D02*
X003395Y001751D01*
X003395Y001884D02*
X003597Y001884D01*
X003597Y002017D02*
X003395Y002017D01*
X003395Y002150D02*
X003597Y002150D01*
X003597Y002283D02*
X003395Y002283D01*
X003991Y002320D02*
X003991Y000820D01*
X003789Y000820D01*
X003789Y002320D01*
X003991Y002320D01*
X003991Y000953D02*
X003789Y000953D01*
X003789Y001086D02*
X003991Y001086D01*
X003991Y001219D02*
X003789Y001219D01*
X003789Y001352D02*
X003991Y001352D01*
X003991Y001485D02*
X003789Y001485D01*
X003789Y001618D02*
X003991Y001618D01*
X003991Y001751D02*
X003789Y001751D01*
X003789Y001884D02*
X003991Y001884D01*
X003991Y002017D02*
X003789Y002017D01*
X003789Y002150D02*
X003991Y002150D01*
X003991Y002283D02*
X003789Y002283D01*
X004385Y002320D02*
X004385Y000820D01*
X004183Y000820D01*
X004183Y002320D01*
X004385Y002320D01*
X004385Y000953D02*
X004183Y000953D01*
X004183Y001086D02*
X004385Y001086D01*
X004385Y001219D02*
X004183Y001219D01*
X004183Y001352D02*
X004385Y001352D01*
X004385Y001485D02*
X004183Y001485D01*
X004183Y001618D02*
X004385Y001618D01*
X004385Y001751D02*
X004183Y001751D01*
X004183Y001884D02*
X004385Y001884D01*
X004385Y002017D02*
X004183Y002017D01*
X004183Y002150D02*
X004385Y002150D01*
X004385Y002283D02*
X004183Y002283D01*
X005566Y002320D02*
X005566Y000820D01*
X005364Y000820D01*
X005364Y002320D01*
X005566Y002320D01*
X005566Y000953D02*
X005364Y000953D01*
X005364Y001086D02*
X005566Y001086D01*
X005566Y001219D02*
X005364Y001219D01*
X005364Y001352D02*
X005566Y001352D01*
X005566Y001485D02*
X005364Y001485D01*
X005364Y001618D02*
X005566Y001618D01*
X005566Y001751D02*
X005364Y001751D01*
X005364Y001884D02*
X005566Y001884D01*
X005566Y002017D02*
X005364Y002017D01*
X005364Y002150D02*
X005566Y002150D01*
X005566Y002283D02*
X005364Y002283D01*
X005960Y002320D02*
X005960Y000820D01*
X005758Y000820D01*
X005758Y002320D01*
X005960Y002320D01*
X005960Y000953D02*
X005758Y000953D01*
X005758Y001086D02*
X005960Y001086D01*
X005960Y001219D02*
X005758Y001219D01*
X005758Y001352D02*
X005960Y001352D01*
X005960Y001485D02*
X005758Y001485D01*
X005758Y001618D02*
X005960Y001618D01*
X005960Y001751D02*
X005758Y001751D01*
X005758Y001884D02*
X005960Y001884D01*
X005960Y002017D02*
X005758Y002017D01*
X005758Y002150D02*
X005960Y002150D01*
X005960Y002283D02*
X005758Y002283D01*
X006353Y002320D02*
X006353Y000820D01*
X006151Y000820D01*
X006151Y002320D01*
X006353Y002320D01*
X006353Y000953D02*
X006151Y000953D01*
X006151Y001086D02*
X006353Y001086D01*
X006353Y001219D02*
X006151Y001219D01*
X006151Y001352D02*
X006353Y001352D01*
X006353Y001485D02*
X006151Y001485D01*
X006151Y001618D02*
X006353Y001618D01*
X006353Y001751D02*
X006151Y001751D01*
X006151Y001884D02*
X006353Y001884D01*
X006353Y002017D02*
X006151Y002017D01*
X006151Y002150D02*
X006353Y002150D01*
X006353Y002283D02*
X006151Y002283D01*
X006747Y002320D02*
X006747Y000820D01*
X006545Y000820D01*
X006545Y002320D01*
X006747Y002320D01*
X006747Y000953D02*
X006545Y000953D01*
X006545Y001086D02*
X006747Y001086D01*
X006747Y001219D02*
X006545Y001219D01*
X006545Y001352D02*
X006747Y001352D01*
X006747Y001485D02*
X006545Y001485D01*
X006545Y001618D02*
X006747Y001618D01*
X006747Y001751D02*
X006545Y001751D01*
X006545Y001884D02*
X006747Y001884D01*
X006747Y002017D02*
X006545Y002017D01*
X006545Y002150D02*
X006747Y002150D01*
X006747Y002283D02*
X006545Y002283D01*
X007141Y002320D02*
X007141Y000820D01*
X006939Y000820D01*
X006939Y002320D01*
X007141Y002320D01*
X007141Y000953D02*
X006939Y000953D01*
X006939Y001086D02*
X007141Y001086D01*
X007141Y001219D02*
X006939Y001219D01*
X006939Y001352D02*
X007141Y001352D01*
X007141Y001485D02*
X006939Y001485D01*
X006939Y001618D02*
X007141Y001618D01*
X007141Y001751D02*
X006939Y001751D01*
X006939Y001884D02*
X007141Y001884D01*
X007141Y002017D02*
X006939Y002017D01*
X006939Y002150D02*
X007141Y002150D01*
X007141Y002283D02*
X006939Y002283D01*
X007534Y002320D02*
X007534Y000820D01*
X007332Y000820D01*
X007332Y002320D01*
X007534Y002320D01*
X007534Y000953D02*
X007332Y000953D01*
X007332Y001086D02*
X007534Y001086D01*
X007534Y001219D02*
X007332Y001219D01*
X007332Y001352D02*
X007534Y001352D01*
X007534Y001485D02*
X007332Y001485D01*
X007332Y001618D02*
X007534Y001618D01*
X007534Y001751D02*
X007332Y001751D01*
X007332Y001884D02*
X007534Y001884D01*
X007534Y002017D02*
X007332Y002017D01*
X007332Y002150D02*
X007534Y002150D01*
X007534Y002283D02*
X007332Y002283D01*
X007928Y002320D02*
X007928Y000820D01*
X007726Y000820D01*
X007726Y002320D01*
X007928Y002320D01*
X007928Y000953D02*
X007726Y000953D01*
X007726Y001086D02*
X007928Y001086D01*
X007928Y001219D02*
X007726Y001219D01*
X007726Y001352D02*
X007928Y001352D01*
X007928Y001485D02*
X007726Y001485D01*
X007726Y001618D02*
X007928Y001618D01*
X007928Y001751D02*
X007726Y001751D01*
X007726Y001884D02*
X007928Y001884D01*
X007928Y002017D02*
X007726Y002017D01*
X007726Y002150D02*
X007928Y002150D01*
X007928Y002283D02*
X007726Y002283D01*
D13*
X004225Y017531D03*
D14*
X005449Y014185D02*
X005449Y013594D01*
X006449Y013594D02*
X006449Y014185D01*
X007449Y014185D02*
X007449Y013594D01*
X004012Y011822D02*
X004012Y011232D01*
X003012Y011232D02*
X003012Y011822D01*
X002012Y011822D02*
X002012Y011232D01*
X001012Y011232D02*
X001012Y011822D01*
D15*
X003193Y013496D03*
X004193Y013496D03*
X005662Y012133D03*
X007237Y012133D03*
X007237Y010133D03*
X005662Y010133D03*
D16*
X007473Y004834D03*
X006804Y004263D03*
X005563Y002984D03*
X004382Y004165D03*
X003300Y002866D03*
X000937Y002866D03*
X006804Y002689D03*
D17*
X002119Y015070D03*
M02*
