G75*
%MOIN*%
%OFA0B0*%
%FSLAX24Y24*%
%IPPOS*%
%LPD*%
%AMOC8*
5,1,8,0,0,1.08239X$1,22.5*
%
%ADD10C,0.0516*%
%ADD11C,0.0110*%
%ADD12R,0.0516X0.0516*%
%ADD13C,0.0634*%
%ADD14OC8,0.0630*%
%ADD15C,0.0060*%
%ADD16C,0.0396*%
%ADD17C,0.0160*%
%ADD18C,0.0100*%
%ADD19C,0.0280*%
%ADD20C,0.0240*%
D10*
X003221Y004795D03*
X003418Y005385D03*
X004008Y004795D03*
X004402Y005385D03*
X004796Y004795D03*
X005189Y005385D03*
X005583Y004795D03*
X006174Y005385D03*
X006370Y004795D03*
X010189Y011921D03*
X009993Y012511D03*
X010780Y012511D03*
X011174Y011921D03*
X011567Y012511D03*
X011961Y011921D03*
X012355Y012511D03*
X012945Y011921D03*
X013142Y012511D03*
X011705Y015759D03*
X010918Y015759D03*
X010130Y015759D03*
X009343Y015759D03*
X009737Y016547D03*
X010524Y016547D03*
X011311Y016547D03*
X011311Y017531D03*
X010524Y017531D03*
X009737Y017531D03*
X010130Y018319D03*
X009343Y018319D03*
X008162Y017531D03*
X007374Y017531D03*
X006587Y017531D03*
X005800Y017531D03*
X005012Y017531D03*
X004619Y018319D03*
X005406Y018319D03*
X006193Y018319D03*
X006981Y018319D03*
X007768Y018319D03*
X007374Y016547D03*
X006587Y016547D03*
X005800Y016547D03*
X005012Y016547D03*
X004225Y016547D03*
X004619Y015759D03*
X005406Y015759D03*
X006193Y015759D03*
X006981Y015759D03*
X007768Y015759D03*
X008162Y016547D03*
X010918Y018319D03*
X011705Y018319D03*
D11*
X000430Y002302D02*
X000430Y000838D01*
X000264Y000838D01*
X000264Y002302D01*
X000430Y002302D01*
X000430Y000947D02*
X000264Y000947D01*
X000264Y001056D02*
X000430Y001056D01*
X000430Y001165D02*
X000264Y001165D01*
X000264Y001274D02*
X000430Y001274D01*
X000430Y001383D02*
X000264Y001383D01*
X000264Y001492D02*
X000430Y001492D01*
X000430Y001601D02*
X000264Y001601D01*
X000264Y001710D02*
X000430Y001710D01*
X000430Y001819D02*
X000264Y001819D01*
X000264Y001928D02*
X000430Y001928D01*
X000430Y002037D02*
X000264Y002037D01*
X000264Y002146D02*
X000430Y002146D01*
X000430Y002255D02*
X000264Y002255D01*
X000824Y002302D02*
X000824Y000838D01*
X000658Y000838D01*
X000658Y002302D01*
X000824Y002302D01*
X000824Y000947D02*
X000658Y000947D01*
X000658Y001056D02*
X000824Y001056D01*
X000824Y001165D02*
X000658Y001165D01*
X000658Y001274D02*
X000824Y001274D01*
X000824Y001383D02*
X000658Y001383D01*
X000658Y001492D02*
X000824Y001492D01*
X000824Y001601D02*
X000658Y001601D01*
X000658Y001710D02*
X000824Y001710D01*
X000824Y001819D02*
X000658Y001819D01*
X000658Y001928D02*
X000824Y001928D01*
X000824Y002037D02*
X000658Y002037D01*
X000658Y002146D02*
X000824Y002146D01*
X000824Y002255D02*
X000658Y002255D01*
X001217Y002302D02*
X001217Y000838D01*
X001051Y000838D01*
X001051Y002302D01*
X001217Y002302D01*
X001217Y000947D02*
X001051Y000947D01*
X001051Y001056D02*
X001217Y001056D01*
X001217Y001165D02*
X001051Y001165D01*
X001051Y001274D02*
X001217Y001274D01*
X001217Y001383D02*
X001051Y001383D01*
X001051Y001492D02*
X001217Y001492D01*
X001217Y001601D02*
X001051Y001601D01*
X001051Y001710D02*
X001217Y001710D01*
X001217Y001819D02*
X001051Y001819D01*
X001051Y001928D02*
X001217Y001928D01*
X001217Y002037D02*
X001051Y002037D01*
X001051Y002146D02*
X001217Y002146D01*
X001217Y002255D02*
X001051Y002255D01*
X001611Y002302D02*
X001611Y000838D01*
X001445Y000838D01*
X001445Y002302D01*
X001611Y002302D01*
X001611Y000947D02*
X001445Y000947D01*
X001445Y001056D02*
X001611Y001056D01*
X001611Y001165D02*
X001445Y001165D01*
X001445Y001274D02*
X001611Y001274D01*
X001611Y001383D02*
X001445Y001383D01*
X001445Y001492D02*
X001611Y001492D01*
X001611Y001601D02*
X001445Y001601D01*
X001445Y001710D02*
X001611Y001710D01*
X001611Y001819D02*
X001445Y001819D01*
X001445Y001928D02*
X001611Y001928D01*
X001611Y002037D02*
X001445Y002037D01*
X001445Y002146D02*
X001611Y002146D01*
X001611Y002255D02*
X001445Y002255D01*
X002005Y002302D02*
X002005Y000838D01*
X001839Y000838D01*
X001839Y002302D01*
X002005Y002302D01*
X002005Y000947D02*
X001839Y000947D01*
X001839Y001056D02*
X002005Y001056D01*
X002005Y001165D02*
X001839Y001165D01*
X001839Y001274D02*
X002005Y001274D01*
X002005Y001383D02*
X001839Y001383D01*
X001839Y001492D02*
X002005Y001492D01*
X002005Y001601D02*
X001839Y001601D01*
X001839Y001710D02*
X002005Y001710D01*
X002005Y001819D02*
X001839Y001819D01*
X001839Y001928D02*
X002005Y001928D01*
X002005Y002037D02*
X001839Y002037D01*
X001839Y002146D02*
X002005Y002146D01*
X002005Y002255D02*
X001839Y002255D01*
X002398Y002302D02*
X002398Y000838D01*
X002232Y000838D01*
X002232Y002302D01*
X002398Y002302D01*
X002398Y000947D02*
X002232Y000947D01*
X002232Y001056D02*
X002398Y001056D01*
X002398Y001165D02*
X002232Y001165D01*
X002232Y001274D02*
X002398Y001274D01*
X002398Y001383D02*
X002232Y001383D01*
X002232Y001492D02*
X002398Y001492D01*
X002398Y001601D02*
X002232Y001601D01*
X002232Y001710D02*
X002398Y001710D01*
X002398Y001819D02*
X002232Y001819D01*
X002232Y001928D02*
X002398Y001928D01*
X002398Y002037D02*
X002232Y002037D01*
X002232Y002146D02*
X002398Y002146D01*
X002398Y002255D02*
X002232Y002255D01*
X002792Y002302D02*
X002792Y000838D01*
X002626Y000838D01*
X002626Y002302D01*
X002792Y002302D01*
X002792Y000947D02*
X002626Y000947D01*
X002626Y001056D02*
X002792Y001056D01*
X002792Y001165D02*
X002626Y001165D01*
X002626Y001274D02*
X002792Y001274D01*
X002792Y001383D02*
X002626Y001383D01*
X002626Y001492D02*
X002792Y001492D01*
X002792Y001601D02*
X002626Y001601D01*
X002626Y001710D02*
X002792Y001710D01*
X002792Y001819D02*
X002626Y001819D01*
X002626Y001928D02*
X002792Y001928D01*
X002792Y002037D02*
X002626Y002037D01*
X002626Y002146D02*
X002792Y002146D01*
X002792Y002255D02*
X002626Y002255D01*
X003186Y002302D02*
X003186Y000838D01*
X003020Y000838D01*
X003020Y002302D01*
X003186Y002302D01*
X003186Y000947D02*
X003020Y000947D01*
X003020Y001056D02*
X003186Y001056D01*
X003186Y001165D02*
X003020Y001165D01*
X003020Y001274D02*
X003186Y001274D01*
X003186Y001383D02*
X003020Y001383D01*
X003020Y001492D02*
X003186Y001492D01*
X003186Y001601D02*
X003020Y001601D01*
X003020Y001710D02*
X003186Y001710D01*
X003186Y001819D02*
X003020Y001819D01*
X003020Y001928D02*
X003186Y001928D01*
X003186Y002037D02*
X003020Y002037D01*
X003020Y002146D02*
X003186Y002146D01*
X003186Y002255D02*
X003020Y002255D01*
X003579Y002302D02*
X003579Y000838D01*
X003413Y000838D01*
X003413Y002302D01*
X003579Y002302D01*
X003579Y000947D02*
X003413Y000947D01*
X003413Y001056D02*
X003579Y001056D01*
X003579Y001165D02*
X003413Y001165D01*
X003413Y001274D02*
X003579Y001274D01*
X003579Y001383D02*
X003413Y001383D01*
X003413Y001492D02*
X003579Y001492D01*
X003579Y001601D02*
X003413Y001601D01*
X003413Y001710D02*
X003579Y001710D01*
X003579Y001819D02*
X003413Y001819D01*
X003413Y001928D02*
X003579Y001928D01*
X003579Y002037D02*
X003413Y002037D01*
X003413Y002146D02*
X003579Y002146D01*
X003579Y002255D02*
X003413Y002255D01*
X003973Y002302D02*
X003973Y000838D01*
X003807Y000838D01*
X003807Y002302D01*
X003973Y002302D01*
X003973Y000947D02*
X003807Y000947D01*
X003807Y001056D02*
X003973Y001056D01*
X003973Y001165D02*
X003807Y001165D01*
X003807Y001274D02*
X003973Y001274D01*
X003973Y001383D02*
X003807Y001383D01*
X003807Y001492D02*
X003973Y001492D01*
X003973Y001601D02*
X003807Y001601D01*
X003807Y001710D02*
X003973Y001710D01*
X003973Y001819D02*
X003807Y001819D01*
X003807Y001928D02*
X003973Y001928D01*
X003973Y002037D02*
X003807Y002037D01*
X003807Y002146D02*
X003973Y002146D01*
X003973Y002255D02*
X003807Y002255D01*
X004367Y002302D02*
X004367Y000838D01*
X004201Y000838D01*
X004201Y002302D01*
X004367Y002302D01*
X004367Y000947D02*
X004201Y000947D01*
X004201Y001056D02*
X004367Y001056D01*
X004367Y001165D02*
X004201Y001165D01*
X004201Y001274D02*
X004367Y001274D01*
X004367Y001383D02*
X004201Y001383D01*
X004201Y001492D02*
X004367Y001492D01*
X004367Y001601D02*
X004201Y001601D01*
X004201Y001710D02*
X004367Y001710D01*
X004367Y001819D02*
X004201Y001819D01*
X004201Y001928D02*
X004367Y001928D01*
X004367Y002037D02*
X004201Y002037D01*
X004201Y002146D02*
X004367Y002146D01*
X004367Y002255D02*
X004201Y002255D01*
X005548Y002302D02*
X005548Y000838D01*
X005382Y000838D01*
X005382Y002302D01*
X005548Y002302D01*
X005548Y000947D02*
X005382Y000947D01*
X005382Y001056D02*
X005548Y001056D01*
X005548Y001165D02*
X005382Y001165D01*
X005382Y001274D02*
X005548Y001274D01*
X005548Y001383D02*
X005382Y001383D01*
X005382Y001492D02*
X005548Y001492D01*
X005548Y001601D02*
X005382Y001601D01*
X005382Y001710D02*
X005548Y001710D01*
X005548Y001819D02*
X005382Y001819D01*
X005382Y001928D02*
X005548Y001928D01*
X005548Y002037D02*
X005382Y002037D01*
X005382Y002146D02*
X005548Y002146D01*
X005548Y002255D02*
X005382Y002255D01*
X005942Y002302D02*
X005942Y000838D01*
X005776Y000838D01*
X005776Y002302D01*
X005942Y002302D01*
X005942Y000947D02*
X005776Y000947D01*
X005776Y001056D02*
X005942Y001056D01*
X005942Y001165D02*
X005776Y001165D01*
X005776Y001274D02*
X005942Y001274D01*
X005942Y001383D02*
X005776Y001383D01*
X005776Y001492D02*
X005942Y001492D01*
X005942Y001601D02*
X005776Y001601D01*
X005776Y001710D02*
X005942Y001710D01*
X005942Y001819D02*
X005776Y001819D01*
X005776Y001928D02*
X005942Y001928D01*
X005942Y002037D02*
X005776Y002037D01*
X005776Y002146D02*
X005942Y002146D01*
X005942Y002255D02*
X005776Y002255D01*
X006335Y002302D02*
X006335Y000838D01*
X006169Y000838D01*
X006169Y002302D01*
X006335Y002302D01*
X006335Y000947D02*
X006169Y000947D01*
X006169Y001056D02*
X006335Y001056D01*
X006335Y001165D02*
X006169Y001165D01*
X006169Y001274D02*
X006335Y001274D01*
X006335Y001383D02*
X006169Y001383D01*
X006169Y001492D02*
X006335Y001492D01*
X006335Y001601D02*
X006169Y001601D01*
X006169Y001710D02*
X006335Y001710D01*
X006335Y001819D02*
X006169Y001819D01*
X006169Y001928D02*
X006335Y001928D01*
X006335Y002037D02*
X006169Y002037D01*
X006169Y002146D02*
X006335Y002146D01*
X006335Y002255D02*
X006169Y002255D01*
X006729Y002302D02*
X006729Y000838D01*
X006563Y000838D01*
X006563Y002302D01*
X006729Y002302D01*
X006729Y000947D02*
X006563Y000947D01*
X006563Y001056D02*
X006729Y001056D01*
X006729Y001165D02*
X006563Y001165D01*
X006563Y001274D02*
X006729Y001274D01*
X006729Y001383D02*
X006563Y001383D01*
X006563Y001492D02*
X006729Y001492D01*
X006729Y001601D02*
X006563Y001601D01*
X006563Y001710D02*
X006729Y001710D01*
X006729Y001819D02*
X006563Y001819D01*
X006563Y001928D02*
X006729Y001928D01*
X006729Y002037D02*
X006563Y002037D01*
X006563Y002146D02*
X006729Y002146D01*
X006729Y002255D02*
X006563Y002255D01*
X007123Y002302D02*
X007123Y000838D01*
X006957Y000838D01*
X006957Y002302D01*
X007123Y002302D01*
X007123Y000947D02*
X006957Y000947D01*
X006957Y001056D02*
X007123Y001056D01*
X007123Y001165D02*
X006957Y001165D01*
X006957Y001274D02*
X007123Y001274D01*
X007123Y001383D02*
X006957Y001383D01*
X006957Y001492D02*
X007123Y001492D01*
X007123Y001601D02*
X006957Y001601D01*
X006957Y001710D02*
X007123Y001710D01*
X007123Y001819D02*
X006957Y001819D01*
X006957Y001928D02*
X007123Y001928D01*
X007123Y002037D02*
X006957Y002037D01*
X006957Y002146D02*
X007123Y002146D01*
X007123Y002255D02*
X006957Y002255D01*
X007516Y002302D02*
X007516Y000838D01*
X007350Y000838D01*
X007350Y002302D01*
X007516Y002302D01*
X007516Y000947D02*
X007350Y000947D01*
X007350Y001056D02*
X007516Y001056D01*
X007516Y001165D02*
X007350Y001165D01*
X007350Y001274D02*
X007516Y001274D01*
X007516Y001383D02*
X007350Y001383D01*
X007350Y001492D02*
X007516Y001492D01*
X007516Y001601D02*
X007350Y001601D01*
X007350Y001710D02*
X007516Y001710D01*
X007516Y001819D02*
X007350Y001819D01*
X007350Y001928D02*
X007516Y001928D01*
X007516Y002037D02*
X007350Y002037D01*
X007350Y002146D02*
X007516Y002146D01*
X007516Y002255D02*
X007350Y002255D01*
X007910Y002302D02*
X007910Y000838D01*
X007744Y000838D01*
X007744Y002302D01*
X007910Y002302D01*
X007910Y000947D02*
X007744Y000947D01*
X007744Y001056D02*
X007910Y001056D01*
X007910Y001165D02*
X007744Y001165D01*
X007744Y001274D02*
X007910Y001274D01*
X007910Y001383D02*
X007744Y001383D01*
X007744Y001492D02*
X007910Y001492D01*
X007910Y001601D02*
X007744Y001601D01*
X007744Y001710D02*
X007910Y001710D01*
X007910Y001819D02*
X007744Y001819D01*
X007744Y001928D02*
X007910Y001928D01*
X007910Y002037D02*
X007744Y002037D01*
X007744Y002146D02*
X007910Y002146D01*
X007910Y002255D02*
X007744Y002255D01*
D12*
X004225Y017531D03*
D13*
X005449Y014206D02*
X005449Y013573D01*
X006449Y013573D02*
X006449Y014206D01*
X007449Y014206D02*
X007449Y013573D01*
X004012Y011844D02*
X004012Y011210D01*
X003012Y011210D02*
X003012Y011844D01*
X002012Y011844D02*
X002012Y011210D01*
X001012Y011210D02*
X001012Y011844D01*
D14*
X003193Y013496D03*
X004193Y013496D03*
X005662Y012133D03*
X007237Y012133D03*
X007237Y010133D03*
X005662Y010133D03*
D15*
X005692Y010113D02*
X007207Y010113D01*
X007207Y010103D02*
X006792Y010103D01*
X006792Y009949D01*
X007052Y009688D01*
X007207Y009688D01*
X007207Y010103D01*
X007267Y010103D01*
X007267Y010163D01*
X007682Y010163D01*
X007682Y010318D01*
X007421Y010578D01*
X007267Y010578D01*
X007267Y010163D01*
X007207Y010163D01*
X007207Y010103D01*
X007207Y010055D02*
X007267Y010055D01*
X007267Y010103D02*
X007267Y009688D01*
X007421Y009688D01*
X007682Y009949D01*
X007682Y010103D01*
X007267Y010103D01*
X007267Y010113D02*
X019705Y010113D01*
X019705Y010055D02*
X007682Y010055D01*
X007682Y009996D02*
X019705Y009996D01*
X019705Y009938D02*
X007670Y009938D01*
X007612Y009879D02*
X019705Y009879D01*
X019705Y009821D02*
X007553Y009821D01*
X007495Y009762D02*
X019705Y009762D01*
X019705Y009704D02*
X007436Y009704D01*
X007267Y009704D02*
X007207Y009704D01*
X007207Y009762D02*
X007267Y009762D01*
X007267Y009821D02*
X007207Y009821D01*
X007207Y009879D02*
X007267Y009879D01*
X007267Y009938D02*
X007207Y009938D01*
X007207Y009996D02*
X007267Y009996D01*
X007267Y010172D02*
X007207Y010172D01*
X007207Y010163D02*
X007207Y010578D01*
X007052Y010578D01*
X006792Y010318D01*
X006792Y010163D01*
X007207Y010163D01*
X007207Y010230D02*
X007267Y010230D01*
X007267Y010289D02*
X007207Y010289D01*
X007207Y010347D02*
X007267Y010347D01*
X007267Y010406D02*
X007207Y010406D01*
X007207Y010464D02*
X007267Y010464D01*
X007267Y010523D02*
X007207Y010523D01*
X006997Y010523D02*
X005902Y010523D01*
X005846Y010578D02*
X005692Y010578D01*
X005692Y010163D01*
X006107Y010163D01*
X006107Y010318D01*
X005846Y010578D01*
X005960Y010464D02*
X006938Y010464D01*
X006880Y010406D02*
X006019Y010406D01*
X006077Y010347D02*
X006821Y010347D01*
X006792Y010289D02*
X006107Y010289D01*
X006107Y010230D02*
X006792Y010230D01*
X006792Y010172D02*
X006107Y010172D01*
X006107Y010103D02*
X005692Y010103D01*
X005692Y009688D01*
X005846Y009688D01*
X006107Y009949D01*
X006107Y010103D01*
X006107Y010055D02*
X006792Y010055D01*
X006792Y009996D02*
X006107Y009996D01*
X006096Y009938D02*
X006803Y009938D01*
X006861Y009879D02*
X006037Y009879D01*
X005979Y009821D02*
X006920Y009821D01*
X006978Y009762D02*
X005920Y009762D01*
X005862Y009704D02*
X007037Y009704D01*
X007682Y010172D02*
X019705Y010172D01*
X019705Y010230D02*
X007682Y010230D01*
X007682Y010289D02*
X019705Y010289D01*
X019705Y010347D02*
X007652Y010347D01*
X007594Y010406D02*
X019705Y010406D01*
X019705Y010464D02*
X007535Y010464D01*
X007477Y010523D02*
X019705Y010523D01*
X019705Y010581D02*
X014370Y010581D01*
X014272Y010541D02*
X014036Y010541D01*
X013818Y010631D01*
X013652Y010798D01*
X013561Y011016D01*
X013561Y011251D01*
X013652Y011469D01*
X013818Y011636D01*
X014036Y011726D01*
X014272Y011726D01*
X014490Y011636D01*
X014656Y011469D01*
X014747Y011251D01*
X014747Y011016D01*
X014656Y010798D01*
X014490Y010631D01*
X014272Y010541D01*
X014498Y010640D02*
X019705Y010640D01*
X019705Y010698D02*
X014557Y010698D01*
X014615Y010757D02*
X019705Y010757D01*
X019705Y010815D02*
X014664Y010815D01*
X014688Y010874D02*
X019705Y010874D01*
X019705Y010932D02*
X014712Y010932D01*
X014736Y010991D02*
X019705Y010991D01*
X019705Y011049D02*
X014747Y011049D01*
X014747Y011108D02*
X019705Y011108D01*
X019705Y011166D02*
X014747Y011166D01*
X014747Y011225D02*
X019705Y011225D01*
X019705Y011283D02*
X014733Y011283D01*
X014709Y011342D02*
X019705Y011342D01*
X019705Y011400D02*
X014685Y011400D01*
X014661Y011459D02*
X019705Y011459D01*
X019705Y011517D02*
X014608Y011517D01*
X014550Y011576D02*
X019705Y011576D01*
X019705Y011634D02*
X014491Y011634D01*
X014352Y011693D02*
X019705Y011693D01*
X019705Y011751D02*
X013252Y011751D01*
X013240Y011724D02*
X013264Y011781D01*
X013594Y011781D01*
X013676Y011863D01*
X014070Y012257D01*
X014070Y018278D01*
X013988Y018360D01*
X012806Y019541D01*
X009541Y019541D01*
X009459Y019459D01*
X008022Y018022D01*
X008022Y017850D01*
X007965Y017826D01*
X007867Y017728D01*
X007814Y017600D01*
X007814Y017462D01*
X007867Y017334D01*
X007965Y017236D01*
X008093Y017183D01*
X008230Y017183D01*
X008219Y017157D01*
X008219Y016921D01*
X008230Y016895D01*
X008093Y016895D01*
X007965Y016842D01*
X007867Y016744D01*
X007814Y016616D01*
X007814Y016478D01*
X007867Y016350D01*
X007965Y016252D01*
X008042Y016220D01*
X008042Y015978D01*
X007965Y016054D01*
X007837Y016107D01*
X007699Y016107D01*
X007571Y016054D01*
X007473Y015956D01*
X007420Y015829D01*
X007420Y015690D01*
X007473Y015562D01*
X007571Y015465D01*
X007699Y015412D01*
X007837Y015412D01*
X007965Y015465D01*
X008042Y015541D01*
X008042Y012914D01*
X008112Y012844D01*
X009155Y011801D01*
X009863Y011801D01*
X009895Y011724D01*
X009992Y011626D01*
X010120Y011573D01*
X010259Y011573D01*
X010386Y011626D01*
X010484Y011724D01*
X010537Y011852D01*
X010537Y011990D01*
X010484Y012118D01*
X010386Y012216D01*
X010259Y012269D01*
X010242Y012269D01*
X010287Y012314D01*
X010340Y012442D01*
X010340Y012581D01*
X010287Y012708D01*
X010190Y012806D01*
X010062Y012859D01*
X009923Y012859D01*
X009796Y012806D01*
X009698Y012708D01*
X009645Y012581D01*
X009645Y012442D01*
X009698Y012314D01*
X009796Y012217D01*
X009923Y012164D01*
X009940Y012164D01*
X009895Y012118D01*
X009863Y012041D01*
X009255Y012041D01*
X008282Y013014D01*
X008282Y016220D01*
X008359Y016252D01*
X008457Y016350D01*
X008510Y016478D01*
X008510Y016523D01*
X008694Y016446D01*
X008929Y016446D01*
X009147Y016537D01*
X009314Y016703D01*
X009404Y016921D01*
X009404Y017157D01*
X009314Y017375D01*
X009147Y017541D01*
X008929Y017632D01*
X008694Y017632D01*
X008510Y017555D01*
X008510Y017600D01*
X008457Y017728D01*
X008359Y017826D01*
X008302Y017850D01*
X008302Y017906D01*
X009657Y019261D01*
X012690Y019261D01*
X013790Y018162D01*
X013790Y018004D01*
X012677Y019117D01*
X012606Y019187D01*
X012011Y019187D01*
X012008Y019190D01*
X010317Y019190D01*
X010247Y019120D01*
X009663Y018537D01*
X009644Y018566D01*
X009590Y018620D01*
X009527Y018662D01*
X009456Y018691D01*
X009381Y018706D01*
X009373Y018706D01*
X009373Y018349D01*
X009313Y018349D01*
X009313Y018706D01*
X009305Y018706D01*
X009230Y018691D01*
X009159Y018662D01*
X009096Y018620D01*
X009042Y018566D01*
X008999Y018502D01*
X008970Y018432D01*
X008955Y018357D01*
X008955Y018349D01*
X009313Y018349D01*
X009313Y018289D01*
X008955Y018289D01*
X008955Y018280D01*
X008970Y018205D01*
X008999Y018135D01*
X009042Y018071D01*
X009096Y018017D01*
X009159Y017975D01*
X009230Y017946D01*
X009305Y017931D01*
X009313Y017931D01*
X009313Y018288D01*
X009373Y018288D01*
X009373Y017931D01*
X009381Y017931D01*
X009456Y017946D01*
X009527Y017975D01*
X009590Y018017D01*
X009617Y018044D01*
X009617Y017858D01*
X009540Y017826D01*
X009442Y017728D01*
X009389Y017600D01*
X009389Y017462D01*
X009442Y017334D01*
X009540Y017236D01*
X009667Y017183D01*
X009806Y017183D01*
X009934Y017236D01*
X010031Y017334D01*
X010084Y017462D01*
X010084Y017600D01*
X010031Y017728D01*
X009955Y017805D01*
X010249Y017805D01*
X010223Y017778D01*
X010180Y017715D01*
X010151Y017644D01*
X010136Y017569D01*
X010136Y017561D01*
X010494Y017561D01*
X010494Y017501D01*
X010554Y017501D01*
X010554Y017143D01*
X010562Y017143D01*
X010637Y017158D01*
X010708Y017187D01*
X010771Y017230D01*
X010825Y017284D01*
X010868Y017347D01*
X010897Y017418D01*
X010912Y017493D01*
X010912Y017501D01*
X010554Y017501D01*
X010554Y017561D01*
X010912Y017561D01*
X010912Y017569D01*
X010897Y017644D01*
X010868Y017715D01*
X010825Y017778D01*
X010771Y017832D01*
X010708Y017875D01*
X010637Y017904D01*
X010562Y017919D01*
X010554Y017919D01*
X010554Y017561D01*
X010494Y017561D01*
X010494Y017919D01*
X010486Y017919D01*
X010473Y017916D01*
X010650Y018094D01*
X010721Y018024D01*
X010849Y017971D01*
X010987Y017971D01*
X011115Y018024D01*
X011213Y018121D01*
X011266Y018249D01*
X011266Y018388D01*
X011213Y018516D01*
X011115Y018613D01*
X010987Y018666D01*
X010849Y018666D01*
X010728Y018616D01*
X010939Y018827D01*
X012457Y018827D01*
X013454Y017831D01*
X013454Y015381D01*
X011054Y012981D01*
X011054Y012730D01*
X010977Y012806D01*
X010849Y012859D01*
X010711Y012859D01*
X010583Y012806D01*
X010485Y012708D01*
X010432Y012581D01*
X010432Y012442D01*
X010485Y012314D01*
X010583Y012217D01*
X010711Y012164D01*
X010849Y012164D01*
X010977Y012217D01*
X011054Y012293D01*
X011054Y012248D01*
X010977Y012216D01*
X010879Y012118D01*
X010826Y011990D01*
X010826Y011852D01*
X010879Y011724D01*
X010977Y011626D01*
X011104Y011573D01*
X011243Y011573D01*
X011371Y011626D01*
X011468Y011724D01*
X011521Y011852D01*
X011521Y011990D01*
X011468Y012118D01*
X011443Y012143D01*
X011454Y012139D01*
X011529Y012124D01*
X011537Y012124D01*
X011537Y012481D01*
X011597Y012481D01*
X011597Y012124D01*
X011606Y012124D01*
X011680Y012139D01*
X011691Y012143D01*
X011666Y012118D01*
X011613Y011990D01*
X011613Y011852D01*
X011666Y011724D01*
X011764Y011626D01*
X011892Y011573D01*
X012030Y011573D01*
X012158Y011626D01*
X012256Y011724D01*
X012309Y011852D01*
X012309Y011990D01*
X012256Y012118D01*
X012158Y012216D01*
X012081Y012248D01*
X012081Y012293D01*
X012158Y012217D01*
X012286Y012164D01*
X012424Y012164D01*
X012552Y012217D01*
X012650Y012314D01*
X012703Y012442D01*
X012703Y012581D01*
X012650Y012708D01*
X012552Y012806D01*
X012424Y012859D01*
X012286Y012859D01*
X012158Y012806D01*
X012081Y012730D01*
X012081Y013499D01*
X013744Y015162D01*
X013790Y015207D01*
X013790Y012373D01*
X013478Y012061D01*
X013264Y012061D01*
X013240Y012118D01*
X013194Y012164D01*
X013211Y012164D01*
X013339Y012217D01*
X013437Y012314D01*
X013490Y012442D01*
X013490Y012581D01*
X013437Y012708D01*
X013339Y012806D01*
X013211Y012859D01*
X013073Y012859D01*
X012945Y012806D01*
X012847Y012708D01*
X012794Y012581D01*
X012794Y012442D01*
X012847Y012314D01*
X012893Y012269D01*
X012876Y012269D01*
X012748Y012216D01*
X012650Y012118D01*
X012597Y011990D01*
X012597Y011852D01*
X012650Y011724D01*
X012748Y011626D01*
X012876Y011573D01*
X013014Y011573D01*
X013142Y011626D01*
X013240Y011724D01*
X013209Y011693D02*
X013956Y011693D01*
X013817Y011634D02*
X013151Y011634D01*
X013021Y011576D02*
X013758Y011576D01*
X013700Y011517D02*
X009435Y011517D01*
X009483Y011469D02*
X009316Y011636D01*
X009099Y011726D01*
X008863Y011726D01*
X008645Y011636D01*
X008478Y011469D01*
X008388Y011251D01*
X008388Y011016D01*
X008478Y010798D01*
X008645Y010631D01*
X008863Y010541D01*
X009099Y010541D01*
X009316Y010631D01*
X009483Y010798D01*
X009573Y011016D01*
X009573Y011251D01*
X009483Y011469D01*
X009487Y011459D02*
X013647Y011459D01*
X013623Y011400D02*
X009512Y011400D01*
X009536Y011342D02*
X013599Y011342D01*
X013575Y011283D02*
X009560Y011283D01*
X009573Y011225D02*
X013561Y011225D01*
X013561Y011166D02*
X009573Y011166D01*
X009573Y011108D02*
X013561Y011108D01*
X013561Y011049D02*
X009573Y011049D01*
X009563Y010991D02*
X013572Y010991D01*
X013596Y010932D02*
X009539Y010932D01*
X009515Y010874D02*
X013620Y010874D01*
X013644Y010815D02*
X009490Y010815D01*
X009442Y010757D02*
X013692Y010757D01*
X013751Y010698D02*
X009384Y010698D01*
X009325Y010640D02*
X013809Y010640D01*
X013938Y010581D02*
X009196Y010581D01*
X008765Y010581D02*
X000280Y010581D01*
X000280Y010523D02*
X005422Y010523D01*
X005477Y010578D02*
X005217Y010318D01*
X005217Y010163D01*
X005632Y010163D01*
X005632Y010103D01*
X005692Y010103D01*
X005692Y010163D01*
X005632Y010163D01*
X005632Y010578D01*
X005477Y010578D01*
X005363Y010464D02*
X000280Y010464D01*
X000280Y010406D02*
X005305Y010406D01*
X005246Y010347D02*
X000280Y010347D01*
X000280Y010289D02*
X005217Y010289D01*
X005217Y010230D02*
X000280Y010230D01*
X000280Y010172D02*
X005217Y010172D01*
X005217Y010103D02*
X005217Y009949D01*
X005477Y009688D01*
X005632Y009688D01*
X005632Y010103D01*
X005217Y010103D01*
X005217Y010055D02*
X000280Y010055D01*
X000280Y010113D02*
X005632Y010113D01*
X005632Y010055D02*
X005692Y010055D01*
X005692Y009996D02*
X005632Y009996D01*
X005632Y009938D02*
X005692Y009938D01*
X005692Y009879D02*
X005632Y009879D01*
X005632Y009821D02*
X005692Y009821D01*
X005692Y009762D02*
X005632Y009762D01*
X005632Y009704D02*
X005692Y009704D01*
X005462Y009704D02*
X000280Y009704D01*
X000280Y009762D02*
X005404Y009762D01*
X005345Y009821D02*
X000280Y009821D01*
X000280Y009879D02*
X005287Y009879D01*
X005228Y009938D02*
X000280Y009938D01*
X000280Y009996D02*
X005217Y009996D01*
X005632Y010172D02*
X005692Y010172D01*
X005692Y010230D02*
X005632Y010230D01*
X005632Y010289D02*
X005692Y010289D01*
X005692Y010347D02*
X005632Y010347D01*
X005632Y010406D02*
X005692Y010406D01*
X005692Y010464D02*
X005632Y010464D01*
X005632Y010523D02*
X005692Y010523D01*
X005830Y011728D02*
X005494Y011728D01*
X005257Y011966D01*
X005257Y012301D01*
X005494Y012538D01*
X005830Y012538D01*
X006067Y012301D01*
X006067Y011966D01*
X005830Y011728D01*
X005852Y011751D02*
X007046Y011751D01*
X007069Y011728D02*
X007404Y011728D01*
X007642Y011966D01*
X007642Y012301D01*
X007404Y012538D01*
X007285Y012538D01*
X006856Y013495D01*
X006856Y014287D01*
X006794Y014437D01*
X006680Y014551D01*
X006659Y014560D01*
X006659Y014999D01*
X006978Y015412D01*
X007050Y015412D01*
X007178Y015465D01*
X007276Y015562D01*
X007329Y015690D01*
X007329Y015829D01*
X007276Y015956D01*
X007178Y016054D01*
X007050Y016107D01*
X006912Y016107D01*
X006784Y016054D01*
X006686Y015956D01*
X006633Y015829D01*
X006633Y015690D01*
X006643Y015666D01*
X006346Y015280D01*
X002234Y015280D01*
X002214Y015300D01*
X002023Y015300D01*
X001889Y015166D01*
X001889Y014975D01*
X002023Y014840D01*
X002214Y014840D01*
X002234Y014860D01*
X006239Y014860D01*
X006239Y014560D01*
X006219Y014551D01*
X006104Y014437D01*
X006042Y014287D01*
X006042Y013492D01*
X006104Y013342D01*
X006219Y013228D01*
X006368Y013166D01*
X006530Y013166D01*
X006541Y013170D01*
X006900Y012370D01*
X006832Y012301D01*
X006832Y011966D01*
X007069Y011728D01*
X006987Y011810D02*
X005911Y011810D01*
X005969Y011868D02*
X006929Y011868D01*
X006870Y011927D02*
X006028Y011927D01*
X006067Y011985D02*
X006832Y011985D01*
X006832Y012044D02*
X006067Y012044D01*
X006067Y012102D02*
X006832Y012102D01*
X006832Y012161D02*
X006067Y012161D01*
X006067Y012219D02*
X006832Y012219D01*
X006832Y012278D02*
X006067Y012278D01*
X006032Y012336D02*
X006867Y012336D01*
X006889Y012395D02*
X005973Y012395D01*
X005915Y012453D02*
X006863Y012453D01*
X006837Y012512D02*
X005856Y012512D01*
X005467Y012512D02*
X000280Y012512D01*
X000280Y012570D02*
X006811Y012570D01*
X006784Y012629D02*
X000280Y012629D01*
X000280Y012687D02*
X006758Y012687D01*
X006732Y012746D02*
X000280Y012746D01*
X000280Y012804D02*
X006706Y012804D01*
X006679Y012863D02*
X000280Y012863D01*
X000280Y012921D02*
X006653Y012921D01*
X006627Y012980D02*
X000280Y012980D01*
X000280Y013038D02*
X006601Y013038D01*
X006574Y013097D02*
X004424Y013097D01*
X004378Y013051D02*
X004638Y013311D01*
X004638Y013466D01*
X004223Y013466D01*
X004223Y013526D01*
X004163Y013526D01*
X004163Y013941D01*
X004009Y013941D01*
X003748Y013680D01*
X003748Y013526D01*
X004163Y013526D01*
X004163Y013466D01*
X003748Y013466D01*
X003748Y013311D01*
X004009Y013051D01*
X004163Y013051D01*
X004163Y013466D01*
X004223Y013466D01*
X004223Y013051D01*
X004378Y013051D01*
X004482Y013155D02*
X006548Y013155D01*
X006252Y013214D02*
X005647Y013214D01*
X005680Y013228D02*
X005794Y013342D01*
X005856Y013492D01*
X005856Y014287D01*
X005794Y014437D01*
X005680Y014551D01*
X005530Y014613D01*
X005368Y014613D01*
X005219Y014551D01*
X005104Y014437D01*
X005042Y014287D01*
X005042Y013492D01*
X005104Y013342D01*
X005219Y013228D01*
X005368Y013166D01*
X005530Y013166D01*
X005680Y013228D01*
X005724Y013272D02*
X006174Y013272D01*
X006115Y013331D02*
X005783Y013331D01*
X005814Y013389D02*
X006085Y013389D01*
X006060Y013448D02*
X005838Y013448D01*
X005856Y013506D02*
X006042Y013506D01*
X006042Y013565D02*
X005856Y013565D01*
X005856Y013623D02*
X006042Y013623D01*
X006042Y013682D02*
X005856Y013682D01*
X005856Y013740D02*
X006042Y013740D01*
X006042Y013799D02*
X005856Y013799D01*
X005856Y013857D02*
X006042Y013857D01*
X006042Y013916D02*
X005856Y013916D01*
X005856Y013974D02*
X006042Y013974D01*
X006042Y014033D02*
X005856Y014033D01*
X005856Y014091D02*
X006042Y014091D01*
X006042Y014150D02*
X005856Y014150D01*
X005856Y014208D02*
X006042Y014208D01*
X006042Y014267D02*
X005856Y014267D01*
X005840Y014325D02*
X006058Y014325D01*
X006082Y014384D02*
X005816Y014384D01*
X005788Y014442D02*
X006110Y014442D01*
X006169Y014501D02*
X005730Y014501D01*
X005660Y014559D02*
X006239Y014559D01*
X006239Y014618D02*
X000280Y014618D01*
X000280Y014676D02*
X006239Y014676D01*
X006239Y014735D02*
X000280Y014735D01*
X000280Y014793D02*
X006239Y014793D01*
X006239Y014852D02*
X002225Y014852D01*
X002012Y014852D02*
X000280Y014852D01*
X000280Y014910D02*
X001953Y014910D01*
X001895Y014969D02*
X000280Y014969D01*
X000280Y015027D02*
X001889Y015027D01*
X001889Y015086D02*
X000280Y015086D01*
X000280Y015144D02*
X001889Y015144D01*
X001926Y015203D02*
X000280Y015203D01*
X000280Y015261D02*
X001984Y015261D01*
X003026Y013901D02*
X002788Y013663D01*
X002788Y013328D01*
X003026Y013091D01*
X003361Y013091D01*
X003598Y013328D01*
X003598Y013663D01*
X003361Y013901D01*
X003026Y013901D01*
X002982Y013857D02*
X000280Y013857D01*
X000280Y013799D02*
X002924Y013799D01*
X002865Y013740D02*
X000280Y013740D01*
X000280Y013682D02*
X002807Y013682D01*
X002788Y013623D02*
X000280Y013623D01*
X000280Y013565D02*
X002788Y013565D01*
X002788Y013506D02*
X000280Y013506D01*
X000280Y013448D02*
X002788Y013448D01*
X002788Y013389D02*
X000280Y013389D01*
X000280Y013331D02*
X002788Y013331D01*
X002844Y013272D02*
X000280Y013272D01*
X000280Y013214D02*
X002902Y013214D01*
X002961Y013155D02*
X000280Y013155D01*
X000280Y013097D02*
X003019Y013097D01*
X003367Y013097D02*
X003963Y013097D01*
X003904Y013155D02*
X003426Y013155D01*
X003484Y013214D02*
X003846Y013214D01*
X003787Y013272D02*
X003543Y013272D01*
X003598Y013331D02*
X003748Y013331D01*
X003748Y013389D02*
X003598Y013389D01*
X003598Y013448D02*
X003748Y013448D01*
X003748Y013565D02*
X003598Y013565D01*
X003598Y013623D02*
X003748Y013623D01*
X003750Y013682D02*
X003580Y013682D01*
X003521Y013740D02*
X003809Y013740D01*
X003867Y013799D02*
X003463Y013799D01*
X003404Y013857D02*
X003926Y013857D01*
X003984Y013916D02*
X000280Y013916D01*
X000280Y013974D02*
X005042Y013974D01*
X005042Y013916D02*
X004402Y013916D01*
X004378Y013941D02*
X004638Y013680D01*
X004638Y013526D01*
X004223Y013526D01*
X004223Y013941D01*
X004378Y013941D01*
X004461Y013857D02*
X005042Y013857D01*
X005042Y013799D02*
X004519Y013799D01*
X004578Y013740D02*
X005042Y013740D01*
X005042Y013682D02*
X004636Y013682D01*
X004638Y013623D02*
X005042Y013623D01*
X005042Y013565D02*
X004638Y013565D01*
X004638Y013448D02*
X005060Y013448D01*
X005042Y013506D02*
X004223Y013506D01*
X004223Y013448D02*
X004163Y013448D01*
X004163Y013506D02*
X003598Y013506D01*
X004163Y013565D02*
X004223Y013565D01*
X004223Y013623D02*
X004163Y013623D01*
X004163Y013682D02*
X004223Y013682D01*
X004223Y013740D02*
X004163Y013740D01*
X004163Y013799D02*
X004223Y013799D01*
X004223Y013857D02*
X004163Y013857D01*
X004163Y013916D02*
X004223Y013916D01*
X004223Y013389D02*
X004163Y013389D01*
X004163Y013331D02*
X004223Y013331D01*
X004223Y013272D02*
X004163Y013272D01*
X004163Y013214D02*
X004223Y013214D01*
X004223Y013155D02*
X004163Y013155D01*
X004163Y013097D02*
X004223Y013097D01*
X004541Y013214D02*
X005252Y013214D01*
X005174Y013272D02*
X004599Y013272D01*
X004638Y013331D02*
X005115Y013331D01*
X005085Y013389D02*
X004638Y013389D01*
X005042Y014033D02*
X000280Y014033D01*
X000280Y014091D02*
X005042Y014091D01*
X005042Y014150D02*
X000280Y014150D01*
X000280Y014208D02*
X005042Y014208D01*
X005042Y014267D02*
X000280Y014267D01*
X000280Y014325D02*
X005058Y014325D01*
X005082Y014384D02*
X000280Y014384D01*
X000280Y014442D02*
X005110Y014442D01*
X005169Y014501D02*
X000280Y014501D01*
X000280Y014559D02*
X005239Y014559D01*
X005368Y015372D02*
X005376Y015372D01*
X005376Y015729D01*
X005436Y015729D01*
X005436Y015372D01*
X005444Y015372D01*
X005519Y015387D01*
X005590Y015416D01*
X005653Y015458D01*
X005707Y015512D01*
X005750Y015576D01*
X005779Y015646D01*
X005794Y015721D01*
X005794Y015729D01*
X005846Y015729D01*
X005846Y015690D02*
X005898Y015562D01*
X005996Y015465D01*
X006124Y015412D01*
X006262Y015412D01*
X006390Y015465D01*
X006488Y015562D01*
X006541Y015690D01*
X006541Y015829D01*
X006488Y015956D01*
X006390Y016054D01*
X006262Y016107D01*
X006124Y016107D01*
X005996Y016054D01*
X005898Y015956D01*
X005846Y015829D01*
X005846Y015690D01*
X005854Y015671D02*
X005784Y015671D01*
X005794Y015729D02*
X005436Y015729D01*
X005376Y015729D01*
X005018Y015729D01*
X004966Y015729D01*
X004966Y015690D02*
X004913Y015562D01*
X004816Y015465D01*
X004688Y015412D01*
X004549Y015412D01*
X004421Y015465D01*
X004324Y015562D01*
X004271Y015690D01*
X004271Y015829D01*
X004324Y015956D01*
X004421Y016054D01*
X004549Y016107D01*
X004688Y016107D01*
X004816Y016054D01*
X004913Y015956D01*
X004966Y015829D01*
X004966Y015690D01*
X004958Y015671D02*
X005028Y015671D01*
X005033Y015646D02*
X005062Y015576D01*
X005105Y015512D01*
X005159Y015458D01*
X005222Y015416D01*
X005293Y015387D01*
X005368Y015372D01*
X005376Y015378D02*
X005436Y015378D01*
X005478Y015378D02*
X006422Y015378D01*
X006376Y015320D02*
X000280Y015320D01*
X000280Y015378D02*
X005334Y015378D01*
X005376Y015437D02*
X005436Y015437D01*
X005436Y015495D02*
X005376Y015495D01*
X005376Y015554D02*
X005436Y015554D01*
X005436Y015612D02*
X005376Y015612D01*
X005376Y015671D02*
X005436Y015671D01*
X005436Y015729D02*
X005436Y015789D01*
X005794Y015789D01*
X005794Y015798D01*
X005779Y015873D01*
X005750Y015943D01*
X005707Y016007D01*
X005653Y016061D01*
X005590Y016103D01*
X005519Y016132D01*
X005444Y016147D01*
X005436Y016147D01*
X005436Y015789D01*
X005376Y015789D01*
X005376Y015729D01*
X005376Y015788D02*
X004966Y015788D01*
X005018Y015789D02*
X005376Y015789D01*
X005376Y016147D01*
X005368Y016147D01*
X005293Y016132D01*
X005222Y016103D01*
X005159Y016061D01*
X005105Y016007D01*
X005062Y015943D01*
X005033Y015873D01*
X005018Y015798D01*
X005018Y015789D01*
X005028Y015846D02*
X004959Y015846D01*
X004935Y015905D02*
X005046Y015905D01*
X005076Y015963D02*
X004906Y015963D01*
X004848Y016022D02*
X005120Y016022D01*
X005188Y016080D02*
X004752Y016080D01*
X004815Y016252D02*
X004943Y016199D01*
X005081Y016199D01*
X005209Y016252D01*
X005307Y016350D01*
X005360Y016478D01*
X005360Y016616D01*
X005307Y016744D01*
X005209Y016842D01*
X005081Y016895D01*
X004943Y016895D01*
X004815Y016842D01*
X004717Y016744D01*
X004664Y016616D01*
X004664Y016478D01*
X004717Y016350D01*
X004815Y016252D01*
X004811Y016256D02*
X004426Y016256D01*
X004422Y016252D02*
X004520Y016350D01*
X004573Y016478D01*
X004573Y016616D01*
X004520Y016744D01*
X004422Y016842D01*
X004294Y016895D01*
X004156Y016895D01*
X004028Y016842D01*
X003930Y016744D01*
X003877Y016616D01*
X003877Y016478D01*
X003930Y016350D01*
X004028Y016252D01*
X004156Y016199D01*
X004294Y016199D01*
X004422Y016252D01*
X004484Y016314D02*
X004753Y016314D01*
X004708Y016373D02*
X004529Y016373D01*
X004553Y016431D02*
X004684Y016431D01*
X004664Y016490D02*
X004573Y016490D01*
X004573Y016548D02*
X004664Y016548D01*
X004664Y016607D02*
X004573Y016607D01*
X004552Y016665D02*
X004685Y016665D01*
X004709Y016724D02*
X004528Y016724D01*
X004481Y016782D02*
X004756Y016782D01*
X004814Y016841D02*
X004423Y016841D01*
X004520Y017183D02*
X004573Y017236D01*
X004573Y017826D01*
X004520Y017879D01*
X003930Y017879D01*
X003877Y017826D01*
X003877Y017236D01*
X003930Y017183D01*
X004520Y017183D01*
X004528Y017192D02*
X004922Y017192D01*
X004943Y017183D02*
X005081Y017183D01*
X005209Y017236D01*
X005307Y017334D01*
X005360Y017462D01*
X005360Y017600D01*
X005307Y017728D01*
X005209Y017826D01*
X005081Y017879D01*
X004943Y017879D01*
X004815Y017826D01*
X004717Y017728D01*
X004664Y017600D01*
X004664Y017462D01*
X004717Y017334D01*
X004815Y017236D01*
X004943Y017183D01*
X004801Y017250D02*
X004573Y017250D01*
X004573Y017309D02*
X004743Y017309D01*
X004704Y017367D02*
X004573Y017367D01*
X004573Y017426D02*
X004679Y017426D01*
X004664Y017484D02*
X004573Y017484D01*
X004573Y017543D02*
X004664Y017543D01*
X004665Y017601D02*
X004573Y017601D01*
X004573Y017660D02*
X004689Y017660D01*
X004713Y017718D02*
X004573Y017718D01*
X004573Y017777D02*
X004766Y017777D01*
X004838Y017835D02*
X004563Y017835D01*
X004549Y017971D02*
X004688Y017971D01*
X004816Y018024D01*
X004913Y018121D01*
X004966Y018249D01*
X004966Y018388D01*
X004913Y018516D01*
X004816Y018613D01*
X004688Y018666D01*
X004549Y018666D01*
X004421Y018613D01*
X004324Y018516D01*
X004271Y018388D01*
X004271Y018249D01*
X004324Y018121D01*
X004421Y018024D01*
X004549Y017971D01*
X004452Y018011D02*
X000280Y018011D01*
X000280Y018069D02*
X004376Y018069D01*
X004321Y018128D02*
X000280Y018128D01*
X000280Y018186D02*
X004297Y018186D01*
X004273Y018245D02*
X000280Y018245D01*
X000280Y018303D02*
X004271Y018303D01*
X004271Y018362D02*
X000280Y018362D01*
X000280Y018420D02*
X004284Y018420D01*
X004309Y018479D02*
X000280Y018479D01*
X000280Y018537D02*
X004346Y018537D01*
X004404Y018596D02*
X000280Y018596D01*
X000280Y018654D02*
X004521Y018654D01*
X004716Y018654D02*
X005211Y018654D01*
X005222Y018662D02*
X005159Y018620D01*
X005105Y018566D01*
X005062Y018502D01*
X005033Y018432D01*
X005018Y018357D01*
X005018Y018349D01*
X005376Y018349D01*
X005376Y018706D01*
X005368Y018706D01*
X005293Y018691D01*
X005222Y018662D01*
X005135Y018596D02*
X004833Y018596D01*
X004891Y018537D02*
X005086Y018537D01*
X005053Y018479D02*
X004929Y018479D01*
X004953Y018420D02*
X005031Y018420D01*
X005019Y018362D02*
X004966Y018362D01*
X004966Y018303D02*
X005376Y018303D01*
X005376Y018289D02*
X005018Y018289D01*
X005018Y018280D01*
X005033Y018205D01*
X005062Y018135D01*
X005105Y018071D01*
X005159Y018017D01*
X005222Y017975D01*
X005293Y017946D01*
X005368Y017931D01*
X005376Y017931D01*
X005376Y018288D01*
X005436Y018288D01*
X005436Y017931D01*
X005444Y017931D01*
X005519Y017946D01*
X005590Y017975D01*
X005653Y018017D01*
X005707Y018071D01*
X005750Y018135D01*
X005779Y018205D01*
X005794Y018280D01*
X005794Y018289D01*
X005436Y018289D01*
X005436Y018349D01*
X005376Y018349D01*
X005376Y018289D01*
X005376Y018245D02*
X005436Y018245D01*
X005436Y018303D02*
X005846Y018303D01*
X005846Y018249D02*
X005898Y018121D01*
X005996Y018024D01*
X006124Y017971D01*
X006262Y017971D01*
X006390Y018024D01*
X006488Y018121D01*
X006541Y018249D01*
X006541Y018388D01*
X006488Y018516D01*
X006390Y018613D01*
X006262Y018666D01*
X006124Y018666D01*
X005996Y018613D01*
X005898Y018516D01*
X005846Y018388D01*
X005846Y018249D01*
X005847Y018245D02*
X005787Y018245D01*
X005771Y018186D02*
X005872Y018186D01*
X005896Y018128D02*
X005745Y018128D01*
X005705Y018069D02*
X005951Y018069D01*
X006027Y018011D02*
X005644Y018011D01*
X005535Y017952D02*
X007350Y017952D01*
X007321Y017894D02*
X000280Y017894D01*
X000280Y017952D02*
X005276Y017952D01*
X005376Y017952D02*
X005436Y017952D01*
X005436Y018011D02*
X005376Y018011D01*
X005376Y018069D02*
X005436Y018069D01*
X005436Y018128D02*
X005376Y018128D01*
X005376Y018186D02*
X005436Y018186D01*
X005436Y018349D02*
X005794Y018349D01*
X005794Y018357D01*
X005779Y018432D01*
X005750Y018502D01*
X005707Y018566D01*
X005653Y018620D01*
X005590Y018662D01*
X005519Y018691D01*
X005444Y018706D01*
X005436Y018706D01*
X005436Y018349D01*
X005436Y018362D02*
X005376Y018362D01*
X005376Y018420D02*
X005436Y018420D01*
X005436Y018479D02*
X005376Y018479D01*
X005376Y018537D02*
X005436Y018537D01*
X005436Y018596D02*
X005376Y018596D01*
X005376Y018654D02*
X005436Y018654D01*
X005601Y018654D02*
X006095Y018654D01*
X005979Y018596D02*
X005677Y018596D01*
X005726Y018537D02*
X005920Y018537D01*
X005883Y018479D02*
X005759Y018479D01*
X005781Y018420D02*
X005859Y018420D01*
X005846Y018362D02*
X005793Y018362D01*
X006291Y018654D02*
X006883Y018654D01*
X006912Y018666D02*
X006784Y018613D01*
X006686Y018516D01*
X006633Y018388D01*
X006633Y018249D01*
X006686Y018121D01*
X006784Y018024D01*
X006912Y017971D01*
X007050Y017971D01*
X007178Y018024D01*
X007276Y018121D01*
X007329Y018249D01*
X007329Y018388D01*
X007276Y018516D01*
X007178Y018613D01*
X007050Y018666D01*
X006912Y018666D01*
X006766Y018596D02*
X006408Y018596D01*
X006466Y018537D02*
X006708Y018537D01*
X006671Y018479D02*
X006503Y018479D01*
X006528Y018420D02*
X006646Y018420D01*
X006633Y018362D02*
X006541Y018362D01*
X006541Y018303D02*
X006633Y018303D01*
X006635Y018245D02*
X006539Y018245D01*
X006515Y018186D02*
X006659Y018186D01*
X006683Y018128D02*
X006491Y018128D01*
X006436Y018069D02*
X006738Y018069D01*
X006814Y018011D02*
X006360Y018011D01*
X006413Y017835D02*
X005974Y017835D01*
X005997Y017826D02*
X005869Y017879D01*
X005730Y017879D01*
X005603Y017826D01*
X005505Y017728D01*
X005452Y017600D01*
X005452Y017462D01*
X005505Y017334D01*
X005603Y017236D01*
X005730Y017183D01*
X005869Y017183D01*
X005997Y017236D01*
X006094Y017334D01*
X006147Y017462D01*
X006147Y017600D01*
X006094Y017728D01*
X005997Y017826D01*
X006046Y017777D02*
X006341Y017777D01*
X006292Y017728D02*
X006239Y017600D01*
X006239Y017462D01*
X006292Y017334D01*
X006390Y017236D01*
X006518Y017183D01*
X006656Y017183D01*
X006784Y017236D01*
X006882Y017334D01*
X006935Y017462D01*
X006935Y017600D01*
X006882Y017728D01*
X006784Y017826D01*
X006656Y017879D01*
X006518Y017879D01*
X006390Y017826D01*
X006292Y017728D01*
X006288Y017718D02*
X006098Y017718D01*
X006123Y017660D02*
X006264Y017660D01*
X006240Y017601D02*
X006147Y017601D01*
X006147Y017543D02*
X006239Y017543D01*
X006239Y017484D02*
X006147Y017484D01*
X006132Y017426D02*
X006254Y017426D01*
X006278Y017367D02*
X006108Y017367D01*
X006069Y017309D02*
X006317Y017309D01*
X006376Y017250D02*
X006011Y017250D01*
X005890Y017192D02*
X006497Y017192D01*
X006677Y017192D02*
X007284Y017192D01*
X007305Y017183D02*
X007444Y017183D01*
X007571Y017236D01*
X007669Y017334D01*
X007722Y017462D01*
X007722Y017600D01*
X007687Y017686D01*
X007829Y017971D01*
X007837Y017971D01*
X007965Y018024D01*
X008063Y018121D01*
X008116Y018249D01*
X008116Y018388D01*
X008063Y018516D01*
X007965Y018613D01*
X007837Y018666D01*
X007699Y018666D01*
X007571Y018613D01*
X007473Y018516D01*
X007420Y018388D01*
X007420Y018249D01*
X007456Y018164D01*
X007314Y017879D01*
X007305Y017879D01*
X007177Y017826D01*
X007080Y017728D01*
X007027Y017600D01*
X007027Y017462D01*
X007080Y017334D01*
X007177Y017236D01*
X007305Y017183D01*
X007163Y017250D02*
X006798Y017250D01*
X006857Y017309D02*
X007105Y017309D01*
X007066Y017367D02*
X006896Y017367D01*
X006920Y017426D02*
X007042Y017426D01*
X007027Y017484D02*
X006935Y017484D01*
X006935Y017543D02*
X007027Y017543D01*
X007027Y017601D02*
X006934Y017601D01*
X006910Y017660D02*
X007051Y017660D01*
X007076Y017718D02*
X006886Y017718D01*
X006833Y017777D02*
X007128Y017777D01*
X007200Y017835D02*
X006761Y017835D01*
X007147Y018011D02*
X007380Y018011D01*
X007409Y018069D02*
X007223Y018069D01*
X007278Y018128D02*
X007438Y018128D01*
X007446Y018186D02*
X007302Y018186D01*
X007327Y018245D02*
X007422Y018245D01*
X007420Y018303D02*
X007329Y018303D01*
X007329Y018362D02*
X007420Y018362D01*
X007434Y018420D02*
X007315Y018420D01*
X007291Y018479D02*
X007458Y018479D01*
X007495Y018537D02*
X007254Y018537D01*
X007195Y018596D02*
X007554Y018596D01*
X007670Y018654D02*
X007079Y018654D01*
X007866Y018654D02*
X008654Y018654D01*
X008596Y018596D02*
X007983Y018596D01*
X008041Y018537D02*
X008537Y018537D01*
X008479Y018479D02*
X008078Y018479D01*
X008102Y018420D02*
X008420Y018420D01*
X008362Y018362D02*
X008116Y018362D01*
X008116Y018303D02*
X008303Y018303D01*
X008245Y018245D02*
X008114Y018245D01*
X008090Y018186D02*
X008186Y018186D01*
X008128Y018128D02*
X008066Y018128D01*
X008069Y018069D02*
X008011Y018069D01*
X008022Y018011D02*
X007934Y018011D01*
X008022Y017952D02*
X007820Y017952D01*
X007791Y017894D02*
X008022Y017894D01*
X007988Y017835D02*
X007761Y017835D01*
X007732Y017777D02*
X007916Y017777D01*
X007863Y017718D02*
X007703Y017718D01*
X007698Y017660D02*
X007839Y017660D01*
X007814Y017601D02*
X007722Y017601D01*
X007722Y017543D02*
X007814Y017543D01*
X007814Y017484D02*
X007722Y017484D01*
X007707Y017426D02*
X007829Y017426D01*
X007853Y017367D02*
X007683Y017367D01*
X007644Y017309D02*
X007892Y017309D01*
X007951Y017250D02*
X007586Y017250D01*
X007464Y017192D02*
X008072Y017192D01*
X008219Y017133D02*
X000280Y017133D01*
X000280Y017075D02*
X008219Y017075D01*
X008219Y017016D02*
X000280Y017016D01*
X000280Y016958D02*
X008219Y016958D01*
X008228Y016899D02*
X006749Y016899D01*
X006771Y016891D02*
X006700Y016920D01*
X006625Y016935D01*
X006617Y016935D01*
X006617Y016577D01*
X006557Y016577D01*
X006557Y016935D01*
X006549Y016935D01*
X006474Y016920D01*
X006403Y016891D01*
X006340Y016848D01*
X006286Y016794D01*
X006243Y016731D01*
X006214Y016660D01*
X006199Y016585D01*
X006199Y016577D01*
X006557Y016577D01*
X006557Y016517D01*
X006199Y016517D01*
X006199Y016509D01*
X006214Y016434D01*
X006243Y016363D01*
X006286Y016300D01*
X006340Y016246D01*
X006403Y016203D01*
X006474Y016174D01*
X006549Y016159D01*
X006557Y016159D01*
X006557Y016517D01*
X006617Y016517D01*
X006617Y016577D01*
X006975Y016577D01*
X006975Y016585D01*
X006960Y016660D01*
X006931Y016731D01*
X006888Y016794D01*
X006834Y016848D01*
X006771Y016891D01*
X006841Y016841D02*
X007177Y016841D01*
X007177Y016842D02*
X007080Y016744D01*
X007027Y016616D01*
X007027Y016478D01*
X007080Y016350D01*
X007177Y016252D01*
X007305Y016199D01*
X007444Y016199D01*
X007571Y016252D01*
X007669Y016350D01*
X007722Y016478D01*
X007722Y016616D01*
X007669Y016744D01*
X007571Y016842D01*
X007444Y016895D01*
X007305Y016895D01*
X007177Y016842D01*
X007118Y016782D02*
X006896Y016782D01*
X006933Y016724D02*
X007071Y016724D01*
X007047Y016665D02*
X006958Y016665D01*
X006970Y016607D02*
X007027Y016607D01*
X007027Y016548D02*
X006617Y016548D01*
X006617Y016517D02*
X006975Y016517D01*
X006975Y016509D01*
X006960Y016434D01*
X006931Y016363D01*
X006888Y016300D01*
X006834Y016246D01*
X006771Y016203D01*
X006700Y016174D01*
X006625Y016159D01*
X006617Y016159D01*
X006617Y016517D01*
X006617Y016490D02*
X006557Y016490D01*
X006557Y016548D02*
X006147Y016548D01*
X006147Y016490D02*
X006203Y016490D01*
X006147Y016478D02*
X006147Y016616D01*
X006094Y016744D01*
X005997Y016842D01*
X005869Y016895D01*
X005730Y016895D01*
X005603Y016842D01*
X005505Y016744D01*
X005452Y016616D01*
X005452Y016478D01*
X005505Y016350D01*
X005603Y016252D01*
X005730Y016199D01*
X005869Y016199D01*
X005997Y016252D01*
X006094Y016350D01*
X006147Y016478D01*
X006128Y016431D02*
X006215Y016431D01*
X006239Y016373D02*
X006104Y016373D01*
X006059Y016314D02*
X006276Y016314D01*
X006330Y016256D02*
X006001Y016256D01*
X006059Y016080D02*
X005624Y016080D01*
X005692Y016022D02*
X005964Y016022D01*
X005905Y015963D02*
X005736Y015963D01*
X005765Y015905D02*
X005877Y015905D01*
X005853Y015846D02*
X005784Y015846D01*
X005846Y015788D02*
X005436Y015788D01*
X005436Y015846D02*
X005376Y015846D01*
X005376Y015905D02*
X005436Y015905D01*
X005436Y015963D02*
X005376Y015963D01*
X005376Y016022D02*
X005436Y016022D01*
X005436Y016080D02*
X005376Y016080D01*
X005376Y016139D02*
X005436Y016139D01*
X005486Y016139D02*
X008042Y016139D01*
X008042Y016197D02*
X006757Y016197D01*
X006844Y016256D02*
X007173Y016256D01*
X007115Y016314D02*
X006898Y016314D01*
X006935Y016373D02*
X007070Y016373D01*
X007046Y016431D02*
X006959Y016431D01*
X006971Y016490D02*
X007027Y016490D01*
X006617Y016431D02*
X006557Y016431D01*
X006557Y016373D02*
X006617Y016373D01*
X006617Y016314D02*
X006557Y016314D01*
X006557Y016256D02*
X006617Y016256D01*
X006617Y016197D02*
X006557Y016197D01*
X006417Y016197D02*
X000280Y016197D01*
X000280Y016139D02*
X005326Y016139D01*
X005213Y016256D02*
X005599Y016256D01*
X005540Y016314D02*
X005272Y016314D01*
X005317Y016373D02*
X005495Y016373D01*
X005471Y016431D02*
X005341Y016431D01*
X005360Y016490D02*
X005452Y016490D01*
X005452Y016548D02*
X005360Y016548D01*
X005360Y016607D02*
X005452Y016607D01*
X005472Y016665D02*
X005340Y016665D01*
X005315Y016724D02*
X005496Y016724D01*
X005543Y016782D02*
X005268Y016782D01*
X005210Y016841D02*
X005602Y016841D01*
X005710Y017192D02*
X005102Y017192D01*
X005223Y017250D02*
X005588Y017250D01*
X005530Y017309D02*
X005282Y017309D01*
X005321Y017367D02*
X005491Y017367D01*
X005467Y017426D02*
X005345Y017426D01*
X005360Y017484D02*
X005452Y017484D01*
X005452Y017543D02*
X005360Y017543D01*
X005360Y017601D02*
X005452Y017601D01*
X005477Y017660D02*
X005335Y017660D01*
X005311Y017718D02*
X005501Y017718D01*
X005554Y017777D02*
X005258Y017777D01*
X005186Y017835D02*
X005625Y017835D01*
X005168Y018011D02*
X004785Y018011D01*
X004861Y018069D02*
X005107Y018069D01*
X005067Y018128D02*
X004916Y018128D01*
X004940Y018186D02*
X005041Y018186D01*
X005025Y018245D02*
X004964Y018245D01*
X003886Y017835D02*
X000280Y017835D01*
X000280Y017777D02*
X003877Y017777D01*
X003877Y017718D02*
X000280Y017718D01*
X000280Y017660D02*
X003877Y017660D01*
X003877Y017601D02*
X000280Y017601D01*
X000280Y017543D02*
X003877Y017543D01*
X003877Y017484D02*
X000280Y017484D01*
X000280Y017426D02*
X003877Y017426D01*
X003877Y017367D02*
X000280Y017367D01*
X000280Y017309D02*
X003877Y017309D01*
X003877Y017250D02*
X000280Y017250D01*
X000280Y017192D02*
X003921Y017192D01*
X004027Y016841D02*
X000280Y016841D01*
X000280Y016899D02*
X006425Y016899D01*
X006333Y016841D02*
X005997Y016841D01*
X006056Y016782D02*
X006278Y016782D01*
X006241Y016724D02*
X006103Y016724D01*
X006127Y016665D02*
X006216Y016665D01*
X006204Y016607D02*
X006147Y016607D01*
X006557Y016607D02*
X006617Y016607D01*
X006617Y016665D02*
X006557Y016665D01*
X006557Y016724D02*
X006617Y016724D01*
X006617Y016782D02*
X006557Y016782D01*
X006557Y016841D02*
X006617Y016841D01*
X006617Y016899D02*
X006557Y016899D01*
X006327Y016080D02*
X006847Y016080D01*
X006751Y016022D02*
X006423Y016022D01*
X006481Y015963D02*
X006693Y015963D01*
X006665Y015905D02*
X006510Y015905D01*
X006534Y015846D02*
X006640Y015846D01*
X006633Y015788D02*
X006541Y015788D01*
X006541Y015729D02*
X006633Y015729D01*
X006641Y015671D02*
X006533Y015671D01*
X006509Y015612D02*
X006602Y015612D01*
X006557Y015554D02*
X006480Y015554D01*
X006512Y015495D02*
X006421Y015495D01*
X006467Y015437D02*
X006323Y015437D01*
X006063Y015437D02*
X005621Y015437D01*
X005690Y015495D02*
X005965Y015495D01*
X005907Y015554D02*
X005735Y015554D01*
X005765Y015612D02*
X005878Y015612D01*
X005191Y015437D02*
X004749Y015437D01*
X004846Y015495D02*
X005122Y015495D01*
X005077Y015554D02*
X004905Y015554D01*
X004934Y015612D02*
X005047Y015612D01*
X005033Y015646D02*
X005018Y015721D01*
X005018Y015729D01*
X004488Y015437D02*
X000280Y015437D01*
X000280Y015495D02*
X004391Y015495D01*
X004332Y015554D02*
X000280Y015554D01*
X000280Y015612D02*
X004303Y015612D01*
X004279Y015671D02*
X000280Y015671D01*
X000280Y015729D02*
X004271Y015729D01*
X004271Y015788D02*
X000280Y015788D01*
X000280Y015846D02*
X004278Y015846D01*
X004302Y015905D02*
X000280Y015905D01*
X000280Y015963D02*
X004331Y015963D01*
X004389Y016022D02*
X000280Y016022D01*
X000280Y016080D02*
X004485Y016080D01*
X004024Y016256D02*
X000280Y016256D01*
X000280Y016314D02*
X003965Y016314D01*
X003920Y016373D02*
X000280Y016373D01*
X000280Y016431D02*
X003896Y016431D01*
X003877Y016490D02*
X000280Y016490D01*
X000280Y016548D02*
X003877Y016548D01*
X003877Y016607D02*
X000280Y016607D01*
X000280Y016665D02*
X003897Y016665D01*
X003922Y016724D02*
X000280Y016724D01*
X000280Y016782D02*
X003969Y016782D01*
X006681Y015027D02*
X008042Y015027D01*
X008042Y014969D02*
X006659Y014969D01*
X006659Y014910D02*
X008042Y014910D01*
X008042Y014852D02*
X006659Y014852D01*
X006659Y014793D02*
X008042Y014793D01*
X008042Y014735D02*
X006659Y014735D01*
X006659Y014676D02*
X008042Y014676D01*
X008042Y014618D02*
X007626Y014618D01*
X007621Y014620D02*
X007554Y014642D01*
X007484Y014653D01*
X007479Y014653D01*
X007479Y013919D01*
X007896Y013919D01*
X007896Y014241D01*
X007885Y014311D01*
X007863Y014378D01*
X007831Y014440D01*
X007790Y014497D01*
X007740Y014547D01*
X007683Y014588D01*
X007621Y014620D01*
X007723Y014559D02*
X008042Y014559D01*
X008042Y014501D02*
X007786Y014501D01*
X007830Y014442D02*
X008042Y014442D01*
X008042Y014384D02*
X007860Y014384D01*
X007880Y014325D02*
X008042Y014325D01*
X008042Y014267D02*
X007892Y014267D01*
X007896Y014208D02*
X008042Y014208D01*
X008042Y014150D02*
X007896Y014150D01*
X007896Y014091D02*
X008042Y014091D01*
X008042Y014033D02*
X007896Y014033D01*
X007896Y013974D02*
X008042Y013974D01*
X008042Y013916D02*
X007479Y013916D01*
X007479Y013919D02*
X007479Y013859D01*
X007479Y013126D01*
X007484Y013126D01*
X007554Y013137D01*
X007621Y013158D01*
X007683Y013190D01*
X007740Y013232D01*
X007790Y013281D01*
X007831Y013338D01*
X007863Y013401D01*
X007885Y013468D01*
X007896Y013537D01*
X007896Y013859D01*
X007479Y013859D01*
X007419Y013859D01*
X007419Y013126D01*
X007414Y013126D01*
X007345Y013137D01*
X007278Y013158D01*
X007215Y013190D01*
X007158Y013232D01*
X007108Y013281D01*
X007067Y013338D01*
X007035Y013401D01*
X007013Y013468D01*
X007002Y013537D01*
X007002Y013859D01*
X007419Y013859D01*
X007419Y013919D01*
X007002Y013919D01*
X007002Y014241D01*
X007013Y014311D01*
X007035Y014378D01*
X007067Y014440D01*
X007108Y014497D01*
X007158Y014547D01*
X007215Y014588D01*
X007278Y014620D01*
X007345Y014642D01*
X007414Y014653D01*
X007419Y014653D01*
X007419Y013919D01*
X007479Y013919D01*
X007479Y013974D02*
X007419Y013974D01*
X007419Y013916D02*
X006856Y013916D01*
X006856Y013974D02*
X007002Y013974D01*
X007002Y014033D02*
X006856Y014033D01*
X006856Y014091D02*
X007002Y014091D01*
X007002Y014150D02*
X006856Y014150D01*
X006856Y014208D02*
X007002Y014208D01*
X007006Y014267D02*
X006856Y014267D01*
X006840Y014325D02*
X007018Y014325D01*
X007038Y014384D02*
X006816Y014384D01*
X006788Y014442D02*
X007068Y014442D01*
X007112Y014501D02*
X006730Y014501D01*
X006660Y014559D02*
X007175Y014559D01*
X007273Y014618D02*
X006659Y014618D01*
X006726Y015086D02*
X008042Y015086D01*
X008042Y015144D02*
X006771Y015144D01*
X006817Y015203D02*
X008042Y015203D01*
X008042Y015261D02*
X006862Y015261D01*
X006907Y015320D02*
X008042Y015320D01*
X008042Y015378D02*
X006952Y015378D01*
X007111Y015437D02*
X007638Y015437D01*
X007540Y015495D02*
X007209Y015495D01*
X007267Y015554D02*
X007482Y015554D01*
X007453Y015612D02*
X007296Y015612D01*
X007320Y015671D02*
X007428Y015671D01*
X007420Y015729D02*
X007329Y015729D01*
X007329Y015788D02*
X007420Y015788D01*
X007428Y015846D02*
X007321Y015846D01*
X007297Y015905D02*
X007452Y015905D01*
X007480Y015963D02*
X007269Y015963D01*
X007210Y016022D02*
X007539Y016022D01*
X007634Y016080D02*
X007115Y016080D01*
X007575Y016256D02*
X007961Y016256D01*
X007902Y016314D02*
X007634Y016314D01*
X007679Y016373D02*
X007857Y016373D01*
X007833Y016431D02*
X007703Y016431D01*
X007722Y016490D02*
X007814Y016490D01*
X007814Y016548D02*
X007722Y016548D01*
X007722Y016607D02*
X007814Y016607D01*
X007834Y016665D02*
X007702Y016665D01*
X007678Y016724D02*
X007859Y016724D01*
X007906Y016782D02*
X007631Y016782D01*
X007572Y016841D02*
X007964Y016841D01*
X008162Y016547D02*
X008162Y012964D01*
X009205Y011921D01*
X010189Y011921D01*
X010537Y011927D02*
X010826Y011927D01*
X010826Y011985D02*
X010537Y011985D01*
X010515Y012044D02*
X010848Y012044D01*
X010872Y012102D02*
X010491Y012102D01*
X010441Y012161D02*
X010922Y012161D01*
X010980Y012219D02*
X010986Y012219D01*
X011038Y012278D02*
X011054Y012278D01*
X011174Y011921D02*
X011174Y012931D01*
X013574Y015332D01*
X013574Y017880D01*
X012507Y018947D01*
X010889Y018947D01*
X010548Y018606D01*
X010548Y018161D01*
X010311Y017925D01*
X009969Y017925D01*
X009930Y017964D01*
X009983Y017777D02*
X010222Y017777D01*
X010183Y017718D02*
X010035Y017718D01*
X010060Y017660D02*
X010158Y017660D01*
X010143Y017601D02*
X010084Y017601D01*
X010084Y017543D02*
X010494Y017543D01*
X010494Y017501D02*
X010136Y017501D01*
X010136Y017493D01*
X010151Y017418D01*
X010180Y017347D01*
X010223Y017284D01*
X010277Y017230D01*
X010340Y017187D01*
X010411Y017158D01*
X010486Y017143D01*
X010494Y017143D01*
X010494Y017501D01*
X010494Y017484D02*
X010554Y017484D01*
X010554Y017426D02*
X010494Y017426D01*
X010494Y017367D02*
X010554Y017367D01*
X010554Y017309D02*
X010494Y017309D01*
X010494Y017250D02*
X010554Y017250D01*
X010554Y017192D02*
X010494Y017192D01*
X010334Y017192D02*
X009827Y017192D01*
X009948Y017250D02*
X010256Y017250D01*
X010206Y017309D02*
X010006Y017309D01*
X010045Y017367D02*
X010172Y017367D01*
X010150Y017426D02*
X010069Y017426D01*
X010084Y017484D02*
X010138Y017484D01*
X010494Y017601D02*
X010554Y017601D01*
X010554Y017543D02*
X010964Y017543D01*
X010964Y017600D02*
X010964Y017462D01*
X011017Y017334D01*
X011114Y017236D01*
X011242Y017183D01*
X011381Y017183D01*
X011508Y017236D01*
X011606Y017334D01*
X011659Y017462D01*
X011659Y017600D01*
X011606Y017728D01*
X011508Y017826D01*
X011381Y017879D01*
X011242Y017879D01*
X011114Y017826D01*
X011017Y017728D01*
X010964Y017600D01*
X010964Y017601D02*
X010905Y017601D01*
X010890Y017660D02*
X010988Y017660D01*
X011013Y017718D02*
X010865Y017718D01*
X010826Y017777D02*
X011065Y017777D01*
X011137Y017835D02*
X010767Y017835D01*
X010661Y017894D02*
X013391Y017894D01*
X013449Y017835D02*
X011486Y017835D01*
X011557Y017777D02*
X013454Y017777D01*
X013454Y017718D02*
X011610Y017718D01*
X011635Y017660D02*
X013454Y017660D01*
X013454Y017601D02*
X012604Y017601D01*
X012532Y017632D02*
X012749Y017541D01*
X012916Y017375D01*
X013006Y017157D01*
X013006Y016921D01*
X012916Y016703D01*
X012749Y016537D01*
X012532Y016446D01*
X012296Y016446D01*
X012078Y016537D01*
X011911Y016703D01*
X011821Y016921D01*
X011821Y017157D01*
X011911Y017375D01*
X012078Y017541D01*
X012296Y017632D01*
X012532Y017632D01*
X012746Y017543D02*
X013454Y017543D01*
X013454Y017484D02*
X012806Y017484D01*
X012865Y017426D02*
X013454Y017426D01*
X013454Y017367D02*
X012919Y017367D01*
X012943Y017309D02*
X013454Y017309D01*
X013454Y017250D02*
X012968Y017250D01*
X012992Y017192D02*
X013454Y017192D01*
X013454Y017133D02*
X013006Y017133D01*
X013006Y017075D02*
X013454Y017075D01*
X013454Y017016D02*
X013006Y017016D01*
X013006Y016958D02*
X013454Y016958D01*
X013454Y016899D02*
X012997Y016899D01*
X012973Y016841D02*
X013454Y016841D01*
X013454Y016782D02*
X012949Y016782D01*
X012925Y016724D02*
X013454Y016724D01*
X013454Y016665D02*
X012878Y016665D01*
X012820Y016607D02*
X013454Y016607D01*
X013454Y016548D02*
X012761Y016548D01*
X012637Y016490D02*
X013454Y016490D01*
X013454Y016431D02*
X011640Y016431D01*
X011659Y016478D02*
X011606Y016350D01*
X011508Y016252D01*
X011381Y016199D01*
X011242Y016199D01*
X011114Y016252D01*
X011017Y016350D01*
X010964Y016478D01*
X010964Y016616D01*
X011017Y016744D01*
X011114Y016842D01*
X011242Y016895D01*
X011381Y016895D01*
X011508Y016842D01*
X011606Y016744D01*
X011659Y016616D01*
X011659Y016478D01*
X011659Y016490D02*
X012191Y016490D01*
X012066Y016548D02*
X011659Y016548D01*
X011659Y016607D02*
X012008Y016607D01*
X011949Y016665D02*
X011639Y016665D01*
X011615Y016724D02*
X011903Y016724D01*
X011879Y016782D02*
X011568Y016782D01*
X011509Y016841D02*
X011854Y016841D01*
X011830Y016899D02*
X009899Y016899D01*
X009920Y016891D02*
X009850Y016920D01*
X009775Y016935D01*
X009767Y016935D01*
X009767Y016577D01*
X010124Y016577D01*
X010124Y016585D01*
X010110Y016660D01*
X010080Y016731D01*
X010038Y016794D01*
X009984Y016848D01*
X009920Y016891D01*
X009991Y016841D02*
X010326Y016841D01*
X010327Y016842D02*
X010229Y016744D01*
X010176Y016616D01*
X010176Y016478D01*
X010229Y016350D01*
X010327Y016252D01*
X010455Y016199D01*
X010593Y016199D01*
X010721Y016252D01*
X010819Y016350D01*
X010872Y016478D01*
X010872Y016616D01*
X010819Y016744D01*
X010721Y016842D01*
X010593Y016895D01*
X010455Y016895D01*
X010327Y016842D01*
X010268Y016782D02*
X010046Y016782D01*
X010083Y016724D02*
X010221Y016724D01*
X010197Y016665D02*
X010107Y016665D01*
X010120Y016607D02*
X010176Y016607D01*
X010176Y016548D02*
X009767Y016548D01*
X009767Y016577D02*
X009767Y016517D01*
X010124Y016517D01*
X010124Y016509D01*
X010110Y016434D01*
X010080Y016363D01*
X010038Y016300D01*
X009984Y016246D01*
X009920Y016203D01*
X009850Y016174D01*
X009775Y016159D01*
X009767Y016159D01*
X009767Y016517D01*
X009707Y016517D01*
X009707Y016159D01*
X009698Y016159D01*
X009623Y016174D01*
X009553Y016203D01*
X009489Y016246D01*
X009435Y016300D01*
X009393Y016363D01*
X009364Y016434D01*
X009349Y016509D01*
X009349Y016517D01*
X009707Y016517D01*
X009707Y016577D01*
X009707Y016935D01*
X009698Y016935D01*
X009623Y016920D01*
X009553Y016891D01*
X009489Y016848D01*
X009435Y016794D01*
X009393Y016731D01*
X009364Y016660D01*
X009349Y016585D01*
X009349Y016577D01*
X009707Y016577D01*
X009767Y016577D01*
X009767Y016607D02*
X009707Y016607D01*
X009707Y016665D02*
X009767Y016665D01*
X009767Y016724D02*
X009707Y016724D01*
X009707Y016782D02*
X009767Y016782D01*
X009767Y016841D02*
X009707Y016841D01*
X009707Y016899D02*
X009767Y016899D01*
X009574Y016899D02*
X009395Y016899D01*
X009404Y016958D02*
X011821Y016958D01*
X011821Y017016D02*
X009404Y017016D01*
X009404Y017075D02*
X011821Y017075D01*
X011821Y017133D02*
X009404Y017133D01*
X009389Y017192D02*
X009647Y017192D01*
X009525Y017250D02*
X009365Y017250D01*
X009341Y017309D02*
X009467Y017309D01*
X009428Y017367D02*
X009317Y017367D01*
X009263Y017426D02*
X009404Y017426D01*
X009389Y017484D02*
X009204Y017484D01*
X009143Y017543D02*
X009389Y017543D01*
X009389Y017601D02*
X009002Y017601D01*
X008621Y017601D02*
X008509Y017601D01*
X008485Y017660D02*
X009414Y017660D01*
X009438Y017718D02*
X008461Y017718D01*
X008408Y017777D02*
X009491Y017777D01*
X009562Y017835D02*
X008336Y017835D01*
X008302Y017894D02*
X009617Y017894D01*
X009617Y017952D02*
X009472Y017952D01*
X009373Y017952D02*
X009313Y017952D01*
X009313Y018011D02*
X009373Y018011D01*
X009373Y018069D02*
X009313Y018069D01*
X009313Y018128D02*
X009373Y018128D01*
X009373Y018186D02*
X009313Y018186D01*
X009313Y018245D02*
X009373Y018245D01*
X009313Y018303D02*
X008699Y018303D01*
X008641Y018245D02*
X008962Y018245D01*
X008978Y018186D02*
X008582Y018186D01*
X008524Y018128D02*
X009004Y018128D01*
X009044Y018069D02*
X008465Y018069D01*
X008407Y018011D02*
X009105Y018011D01*
X009213Y017952D02*
X008348Y017952D01*
X008758Y018362D02*
X008956Y018362D01*
X008968Y018420D02*
X008816Y018420D01*
X008875Y018479D02*
X008990Y018479D01*
X009023Y018537D02*
X008933Y018537D01*
X008992Y018596D02*
X009072Y018596D01*
X009050Y018654D02*
X009148Y018654D01*
X009109Y018713D02*
X009839Y018713D01*
X009781Y018654D02*
X009538Y018654D01*
X009614Y018596D02*
X009722Y018596D01*
X009664Y018537D02*
X009663Y018537D01*
X009737Y018441D02*
X010367Y019070D01*
X011958Y019070D01*
X011961Y019067D01*
X012557Y019067D01*
X013694Y017930D01*
X013694Y015282D01*
X011961Y013549D01*
X011961Y011921D01*
X011613Y011927D02*
X011521Y011927D01*
X011521Y011985D02*
X011613Y011985D01*
X011636Y012044D02*
X011499Y012044D01*
X011475Y012102D02*
X011660Y012102D01*
X011597Y012161D02*
X011537Y012161D01*
X011537Y012219D02*
X011597Y012219D01*
X011597Y012278D02*
X011537Y012278D01*
X011537Y012336D02*
X011597Y012336D01*
X011597Y012395D02*
X011537Y012395D01*
X011537Y012453D02*
X011597Y012453D01*
X011597Y012541D02*
X011537Y012541D01*
X011537Y012899D01*
X011529Y012899D01*
X011454Y012884D01*
X011384Y012855D01*
X011320Y012813D01*
X011294Y012786D01*
X011294Y012881D01*
X011841Y013429D01*
X011841Y012786D01*
X011815Y012813D01*
X011751Y012855D01*
X011680Y012884D01*
X011606Y012899D01*
X011597Y012899D01*
X011597Y012541D01*
X011597Y012570D02*
X011537Y012570D01*
X011537Y012629D02*
X011597Y012629D01*
X011597Y012687D02*
X011537Y012687D01*
X011537Y012746D02*
X011597Y012746D01*
X011597Y012804D02*
X011537Y012804D01*
X011537Y012863D02*
X011597Y012863D01*
X011732Y012863D02*
X011841Y012863D01*
X011841Y012921D02*
X011334Y012921D01*
X011294Y012863D02*
X011403Y012863D01*
X011312Y012804D02*
X011294Y012804D01*
X011392Y012980D02*
X011841Y012980D01*
X011841Y013038D02*
X011451Y013038D01*
X011509Y013097D02*
X011841Y013097D01*
X011841Y013155D02*
X011568Y013155D01*
X011626Y013214D02*
X011841Y013214D01*
X011841Y013272D02*
X011685Y013272D01*
X011743Y013331D02*
X011841Y013331D01*
X011841Y013389D02*
X011802Y013389D01*
X011638Y013565D02*
X008282Y013565D01*
X008282Y013623D02*
X011696Y013623D01*
X011755Y013682D02*
X008282Y013682D01*
X008282Y013740D02*
X011813Y013740D01*
X011872Y013799D02*
X008282Y013799D01*
X008282Y013857D02*
X011930Y013857D01*
X011989Y013916D02*
X008282Y013916D01*
X008282Y013974D02*
X012047Y013974D01*
X012106Y014033D02*
X008282Y014033D01*
X008282Y014091D02*
X012164Y014091D01*
X012223Y014150D02*
X008282Y014150D01*
X008282Y014208D02*
X012281Y014208D01*
X012340Y014267D02*
X008282Y014267D01*
X008282Y014325D02*
X012398Y014325D01*
X012457Y014384D02*
X008282Y014384D01*
X008282Y014442D02*
X012515Y014442D01*
X012574Y014501D02*
X008282Y014501D01*
X008282Y014559D02*
X012632Y014559D01*
X012691Y014618D02*
X008282Y014618D01*
X008282Y014676D02*
X012749Y014676D01*
X012808Y014735D02*
X008282Y014735D01*
X008282Y014793D02*
X012866Y014793D01*
X012925Y014852D02*
X008282Y014852D01*
X008282Y014910D02*
X012983Y014910D01*
X013042Y014969D02*
X008282Y014969D01*
X008282Y015027D02*
X013100Y015027D01*
X013159Y015086D02*
X008282Y015086D01*
X008282Y015144D02*
X013217Y015144D01*
X013276Y015203D02*
X008282Y015203D01*
X008282Y015261D02*
X013334Y015261D01*
X013393Y015320D02*
X008282Y015320D01*
X008282Y015378D02*
X010846Y015378D01*
X010880Y015372D02*
X010888Y015372D01*
X010888Y015729D01*
X010948Y015729D01*
X010948Y015372D01*
X010956Y015372D01*
X011031Y015387D01*
X011101Y015416D01*
X011165Y015458D01*
X011219Y015512D01*
X011261Y015576D01*
X011291Y015646D01*
X011306Y015721D01*
X011306Y015729D01*
X011317Y015729D01*
X011317Y015721D01*
X011332Y015646D01*
X011361Y015576D01*
X011404Y015512D01*
X011458Y015458D01*
X011521Y015416D01*
X011592Y015387D01*
X011667Y015372D01*
X011675Y015372D01*
X011675Y015729D01*
X011735Y015729D01*
X011735Y015372D01*
X011743Y015372D01*
X011818Y015387D01*
X011889Y015416D01*
X011952Y015458D01*
X012006Y015512D01*
X012049Y015576D01*
X012078Y015646D01*
X012093Y015721D01*
X012093Y015729D01*
X013454Y015729D01*
X013454Y015671D02*
X012083Y015671D01*
X012093Y015729D02*
X011735Y015729D01*
X011675Y015729D01*
X011317Y015729D01*
X011306Y015729D02*
X010948Y015729D01*
X010888Y015729D01*
X010530Y015729D01*
X010478Y015729D01*
X010478Y015690D02*
X010425Y015562D01*
X010327Y015465D01*
X010199Y015412D01*
X010061Y015412D01*
X009933Y015465D01*
X009835Y015562D01*
X009783Y015690D01*
X009783Y015829D01*
X009835Y015956D01*
X009933Y016054D01*
X010061Y016107D01*
X010199Y016107D01*
X010327Y016054D01*
X010425Y015956D01*
X010478Y015829D01*
X010478Y015690D01*
X010470Y015671D02*
X010540Y015671D01*
X010545Y015646D02*
X010574Y015576D01*
X010616Y015512D01*
X010671Y015458D01*
X010734Y015416D01*
X010805Y015387D01*
X010880Y015372D01*
X010888Y015378D02*
X010948Y015378D01*
X010990Y015378D02*
X011633Y015378D01*
X011675Y015378D02*
X011735Y015378D01*
X011777Y015378D02*
X013451Y015378D01*
X013454Y015437D02*
X011920Y015437D01*
X011990Y015495D02*
X013454Y015495D01*
X013454Y015554D02*
X012034Y015554D01*
X012064Y015612D02*
X013454Y015612D01*
X013454Y015788D02*
X011735Y015788D01*
X011735Y015789D02*
X012093Y015789D01*
X012093Y015798D01*
X012078Y015873D01*
X012049Y015943D01*
X012006Y016007D01*
X011952Y016061D01*
X011889Y016103D01*
X011818Y016132D01*
X011743Y016147D01*
X011735Y016147D01*
X011735Y015789D01*
X011735Y015729D01*
X011735Y015671D02*
X011675Y015671D01*
X011675Y015729D02*
X011675Y015789D01*
X011317Y015789D01*
X011317Y015798D01*
X011332Y015873D01*
X011361Y015943D01*
X011404Y016007D01*
X011458Y016061D01*
X011521Y016103D01*
X011592Y016132D01*
X011667Y016147D01*
X011675Y016147D01*
X011675Y015789D01*
X011735Y015789D01*
X011735Y015846D02*
X011675Y015846D01*
X011675Y015788D02*
X010948Y015788D01*
X010948Y015789D02*
X011306Y015789D01*
X011306Y015798D01*
X011291Y015873D01*
X011261Y015943D01*
X011219Y016007D01*
X011165Y016061D01*
X011101Y016103D01*
X011031Y016132D01*
X010956Y016147D01*
X010948Y016147D01*
X010948Y015789D01*
X010948Y015729D01*
X010948Y015671D02*
X010888Y015671D01*
X010888Y015729D02*
X010888Y015789D01*
X010530Y015789D01*
X010530Y015798D01*
X010545Y015873D01*
X010574Y015943D01*
X010616Y016007D01*
X010671Y016061D01*
X010734Y016103D01*
X010805Y016132D01*
X010880Y016147D01*
X010888Y016147D01*
X010888Y015789D01*
X010948Y015789D01*
X010948Y015846D02*
X010888Y015846D01*
X010888Y015788D02*
X010478Y015788D01*
X010471Y015846D02*
X010540Y015846D01*
X010558Y015905D02*
X010447Y015905D01*
X010418Y015963D02*
X010588Y015963D01*
X010632Y016022D02*
X010360Y016022D01*
X010264Y016080D02*
X010700Y016080D01*
X010838Y016139D02*
X008282Y016139D01*
X008282Y016197D02*
X009567Y016197D01*
X009479Y016256D02*
X008363Y016256D01*
X008421Y016314D02*
X009426Y016314D01*
X009389Y016373D02*
X008466Y016373D01*
X008490Y016431D02*
X009365Y016431D01*
X009353Y016490D02*
X009034Y016490D01*
X009159Y016548D02*
X009707Y016548D01*
X009707Y016490D02*
X009767Y016490D01*
X009767Y016431D02*
X009707Y016431D01*
X009707Y016373D02*
X009767Y016373D01*
X009767Y016314D02*
X009707Y016314D01*
X009707Y016256D02*
X009767Y016256D01*
X009767Y016197D02*
X009707Y016197D01*
X009906Y016197D02*
X013454Y016197D01*
X013454Y016139D02*
X011785Y016139D01*
X011735Y016139D02*
X011675Y016139D01*
X011625Y016139D02*
X010998Y016139D01*
X010948Y016139D02*
X010888Y016139D01*
X010888Y016080D02*
X010948Y016080D01*
X010948Y016022D02*
X010888Y016022D01*
X010888Y015963D02*
X010948Y015963D01*
X010948Y015905D02*
X010888Y015905D01*
X010888Y015612D02*
X010948Y015612D01*
X010948Y015554D02*
X010888Y015554D01*
X010888Y015495D02*
X010948Y015495D01*
X010948Y015437D02*
X010888Y015437D01*
X010702Y015437D02*
X010260Y015437D01*
X010358Y015495D02*
X010633Y015495D01*
X010589Y015554D02*
X010417Y015554D01*
X010446Y015612D02*
X010559Y015612D01*
X010545Y015646D02*
X010530Y015721D01*
X010530Y015729D01*
X010000Y015437D02*
X009473Y015437D01*
X009412Y015412D02*
X009540Y015465D01*
X009638Y015562D01*
X009691Y015690D01*
X009691Y015829D01*
X009638Y015956D01*
X009540Y016054D01*
X009412Y016107D01*
X009274Y016107D01*
X009146Y016054D01*
X009048Y015956D01*
X008995Y015829D01*
X008995Y015690D01*
X009048Y015562D01*
X009146Y015465D01*
X009274Y015412D01*
X009412Y015412D01*
X009571Y015495D02*
X009903Y015495D01*
X009844Y015554D02*
X009629Y015554D01*
X009658Y015612D02*
X009815Y015612D01*
X009791Y015671D02*
X009683Y015671D01*
X009691Y015729D02*
X009783Y015729D01*
X009783Y015788D02*
X009691Y015788D01*
X009683Y015846D02*
X009790Y015846D01*
X009814Y015905D02*
X009659Y015905D01*
X009631Y015963D02*
X009842Y015963D01*
X009901Y016022D02*
X009572Y016022D01*
X009477Y016080D02*
X009996Y016080D01*
X009994Y016256D02*
X010323Y016256D01*
X010265Y016314D02*
X010048Y016314D01*
X010084Y016373D02*
X010220Y016373D01*
X010195Y016431D02*
X010109Y016431D01*
X010121Y016490D02*
X010176Y016490D01*
X010725Y016256D02*
X011111Y016256D01*
X011052Y016314D02*
X010783Y016314D01*
X010828Y016373D02*
X011007Y016373D01*
X010983Y016431D02*
X010853Y016431D01*
X010872Y016490D02*
X010964Y016490D01*
X010964Y016548D02*
X010872Y016548D01*
X010872Y016607D02*
X010964Y016607D01*
X010984Y016665D02*
X010851Y016665D01*
X010827Y016724D02*
X011008Y016724D01*
X011055Y016782D02*
X010780Y016782D01*
X010722Y016841D02*
X011114Y016841D01*
X011221Y017192D02*
X010714Y017192D01*
X010792Y017250D02*
X011100Y017250D01*
X011042Y017309D02*
X010842Y017309D01*
X010876Y017367D02*
X011003Y017367D01*
X010979Y017426D02*
X010898Y017426D01*
X010910Y017484D02*
X010964Y017484D01*
X010554Y017660D02*
X010494Y017660D01*
X010494Y017718D02*
X010554Y017718D01*
X010554Y017777D02*
X010494Y017777D01*
X010494Y017835D02*
X010554Y017835D01*
X010554Y017894D02*
X010494Y017894D01*
X010509Y017952D02*
X011576Y017952D01*
X011592Y017946D02*
X011521Y017975D01*
X011458Y018017D01*
X011404Y018071D01*
X011361Y018135D01*
X011332Y018205D01*
X011317Y018280D01*
X011317Y018289D01*
X011675Y018289D01*
X011675Y018349D01*
X011675Y018706D01*
X011667Y018706D01*
X011592Y018691D01*
X011521Y018662D01*
X011458Y018620D01*
X011404Y018566D01*
X011361Y018502D01*
X011332Y018432D01*
X011317Y018357D01*
X011317Y018349D01*
X011675Y018349D01*
X011735Y018349D01*
X011735Y018706D01*
X011743Y018706D01*
X011818Y018691D01*
X011889Y018662D01*
X011952Y018620D01*
X012006Y018566D01*
X012049Y018502D01*
X012078Y018432D01*
X012093Y018357D01*
X012093Y018349D01*
X011735Y018349D01*
X011735Y018289D01*
X012093Y018289D01*
X012093Y018280D01*
X012078Y018205D01*
X012049Y018135D01*
X012006Y018071D01*
X011952Y018017D01*
X011889Y017975D01*
X011818Y017946D01*
X011743Y017931D01*
X011735Y017931D01*
X011735Y018288D01*
X011675Y018288D01*
X011675Y017931D01*
X011667Y017931D01*
X011592Y017946D01*
X011675Y017952D02*
X011735Y017952D01*
X011735Y018011D02*
X011675Y018011D01*
X011675Y018069D02*
X011735Y018069D01*
X011735Y018128D02*
X011675Y018128D01*
X011675Y018186D02*
X011735Y018186D01*
X011735Y018245D02*
X011675Y018245D01*
X011675Y018303D02*
X011266Y018303D01*
X011264Y018245D02*
X011324Y018245D01*
X011340Y018186D02*
X011239Y018186D01*
X011215Y018128D02*
X011366Y018128D01*
X011406Y018069D02*
X011160Y018069D01*
X011084Y018011D02*
X011467Y018011D01*
X011735Y018303D02*
X012981Y018303D01*
X013040Y018245D02*
X012086Y018245D01*
X012070Y018186D02*
X013098Y018186D01*
X013157Y018128D02*
X012044Y018128D01*
X012004Y018069D02*
X013215Y018069D01*
X013274Y018011D02*
X011943Y018011D01*
X011835Y017952D02*
X013332Y017952D01*
X013549Y018245D02*
X013707Y018245D01*
X013765Y018186D02*
X013608Y018186D01*
X013666Y018128D02*
X013790Y018128D01*
X013790Y018069D02*
X013725Y018069D01*
X013783Y018011D02*
X013790Y018011D01*
X014070Y018011D02*
X019705Y018011D01*
X019705Y018069D02*
X014070Y018069D01*
X014070Y018128D02*
X019705Y018128D01*
X019705Y018186D02*
X014070Y018186D01*
X014070Y018245D02*
X019705Y018245D01*
X019705Y018303D02*
X014044Y018303D01*
X013986Y018362D02*
X019705Y018362D01*
X019705Y018420D02*
X013927Y018420D01*
X013869Y018479D02*
X019705Y018479D01*
X019705Y018537D02*
X013810Y018537D01*
X013752Y018596D02*
X019705Y018596D01*
X019705Y018654D02*
X013693Y018654D01*
X013635Y018713D02*
X019705Y018713D01*
X019705Y018771D02*
X013576Y018771D01*
X013518Y018830D02*
X019705Y018830D01*
X019705Y018888D02*
X013459Y018888D01*
X013401Y018947D02*
X019705Y018947D01*
X019705Y019005D02*
X013342Y019005D01*
X013284Y019064D02*
X019705Y019064D01*
X019705Y019122D02*
X013225Y019122D01*
X013167Y019181D02*
X019705Y019181D01*
X019705Y019239D02*
X013108Y019239D01*
X013050Y019298D02*
X019705Y019298D01*
X019705Y019356D02*
X012991Y019356D01*
X012933Y019415D02*
X019705Y019415D01*
X019705Y019473D02*
X012874Y019473D01*
X012816Y019532D02*
X019705Y019532D01*
X019705Y019590D02*
X000280Y019590D01*
X000280Y019532D02*
X009532Y019532D01*
X009473Y019473D02*
X000280Y019473D01*
X000280Y019415D02*
X009415Y019415D01*
X009356Y019356D02*
X000280Y019356D01*
X000280Y019298D02*
X009298Y019298D01*
X009239Y019239D02*
X000280Y019239D01*
X000280Y019181D02*
X009181Y019181D01*
X009122Y019122D02*
X000280Y019122D01*
X000280Y019064D02*
X009064Y019064D01*
X009005Y019005D02*
X000280Y019005D01*
X000280Y018947D02*
X008947Y018947D01*
X008888Y018888D02*
X000280Y018888D01*
X000280Y018830D02*
X008830Y018830D01*
X008771Y018771D02*
X000280Y018771D01*
X000280Y018713D02*
X008713Y018713D01*
X009167Y018771D02*
X009898Y018771D01*
X009956Y018830D02*
X009226Y018830D01*
X009284Y018888D02*
X010015Y018888D01*
X010073Y018947D02*
X009343Y018947D01*
X009401Y019005D02*
X010132Y019005D01*
X010190Y019064D02*
X009460Y019064D01*
X009518Y019122D02*
X010249Y019122D01*
X010307Y019181D02*
X009577Y019181D01*
X009635Y019239D02*
X012712Y019239D01*
X012771Y019181D02*
X012613Y019181D01*
X012672Y019122D02*
X012829Y019122D01*
X012888Y019064D02*
X012730Y019064D01*
X012789Y019005D02*
X012946Y019005D01*
X013005Y018947D02*
X012847Y018947D01*
X012906Y018888D02*
X013063Y018888D01*
X013122Y018830D02*
X012964Y018830D01*
X013023Y018771D02*
X013180Y018771D01*
X013239Y018713D02*
X013081Y018713D01*
X013140Y018654D02*
X013297Y018654D01*
X013356Y018596D02*
X013198Y018596D01*
X013257Y018537D02*
X013414Y018537D01*
X013473Y018479D02*
X013315Y018479D01*
X013374Y018420D02*
X013531Y018420D01*
X013590Y018362D02*
X013432Y018362D01*
X013491Y018303D02*
X013648Y018303D01*
X014070Y017952D02*
X019705Y017952D01*
X019705Y017894D02*
X014070Y017894D01*
X014070Y017835D02*
X019705Y017835D01*
X019705Y017777D02*
X014070Y017777D01*
X014070Y017718D02*
X019705Y017718D01*
X019705Y017660D02*
X014070Y017660D01*
X014070Y017601D02*
X019705Y017601D01*
X019705Y017543D02*
X014070Y017543D01*
X014070Y017484D02*
X019705Y017484D01*
X019705Y017426D02*
X014070Y017426D01*
X014070Y017367D02*
X019705Y017367D01*
X019705Y017309D02*
X014070Y017309D01*
X014070Y017250D02*
X019705Y017250D01*
X019705Y017192D02*
X014070Y017192D01*
X014070Y017133D02*
X019705Y017133D01*
X019705Y017075D02*
X014070Y017075D01*
X014070Y017016D02*
X019705Y017016D01*
X019705Y016958D02*
X014070Y016958D01*
X014070Y016899D02*
X019705Y016899D01*
X019705Y016841D02*
X014070Y016841D01*
X014070Y016782D02*
X019705Y016782D01*
X019705Y016724D02*
X014070Y016724D01*
X014070Y016665D02*
X019705Y016665D01*
X019705Y016607D02*
X014070Y016607D01*
X014070Y016548D02*
X019705Y016548D01*
X019705Y016490D02*
X014070Y016490D01*
X014070Y016431D02*
X019705Y016431D01*
X019705Y016373D02*
X014070Y016373D01*
X014070Y016314D02*
X019705Y016314D01*
X019705Y016256D02*
X014070Y016256D01*
X014070Y016197D02*
X019705Y016197D01*
X019705Y016139D02*
X014070Y016139D01*
X014070Y016080D02*
X019705Y016080D01*
X019705Y016022D02*
X014070Y016022D01*
X014070Y015963D02*
X019705Y015963D01*
X019705Y015905D02*
X014070Y015905D01*
X014070Y015846D02*
X019705Y015846D01*
X019705Y015788D02*
X014070Y015788D01*
X014070Y015729D02*
X019705Y015729D01*
X019705Y015671D02*
X014070Y015671D01*
X014070Y015612D02*
X019705Y015612D01*
X019705Y015554D02*
X014070Y015554D01*
X014070Y015495D02*
X019705Y015495D01*
X019705Y015437D02*
X014070Y015437D01*
X014070Y015378D02*
X019705Y015378D01*
X019705Y015320D02*
X014070Y015320D01*
X014070Y015261D02*
X019705Y015261D01*
X019705Y015203D02*
X014070Y015203D01*
X014070Y015144D02*
X019705Y015144D01*
X019705Y015086D02*
X014070Y015086D01*
X014070Y015027D02*
X019705Y015027D01*
X019705Y014969D02*
X014070Y014969D01*
X014070Y014910D02*
X019705Y014910D01*
X019705Y014852D02*
X014070Y014852D01*
X014070Y014793D02*
X019705Y014793D01*
X019705Y014735D02*
X014070Y014735D01*
X014070Y014676D02*
X019705Y014676D01*
X019705Y014618D02*
X014070Y014618D01*
X014070Y014559D02*
X019705Y014559D01*
X019705Y014501D02*
X014070Y014501D01*
X014070Y014442D02*
X019705Y014442D01*
X019705Y014384D02*
X014070Y014384D01*
X014070Y014325D02*
X019705Y014325D01*
X019705Y014267D02*
X014070Y014267D01*
X014070Y014208D02*
X019705Y014208D01*
X019705Y014150D02*
X014070Y014150D01*
X014070Y014091D02*
X019705Y014091D01*
X019705Y014033D02*
X014070Y014033D01*
X014070Y013974D02*
X019705Y013974D01*
X019705Y013916D02*
X014070Y013916D01*
X014070Y013857D02*
X019705Y013857D01*
X019705Y013799D02*
X014070Y013799D01*
X014070Y013740D02*
X019705Y013740D01*
X019705Y013682D02*
X014070Y013682D01*
X014070Y013623D02*
X019705Y013623D01*
X019705Y013565D02*
X014070Y013565D01*
X014070Y013506D02*
X019705Y013506D01*
X019705Y013448D02*
X014070Y013448D01*
X014070Y013389D02*
X019705Y013389D01*
X019705Y013331D02*
X014070Y013331D01*
X014070Y013272D02*
X019705Y013272D01*
X019705Y013214D02*
X014070Y013214D01*
X014070Y013155D02*
X019705Y013155D01*
X019705Y013097D02*
X014070Y013097D01*
X014070Y013038D02*
X019705Y013038D01*
X019705Y012980D02*
X014070Y012980D01*
X014070Y012921D02*
X019705Y012921D01*
X019705Y012863D02*
X014070Y012863D01*
X014070Y012804D02*
X019705Y012804D01*
X019705Y012746D02*
X014070Y012746D01*
X014070Y012687D02*
X019705Y012687D01*
X019705Y012629D02*
X014070Y012629D01*
X014070Y012570D02*
X019705Y012570D01*
X019705Y012512D02*
X014070Y012512D01*
X014070Y012453D02*
X019705Y012453D01*
X019705Y012395D02*
X014070Y012395D01*
X014070Y012336D02*
X019705Y012336D01*
X019705Y012278D02*
X014070Y012278D01*
X014032Y012219D02*
X019705Y012219D01*
X019705Y012161D02*
X013974Y012161D01*
X013915Y012102D02*
X019705Y012102D01*
X019705Y012044D02*
X013857Y012044D01*
X013798Y011985D02*
X019705Y011985D01*
X019705Y011927D02*
X013740Y011927D01*
X013681Y011868D02*
X019705Y011868D01*
X019705Y011810D02*
X013623Y011810D01*
X013519Y012102D02*
X013247Y012102D01*
X013197Y012161D02*
X013578Y012161D01*
X013636Y012219D02*
X013342Y012219D01*
X013400Y012278D02*
X013695Y012278D01*
X013753Y012336D02*
X013446Y012336D01*
X013470Y012395D02*
X013790Y012395D01*
X013790Y012453D02*
X013490Y012453D01*
X013490Y012512D02*
X013790Y012512D01*
X013790Y012570D02*
X013490Y012570D01*
X013470Y012629D02*
X013790Y012629D01*
X013790Y012687D02*
X013446Y012687D01*
X013400Y012746D02*
X013790Y012746D01*
X013790Y012804D02*
X013341Y012804D01*
X012943Y012804D02*
X012554Y012804D01*
X012612Y012746D02*
X012885Y012746D01*
X012839Y012687D02*
X012658Y012687D01*
X012683Y012629D02*
X012814Y012629D01*
X012794Y012570D02*
X012703Y012570D01*
X012703Y012512D02*
X012794Y012512D01*
X012794Y012453D02*
X012703Y012453D01*
X012683Y012395D02*
X012814Y012395D01*
X012838Y012336D02*
X012659Y012336D01*
X012613Y012278D02*
X012884Y012278D01*
X012757Y012219D02*
X012555Y012219D01*
X012644Y012102D02*
X012262Y012102D01*
X012287Y012044D02*
X012620Y012044D01*
X012597Y011985D02*
X012309Y011985D01*
X012309Y011927D02*
X012597Y011927D01*
X012597Y011868D02*
X012309Y011868D01*
X012292Y011810D02*
X012615Y011810D01*
X012639Y011751D02*
X012267Y011751D01*
X012225Y011693D02*
X012681Y011693D01*
X012740Y011634D02*
X012166Y011634D01*
X012037Y011576D02*
X012869Y011576D01*
X012693Y012161D02*
X012213Y012161D01*
X012155Y012219D02*
X012149Y012219D01*
X012096Y012278D02*
X012081Y012278D01*
X012081Y012746D02*
X012097Y012746D01*
X012081Y012804D02*
X012156Y012804D01*
X012081Y012863D02*
X013790Y012863D01*
X013790Y012921D02*
X012081Y012921D01*
X012081Y012980D02*
X013790Y012980D01*
X013790Y013038D02*
X012081Y013038D01*
X012081Y013097D02*
X013790Y013097D01*
X013790Y013155D02*
X012081Y013155D01*
X012081Y013214D02*
X013790Y013214D01*
X013790Y013272D02*
X012081Y013272D01*
X012081Y013331D02*
X013790Y013331D01*
X013790Y013389D02*
X012081Y013389D01*
X012081Y013448D02*
X013790Y013448D01*
X013790Y013506D02*
X012089Y013506D01*
X012147Y013565D02*
X013790Y013565D01*
X013790Y013623D02*
X012206Y013623D01*
X012264Y013682D02*
X013790Y013682D01*
X013790Y013740D02*
X012323Y013740D01*
X012381Y013799D02*
X013790Y013799D01*
X013790Y013857D02*
X012440Y013857D01*
X012498Y013916D02*
X013790Y013916D01*
X013790Y013974D02*
X012557Y013974D01*
X012615Y014033D02*
X013790Y014033D01*
X013790Y014091D02*
X012674Y014091D01*
X012732Y014150D02*
X013790Y014150D01*
X013790Y014208D02*
X012791Y014208D01*
X012849Y014267D02*
X013790Y014267D01*
X013790Y014325D02*
X012908Y014325D01*
X012966Y014384D02*
X013790Y014384D01*
X013790Y014442D02*
X013025Y014442D01*
X013083Y014501D02*
X013790Y014501D01*
X013790Y014559D02*
X013142Y014559D01*
X013200Y014618D02*
X013790Y014618D01*
X013790Y014676D02*
X013259Y014676D01*
X013317Y014735D02*
X013790Y014735D01*
X013790Y014793D02*
X013376Y014793D01*
X013434Y014852D02*
X013790Y014852D01*
X013790Y014910D02*
X013493Y014910D01*
X013551Y014969D02*
X013790Y014969D01*
X013790Y015027D02*
X013610Y015027D01*
X013668Y015086D02*
X013790Y015086D01*
X013790Y015144D02*
X013727Y015144D01*
X013744Y015162D02*
X013744Y015162D01*
X013785Y015203D02*
X013790Y015203D01*
X013454Y015846D02*
X012083Y015846D01*
X012065Y015905D02*
X013454Y015905D01*
X013454Y015963D02*
X012035Y015963D01*
X011991Y016022D02*
X013454Y016022D01*
X013454Y016080D02*
X011923Y016080D01*
X011735Y016080D02*
X011675Y016080D01*
X011675Y016022D02*
X011735Y016022D01*
X011735Y015963D02*
X011675Y015963D01*
X011675Y015905D02*
X011735Y015905D01*
X011735Y015612D02*
X011675Y015612D01*
X011675Y015554D02*
X011735Y015554D01*
X011735Y015495D02*
X011675Y015495D01*
X011675Y015437D02*
X011735Y015437D01*
X011490Y015437D02*
X011133Y015437D01*
X011202Y015495D02*
X011421Y015495D01*
X011376Y015554D02*
X011247Y015554D01*
X011277Y015612D02*
X011346Y015612D01*
X011327Y015671D02*
X011295Y015671D01*
X011296Y015846D02*
X011327Y015846D01*
X011346Y015905D02*
X011277Y015905D01*
X011248Y015963D02*
X011375Y015963D01*
X011419Y016022D02*
X011204Y016022D01*
X011135Y016080D02*
X011487Y016080D01*
X011512Y016256D02*
X013454Y016256D01*
X013454Y016314D02*
X011571Y016314D01*
X011616Y016373D02*
X013454Y016373D01*
X012223Y017601D02*
X011659Y017601D01*
X011659Y017543D02*
X012082Y017543D01*
X012021Y017484D02*
X011659Y017484D01*
X011644Y017426D02*
X011963Y017426D01*
X011908Y017367D02*
X011620Y017367D01*
X011581Y017309D02*
X011884Y017309D01*
X011860Y017250D02*
X011523Y017250D01*
X011401Y017192D02*
X011836Y017192D01*
X011735Y018362D02*
X011675Y018362D01*
X011675Y018420D02*
X011735Y018420D01*
X011735Y018479D02*
X011675Y018479D01*
X011675Y018537D02*
X011735Y018537D01*
X011735Y018596D02*
X011675Y018596D01*
X011675Y018654D02*
X011735Y018654D01*
X011900Y018654D02*
X012630Y018654D01*
X012689Y018596D02*
X011976Y018596D01*
X012025Y018537D02*
X012747Y018537D01*
X012806Y018479D02*
X012058Y018479D01*
X012080Y018420D02*
X012864Y018420D01*
X012923Y018362D02*
X012092Y018362D01*
X012513Y018771D02*
X010883Y018771D01*
X010824Y018713D02*
X012572Y018713D01*
X011510Y018654D02*
X011016Y018654D01*
X011132Y018596D02*
X011434Y018596D01*
X011385Y018537D02*
X011191Y018537D01*
X011228Y018479D02*
X011352Y018479D01*
X011330Y018420D02*
X011252Y018420D01*
X011266Y018362D02*
X011318Y018362D01*
X010820Y018654D02*
X010766Y018654D01*
X010675Y018069D02*
X010626Y018069D01*
X010567Y018011D02*
X010751Y018011D01*
X009737Y018441D02*
X009737Y017531D01*
X009617Y018011D02*
X009581Y018011D01*
X009373Y018362D02*
X009313Y018362D01*
X009313Y018420D02*
X009373Y018420D01*
X009373Y018479D02*
X009313Y018479D01*
X009313Y018537D02*
X009373Y018537D01*
X009373Y018596D02*
X009313Y018596D01*
X009313Y018654D02*
X009373Y018654D01*
X009371Y016841D02*
X009482Y016841D01*
X009428Y016782D02*
X009347Y016782D01*
X009322Y016724D02*
X009390Y016724D01*
X009366Y016665D02*
X009276Y016665D01*
X009217Y016607D02*
X009353Y016607D01*
X009209Y016080D02*
X008282Y016080D01*
X008282Y016022D02*
X009114Y016022D01*
X009055Y015963D02*
X008282Y015963D01*
X008282Y015905D02*
X009027Y015905D01*
X009002Y015846D02*
X008282Y015846D01*
X008282Y015788D02*
X008995Y015788D01*
X008995Y015729D02*
X008282Y015729D01*
X008282Y015671D02*
X009003Y015671D01*
X009027Y015612D02*
X008282Y015612D01*
X008282Y015554D02*
X009057Y015554D01*
X009115Y015495D02*
X008282Y015495D01*
X008282Y015437D02*
X009213Y015437D01*
X008588Y016490D02*
X008510Y016490D01*
X008042Y016080D02*
X007902Y016080D01*
X007998Y016022D02*
X008042Y016022D01*
X008042Y015495D02*
X007996Y015495D01*
X008042Y015437D02*
X007898Y015437D01*
X007479Y014618D02*
X007419Y014618D01*
X007419Y014559D02*
X007479Y014559D01*
X007479Y014501D02*
X007419Y014501D01*
X007419Y014442D02*
X007479Y014442D01*
X007479Y014384D02*
X007419Y014384D01*
X007419Y014325D02*
X007479Y014325D01*
X007479Y014267D02*
X007419Y014267D01*
X007419Y014208D02*
X007479Y014208D01*
X007479Y014150D02*
X007419Y014150D01*
X007419Y014091D02*
X007479Y014091D01*
X007479Y014033D02*
X007419Y014033D01*
X007419Y013857D02*
X007479Y013857D01*
X007479Y013799D02*
X007419Y013799D01*
X007419Y013740D02*
X007479Y013740D01*
X007479Y013682D02*
X007419Y013682D01*
X007419Y013623D02*
X007479Y013623D01*
X007479Y013565D02*
X007419Y013565D01*
X007419Y013506D02*
X007479Y013506D01*
X007479Y013448D02*
X007419Y013448D01*
X007419Y013389D02*
X007479Y013389D01*
X007479Y013331D02*
X007419Y013331D01*
X007419Y013272D02*
X007479Y013272D01*
X007479Y013214D02*
X007419Y013214D01*
X007419Y013155D02*
X007479Y013155D01*
X007611Y013155D02*
X008042Y013155D01*
X008042Y013097D02*
X007035Y013097D01*
X007061Y013038D02*
X008042Y013038D01*
X008042Y012980D02*
X007087Y012980D01*
X007113Y012921D02*
X008042Y012921D01*
X008093Y012863D02*
X007140Y012863D01*
X007166Y012804D02*
X008152Y012804D01*
X008210Y012746D02*
X007192Y012746D01*
X007218Y012687D02*
X008269Y012687D01*
X008327Y012629D02*
X007245Y012629D01*
X007271Y012570D02*
X008386Y012570D01*
X008444Y012512D02*
X007431Y012512D01*
X007489Y012453D02*
X008503Y012453D01*
X008561Y012395D02*
X007548Y012395D01*
X007606Y012336D02*
X008620Y012336D01*
X008678Y012278D02*
X007642Y012278D01*
X007642Y012219D02*
X008737Y012219D01*
X008795Y012161D02*
X007642Y012161D01*
X007642Y012102D02*
X008854Y012102D01*
X008912Y012044D02*
X007642Y012044D01*
X007642Y011985D02*
X008971Y011985D01*
X009029Y011927D02*
X007603Y011927D01*
X007544Y011868D02*
X009088Y011868D01*
X009146Y011810D02*
X007486Y011810D01*
X007427Y011751D02*
X009883Y011751D01*
X009925Y011693D02*
X009179Y011693D01*
X009318Y011634D02*
X009984Y011634D01*
X010113Y011576D02*
X009376Y011576D01*
X009252Y012044D02*
X009864Y012044D01*
X009888Y012102D02*
X009193Y012102D01*
X009135Y012161D02*
X009938Y012161D01*
X009793Y012219D02*
X009076Y012219D01*
X009018Y012278D02*
X009734Y012278D01*
X009689Y012336D02*
X008959Y012336D01*
X008901Y012395D02*
X009664Y012395D01*
X009645Y012453D02*
X008842Y012453D01*
X008784Y012512D02*
X009645Y012512D01*
X009645Y012570D02*
X008725Y012570D01*
X008667Y012629D02*
X009665Y012629D01*
X009689Y012687D02*
X008608Y012687D01*
X008550Y012746D02*
X009735Y012746D01*
X009794Y012804D02*
X008491Y012804D01*
X008433Y012863D02*
X011054Y012863D01*
X011054Y012921D02*
X008374Y012921D01*
X008316Y012980D02*
X011054Y012980D01*
X011111Y013038D02*
X008282Y013038D01*
X008282Y013097D02*
X011170Y013097D01*
X011228Y013155D02*
X008282Y013155D01*
X008282Y013214D02*
X011287Y013214D01*
X011345Y013272D02*
X008282Y013272D01*
X008282Y013331D02*
X011404Y013331D01*
X011462Y013389D02*
X008282Y013389D01*
X008282Y013448D02*
X011521Y013448D01*
X011579Y013506D02*
X008282Y013506D01*
X008042Y013506D02*
X007891Y013506D01*
X007896Y013565D02*
X008042Y013565D01*
X008042Y013623D02*
X007896Y013623D01*
X007896Y013682D02*
X008042Y013682D01*
X008042Y013740D02*
X007896Y013740D01*
X007896Y013799D02*
X008042Y013799D01*
X008042Y013857D02*
X007896Y013857D01*
X007879Y013448D02*
X008042Y013448D01*
X008042Y013389D02*
X007857Y013389D01*
X007826Y013331D02*
X008042Y013331D01*
X008042Y013272D02*
X007781Y013272D01*
X007716Y013214D02*
X008042Y013214D01*
X007287Y013155D02*
X007008Y013155D01*
X006982Y013214D02*
X007183Y013214D01*
X007117Y013272D02*
X006956Y013272D01*
X006930Y013331D02*
X007072Y013331D01*
X007041Y013389D02*
X006904Y013389D01*
X006877Y013448D02*
X007020Y013448D01*
X007007Y013506D02*
X006856Y013506D01*
X006856Y013565D02*
X007002Y013565D01*
X007002Y013623D02*
X006856Y013623D01*
X006856Y013682D02*
X007002Y013682D01*
X007002Y013740D02*
X006856Y013740D01*
X006856Y013799D02*
X007002Y013799D01*
X007002Y013857D02*
X006856Y013857D01*
X005409Y012453D02*
X000280Y012453D01*
X000280Y012395D02*
X005350Y012395D01*
X005292Y012336D02*
X000280Y012336D01*
X000280Y012278D02*
X001902Y012278D01*
X001908Y012280D02*
X001841Y012258D01*
X001778Y012226D01*
X001721Y012185D01*
X001671Y012135D01*
X001630Y012078D01*
X001598Y012016D01*
X001576Y011949D01*
X001565Y011879D01*
X001565Y011557D01*
X001982Y011557D01*
X001982Y011497D01*
X001565Y011497D01*
X001565Y011175D01*
X001576Y011106D01*
X001598Y011039D01*
X001630Y010976D01*
X001671Y010919D01*
X001721Y010869D01*
X001778Y010828D01*
X001841Y010796D01*
X001908Y010774D01*
X001977Y010763D01*
X001982Y010763D01*
X001982Y011497D01*
X002042Y011497D01*
X002042Y010763D01*
X002047Y010763D01*
X002117Y010774D01*
X002184Y010796D01*
X002246Y010828D01*
X002303Y010869D01*
X002353Y010919D01*
X002394Y010976D01*
X002426Y011039D01*
X002448Y011106D01*
X002459Y011175D01*
X002459Y011497D01*
X002042Y011497D01*
X002042Y011557D01*
X001982Y011557D01*
X001982Y012291D01*
X001977Y012291D01*
X001908Y012280D01*
X001982Y012278D02*
X002042Y012278D01*
X002042Y012291D02*
X002042Y011557D01*
X002459Y011557D01*
X002459Y011879D01*
X002448Y011949D01*
X002426Y012016D01*
X002394Y012078D01*
X002353Y012135D01*
X002303Y012185D01*
X002246Y012226D01*
X002184Y012258D01*
X002117Y012280D01*
X002047Y012291D01*
X002042Y012291D01*
X002042Y012219D02*
X001982Y012219D01*
X001982Y012161D02*
X002042Y012161D01*
X002042Y012102D02*
X001982Y012102D01*
X001982Y012044D02*
X002042Y012044D01*
X002042Y011985D02*
X001982Y011985D01*
X001982Y011927D02*
X002042Y011927D01*
X002042Y011868D02*
X001982Y011868D01*
X001982Y011810D02*
X002042Y011810D01*
X002042Y011751D02*
X001982Y011751D01*
X001982Y011693D02*
X002042Y011693D01*
X002042Y011634D02*
X001982Y011634D01*
X001982Y011576D02*
X002042Y011576D01*
X002042Y011517D02*
X002982Y011517D01*
X002982Y011497D02*
X002565Y011497D01*
X002565Y011175D01*
X002576Y011106D01*
X002598Y011039D01*
X002630Y010976D01*
X002671Y010919D01*
X002721Y010869D01*
X002778Y010828D01*
X002841Y010796D01*
X002908Y010774D01*
X002977Y010763D01*
X002982Y010763D01*
X002982Y011497D01*
X002982Y011557D01*
X002565Y011557D01*
X002565Y011879D01*
X002576Y011949D01*
X002598Y012016D01*
X002630Y012078D01*
X002671Y012135D01*
X002721Y012185D01*
X002778Y012226D01*
X002841Y012258D01*
X002908Y012280D01*
X002977Y012291D01*
X002982Y012291D01*
X002982Y011557D01*
X003042Y011557D01*
X003042Y012291D01*
X003047Y012291D01*
X003117Y012280D01*
X003184Y012258D01*
X003246Y012226D01*
X003303Y012185D01*
X003353Y012135D01*
X003394Y012078D01*
X003426Y012016D01*
X003448Y011949D01*
X003459Y011879D01*
X003459Y011557D01*
X003042Y011557D01*
X003042Y011497D01*
X003042Y010763D01*
X003047Y010763D01*
X003117Y010774D01*
X003184Y010796D01*
X003246Y010828D01*
X003303Y010869D01*
X003353Y010919D01*
X003394Y010976D01*
X003426Y011039D01*
X003448Y011106D01*
X003459Y011175D01*
X003459Y011497D01*
X003042Y011497D01*
X002982Y011497D01*
X002982Y011459D02*
X003042Y011459D01*
X003042Y011517D02*
X003605Y011517D01*
X003605Y011459D02*
X003459Y011459D01*
X003459Y011400D02*
X003605Y011400D01*
X003605Y011342D02*
X003459Y011342D01*
X003459Y011283D02*
X003605Y011283D01*
X003605Y011225D02*
X003459Y011225D01*
X003458Y011166D02*
X003605Y011166D01*
X003605Y011129D02*
X003667Y010980D01*
X003782Y010865D01*
X003931Y010803D01*
X004093Y010803D01*
X004243Y010865D01*
X004357Y010980D01*
X004419Y011129D01*
X004419Y011925D01*
X004357Y012074D01*
X004243Y012189D01*
X004093Y012251D01*
X003931Y012251D01*
X003782Y012189D01*
X003667Y012074D01*
X003605Y011925D01*
X003605Y011129D01*
X003614Y011108D02*
X003448Y011108D01*
X003430Y011049D02*
X003638Y011049D01*
X003663Y010991D02*
X003402Y010991D01*
X003363Y010932D02*
X003715Y010932D01*
X003773Y010874D02*
X003308Y010874D01*
X003221Y010815D02*
X003902Y010815D01*
X004122Y010815D02*
X008471Y010815D01*
X008447Y010874D02*
X004251Y010874D01*
X004310Y010932D02*
X008423Y010932D01*
X008398Y010991D02*
X004362Y010991D01*
X004386Y011049D02*
X008388Y011049D01*
X008388Y011108D02*
X004410Y011108D01*
X004419Y011166D02*
X008388Y011166D01*
X008388Y011225D02*
X004419Y011225D01*
X004419Y011283D02*
X008401Y011283D01*
X008426Y011342D02*
X004419Y011342D01*
X004419Y011400D02*
X008450Y011400D01*
X008474Y011459D02*
X004419Y011459D01*
X004419Y011517D02*
X008527Y011517D01*
X008585Y011576D02*
X004419Y011576D01*
X004419Y011634D02*
X008644Y011634D01*
X008783Y011693D02*
X004419Y011693D01*
X004419Y011751D02*
X005471Y011751D01*
X005413Y011810D02*
X004419Y011810D01*
X004419Y011868D02*
X005354Y011868D01*
X005296Y011927D02*
X004418Y011927D01*
X004394Y011985D02*
X005257Y011985D01*
X005257Y012044D02*
X004370Y012044D01*
X004329Y012102D02*
X005257Y012102D01*
X005257Y012161D02*
X004271Y012161D01*
X004169Y012219D02*
X005257Y012219D01*
X005257Y012278D02*
X003123Y012278D01*
X003042Y012278D02*
X002982Y012278D01*
X002982Y012219D02*
X003042Y012219D01*
X003042Y012161D02*
X002982Y012161D01*
X002982Y012102D02*
X003042Y012102D01*
X003042Y012044D02*
X002982Y012044D01*
X002982Y011985D02*
X003042Y011985D01*
X003042Y011927D02*
X002982Y011927D01*
X002982Y011868D02*
X003042Y011868D01*
X003042Y011810D02*
X002982Y011810D01*
X002982Y011751D02*
X003042Y011751D01*
X003042Y011693D02*
X002982Y011693D01*
X002982Y011634D02*
X003042Y011634D01*
X003042Y011576D02*
X002982Y011576D01*
X002982Y011400D02*
X003042Y011400D01*
X003042Y011342D02*
X002982Y011342D01*
X002982Y011283D02*
X003042Y011283D01*
X003042Y011225D02*
X002982Y011225D01*
X002982Y011166D02*
X003042Y011166D01*
X003042Y011108D02*
X002982Y011108D01*
X002982Y011049D02*
X003042Y011049D01*
X003042Y010991D02*
X002982Y010991D01*
X002982Y010932D02*
X003042Y010932D01*
X003042Y010874D02*
X002982Y010874D01*
X002982Y010815D02*
X003042Y010815D01*
X002803Y010815D02*
X002221Y010815D01*
X002308Y010874D02*
X002717Y010874D01*
X002662Y010932D02*
X002363Y010932D01*
X002402Y010991D02*
X002622Y010991D01*
X002595Y011049D02*
X002430Y011049D01*
X002448Y011108D02*
X002576Y011108D01*
X002567Y011166D02*
X002458Y011166D01*
X002459Y011225D02*
X002565Y011225D01*
X002565Y011283D02*
X002459Y011283D01*
X002459Y011342D02*
X002565Y011342D01*
X002565Y011400D02*
X002459Y011400D01*
X002459Y011459D02*
X002565Y011459D01*
X002565Y011576D02*
X002459Y011576D01*
X002459Y011634D02*
X002565Y011634D01*
X002565Y011693D02*
X002459Y011693D01*
X002459Y011751D02*
X002565Y011751D01*
X002565Y011810D02*
X002459Y011810D01*
X002459Y011868D02*
X002565Y011868D01*
X002573Y011927D02*
X002451Y011927D01*
X002436Y011985D02*
X002588Y011985D01*
X002613Y012044D02*
X002412Y012044D01*
X002377Y012102D02*
X002648Y012102D01*
X002697Y012161D02*
X002327Y012161D01*
X002256Y012219D02*
X002769Y012219D01*
X002902Y012278D02*
X002123Y012278D01*
X001769Y012219D02*
X001169Y012219D01*
X001243Y012189D02*
X001093Y012251D01*
X000931Y012251D01*
X000782Y012189D01*
X000667Y012074D01*
X000605Y011925D01*
X000605Y011129D01*
X000667Y010980D01*
X000782Y010865D01*
X000931Y010803D01*
X001093Y010803D01*
X001243Y010865D01*
X001357Y010980D01*
X001419Y011129D01*
X001419Y011925D01*
X001357Y012074D01*
X001243Y012189D01*
X001271Y012161D02*
X001697Y012161D01*
X001648Y012102D02*
X001329Y012102D01*
X001370Y012044D02*
X001613Y012044D01*
X001588Y011985D02*
X001394Y011985D01*
X001418Y011927D02*
X001573Y011927D01*
X001565Y011868D02*
X001419Y011868D01*
X001419Y011810D02*
X001565Y011810D01*
X001565Y011751D02*
X001419Y011751D01*
X001419Y011693D02*
X001565Y011693D01*
X001565Y011634D02*
X001419Y011634D01*
X001419Y011576D02*
X001565Y011576D01*
X001565Y011459D02*
X001419Y011459D01*
X001419Y011517D02*
X001982Y011517D01*
X001982Y011459D02*
X002042Y011459D01*
X002042Y011400D02*
X001982Y011400D01*
X001982Y011342D02*
X002042Y011342D01*
X002042Y011283D02*
X001982Y011283D01*
X001982Y011225D02*
X002042Y011225D01*
X002042Y011166D02*
X001982Y011166D01*
X001982Y011108D02*
X002042Y011108D01*
X002042Y011049D02*
X001982Y011049D01*
X001982Y010991D02*
X002042Y010991D01*
X002042Y010932D02*
X001982Y010932D01*
X001982Y010874D02*
X002042Y010874D01*
X002042Y010815D02*
X001982Y010815D01*
X001803Y010815D02*
X001122Y010815D01*
X001251Y010874D02*
X001717Y010874D01*
X001662Y010932D02*
X001310Y010932D01*
X001362Y010991D02*
X001622Y010991D01*
X001595Y011049D02*
X001386Y011049D01*
X001410Y011108D02*
X001576Y011108D01*
X001567Y011166D02*
X001419Y011166D01*
X001419Y011225D02*
X001565Y011225D01*
X001565Y011283D02*
X001419Y011283D01*
X001419Y011342D02*
X001565Y011342D01*
X001565Y011400D02*
X001419Y011400D01*
X000902Y010815D02*
X000280Y010815D01*
X000280Y010757D02*
X008519Y010757D01*
X008578Y010698D02*
X000280Y010698D01*
X000280Y010640D02*
X008636Y010640D01*
X010265Y011576D02*
X011098Y011576D01*
X010968Y011634D02*
X010395Y011634D01*
X010453Y011693D02*
X010910Y011693D01*
X010867Y011751D02*
X010496Y011751D01*
X010520Y011810D02*
X010843Y011810D01*
X010826Y011868D02*
X010537Y011868D01*
X010580Y012219D02*
X010377Y012219D01*
X010251Y012278D02*
X010522Y012278D01*
X010476Y012336D02*
X010296Y012336D01*
X010321Y012395D02*
X010452Y012395D01*
X010432Y012453D02*
X010340Y012453D01*
X010340Y012512D02*
X010432Y012512D01*
X010432Y012570D02*
X010340Y012570D01*
X010320Y012629D02*
X010452Y012629D01*
X010476Y012687D02*
X010296Y012687D01*
X010250Y012746D02*
X010523Y012746D01*
X010581Y012804D02*
X010191Y012804D01*
X010979Y012804D02*
X011054Y012804D01*
X011054Y012746D02*
X011037Y012746D01*
X011823Y012804D02*
X011841Y012804D01*
X011613Y011868D02*
X011521Y011868D01*
X011504Y011810D02*
X011631Y011810D01*
X011655Y011751D02*
X011480Y011751D01*
X011438Y011693D02*
X011697Y011693D01*
X011756Y011634D02*
X011379Y011634D01*
X011250Y011576D02*
X011885Y011576D01*
X007718Y006675D02*
X007500Y006765D01*
X007264Y006765D01*
X007047Y006675D01*
X006880Y006509D01*
X006790Y006291D01*
X006790Y006055D01*
X006880Y005837D01*
X007047Y005670D01*
X007264Y005580D01*
X007500Y005580D01*
X007718Y005670D01*
X007885Y005837D01*
X007975Y006055D01*
X007975Y006291D01*
X007885Y006509D01*
X007718Y006675D01*
X007731Y006662D02*
X019705Y006662D01*
X019705Y006720D02*
X007609Y006720D01*
X007790Y006603D02*
X019705Y006603D01*
X019705Y006545D02*
X007848Y006545D01*
X007894Y006486D02*
X019705Y006486D01*
X019705Y006428D02*
X007918Y006428D01*
X007942Y006369D02*
X019705Y006369D01*
X019705Y006311D02*
X007967Y006311D01*
X007975Y006252D02*
X019705Y006252D01*
X019705Y006194D02*
X007975Y006194D01*
X007975Y006135D02*
X019705Y006135D01*
X019705Y006077D02*
X007975Y006077D01*
X007960Y006018D02*
X019705Y006018D01*
X019705Y005960D02*
X007935Y005960D01*
X007911Y005901D02*
X019705Y005901D01*
X019705Y005843D02*
X007887Y005843D01*
X007832Y005784D02*
X019705Y005784D01*
X019705Y005726D02*
X007773Y005726D01*
X007711Y005667D02*
X019705Y005667D01*
X019705Y005609D02*
X007569Y005609D01*
X007195Y005609D02*
X006868Y005609D01*
X006809Y005667D02*
X007054Y005667D01*
X006991Y005726D02*
X006751Y005726D01*
X006692Y005784D02*
X006933Y005784D01*
X006878Y005843D02*
X006634Y005843D01*
X006575Y005901D02*
X006853Y005901D01*
X006829Y005960D02*
X006517Y005960D01*
X006458Y006018D02*
X006805Y006018D01*
X006790Y006077D02*
X006400Y006077D01*
X006341Y006135D02*
X006790Y006135D01*
X006790Y006194D02*
X006283Y006194D01*
X006224Y006252D02*
X006790Y006252D01*
X006798Y006311D02*
X006166Y006311D01*
X006107Y006369D02*
X006822Y006369D01*
X006846Y006428D02*
X006049Y006428D01*
X005990Y006486D02*
X006871Y006486D01*
X006916Y006545D02*
X002675Y006545D01*
X002711Y006509D02*
X002545Y006675D01*
X002327Y006765D01*
X002091Y006765D01*
X001873Y006675D01*
X001707Y006509D01*
X001616Y006291D01*
X001616Y006055D01*
X001707Y005837D01*
X001873Y005670D01*
X002091Y005580D01*
X002327Y005580D01*
X002545Y005670D01*
X002711Y005837D01*
X002802Y006055D01*
X002802Y006291D01*
X002711Y006509D01*
X002721Y006486D02*
X003601Y006486D01*
X003573Y006459D02*
X003644Y006529D01*
X005948Y006529D01*
X007372Y005104D01*
X007416Y005122D01*
X007530Y005122D01*
X007636Y005078D01*
X007717Y004997D01*
X007761Y004892D01*
X007761Y004777D01*
X007717Y004671D01*
X007636Y004590D01*
X007530Y004546D01*
X007416Y004546D01*
X007310Y004590D01*
X007229Y004671D01*
X007185Y004777D01*
X007185Y004892D01*
X007203Y004935D01*
X005848Y006289D01*
X003743Y006289D01*
X000467Y003013D01*
X000467Y002448D01*
X000490Y002448D01*
X000544Y002394D01*
X000571Y002421D01*
X000571Y002739D01*
X000649Y002818D01*
X000649Y002923D01*
X000693Y003029D01*
X000774Y003110D01*
X000880Y003154D01*
X000995Y003154D01*
X001101Y003110D01*
X001182Y003029D01*
X001226Y002923D01*
X001226Y002808D01*
X001182Y002703D01*
X001101Y002621D01*
X000995Y002578D01*
X000911Y002578D01*
X000911Y002421D01*
X000937Y002394D01*
X000991Y002448D01*
X001277Y002448D01*
X001303Y002422D01*
X001332Y002451D01*
X001374Y002475D01*
X001421Y002488D01*
X001498Y002488D01*
X001498Y001685D01*
X001558Y001685D01*
X001558Y002488D01*
X001635Y002488D01*
X001682Y002475D01*
X001724Y002451D01*
X001753Y002422D01*
X001779Y002448D01*
X002064Y002448D01*
X002119Y002394D01*
X002173Y002448D01*
X002458Y002448D01*
X002512Y002394D01*
X002566Y002448D01*
X002852Y002448D01*
X002906Y002394D01*
X002960Y002448D01*
X003246Y002448D01*
X003300Y002394D01*
X003326Y002421D01*
X003326Y002578D01*
X003242Y002578D01*
X003136Y002621D01*
X003055Y002703D01*
X003011Y002808D01*
X003011Y002923D01*
X003055Y003029D01*
X003136Y003110D01*
X003242Y003154D01*
X003357Y003154D01*
X003463Y003110D01*
X003544Y003029D01*
X003588Y002923D01*
X003588Y002818D01*
X003666Y002739D01*
X003666Y002421D01*
X003693Y002394D01*
X003747Y002448D01*
X004033Y002448D01*
X004087Y002394D01*
X004141Y002448D01*
X004203Y002448D01*
X004203Y002895D01*
X003495Y003603D01*
X003495Y004577D01*
X003418Y004500D01*
X003290Y004447D01*
X003152Y004447D01*
X003024Y004500D01*
X002926Y004598D01*
X002873Y004726D01*
X002873Y004864D01*
X002926Y004992D01*
X003024Y005090D01*
X003152Y005143D01*
X003169Y005143D01*
X003123Y005188D01*
X003070Y005316D01*
X003070Y005455D01*
X003123Y005582D01*
X003221Y005680D01*
X003349Y005733D01*
X003487Y005733D01*
X003615Y005680D01*
X003713Y005582D01*
X003766Y005455D01*
X003766Y005316D01*
X003722Y005211D01*
X003735Y005199D01*
X003735Y005013D01*
X003811Y005090D01*
X003939Y005143D01*
X004077Y005143D01*
X004205Y005090D01*
X004282Y005013D01*
X004282Y005059D01*
X004205Y005091D01*
X004107Y005188D01*
X004054Y005316D01*
X004054Y005455D01*
X004107Y005582D01*
X004205Y005680D01*
X004333Y005733D01*
X004471Y005733D01*
X004599Y005680D01*
X004697Y005582D01*
X004750Y005455D01*
X004750Y005316D01*
X004697Y005188D01*
X004672Y005163D01*
X004683Y005168D01*
X004757Y005183D01*
X004766Y005183D01*
X004766Y004825D01*
X004826Y004825D01*
X004826Y005183D01*
X004834Y005183D01*
X004909Y005168D01*
X004920Y005163D01*
X004895Y005188D01*
X004842Y005316D01*
X004842Y005455D01*
X004895Y005582D01*
X004992Y005680D01*
X005120Y005733D01*
X005259Y005733D01*
X005386Y005680D01*
X005484Y005582D01*
X005537Y005455D01*
X005537Y005316D01*
X005484Y005188D01*
X005386Y005091D01*
X005309Y005059D01*
X005309Y005013D01*
X005386Y005090D01*
X005514Y005143D01*
X005652Y005143D01*
X005780Y005090D01*
X005878Y004992D01*
X005931Y004864D01*
X005931Y004726D01*
X005878Y004598D01*
X005864Y004584D01*
X005966Y004482D01*
X005977Y004472D01*
X005987Y004482D01*
X006089Y004584D01*
X006076Y004598D01*
X006023Y004726D01*
X006023Y004864D01*
X006076Y004992D01*
X006121Y005038D01*
X006104Y005038D01*
X005977Y005091D01*
X005879Y005188D01*
X005826Y005316D01*
X005826Y005455D01*
X005879Y005582D01*
X005977Y005680D01*
X006104Y005733D01*
X006243Y005733D01*
X006371Y005680D01*
X006468Y005582D01*
X006521Y005455D01*
X006521Y005316D01*
X006468Y005188D01*
X006423Y005143D01*
X006440Y005143D01*
X006567Y005090D01*
X006665Y004992D01*
X006718Y004864D01*
X006718Y004726D01*
X006665Y004598D01*
X006567Y004500D01*
X006440Y004447D01*
X006301Y004447D01*
X006295Y004450D01*
X006157Y004312D01*
X006157Y004121D01*
X007417Y002862D01*
X007417Y002522D01*
X007490Y002448D01*
X007576Y002448D01*
X007602Y002422D01*
X007631Y002451D01*
X007673Y002475D01*
X007720Y002488D01*
X007797Y002488D01*
X007797Y001685D01*
X007857Y001685D01*
X007857Y002488D01*
X007880Y002488D01*
X007880Y003129D01*
X007872Y003129D01*
X007796Y003206D01*
X007796Y003313D01*
X007872Y003389D01*
X007880Y003389D01*
X007880Y003638D01*
X007964Y003722D01*
X008084Y003722D01*
X008168Y003638D01*
X008168Y003389D01*
X019705Y003389D01*
X019705Y019665D01*
X000280Y019665D01*
X000280Y003730D01*
X000294Y003717D01*
X000294Y003179D01*
X003573Y006459D01*
X003542Y006428D02*
X002745Y006428D01*
X002769Y006369D02*
X003484Y006369D01*
X003425Y006311D02*
X002793Y006311D01*
X002802Y006252D02*
X003367Y006252D01*
X003308Y006194D02*
X002802Y006194D01*
X002802Y006135D02*
X003250Y006135D01*
X003191Y006077D02*
X002802Y006077D01*
X002786Y006018D02*
X003133Y006018D01*
X003074Y005960D02*
X002762Y005960D01*
X002738Y005901D02*
X003016Y005901D01*
X002957Y005843D02*
X002714Y005843D01*
X002659Y005784D02*
X002899Y005784D01*
X002840Y005726D02*
X002600Y005726D01*
X002537Y005667D02*
X002782Y005667D01*
X002723Y005609D02*
X002396Y005609D01*
X002548Y005433D02*
X000280Y005433D01*
X000280Y005375D02*
X002489Y005375D01*
X002431Y005316D02*
X000280Y005316D01*
X000280Y005258D02*
X002372Y005258D01*
X002314Y005199D02*
X000280Y005199D01*
X000280Y005141D02*
X002255Y005141D01*
X002197Y005082D02*
X000280Y005082D01*
X000280Y005024D02*
X002138Y005024D01*
X002080Y004965D02*
X000280Y004965D01*
X000280Y004907D02*
X002021Y004907D01*
X001963Y004848D02*
X000280Y004848D01*
X000280Y004790D02*
X001904Y004790D01*
X001846Y004731D02*
X000280Y004731D01*
X000280Y004673D02*
X001787Y004673D01*
X001729Y004614D02*
X000280Y004614D01*
X000280Y004556D02*
X001670Y004556D01*
X001612Y004497D02*
X000280Y004497D01*
X000280Y004439D02*
X001553Y004439D01*
X001495Y004380D02*
X000280Y004380D01*
X000280Y004322D02*
X001436Y004322D01*
X001378Y004263D02*
X000280Y004263D01*
X000280Y004205D02*
X001319Y004205D01*
X001261Y004146D02*
X000280Y004146D01*
X000280Y004088D02*
X001202Y004088D01*
X001144Y004029D02*
X000280Y004029D01*
X000280Y003971D02*
X001085Y003971D01*
X001027Y003912D02*
X000280Y003912D01*
X000280Y003854D02*
X000968Y003854D01*
X000910Y003795D02*
X000280Y003795D01*
X000280Y003737D02*
X000851Y003737D01*
X000793Y003678D02*
X000294Y003678D01*
X000294Y003620D02*
X000734Y003620D01*
X000676Y003561D02*
X000294Y003561D01*
X000294Y003503D02*
X000617Y003503D01*
X000559Y003444D02*
X000294Y003444D01*
X000294Y003386D02*
X000500Y003386D01*
X000442Y003327D02*
X000294Y003327D01*
X000294Y003269D02*
X000383Y003269D01*
X000325Y003210D02*
X000294Y003210D01*
X000347Y003063D02*
X003693Y006409D01*
X005898Y006409D01*
X007473Y004834D01*
X007742Y004731D02*
X019705Y004731D01*
X019705Y004673D02*
X007718Y004673D01*
X007660Y004614D02*
X019705Y004614D01*
X019705Y004556D02*
X007554Y004556D01*
X007392Y004556D02*
X006623Y004556D01*
X006672Y004614D02*
X007285Y004614D01*
X007228Y004673D02*
X006696Y004673D01*
X006718Y004731D02*
X007204Y004731D01*
X007185Y004790D02*
X006718Y004790D01*
X006718Y004848D02*
X007185Y004848D01*
X007191Y004907D02*
X006701Y004907D01*
X006676Y004965D02*
X007172Y004965D01*
X007114Y005024D02*
X006633Y005024D01*
X006575Y005082D02*
X007055Y005082D01*
X006997Y005141D02*
X006444Y005141D01*
X006473Y005199D02*
X006938Y005199D01*
X006880Y005258D02*
X006497Y005258D01*
X006521Y005316D02*
X006821Y005316D01*
X006763Y005375D02*
X006521Y005375D01*
X006521Y005433D02*
X006704Y005433D01*
X006646Y005492D02*
X006506Y005492D01*
X006482Y005550D02*
X006587Y005550D01*
X006529Y005609D02*
X006442Y005609D01*
X006470Y005667D02*
X006384Y005667D01*
X006412Y005726D02*
X006261Y005726D01*
X006353Y005784D02*
X003238Y005784D01*
X003180Y005726D02*
X003331Y005726D01*
X003297Y005843D02*
X006295Y005843D01*
X006236Y005901D02*
X003355Y005901D01*
X003414Y005960D02*
X006178Y005960D01*
X006119Y006018D02*
X003472Y006018D01*
X003531Y006077D02*
X006061Y006077D01*
X006002Y006135D02*
X003589Y006135D01*
X003648Y006194D02*
X005944Y006194D01*
X005885Y006252D02*
X003706Y006252D01*
X003505Y005726D02*
X004315Y005726D01*
X004192Y005667D02*
X003628Y005667D01*
X003686Y005609D02*
X004134Y005609D01*
X004094Y005550D02*
X003726Y005550D01*
X003750Y005492D02*
X004070Y005492D01*
X004054Y005433D02*
X003766Y005433D01*
X003766Y005375D02*
X004054Y005375D01*
X004054Y005316D02*
X003766Y005316D01*
X003741Y005258D02*
X004078Y005258D01*
X004103Y005199D02*
X003734Y005199D01*
X003735Y005141D02*
X003935Y005141D01*
X003804Y005082D02*
X003735Y005082D01*
X003735Y005024D02*
X003745Y005024D01*
X003615Y005149D02*
X003615Y003653D01*
X004323Y002944D01*
X004323Y001610D01*
X004284Y001570D01*
X004203Y002450D02*
X003666Y002450D01*
X003666Y002508D02*
X004203Y002508D01*
X004203Y002567D02*
X003666Y002567D01*
X003666Y002625D02*
X004203Y002625D01*
X004203Y002684D02*
X003666Y002684D01*
X003663Y002742D02*
X004203Y002742D01*
X004203Y002801D02*
X003605Y002801D01*
X003588Y002859D02*
X004203Y002859D01*
X004180Y002918D02*
X003588Y002918D01*
X003566Y002976D02*
X004122Y002976D01*
X004063Y003035D02*
X003538Y003035D01*
X003479Y003093D02*
X004005Y003093D01*
X003946Y003152D02*
X003362Y003152D01*
X003237Y003152D02*
X001000Y003152D01*
X000875Y003152D02*
X000606Y003152D01*
X000664Y003210D02*
X003888Y003210D01*
X003829Y003269D02*
X000723Y003269D01*
X000781Y003327D02*
X003771Y003327D01*
X003712Y003386D02*
X000840Y003386D01*
X000898Y003444D02*
X003654Y003444D01*
X003595Y003503D02*
X000957Y003503D01*
X001015Y003561D02*
X003537Y003561D01*
X003495Y003620D02*
X001074Y003620D01*
X001132Y003678D02*
X003495Y003678D01*
X003495Y003737D02*
X001191Y003737D01*
X001249Y003795D02*
X003495Y003795D01*
X003495Y003854D02*
X001308Y003854D01*
X001366Y003912D02*
X003495Y003912D01*
X003495Y003971D02*
X001425Y003971D01*
X001483Y004029D02*
X003495Y004029D01*
X003495Y004088D02*
X001542Y004088D01*
X001600Y004146D02*
X003495Y004146D01*
X003495Y004205D02*
X001659Y004205D01*
X001717Y004263D02*
X003495Y004263D01*
X003495Y004322D02*
X001776Y004322D01*
X001834Y004380D02*
X003495Y004380D01*
X003495Y004439D02*
X001893Y004439D01*
X001951Y004497D02*
X003030Y004497D01*
X002968Y004556D02*
X002010Y004556D01*
X002068Y004614D02*
X002919Y004614D01*
X002895Y004673D02*
X002127Y004673D01*
X002185Y004731D02*
X002873Y004731D01*
X002873Y004790D02*
X002244Y004790D01*
X002302Y004848D02*
X002873Y004848D01*
X002891Y004907D02*
X002361Y004907D01*
X002419Y004965D02*
X002915Y004965D01*
X002958Y005024D02*
X002478Y005024D01*
X002536Y005082D02*
X003016Y005082D01*
X003147Y005141D02*
X002595Y005141D01*
X002653Y005199D02*
X003118Y005199D01*
X003094Y005258D02*
X002712Y005258D01*
X002770Y005316D02*
X003070Y005316D01*
X003070Y005375D02*
X002829Y005375D01*
X002887Y005433D02*
X003070Y005433D01*
X003085Y005492D02*
X002946Y005492D01*
X003004Y005550D02*
X003110Y005550D01*
X003149Y005609D02*
X003063Y005609D01*
X003121Y005667D02*
X003208Y005667D01*
X003418Y005385D02*
X003418Y005346D01*
X003615Y005149D01*
X004082Y005141D02*
X004155Y005141D01*
X004213Y005082D02*
X004225Y005082D01*
X004271Y005024D02*
X004282Y005024D01*
X004402Y005385D02*
X004402Y004617D01*
X004736Y004283D01*
X004736Y004101D01*
X005007Y003829D01*
X005637Y003829D01*
X005996Y003471D01*
X005996Y002472D01*
X005859Y002335D01*
X005859Y001570D01*
X005495Y001685D02*
X005435Y001685D01*
X005435Y002488D01*
X005412Y002488D01*
X005412Y003288D01*
X005305Y003509D01*
X005114Y003662D01*
X005114Y003662D01*
X004874Y003716D01*
X004635Y003662D01*
X004635Y003662D01*
X004443Y003509D01*
X004337Y003288D01*
X004337Y003100D01*
X003735Y003703D01*
X003735Y004577D01*
X003811Y004500D01*
X003939Y004447D01*
X004077Y004447D01*
X004205Y004500D01*
X004282Y004577D01*
X004282Y004567D01*
X004616Y004233D01*
X004616Y004051D01*
X004686Y003981D01*
X004957Y003709D01*
X005587Y003709D01*
X005876Y003421D01*
X005876Y002522D01*
X005802Y002448D01*
X005716Y002448D01*
X005690Y002422D01*
X005661Y002451D01*
X005619Y002475D01*
X005572Y002488D01*
X005495Y002488D01*
X005495Y001685D01*
X005495Y001689D02*
X005435Y001689D01*
X005435Y001748D02*
X005495Y001748D01*
X005495Y001806D02*
X005435Y001806D01*
X005435Y001865D02*
X005495Y001865D01*
X005495Y001923D02*
X005435Y001923D01*
X005435Y001982D02*
X005495Y001982D01*
X005495Y002040D02*
X005435Y002040D01*
X005435Y002099D02*
X005495Y002099D01*
X005495Y002157D02*
X005435Y002157D01*
X005435Y002216D02*
X005495Y002216D01*
X005495Y002274D02*
X005435Y002274D01*
X005435Y002333D02*
X005495Y002333D01*
X005495Y002391D02*
X005435Y002391D01*
X005435Y002450D02*
X005495Y002450D01*
X005412Y002508D02*
X005862Y002508D01*
X005876Y002567D02*
X005412Y002567D01*
X005412Y002625D02*
X005876Y002625D01*
X005876Y002684D02*
X005412Y002684D01*
X005412Y002742D02*
X005876Y002742D01*
X005876Y002801D02*
X005412Y002801D01*
X005412Y002859D02*
X005876Y002859D01*
X005876Y002918D02*
X005412Y002918D01*
X005412Y002976D02*
X005876Y002976D01*
X005876Y003035D02*
X005412Y003035D01*
X005412Y003093D02*
X005876Y003093D01*
X005876Y003152D02*
X005412Y003152D01*
X005412Y003210D02*
X005876Y003210D01*
X005876Y003269D02*
X005412Y003269D01*
X005393Y003327D02*
X005876Y003327D01*
X005876Y003386D02*
X005365Y003386D01*
X005336Y003444D02*
X005852Y003444D01*
X005794Y003503D02*
X005308Y003503D01*
X005305Y003509D02*
X005305Y003509D01*
X005239Y003561D02*
X005735Y003561D01*
X005677Y003620D02*
X005166Y003620D01*
X005040Y003678D02*
X005618Y003678D01*
X005687Y003949D02*
X005057Y003949D01*
X004856Y004150D01*
X004856Y004283D01*
X005189Y004617D01*
X005189Y005385D01*
X004866Y005258D02*
X004726Y005258D01*
X004750Y005316D02*
X004842Y005316D01*
X004842Y005375D02*
X004750Y005375D01*
X004750Y005433D02*
X004842Y005433D01*
X004857Y005492D02*
X004734Y005492D01*
X004710Y005550D02*
X004881Y005550D01*
X004921Y005609D02*
X004670Y005609D01*
X004612Y005667D02*
X004979Y005667D01*
X005102Y005726D02*
X004489Y005726D01*
X004701Y005199D02*
X004890Y005199D01*
X004826Y005141D02*
X004766Y005141D01*
X004766Y005082D02*
X004826Y005082D01*
X004826Y005024D02*
X004766Y005024D01*
X004766Y004965D02*
X004826Y004965D01*
X004826Y004907D02*
X004766Y004907D01*
X004766Y004848D02*
X004826Y004848D01*
X004826Y004765D02*
X004766Y004765D01*
X004766Y004423D01*
X004785Y004403D01*
X004785Y004403D01*
X004796Y004393D01*
X004806Y004403D01*
X004806Y004403D01*
X004826Y004423D01*
X004826Y004765D01*
X004826Y004731D02*
X004766Y004731D01*
X004766Y004673D02*
X004826Y004673D01*
X004826Y004614D02*
X004766Y004614D01*
X004766Y004556D02*
X004826Y004556D01*
X004826Y004497D02*
X004766Y004497D01*
X004766Y004439D02*
X004826Y004439D01*
X004616Y004205D02*
X003735Y004205D01*
X003735Y004263D02*
X004586Y004263D01*
X004527Y004322D02*
X003735Y004322D01*
X003735Y004380D02*
X004469Y004380D01*
X004410Y004439D02*
X003735Y004439D01*
X003735Y004497D02*
X003818Y004497D01*
X003755Y004556D02*
X003735Y004556D01*
X003495Y004556D02*
X003474Y004556D01*
X003495Y004497D02*
X003411Y004497D01*
X003735Y004146D02*
X004616Y004146D01*
X004616Y004088D02*
X003735Y004088D01*
X003735Y004029D02*
X004637Y004029D01*
X004696Y003971D02*
X003735Y003971D01*
X003735Y003912D02*
X004754Y003912D01*
X004813Y003854D02*
X003735Y003854D01*
X003735Y003795D02*
X004871Y003795D01*
X004874Y003716D02*
X004874Y003716D01*
X004930Y003737D02*
X003735Y003737D01*
X003759Y003678D02*
X004708Y003678D01*
X004583Y003620D02*
X003818Y003620D01*
X003876Y003561D02*
X004509Y003561D01*
X004443Y003509D02*
X004443Y003509D01*
X004441Y003503D02*
X003935Y003503D01*
X003993Y003444D02*
X004412Y003444D01*
X004384Y003386D02*
X004052Y003386D01*
X004110Y003327D02*
X004356Y003327D01*
X004337Y003269D02*
X004169Y003269D01*
X004227Y003210D02*
X004337Y003210D01*
X004337Y003152D02*
X004286Y003152D01*
X003326Y002567D02*
X000911Y002567D01*
X000911Y002508D02*
X003326Y002508D01*
X003326Y002450D02*
X001725Y002450D01*
X001558Y002450D02*
X001498Y002450D01*
X001498Y002391D02*
X001558Y002391D01*
X001558Y002333D02*
X001498Y002333D01*
X001498Y002274D02*
X001558Y002274D01*
X001558Y002216D02*
X001498Y002216D01*
X001498Y002157D02*
X001558Y002157D01*
X001558Y002099D02*
X001498Y002099D01*
X001498Y002040D02*
X001558Y002040D01*
X001558Y001982D02*
X001498Y001982D01*
X001498Y001923D02*
X001558Y001923D01*
X001558Y001865D02*
X001498Y001865D01*
X001498Y001806D02*
X001558Y001806D01*
X001558Y001748D02*
X001498Y001748D01*
X001498Y001689D02*
X001558Y001689D01*
X001331Y002450D02*
X000911Y002450D01*
X001104Y002625D02*
X003133Y002625D01*
X003074Y002684D02*
X001163Y002684D01*
X001198Y002742D02*
X003039Y002742D01*
X003015Y002801D02*
X001222Y002801D01*
X001226Y002859D02*
X003011Y002859D01*
X003011Y002918D02*
X001226Y002918D01*
X001203Y002976D02*
X003034Y002976D01*
X003061Y003035D02*
X001176Y003035D01*
X001117Y003093D02*
X003120Y003093D01*
X004199Y004497D02*
X004352Y004497D01*
X004293Y004556D02*
X004261Y004556D01*
X005309Y005024D02*
X005320Y005024D01*
X005367Y005082D02*
X005379Y005082D01*
X005437Y005141D02*
X005510Y005141D01*
X005489Y005199D02*
X005874Y005199D01*
X005850Y005258D02*
X005513Y005258D01*
X005537Y005316D02*
X005826Y005316D01*
X005826Y005375D02*
X005537Y005375D01*
X005537Y005433D02*
X005826Y005433D01*
X005841Y005492D02*
X005522Y005492D01*
X005498Y005550D02*
X005865Y005550D01*
X005905Y005609D02*
X005458Y005609D01*
X005399Y005667D02*
X005964Y005667D01*
X006087Y005726D02*
X005276Y005726D01*
X005657Y005141D02*
X005926Y005141D01*
X005996Y005082D02*
X005787Y005082D01*
X005846Y005024D02*
X006108Y005024D01*
X006065Y004965D02*
X005889Y004965D01*
X005913Y004907D02*
X006040Y004907D01*
X006023Y004848D02*
X005931Y004848D01*
X005931Y004790D02*
X006023Y004790D01*
X006023Y004731D02*
X005931Y004731D01*
X005909Y004673D02*
X006045Y004673D01*
X006069Y004614D02*
X005885Y004614D01*
X005892Y004556D02*
X006061Y004556D01*
X006003Y004497D02*
X005951Y004497D01*
X005917Y004362D02*
X005917Y004022D01*
X007177Y002762D01*
X007177Y002472D01*
X007040Y002335D01*
X007040Y001570D01*
X006676Y001685D02*
X006616Y001685D01*
X006616Y002488D01*
X006539Y002488D01*
X006492Y002475D01*
X006450Y002451D01*
X006421Y002422D01*
X006395Y002448D01*
X006309Y002448D01*
X006236Y002522D01*
X006236Y003534D01*
X007057Y002712D01*
X007057Y002522D01*
X006983Y002448D01*
X006897Y002448D01*
X006871Y002422D01*
X006842Y002451D01*
X006800Y002475D01*
X006753Y002488D01*
X006676Y002488D01*
X006676Y001685D01*
X006676Y001689D02*
X006616Y001689D01*
X006616Y001748D02*
X006676Y001748D01*
X006676Y001806D02*
X006616Y001806D01*
X006616Y001865D02*
X006676Y001865D01*
X006676Y001923D02*
X006616Y001923D01*
X006616Y001982D02*
X006676Y001982D01*
X006676Y002040D02*
X006616Y002040D01*
X006616Y002099D02*
X006676Y002099D01*
X006676Y002157D02*
X006616Y002157D01*
X006616Y002216D02*
X006676Y002216D01*
X006676Y002274D02*
X006616Y002274D01*
X006616Y002333D02*
X006676Y002333D01*
X006676Y002391D02*
X006616Y002391D01*
X006616Y002450D02*
X006676Y002450D01*
X006843Y002450D02*
X006985Y002450D01*
X007043Y002508D02*
X006249Y002508D01*
X006236Y002567D02*
X007057Y002567D01*
X007057Y002625D02*
X006236Y002625D01*
X006236Y002684D02*
X007057Y002684D01*
X007027Y002742D02*
X006236Y002742D01*
X006236Y002801D02*
X006968Y002801D01*
X006910Y002859D02*
X006236Y002859D01*
X006236Y002918D02*
X006851Y002918D01*
X006793Y002976D02*
X006236Y002976D01*
X006236Y003035D02*
X006734Y003035D01*
X006676Y003093D02*
X006236Y003093D01*
X006236Y003152D02*
X006617Y003152D01*
X006559Y003210D02*
X006236Y003210D01*
X006236Y003269D02*
X006500Y003269D01*
X006442Y003327D02*
X006236Y003327D01*
X006236Y003386D02*
X006383Y003386D01*
X006325Y003444D02*
X006236Y003444D01*
X006236Y003503D02*
X006266Y003503D01*
X006116Y003521D02*
X005687Y003949D01*
X006037Y004072D02*
X006037Y004362D01*
X006370Y004696D01*
X006370Y004795D01*
X006561Y004497D02*
X019705Y004497D01*
X019705Y004439D02*
X006284Y004439D01*
X006225Y004380D02*
X019705Y004380D01*
X019705Y004322D02*
X006167Y004322D01*
X006157Y004263D02*
X019705Y004263D01*
X019705Y004205D02*
X006157Y004205D01*
X006157Y004146D02*
X019705Y004146D01*
X019705Y004088D02*
X006190Y004088D01*
X006249Y004029D02*
X019705Y004029D01*
X019705Y003971D02*
X006307Y003971D01*
X006366Y003912D02*
X019705Y003912D01*
X019705Y003854D02*
X006424Y003854D01*
X006483Y003795D02*
X019705Y003795D01*
X019705Y003737D02*
X006541Y003737D01*
X006600Y003678D02*
X007921Y003678D01*
X007880Y003620D02*
X006658Y003620D01*
X006717Y003561D02*
X007880Y003561D01*
X007880Y003503D02*
X006775Y003503D01*
X006834Y003444D02*
X007880Y003444D01*
X007868Y003386D02*
X006892Y003386D01*
X006951Y003327D02*
X007810Y003327D01*
X007796Y003269D02*
X007009Y003269D01*
X007068Y003210D02*
X007796Y003210D01*
X007849Y003152D02*
X007126Y003152D01*
X007185Y003093D02*
X007880Y003093D01*
X007880Y003035D02*
X007243Y003035D01*
X007302Y002976D02*
X007880Y002976D01*
X007880Y002918D02*
X007360Y002918D01*
X007417Y002859D02*
X007880Y002859D01*
X007880Y002801D02*
X007417Y002801D01*
X007417Y002742D02*
X007880Y002742D01*
X007880Y002684D02*
X007417Y002684D01*
X007417Y002625D02*
X007880Y002625D01*
X007880Y002567D02*
X007417Y002567D01*
X007430Y002508D02*
X007880Y002508D01*
X007857Y002450D02*
X007797Y002450D01*
X007797Y002391D02*
X007857Y002391D01*
X007857Y002333D02*
X007797Y002333D01*
X007797Y002274D02*
X007857Y002274D01*
X007857Y002216D02*
X007797Y002216D01*
X007797Y002157D02*
X007857Y002157D01*
X007857Y002099D02*
X007797Y002099D01*
X007797Y002040D02*
X007857Y002040D01*
X007857Y001982D02*
X007797Y001982D01*
X007797Y001923D02*
X007857Y001923D01*
X007857Y001865D02*
X007797Y001865D01*
X007797Y001806D02*
X007857Y001806D01*
X007857Y001748D02*
X007797Y001748D01*
X007797Y001689D02*
X007857Y001689D01*
X007433Y001570D02*
X007433Y002335D01*
X007297Y002472D01*
X007297Y002812D01*
X006037Y004072D01*
X005917Y004362D02*
X005583Y004696D01*
X005583Y004795D01*
X006116Y003521D02*
X006116Y002472D01*
X006252Y002335D01*
X006252Y001570D01*
X006307Y002450D02*
X006449Y002450D01*
X005804Y002450D02*
X005662Y002450D01*
X007489Y002450D02*
X007630Y002450D01*
X008168Y003444D02*
X019705Y003444D01*
X019705Y003503D02*
X008168Y003503D01*
X008168Y003561D02*
X019705Y003561D01*
X019705Y003620D02*
X008168Y003620D01*
X008127Y003678D02*
X019705Y003678D01*
X019705Y004790D02*
X007761Y004790D01*
X007761Y004848D02*
X019705Y004848D01*
X019705Y004907D02*
X007755Y004907D01*
X007730Y004965D02*
X019705Y004965D01*
X019705Y005024D02*
X007691Y005024D01*
X007627Y005082D02*
X019705Y005082D01*
X019705Y005141D02*
X007336Y005141D01*
X007277Y005199D02*
X019705Y005199D01*
X019705Y005258D02*
X007219Y005258D01*
X007160Y005316D02*
X019705Y005316D01*
X019705Y005375D02*
X007102Y005375D01*
X007043Y005433D02*
X019705Y005433D01*
X019705Y005492D02*
X006985Y005492D01*
X006926Y005550D02*
X019705Y005550D01*
X019705Y006779D02*
X000280Y006779D01*
X000280Y006837D02*
X019705Y006837D01*
X019705Y006896D02*
X000280Y006896D01*
X000280Y006954D02*
X019705Y006954D01*
X019705Y007013D02*
X000280Y007013D01*
X000280Y007071D02*
X019705Y007071D01*
X019705Y007130D02*
X000280Y007130D01*
X000280Y007188D02*
X019705Y007188D01*
X019705Y007247D02*
X000280Y007247D01*
X000280Y007305D02*
X019705Y007305D01*
X019705Y007364D02*
X000280Y007364D01*
X000280Y007422D02*
X019705Y007422D01*
X019705Y007481D02*
X000280Y007481D01*
X000280Y007539D02*
X019705Y007539D01*
X019705Y007598D02*
X000280Y007598D01*
X000280Y007656D02*
X019705Y007656D01*
X019705Y007715D02*
X000280Y007715D01*
X000280Y007773D02*
X019705Y007773D01*
X019705Y007832D02*
X000280Y007832D01*
X000280Y007890D02*
X019705Y007890D01*
X019705Y007949D02*
X000280Y007949D01*
X000280Y008007D02*
X019705Y008007D01*
X019705Y008066D02*
X000280Y008066D01*
X000280Y008124D02*
X019705Y008124D01*
X019705Y008183D02*
X000280Y008183D01*
X000280Y008241D02*
X019705Y008241D01*
X019705Y008300D02*
X000280Y008300D01*
X000280Y008358D02*
X019705Y008358D01*
X019705Y008417D02*
X000280Y008417D01*
X000280Y008475D02*
X019705Y008475D01*
X019705Y008534D02*
X000280Y008534D01*
X000280Y008592D02*
X019705Y008592D01*
X019705Y008651D02*
X000280Y008651D01*
X000280Y008709D02*
X019705Y008709D01*
X019705Y008768D02*
X000280Y008768D01*
X000280Y008826D02*
X019705Y008826D01*
X019705Y008885D02*
X000280Y008885D01*
X000280Y008943D02*
X019705Y008943D01*
X019705Y009002D02*
X000280Y009002D01*
X000280Y009060D02*
X019705Y009060D01*
X019705Y009119D02*
X000280Y009119D01*
X000280Y009177D02*
X019705Y009177D01*
X019705Y009236D02*
X000280Y009236D01*
X000280Y009294D02*
X019705Y009294D01*
X019705Y009353D02*
X000280Y009353D01*
X000280Y009411D02*
X019705Y009411D01*
X019705Y009470D02*
X000280Y009470D01*
X000280Y009528D02*
X019705Y009528D01*
X019705Y009587D02*
X000280Y009587D01*
X000280Y009645D02*
X019705Y009645D01*
X019705Y019649D02*
X000280Y019649D01*
X000280Y012219D02*
X000855Y012219D01*
X000754Y012161D02*
X000280Y012161D01*
X000280Y012102D02*
X000695Y012102D01*
X000655Y012044D02*
X000280Y012044D01*
X000280Y011985D02*
X000630Y011985D01*
X000606Y011927D02*
X000280Y011927D01*
X000280Y011868D02*
X000605Y011868D01*
X000605Y011810D02*
X000280Y011810D01*
X000280Y011751D02*
X000605Y011751D01*
X000605Y011693D02*
X000280Y011693D01*
X000280Y011634D02*
X000605Y011634D01*
X000605Y011576D02*
X000280Y011576D01*
X000280Y011517D02*
X000605Y011517D01*
X000605Y011459D02*
X000280Y011459D01*
X000280Y011400D02*
X000605Y011400D01*
X000605Y011342D02*
X000280Y011342D01*
X000280Y011283D02*
X000605Y011283D01*
X000605Y011225D02*
X000280Y011225D01*
X000280Y011166D02*
X000605Y011166D01*
X000614Y011108D02*
X000280Y011108D01*
X000280Y011049D02*
X000638Y011049D01*
X000663Y010991D02*
X000280Y010991D01*
X000280Y010932D02*
X000715Y010932D01*
X000773Y010874D02*
X000280Y010874D01*
X003256Y012219D02*
X003855Y012219D01*
X003754Y012161D02*
X003327Y012161D01*
X003377Y012102D02*
X003695Y012102D01*
X003655Y012044D02*
X003412Y012044D01*
X003436Y011985D02*
X003630Y011985D01*
X003606Y011927D02*
X003451Y011927D01*
X003459Y011868D02*
X003605Y011868D01*
X003605Y011810D02*
X003459Y011810D01*
X003459Y011751D02*
X003605Y011751D01*
X003605Y011693D02*
X003459Y011693D01*
X003459Y011634D02*
X003605Y011634D01*
X003605Y011576D02*
X003459Y011576D01*
X002436Y006720D02*
X007156Y006720D01*
X007033Y006662D02*
X002558Y006662D01*
X002617Y006603D02*
X006975Y006603D01*
X002665Y005550D02*
X000280Y005550D01*
X000280Y005492D02*
X002606Y005492D01*
X002022Y005609D02*
X000280Y005609D01*
X000280Y005667D02*
X001881Y005667D01*
X001818Y005726D02*
X000280Y005726D01*
X000280Y005784D02*
X001759Y005784D01*
X001704Y005843D02*
X000280Y005843D01*
X000280Y005901D02*
X001680Y005901D01*
X001656Y005960D02*
X000280Y005960D01*
X000280Y006018D02*
X001632Y006018D01*
X001616Y006077D02*
X000280Y006077D01*
X000280Y006135D02*
X001616Y006135D01*
X001616Y006194D02*
X000280Y006194D01*
X000280Y006252D02*
X001616Y006252D01*
X001625Y006311D02*
X000280Y006311D01*
X000280Y006369D02*
X001649Y006369D01*
X001673Y006428D02*
X000280Y006428D01*
X000280Y006486D02*
X001698Y006486D01*
X001743Y006545D02*
X000280Y006545D01*
X000280Y006603D02*
X001802Y006603D01*
X001860Y006662D02*
X000280Y006662D01*
X000280Y006720D02*
X001982Y006720D01*
X000758Y003093D02*
X000547Y003093D01*
X000489Y003035D02*
X000699Y003035D01*
X000671Y002976D02*
X000467Y002976D01*
X000467Y002918D02*
X000649Y002918D01*
X000649Y002859D02*
X000467Y002859D01*
X000467Y002801D02*
X000632Y002801D01*
X000574Y002742D02*
X000467Y002742D01*
X000467Y002684D02*
X000571Y002684D01*
X000571Y002625D02*
X000467Y002625D01*
X000467Y002567D02*
X000571Y002567D01*
X000571Y002508D02*
X000467Y002508D01*
X000467Y002450D02*
X000571Y002450D01*
X000347Y003063D02*
X000347Y001570D01*
D16*
X000937Y002866D03*
X003300Y002866D03*
X004382Y004165D03*
X005563Y002984D03*
X006804Y002689D03*
X006804Y004263D03*
X007473Y004834D03*
D17*
X003890Y001570D02*
X003496Y001570D01*
X003496Y002669D01*
X003300Y002866D01*
X001134Y001570D02*
X000741Y001570D01*
X000741Y002669D01*
X000937Y002866D01*
D18*
X012945Y011921D02*
X013536Y011921D01*
X013930Y012315D01*
X013930Y018220D01*
X012748Y019401D01*
X009599Y019401D01*
X008162Y017964D01*
X008162Y017531D01*
D19*
X002119Y015070D03*
D20*
X006449Y015070D01*
X006981Y015759D01*
X006449Y015070D02*
X006449Y013889D01*
X007237Y012133D01*
X007374Y017531D02*
X007768Y018319D01*
M02*
