G75*
%MOIN*%
%OFA0B0*%
%FSLAX24Y24*%
%IPPOS*%
%LPD*%
%AMOC8*
5,1,8,0,0,1.08239X$1,22.5*
%
%ADD10C,0.0556*%
%ADD11C,0.0965*%
%ADD12C,0.0126*%
%ADD13R,0.0556X0.0556*%
%ADD14C,0.0674*%
%ADD15OC8,0.0670*%
%ADD16R,0.0080X0.5920*%
%ADD17R,0.0080X0.0240*%
%ADD18R,0.0080X0.1520*%
%ADD19R,0.0080X0.0400*%
%ADD20R,0.0080X0.0720*%
%ADD21R,0.0080X0.0160*%
%ADD22R,0.0080X0.0560*%
%ADD23R,0.0080X0.0080*%
%ADD24R,0.0080X0.0640*%
%ADD25R,0.0080X0.1600*%
%ADD26R,0.0080X0.1920*%
%ADD27R,0.0080X0.1280*%
%ADD28R,0.0080X0.1200*%
%ADD29R,0.0080X0.1440*%
%ADD30R,0.5920X0.0080*%
%ADD31R,0.0240X0.0080*%
%ADD32R,0.1520X0.0080*%
%ADD33R,0.0400X0.0080*%
%ADD34R,0.0720X0.0080*%
%ADD35R,0.0160X0.0080*%
%ADD36R,0.0560X0.0080*%
%ADD37R,0.0640X0.0080*%
%ADD38R,0.1600X0.0080*%
%ADD39R,0.1920X0.0080*%
%ADD40R,0.1280X0.0080*%
%ADD41R,0.1200X0.0080*%
%ADD42R,0.1440X0.0080*%
D10*
X003221Y004795D03*
X003418Y005385D03*
X004008Y004795D03*
X004402Y005385D03*
X004796Y004795D03*
X005189Y005385D03*
X005583Y004795D03*
X006174Y005385D03*
X006370Y004795D03*
X010189Y011921D03*
X009993Y012511D03*
X010780Y012511D03*
X011174Y011921D03*
X011567Y012511D03*
X011961Y011921D03*
X012355Y012511D03*
X012945Y011921D03*
X013142Y012511D03*
X011705Y015759D03*
X010918Y015759D03*
X010130Y015759D03*
X009343Y015759D03*
X009737Y016547D03*
X010524Y016547D03*
X011311Y016547D03*
X011311Y017531D03*
X010524Y017531D03*
X009737Y017531D03*
X010130Y018319D03*
X009343Y018319D03*
X008162Y017531D03*
X007374Y017531D03*
X006587Y017531D03*
X005800Y017531D03*
X005012Y017531D03*
X004619Y018319D03*
X005406Y018319D03*
X006193Y018319D03*
X006981Y018319D03*
X007768Y018319D03*
X007374Y016547D03*
X006587Y016547D03*
X005800Y016547D03*
X005012Y016547D03*
X004225Y016547D03*
X004619Y015759D03*
X005406Y015759D03*
X006193Y015759D03*
X006981Y015759D03*
X007768Y015759D03*
X008162Y016547D03*
X010918Y018319D03*
X011705Y018319D03*
D11*
X012414Y017039D03*
X008811Y017039D03*
X008981Y011133D03*
X007382Y006173D03*
X002209Y006173D03*
X014154Y011133D03*
D12*
X000442Y002314D02*
X000442Y000826D01*
X000252Y000826D01*
X000252Y002314D01*
X000442Y002314D01*
X000442Y000951D02*
X000252Y000951D01*
X000252Y001076D02*
X000442Y001076D01*
X000442Y001201D02*
X000252Y001201D01*
X000252Y001326D02*
X000442Y001326D01*
X000442Y001451D02*
X000252Y001451D01*
X000252Y001576D02*
X000442Y001576D01*
X000442Y001701D02*
X000252Y001701D01*
X000252Y001826D02*
X000442Y001826D01*
X000442Y001951D02*
X000252Y001951D01*
X000252Y002076D02*
X000442Y002076D01*
X000442Y002201D02*
X000252Y002201D01*
X000836Y002314D02*
X000836Y000826D01*
X000646Y000826D01*
X000646Y002314D01*
X000836Y002314D01*
X000836Y000951D02*
X000646Y000951D01*
X000646Y001076D02*
X000836Y001076D01*
X000836Y001201D02*
X000646Y001201D01*
X000646Y001326D02*
X000836Y001326D01*
X000836Y001451D02*
X000646Y001451D01*
X000646Y001576D02*
X000836Y001576D01*
X000836Y001701D02*
X000646Y001701D01*
X000646Y001826D02*
X000836Y001826D01*
X000836Y001951D02*
X000646Y001951D01*
X000646Y002076D02*
X000836Y002076D01*
X000836Y002201D02*
X000646Y002201D01*
X001229Y002314D02*
X001229Y000826D01*
X001039Y000826D01*
X001039Y002314D01*
X001229Y002314D01*
X001229Y000951D02*
X001039Y000951D01*
X001039Y001076D02*
X001229Y001076D01*
X001229Y001201D02*
X001039Y001201D01*
X001039Y001326D02*
X001229Y001326D01*
X001229Y001451D02*
X001039Y001451D01*
X001039Y001576D02*
X001229Y001576D01*
X001229Y001701D02*
X001039Y001701D01*
X001039Y001826D02*
X001229Y001826D01*
X001229Y001951D02*
X001039Y001951D01*
X001039Y002076D02*
X001229Y002076D01*
X001229Y002201D02*
X001039Y002201D01*
X001623Y002314D02*
X001623Y000826D01*
X001433Y000826D01*
X001433Y002314D01*
X001623Y002314D01*
X001623Y000951D02*
X001433Y000951D01*
X001433Y001076D02*
X001623Y001076D01*
X001623Y001201D02*
X001433Y001201D01*
X001433Y001326D02*
X001623Y001326D01*
X001623Y001451D02*
X001433Y001451D01*
X001433Y001576D02*
X001623Y001576D01*
X001623Y001701D02*
X001433Y001701D01*
X001433Y001826D02*
X001623Y001826D01*
X001623Y001951D02*
X001433Y001951D01*
X001433Y002076D02*
X001623Y002076D01*
X001623Y002201D02*
X001433Y002201D01*
X002017Y002314D02*
X002017Y000826D01*
X001827Y000826D01*
X001827Y002314D01*
X002017Y002314D01*
X002017Y000951D02*
X001827Y000951D01*
X001827Y001076D02*
X002017Y001076D01*
X002017Y001201D02*
X001827Y001201D01*
X001827Y001326D02*
X002017Y001326D01*
X002017Y001451D02*
X001827Y001451D01*
X001827Y001576D02*
X002017Y001576D01*
X002017Y001701D02*
X001827Y001701D01*
X001827Y001826D02*
X002017Y001826D01*
X002017Y001951D02*
X001827Y001951D01*
X001827Y002076D02*
X002017Y002076D01*
X002017Y002201D02*
X001827Y002201D01*
X002410Y002314D02*
X002410Y000826D01*
X002220Y000826D01*
X002220Y002314D01*
X002410Y002314D01*
X002410Y000951D02*
X002220Y000951D01*
X002220Y001076D02*
X002410Y001076D01*
X002410Y001201D02*
X002220Y001201D01*
X002220Y001326D02*
X002410Y001326D01*
X002410Y001451D02*
X002220Y001451D01*
X002220Y001576D02*
X002410Y001576D01*
X002410Y001701D02*
X002220Y001701D01*
X002220Y001826D02*
X002410Y001826D01*
X002410Y001951D02*
X002220Y001951D01*
X002220Y002076D02*
X002410Y002076D01*
X002410Y002201D02*
X002220Y002201D01*
X002804Y002314D02*
X002804Y000826D01*
X002614Y000826D01*
X002614Y002314D01*
X002804Y002314D01*
X002804Y000951D02*
X002614Y000951D01*
X002614Y001076D02*
X002804Y001076D01*
X002804Y001201D02*
X002614Y001201D01*
X002614Y001326D02*
X002804Y001326D01*
X002804Y001451D02*
X002614Y001451D01*
X002614Y001576D02*
X002804Y001576D01*
X002804Y001701D02*
X002614Y001701D01*
X002614Y001826D02*
X002804Y001826D01*
X002804Y001951D02*
X002614Y001951D01*
X002614Y002076D02*
X002804Y002076D01*
X002804Y002201D02*
X002614Y002201D01*
X003198Y002314D02*
X003198Y000826D01*
X003008Y000826D01*
X003008Y002314D01*
X003198Y002314D01*
X003198Y000951D02*
X003008Y000951D01*
X003008Y001076D02*
X003198Y001076D01*
X003198Y001201D02*
X003008Y001201D01*
X003008Y001326D02*
X003198Y001326D01*
X003198Y001451D02*
X003008Y001451D01*
X003008Y001576D02*
X003198Y001576D01*
X003198Y001701D02*
X003008Y001701D01*
X003008Y001826D02*
X003198Y001826D01*
X003198Y001951D02*
X003008Y001951D01*
X003008Y002076D02*
X003198Y002076D01*
X003198Y002201D02*
X003008Y002201D01*
X003591Y002314D02*
X003591Y000826D01*
X003401Y000826D01*
X003401Y002314D01*
X003591Y002314D01*
X003591Y000951D02*
X003401Y000951D01*
X003401Y001076D02*
X003591Y001076D01*
X003591Y001201D02*
X003401Y001201D01*
X003401Y001326D02*
X003591Y001326D01*
X003591Y001451D02*
X003401Y001451D01*
X003401Y001576D02*
X003591Y001576D01*
X003591Y001701D02*
X003401Y001701D01*
X003401Y001826D02*
X003591Y001826D01*
X003591Y001951D02*
X003401Y001951D01*
X003401Y002076D02*
X003591Y002076D01*
X003591Y002201D02*
X003401Y002201D01*
X003985Y002314D02*
X003985Y000826D01*
X003795Y000826D01*
X003795Y002314D01*
X003985Y002314D01*
X003985Y000951D02*
X003795Y000951D01*
X003795Y001076D02*
X003985Y001076D01*
X003985Y001201D02*
X003795Y001201D01*
X003795Y001326D02*
X003985Y001326D01*
X003985Y001451D02*
X003795Y001451D01*
X003795Y001576D02*
X003985Y001576D01*
X003985Y001701D02*
X003795Y001701D01*
X003795Y001826D02*
X003985Y001826D01*
X003985Y001951D02*
X003795Y001951D01*
X003795Y002076D02*
X003985Y002076D01*
X003985Y002201D02*
X003795Y002201D01*
X004379Y002314D02*
X004379Y000826D01*
X004189Y000826D01*
X004189Y002314D01*
X004379Y002314D01*
X004379Y000951D02*
X004189Y000951D01*
X004189Y001076D02*
X004379Y001076D01*
X004379Y001201D02*
X004189Y001201D01*
X004189Y001326D02*
X004379Y001326D01*
X004379Y001451D02*
X004189Y001451D01*
X004189Y001576D02*
X004379Y001576D01*
X004379Y001701D02*
X004189Y001701D01*
X004189Y001826D02*
X004379Y001826D01*
X004379Y001951D02*
X004189Y001951D01*
X004189Y002076D02*
X004379Y002076D01*
X004379Y002201D02*
X004189Y002201D01*
X005560Y002314D02*
X005560Y000826D01*
X005370Y000826D01*
X005370Y002314D01*
X005560Y002314D01*
X005560Y000951D02*
X005370Y000951D01*
X005370Y001076D02*
X005560Y001076D01*
X005560Y001201D02*
X005370Y001201D01*
X005370Y001326D02*
X005560Y001326D01*
X005560Y001451D02*
X005370Y001451D01*
X005370Y001576D02*
X005560Y001576D01*
X005560Y001701D02*
X005370Y001701D01*
X005370Y001826D02*
X005560Y001826D01*
X005560Y001951D02*
X005370Y001951D01*
X005370Y002076D02*
X005560Y002076D01*
X005560Y002201D02*
X005370Y002201D01*
X005954Y002314D02*
X005954Y000826D01*
X005764Y000826D01*
X005764Y002314D01*
X005954Y002314D01*
X005954Y000951D02*
X005764Y000951D01*
X005764Y001076D02*
X005954Y001076D01*
X005954Y001201D02*
X005764Y001201D01*
X005764Y001326D02*
X005954Y001326D01*
X005954Y001451D02*
X005764Y001451D01*
X005764Y001576D02*
X005954Y001576D01*
X005954Y001701D02*
X005764Y001701D01*
X005764Y001826D02*
X005954Y001826D01*
X005954Y001951D02*
X005764Y001951D01*
X005764Y002076D02*
X005954Y002076D01*
X005954Y002201D02*
X005764Y002201D01*
X006347Y002314D02*
X006347Y000826D01*
X006157Y000826D01*
X006157Y002314D01*
X006347Y002314D01*
X006347Y000951D02*
X006157Y000951D01*
X006157Y001076D02*
X006347Y001076D01*
X006347Y001201D02*
X006157Y001201D01*
X006157Y001326D02*
X006347Y001326D01*
X006347Y001451D02*
X006157Y001451D01*
X006157Y001576D02*
X006347Y001576D01*
X006347Y001701D02*
X006157Y001701D01*
X006157Y001826D02*
X006347Y001826D01*
X006347Y001951D02*
X006157Y001951D01*
X006157Y002076D02*
X006347Y002076D01*
X006347Y002201D02*
X006157Y002201D01*
X006741Y002314D02*
X006741Y000826D01*
X006551Y000826D01*
X006551Y002314D01*
X006741Y002314D01*
X006741Y000951D02*
X006551Y000951D01*
X006551Y001076D02*
X006741Y001076D01*
X006741Y001201D02*
X006551Y001201D01*
X006551Y001326D02*
X006741Y001326D01*
X006741Y001451D02*
X006551Y001451D01*
X006551Y001576D02*
X006741Y001576D01*
X006741Y001701D02*
X006551Y001701D01*
X006551Y001826D02*
X006741Y001826D01*
X006741Y001951D02*
X006551Y001951D01*
X006551Y002076D02*
X006741Y002076D01*
X006741Y002201D02*
X006551Y002201D01*
X007135Y002314D02*
X007135Y000826D01*
X006945Y000826D01*
X006945Y002314D01*
X007135Y002314D01*
X007135Y000951D02*
X006945Y000951D01*
X006945Y001076D02*
X007135Y001076D01*
X007135Y001201D02*
X006945Y001201D01*
X006945Y001326D02*
X007135Y001326D01*
X007135Y001451D02*
X006945Y001451D01*
X006945Y001576D02*
X007135Y001576D01*
X007135Y001701D02*
X006945Y001701D01*
X006945Y001826D02*
X007135Y001826D01*
X007135Y001951D02*
X006945Y001951D01*
X006945Y002076D02*
X007135Y002076D01*
X007135Y002201D02*
X006945Y002201D01*
X007528Y002314D02*
X007528Y000826D01*
X007338Y000826D01*
X007338Y002314D01*
X007528Y002314D01*
X007528Y000951D02*
X007338Y000951D01*
X007338Y001076D02*
X007528Y001076D01*
X007528Y001201D02*
X007338Y001201D01*
X007338Y001326D02*
X007528Y001326D01*
X007528Y001451D02*
X007338Y001451D01*
X007338Y001576D02*
X007528Y001576D01*
X007528Y001701D02*
X007338Y001701D01*
X007338Y001826D02*
X007528Y001826D01*
X007528Y001951D02*
X007338Y001951D01*
X007338Y002076D02*
X007528Y002076D01*
X007528Y002201D02*
X007338Y002201D01*
X007922Y002314D02*
X007922Y000826D01*
X007732Y000826D01*
X007732Y002314D01*
X007922Y002314D01*
X007922Y000951D02*
X007732Y000951D01*
X007732Y001076D02*
X007922Y001076D01*
X007922Y001201D02*
X007732Y001201D01*
X007732Y001326D02*
X007922Y001326D01*
X007922Y001451D02*
X007732Y001451D01*
X007732Y001576D02*
X007922Y001576D01*
X007922Y001701D02*
X007732Y001701D01*
X007732Y001826D02*
X007922Y001826D01*
X007922Y001951D02*
X007732Y001951D01*
X007732Y002076D02*
X007922Y002076D01*
X007922Y002201D02*
X007732Y002201D01*
D13*
X004225Y017531D03*
D14*
X005449Y014206D02*
X005449Y013573D01*
X006449Y013573D02*
X006449Y014206D01*
X007449Y014206D02*
X007449Y013573D01*
X004012Y011844D02*
X004012Y011210D01*
X003012Y011210D02*
X003012Y011844D01*
X002012Y011844D02*
X002012Y011210D01*
X001012Y011210D02*
X001012Y011844D01*
D15*
X003193Y013496D03*
X004193Y013496D03*
X005662Y012133D03*
X007237Y012133D03*
X007237Y010133D03*
X005662Y010133D03*
D16*
X014217Y016656D03*
X014297Y016656D03*
X014377Y016656D03*
X018057Y016656D03*
X018137Y016656D03*
X018217Y016656D03*
D17*
X017977Y016616D03*
X017897Y016616D03*
X017817Y016616D03*
X017737Y016616D03*
X017657Y016616D03*
X017577Y016616D03*
X017577Y014216D03*
X017657Y014216D03*
X017737Y014216D03*
X017817Y014216D03*
X017897Y014216D03*
X017977Y014216D03*
X014857Y016616D03*
X014777Y016616D03*
X014697Y016616D03*
X014617Y016616D03*
X014537Y016616D03*
X014457Y016616D03*
D18*
X014777Y015416D03*
X017657Y015416D03*
X016377Y018216D03*
X016057Y018216D03*
D19*
X014777Y017736D03*
X014777Y019096D03*
X017657Y019096D03*
X017657Y017736D03*
D20*
X017577Y015896D03*
X017257Y015896D03*
X017257Y014936D03*
X017577Y014936D03*
D21*
X016377Y016176D03*
X016057Y016176D03*
X015177Y017536D03*
X014857Y017536D03*
X014857Y017936D03*
X015177Y017936D03*
X016057Y019296D03*
X016377Y019296D03*
X017257Y017936D03*
X017577Y017936D03*
X017577Y017536D03*
X017257Y017536D03*
X015177Y014656D03*
X014857Y014656D03*
D22*
X015337Y014856D03*
X015417Y014856D03*
X015497Y014856D03*
X015577Y014856D03*
X015657Y014856D03*
X015737Y014856D03*
X015817Y014856D03*
X015897Y014856D03*
X016537Y015976D03*
X016617Y015976D03*
X016697Y015976D03*
X016777Y015976D03*
X016857Y015976D03*
X016937Y015976D03*
X017017Y015976D03*
X017097Y015976D03*
X017097Y017736D03*
X017017Y017736D03*
X016937Y017736D03*
X016857Y017736D03*
X016777Y017736D03*
X016697Y017736D03*
X016617Y017736D03*
X016537Y017736D03*
X015897Y017736D03*
X015817Y017736D03*
X015737Y017736D03*
X015657Y017736D03*
X015577Y017736D03*
X015497Y017736D03*
X015417Y017736D03*
X015337Y017736D03*
X015257Y017736D03*
X015257Y019096D03*
X015177Y019096D03*
X015097Y019096D03*
X015017Y019096D03*
X014937Y019096D03*
X014857Y019096D03*
X015337Y019096D03*
X015417Y019096D03*
X015497Y019096D03*
X015577Y019096D03*
X015657Y019096D03*
X015737Y019096D03*
X015817Y019096D03*
X015897Y019096D03*
X016537Y019096D03*
X016617Y019096D03*
X016697Y019096D03*
X016777Y019096D03*
X016857Y019096D03*
X016937Y019096D03*
X017017Y019096D03*
X017097Y019096D03*
X017177Y019096D03*
X017257Y019096D03*
X017337Y019096D03*
X017417Y019096D03*
X017497Y019096D03*
X017577Y019096D03*
X017177Y017736D03*
D23*
X017337Y017976D03*
X017417Y017976D03*
X017497Y017976D03*
X017497Y017496D03*
X017417Y017496D03*
X017337Y017496D03*
X017497Y016696D03*
X017497Y016536D03*
X016297Y016216D03*
X016217Y016216D03*
X016137Y016216D03*
X014937Y016536D03*
X014937Y016696D03*
X014937Y017496D03*
X015017Y017496D03*
X015097Y017496D03*
X015097Y017976D03*
X015017Y017976D03*
X014937Y017976D03*
X016137Y019336D03*
X016217Y019336D03*
X016297Y019336D03*
X015097Y014616D03*
X015017Y014616D03*
X014937Y014616D03*
X017497Y014296D03*
X017497Y014136D03*
X015063Y007567D03*
X015063Y007487D03*
X015063Y007407D03*
X014583Y007407D03*
X014583Y007487D03*
X014583Y007567D03*
X013783Y007567D03*
X013623Y007567D03*
X013303Y006367D03*
X013303Y006287D03*
X013303Y006207D03*
X013623Y005007D03*
X013783Y005007D03*
X014583Y005007D03*
X014583Y005087D03*
X014583Y005167D03*
X015063Y005167D03*
X015063Y005087D03*
X015063Y005007D03*
X016423Y006207D03*
X016423Y006287D03*
X016423Y006367D03*
X011703Y007407D03*
X011703Y007487D03*
X011703Y007567D03*
X011383Y005007D03*
X011223Y005007D03*
D24*
X017337Y014896D03*
X017417Y014896D03*
X017497Y014896D03*
X017497Y015936D03*
X017417Y015936D03*
X017337Y015936D03*
D25*
X017177Y015456D03*
X016457Y015456D03*
X015977Y015376D03*
X015257Y015376D03*
D26*
X015977Y018416D03*
X016457Y018416D03*
D27*
X015177Y015616D03*
X014857Y015616D03*
X016057Y015216D03*
X016377Y015216D03*
D28*
X016297Y015176D03*
X016217Y015176D03*
X016137Y015176D03*
X015097Y015656D03*
X015017Y015656D03*
X014937Y015656D03*
D29*
X016137Y018176D03*
X016217Y018176D03*
X016297Y018176D03*
D30*
X013743Y008287D03*
X013743Y008207D03*
X013743Y008127D03*
X013743Y004447D03*
X013743Y004367D03*
X013743Y004287D03*
D31*
X013703Y004527D03*
X013703Y004607D03*
X013703Y004687D03*
X013703Y004767D03*
X013703Y004847D03*
X013703Y004927D03*
X011303Y004927D03*
X011303Y004847D03*
X011303Y004767D03*
X011303Y004687D03*
X011303Y004607D03*
X011303Y004527D03*
X013703Y007647D03*
X013703Y007727D03*
X013703Y007807D03*
X013703Y007887D03*
X013703Y007967D03*
X013703Y008047D03*
D32*
X012503Y007727D03*
X012503Y004847D03*
X015303Y006127D03*
X015303Y006447D03*
D33*
X014823Y007727D03*
X016183Y007727D03*
X016183Y004847D03*
X014823Y004847D03*
D34*
X012983Y004927D03*
X012983Y005247D03*
X012023Y005247D03*
X012023Y004927D03*
D35*
X013263Y006127D03*
X013263Y006447D03*
X014623Y007327D03*
X014623Y007647D03*
X015023Y007647D03*
X015023Y007327D03*
X016383Y006447D03*
X016383Y006127D03*
X015023Y005247D03*
X015023Y004927D03*
X014623Y004927D03*
X014623Y005247D03*
X011743Y007327D03*
X011743Y007647D03*
D36*
X011943Y007167D03*
X011943Y007087D03*
X011943Y007007D03*
X011943Y006927D03*
X011943Y006847D03*
X011943Y006767D03*
X011943Y006687D03*
X011943Y006607D03*
X013063Y005967D03*
X013063Y005887D03*
X013063Y005807D03*
X013063Y005727D03*
X013063Y005647D03*
X013063Y005567D03*
X013063Y005487D03*
X013063Y005407D03*
X014823Y005407D03*
X014823Y005487D03*
X014823Y005567D03*
X014823Y005647D03*
X014823Y005727D03*
X014823Y005807D03*
X014823Y005887D03*
X014823Y005967D03*
X014823Y005327D03*
X014823Y006607D03*
X014823Y006687D03*
X014823Y006767D03*
X014823Y006847D03*
X014823Y006927D03*
X014823Y007007D03*
X014823Y007087D03*
X014823Y007167D03*
X014823Y007247D03*
X016183Y007247D03*
X016183Y007327D03*
X016183Y007407D03*
X016183Y007487D03*
X016183Y007567D03*
X016183Y007647D03*
X016183Y007167D03*
X016183Y007087D03*
X016183Y007007D03*
X016183Y006927D03*
X016183Y006847D03*
X016183Y006767D03*
X016183Y006687D03*
X016183Y006607D03*
X016183Y005967D03*
X016183Y005887D03*
X016183Y005807D03*
X016183Y005727D03*
X016183Y005647D03*
X016183Y005567D03*
X016183Y005487D03*
X016183Y005407D03*
X016183Y005327D03*
X016183Y005247D03*
X016183Y005167D03*
X016183Y005087D03*
X016183Y005007D03*
X016183Y004927D03*
D37*
X013023Y005007D03*
X013023Y005087D03*
X013023Y005167D03*
X011983Y005167D03*
X011983Y005087D03*
X011983Y005007D03*
D38*
X012543Y005327D03*
X012543Y006047D03*
X012463Y006527D03*
X012463Y007247D03*
D39*
X015503Y006527D03*
X015503Y006047D03*
D40*
X012703Y007327D03*
X012703Y007647D03*
X012303Y006447D03*
X012303Y006127D03*
D41*
X012263Y006207D03*
X012263Y006287D03*
X012263Y006367D03*
X012743Y007407D03*
X012743Y007487D03*
X012743Y007567D03*
D42*
X015263Y006367D03*
X015263Y006287D03*
X015263Y006207D03*
M02*
