%
M48
M72
T01C0.0120
T02C0.0236
T03C0.0276
T04C0.0320
T05C0.0394
T06C0.0925
%
T01
X2119Y15070
T02
X937Y2866
X3300Y2866
X4382Y4165
X5563Y2984
X6804Y2689
X6804Y4263
X7473Y4834
T03
X6370Y4795
X6174Y5385
X5583Y4795
X5189Y5385
X4796Y4795
X4402Y5385
X4008Y4795
X3418Y5385
X3221Y4795
X10189Y11921
X9993Y12511
X10780Y12511
X11174Y11921
X11567Y12511
X11961Y11921
X12355Y12511
X12945Y11921
X13142Y12511
X11705Y15759
X10918Y15759
X10130Y15759
X9343Y15759
X9737Y16547
X10524Y16547
X11311Y16547
X11311Y17531
X10524Y17531
X9737Y17531
X10130Y18319
X9343Y18319
X8162Y17531
X7374Y17531
X6587Y17531
X5800Y17531
X5012Y17531
X4225Y17531
X4619Y18319
X5406Y18319
X6193Y18319
X6981Y18319
X7768Y18319
X7374Y16547
X6587Y16547
X5800Y16547
X5012Y16547
X4225Y16547
X4619Y15759
X5406Y15759
X6193Y15759
X6981Y15759
X7768Y15759
X8162Y16547
X10918Y18319
X11705Y18319
T04
X7237Y12133
X5662Y12133
X4193Y13496
X3193Y13496
X5662Y10133
X7237Y10133
T05
X4012Y11527
X3012Y11527
X2012Y11527
X1012Y11527
X5449Y13889
X6449Y13889
X7449Y13889
T06
X8981Y11133
X7382Y6173
X2209Y6173
X8811Y17039
X12414Y17039
X14154Y11133
M30
