G75*
%MOIN*%
%OFA0B0*%
%FSLAX24Y24*%
%IPPOS*%
%LPD*%
%AMOC8*
5,1,8,0,0,1.08239X$1,22.5*
%
%ADD10C,0.0000*%
%ADD11C,0.0030*%
%ADD12C,0.0028*%
D10*
X000150Y000110D02*
X000150Y019795D01*
X019835Y019795D01*
X019835Y003259D01*
X007926Y003259D01*
X006919Y006173D02*
X006921Y006216D01*
X006927Y006258D01*
X006937Y006300D01*
X006950Y006340D01*
X006968Y006379D01*
X006988Y006417D01*
X007013Y006452D01*
X007040Y006485D01*
X007070Y006515D01*
X007103Y006542D01*
X007138Y006567D01*
X007176Y006587D01*
X007215Y006605D01*
X007255Y006618D01*
X007297Y006628D01*
X007339Y006634D01*
X007382Y006636D01*
X007425Y006634D01*
X007467Y006628D01*
X007509Y006618D01*
X007549Y006605D01*
X007588Y006587D01*
X007626Y006567D01*
X007661Y006542D01*
X007694Y006515D01*
X007724Y006485D01*
X007751Y006452D01*
X007776Y006417D01*
X007796Y006379D01*
X007814Y006340D01*
X007827Y006300D01*
X007837Y006258D01*
X007843Y006216D01*
X007845Y006173D01*
X007843Y006130D01*
X007837Y006088D01*
X007827Y006046D01*
X007814Y006006D01*
X007796Y005967D01*
X007776Y005929D01*
X007751Y005894D01*
X007724Y005861D01*
X007694Y005831D01*
X007661Y005804D01*
X007626Y005779D01*
X007588Y005759D01*
X007549Y005741D01*
X007509Y005728D01*
X007467Y005718D01*
X007425Y005712D01*
X007382Y005710D01*
X007339Y005712D01*
X007297Y005718D01*
X007255Y005728D01*
X007215Y005741D01*
X007176Y005759D01*
X007138Y005779D01*
X007103Y005804D01*
X007070Y005831D01*
X007040Y005861D01*
X007013Y005894D01*
X006988Y005929D01*
X006968Y005967D01*
X006950Y006006D01*
X006937Y006046D01*
X006927Y006088D01*
X006921Y006130D01*
X006919Y006173D01*
X001746Y006173D02*
X001748Y006216D01*
X001754Y006258D01*
X001764Y006300D01*
X001777Y006340D01*
X001795Y006379D01*
X001815Y006417D01*
X001840Y006452D01*
X001867Y006485D01*
X001897Y006515D01*
X001930Y006542D01*
X001965Y006567D01*
X002003Y006587D01*
X002042Y006605D01*
X002082Y006618D01*
X002124Y006628D01*
X002166Y006634D01*
X002209Y006636D01*
X002252Y006634D01*
X002294Y006628D01*
X002336Y006618D01*
X002376Y006605D01*
X002415Y006587D01*
X002453Y006567D01*
X002488Y006542D01*
X002521Y006515D01*
X002551Y006485D01*
X002578Y006452D01*
X002603Y006417D01*
X002623Y006379D01*
X002641Y006340D01*
X002654Y006300D01*
X002664Y006258D01*
X002670Y006216D01*
X002672Y006173D01*
X002670Y006130D01*
X002664Y006088D01*
X002654Y006046D01*
X002641Y006006D01*
X002623Y005967D01*
X002603Y005929D01*
X002578Y005894D01*
X002551Y005861D01*
X002521Y005831D01*
X002488Y005804D01*
X002453Y005779D01*
X002415Y005759D01*
X002376Y005741D01*
X002336Y005728D01*
X002294Y005718D01*
X002252Y005712D01*
X002209Y005710D01*
X002166Y005712D01*
X002124Y005718D01*
X002082Y005728D01*
X002042Y005741D01*
X002003Y005759D01*
X001965Y005779D01*
X001930Y005804D01*
X001897Y005831D01*
X001867Y005861D01*
X001840Y005894D01*
X001815Y005929D01*
X001795Y005967D01*
X001777Y006006D01*
X001764Y006046D01*
X001754Y006088D01*
X001748Y006130D01*
X001746Y006173D01*
X008518Y011133D02*
X008520Y011176D01*
X008526Y011218D01*
X008536Y011260D01*
X008549Y011300D01*
X008567Y011339D01*
X008587Y011377D01*
X008612Y011412D01*
X008639Y011445D01*
X008669Y011475D01*
X008702Y011502D01*
X008737Y011527D01*
X008775Y011547D01*
X008814Y011565D01*
X008854Y011578D01*
X008896Y011588D01*
X008938Y011594D01*
X008981Y011596D01*
X009024Y011594D01*
X009066Y011588D01*
X009108Y011578D01*
X009148Y011565D01*
X009187Y011547D01*
X009225Y011527D01*
X009260Y011502D01*
X009293Y011475D01*
X009323Y011445D01*
X009350Y011412D01*
X009375Y011377D01*
X009395Y011339D01*
X009413Y011300D01*
X009426Y011260D01*
X009436Y011218D01*
X009442Y011176D01*
X009444Y011133D01*
X009442Y011090D01*
X009436Y011048D01*
X009426Y011006D01*
X009413Y010966D01*
X009395Y010927D01*
X009375Y010889D01*
X009350Y010854D01*
X009323Y010821D01*
X009293Y010791D01*
X009260Y010764D01*
X009225Y010739D01*
X009187Y010719D01*
X009148Y010701D01*
X009108Y010688D01*
X009066Y010678D01*
X009024Y010672D01*
X008981Y010670D01*
X008938Y010672D01*
X008896Y010678D01*
X008854Y010688D01*
X008814Y010701D01*
X008775Y010719D01*
X008737Y010739D01*
X008702Y010764D01*
X008669Y010791D01*
X008639Y010821D01*
X008612Y010854D01*
X008587Y010889D01*
X008567Y010927D01*
X008549Y010966D01*
X008536Y011006D01*
X008526Y011048D01*
X008520Y011090D01*
X008518Y011133D01*
X013691Y011133D02*
X013693Y011176D01*
X013699Y011218D01*
X013709Y011260D01*
X013722Y011300D01*
X013740Y011339D01*
X013760Y011377D01*
X013785Y011412D01*
X013812Y011445D01*
X013842Y011475D01*
X013875Y011502D01*
X013910Y011527D01*
X013948Y011547D01*
X013987Y011565D01*
X014027Y011578D01*
X014069Y011588D01*
X014111Y011594D01*
X014154Y011596D01*
X014197Y011594D01*
X014239Y011588D01*
X014281Y011578D01*
X014321Y011565D01*
X014360Y011547D01*
X014398Y011527D01*
X014433Y011502D01*
X014466Y011475D01*
X014496Y011445D01*
X014523Y011412D01*
X014548Y011377D01*
X014568Y011339D01*
X014586Y011300D01*
X014599Y011260D01*
X014609Y011218D01*
X014615Y011176D01*
X014617Y011133D01*
X014615Y011090D01*
X014609Y011048D01*
X014599Y011006D01*
X014586Y010966D01*
X014568Y010927D01*
X014548Y010889D01*
X014523Y010854D01*
X014496Y010821D01*
X014466Y010791D01*
X014433Y010764D01*
X014398Y010739D01*
X014360Y010719D01*
X014321Y010701D01*
X014281Y010688D01*
X014239Y010678D01*
X014197Y010672D01*
X014154Y010670D01*
X014111Y010672D01*
X014069Y010678D01*
X014027Y010688D01*
X013987Y010701D01*
X013948Y010719D01*
X013910Y010739D01*
X013875Y010764D01*
X013842Y010791D01*
X013812Y010821D01*
X013785Y010854D01*
X013760Y010889D01*
X013740Y010927D01*
X013722Y010966D01*
X013709Y011006D01*
X013699Y011048D01*
X013693Y011090D01*
X013691Y011133D01*
X011951Y017039D02*
X011953Y017082D01*
X011959Y017124D01*
X011969Y017166D01*
X011982Y017206D01*
X012000Y017245D01*
X012020Y017283D01*
X012045Y017318D01*
X012072Y017351D01*
X012102Y017381D01*
X012135Y017408D01*
X012170Y017433D01*
X012208Y017453D01*
X012247Y017471D01*
X012287Y017484D01*
X012329Y017494D01*
X012371Y017500D01*
X012414Y017502D01*
X012457Y017500D01*
X012499Y017494D01*
X012541Y017484D01*
X012581Y017471D01*
X012620Y017453D01*
X012658Y017433D01*
X012693Y017408D01*
X012726Y017381D01*
X012756Y017351D01*
X012783Y017318D01*
X012808Y017283D01*
X012828Y017245D01*
X012846Y017206D01*
X012859Y017166D01*
X012869Y017124D01*
X012875Y017082D01*
X012877Y017039D01*
X012875Y016996D01*
X012869Y016954D01*
X012859Y016912D01*
X012846Y016872D01*
X012828Y016833D01*
X012808Y016795D01*
X012783Y016760D01*
X012756Y016727D01*
X012726Y016697D01*
X012693Y016670D01*
X012658Y016645D01*
X012620Y016625D01*
X012581Y016607D01*
X012541Y016594D01*
X012499Y016584D01*
X012457Y016578D01*
X012414Y016576D01*
X012371Y016578D01*
X012329Y016584D01*
X012287Y016594D01*
X012247Y016607D01*
X012208Y016625D01*
X012170Y016645D01*
X012135Y016670D01*
X012102Y016697D01*
X012072Y016727D01*
X012045Y016760D01*
X012020Y016795D01*
X012000Y016833D01*
X011982Y016872D01*
X011969Y016912D01*
X011959Y016954D01*
X011953Y016996D01*
X011951Y017039D01*
X008348Y017039D02*
X008350Y017082D01*
X008356Y017124D01*
X008366Y017166D01*
X008379Y017206D01*
X008397Y017245D01*
X008417Y017283D01*
X008442Y017318D01*
X008469Y017351D01*
X008499Y017381D01*
X008532Y017408D01*
X008567Y017433D01*
X008605Y017453D01*
X008644Y017471D01*
X008684Y017484D01*
X008726Y017494D01*
X008768Y017500D01*
X008811Y017502D01*
X008854Y017500D01*
X008896Y017494D01*
X008938Y017484D01*
X008978Y017471D01*
X009017Y017453D01*
X009055Y017433D01*
X009090Y017408D01*
X009123Y017381D01*
X009153Y017351D01*
X009180Y017318D01*
X009205Y017283D01*
X009225Y017245D01*
X009243Y017206D01*
X009256Y017166D01*
X009266Y017124D01*
X009272Y017082D01*
X009274Y017039D01*
X009272Y016996D01*
X009266Y016954D01*
X009256Y016912D01*
X009243Y016872D01*
X009225Y016833D01*
X009205Y016795D01*
X009180Y016760D01*
X009153Y016727D01*
X009123Y016697D01*
X009090Y016670D01*
X009055Y016645D01*
X009017Y016625D01*
X008978Y016607D01*
X008938Y016594D01*
X008896Y016584D01*
X008854Y016578D01*
X008811Y016576D01*
X008768Y016578D01*
X008726Y016584D01*
X008684Y016594D01*
X008644Y016607D01*
X008605Y016625D01*
X008567Y016645D01*
X008532Y016670D01*
X008499Y016697D01*
X008469Y016727D01*
X008442Y016760D01*
X008417Y016795D01*
X008397Y016833D01*
X008379Y016872D01*
X008366Y016912D01*
X008356Y016954D01*
X008350Y016996D01*
X008348Y017039D01*
D11*
X009360Y014801D02*
X009360Y014753D01*
X009360Y014656D02*
X009360Y014463D01*
X009312Y014463D02*
X009409Y014463D01*
X009509Y014463D02*
X009605Y014463D01*
X009557Y014463D02*
X009557Y014753D01*
X009605Y014753D01*
X009706Y014608D02*
X009706Y014463D01*
X009852Y014463D01*
X009900Y014511D01*
X009852Y014559D01*
X009706Y014559D01*
X009706Y014608D02*
X009755Y014656D01*
X009852Y014656D01*
X010001Y014608D02*
X010001Y014463D01*
X010001Y014608D02*
X010049Y014656D01*
X010195Y014656D01*
X010195Y014463D01*
X010295Y014656D02*
X010343Y014656D01*
X010440Y014559D01*
X010440Y014463D02*
X010440Y014656D01*
X010541Y014608D02*
X010541Y014559D01*
X010735Y014559D01*
X010735Y014511D02*
X010735Y014608D01*
X010686Y014656D01*
X010590Y014656D01*
X010541Y014608D01*
X010590Y014463D02*
X010686Y014463D01*
X010735Y014511D01*
X010834Y014463D02*
X010883Y014511D01*
X010883Y014705D01*
X010931Y014656D02*
X010834Y014656D01*
X011032Y014753D02*
X011226Y014463D01*
X011327Y014559D02*
X011521Y014559D01*
X011521Y014511D02*
X011521Y014608D01*
X011472Y014656D01*
X011375Y014656D01*
X011327Y014608D01*
X011327Y014559D01*
X011375Y014463D02*
X011472Y014463D01*
X011521Y014511D01*
X011376Y014273D02*
X011570Y013983D01*
X011671Y013983D02*
X011864Y013983D01*
X011671Y014176D01*
X011864Y014176D01*
X011964Y014176D02*
X012061Y014176D01*
X012012Y014225D02*
X012012Y014031D01*
X011964Y013983D01*
X012160Y013983D02*
X012257Y013983D01*
X012209Y013983D02*
X012209Y014176D01*
X012257Y014176D01*
X012209Y014273D02*
X012209Y014321D01*
X012259Y014463D02*
X012211Y014511D01*
X012259Y014559D01*
X012356Y014559D01*
X012404Y014608D01*
X012356Y014656D01*
X012211Y014656D01*
X012110Y014608D02*
X012061Y014656D01*
X011916Y014656D01*
X011965Y014559D02*
X012061Y014559D01*
X012110Y014608D01*
X012110Y014463D02*
X011965Y014463D01*
X011916Y014511D01*
X011965Y014559D01*
X011913Y014943D02*
X011865Y014943D01*
X011865Y014991D01*
X011913Y014991D01*
X011913Y014943D01*
X012015Y014991D02*
X012063Y014943D01*
X012160Y014943D01*
X012208Y014991D01*
X012015Y015185D01*
X012015Y014991D01*
X012208Y014991D02*
X012208Y015185D01*
X012160Y015233D01*
X012063Y015233D01*
X012015Y015185D01*
X011766Y015185D02*
X011766Y015136D01*
X011718Y015088D01*
X011573Y015088D01*
X011573Y014991D02*
X011573Y015185D01*
X011621Y015233D01*
X011718Y015233D01*
X011766Y015185D01*
X011766Y014991D02*
X011718Y014943D01*
X011621Y014943D01*
X011573Y014991D01*
X011226Y014753D02*
X011032Y014463D01*
X010980Y014273D02*
X010980Y013983D01*
X010787Y013983D01*
X010686Y013983D02*
X010492Y014273D01*
X010391Y014176D02*
X010294Y014176D01*
X010343Y014225D02*
X010343Y014031D01*
X010294Y013983D01*
X010195Y014031D02*
X010195Y014128D01*
X010146Y014176D01*
X010049Y014176D01*
X010001Y014128D01*
X010001Y014079D01*
X010195Y014079D01*
X010195Y014031D02*
X010146Y013983D01*
X010049Y013983D01*
X009900Y013983D02*
X009900Y014176D01*
X009900Y014079D02*
X009803Y014176D01*
X009755Y014176D01*
X009654Y014176D02*
X009509Y014176D01*
X009461Y014128D01*
X009461Y013983D01*
X009360Y014031D02*
X009311Y014079D01*
X009166Y014079D01*
X009166Y014128D02*
X009166Y013983D01*
X009311Y013983D01*
X009360Y014031D01*
X009311Y014176D02*
X009215Y014176D01*
X009166Y014128D01*
X009065Y014273D02*
X009017Y014273D01*
X009017Y013983D01*
X009065Y013983D02*
X008968Y013983D01*
X008869Y013983D02*
X008772Y013983D01*
X008820Y013983D02*
X008820Y014176D01*
X008869Y014176D01*
X008820Y014273D02*
X008820Y014321D01*
X008773Y014463D02*
X008869Y014463D01*
X008918Y014511D01*
X008918Y014608D01*
X008869Y014656D01*
X008773Y014656D01*
X008724Y014608D01*
X008724Y014559D01*
X008918Y014559D01*
X009019Y014463D02*
X009212Y014463D01*
X009019Y014656D01*
X009212Y014656D01*
X009360Y014656D02*
X009409Y014656D01*
X009654Y014176D02*
X009654Y013983D01*
X010492Y013983D02*
X010686Y014273D01*
X010787Y014273D02*
X010980Y014273D01*
X011081Y014225D02*
X011081Y014128D01*
X011130Y014079D01*
X011275Y014079D01*
X011275Y013983D02*
X011275Y014273D01*
X011130Y014273D01*
X011081Y014225D01*
X010980Y014128D02*
X010884Y014128D01*
X012259Y014463D02*
X012404Y014463D01*
X012506Y014559D02*
X012699Y014559D01*
X012699Y014511D02*
X012699Y014608D01*
X012651Y014656D01*
X012554Y014656D01*
X012506Y014608D01*
X012506Y014559D01*
X012554Y014463D02*
X012651Y014463D01*
X012699Y014511D01*
X012800Y014656D02*
X012848Y014656D01*
X012945Y014559D01*
X012945Y014463D02*
X012945Y014656D01*
X013046Y014608D02*
X013046Y014511D01*
X013094Y014463D01*
X013239Y014463D01*
X013239Y014366D02*
X013239Y014656D01*
X013094Y014656D01*
X013046Y014608D01*
X013340Y014656D02*
X013534Y014463D01*
X013635Y014463D02*
X013829Y014463D01*
X013829Y014753D01*
X013635Y014753D01*
X013534Y014656D02*
X013340Y014463D01*
X013340Y014176D02*
X013388Y014176D01*
X013485Y014079D01*
X013485Y013983D02*
X013485Y014176D01*
X013586Y014176D02*
X013586Y013983D01*
X013731Y013983D01*
X013780Y014031D01*
X013780Y014176D01*
X013881Y014176D02*
X014026Y014176D01*
X014074Y014128D01*
X014074Y014031D01*
X014026Y013983D01*
X013881Y013983D01*
X014175Y014079D02*
X014369Y014079D01*
X014369Y014031D02*
X014369Y014128D01*
X014320Y014176D01*
X014224Y014176D01*
X014175Y014128D01*
X014175Y014079D01*
X014224Y013983D02*
X014320Y013983D01*
X014369Y014031D01*
X014470Y014031D02*
X014518Y014079D01*
X014615Y014079D01*
X014663Y014128D01*
X014615Y014176D01*
X014470Y014176D01*
X014470Y014031D02*
X014518Y013983D01*
X014663Y013983D01*
X014958Y013983D02*
X014765Y014273D01*
X014909Y014463D02*
X014909Y014753D01*
X014764Y014753D01*
X014716Y014705D01*
X014716Y014608D01*
X014764Y014559D01*
X014909Y014559D01*
X014614Y014511D02*
X014566Y014463D01*
X014421Y014463D01*
X014320Y014463D02*
X014223Y014463D01*
X014271Y014463D02*
X014271Y014656D01*
X014320Y014656D01*
X014421Y014656D02*
X014566Y014656D01*
X014614Y014608D01*
X014614Y014511D01*
X014271Y014753D02*
X014271Y014801D01*
X014320Y014943D02*
X014320Y015136D01*
X014175Y015136D01*
X014126Y015088D01*
X014126Y014943D01*
X014025Y014991D02*
X013977Y014943D01*
X013832Y014943D01*
X013832Y015088D01*
X013880Y015136D01*
X013977Y015136D01*
X013977Y015039D02*
X013832Y015039D01*
X013730Y014943D02*
X013634Y014943D01*
X013682Y014943D02*
X013682Y015233D01*
X013730Y015233D01*
X013534Y015136D02*
X013486Y015136D01*
X013486Y014943D01*
X013534Y014943D02*
X013437Y014943D01*
X013338Y014943D02*
X013144Y014943D01*
X013043Y014991D02*
X012995Y014943D01*
X012898Y014943D01*
X012849Y015039D02*
X013043Y015039D01*
X013043Y014991D02*
X013043Y015088D01*
X012995Y015136D01*
X012898Y015136D01*
X012849Y015088D01*
X012849Y015039D01*
X012748Y015039D02*
X012652Y015136D01*
X012603Y015136D01*
X012748Y015136D02*
X012748Y014943D01*
X013144Y015136D02*
X013338Y014943D01*
X013338Y015136D02*
X013144Y015136D01*
X013486Y015233D02*
X013486Y015281D01*
X013977Y015039D02*
X014025Y014991D01*
X014420Y015136D02*
X014469Y015136D01*
X014565Y015039D01*
X014565Y014943D02*
X014565Y015136D01*
X014666Y015088D02*
X014666Y015039D01*
X014860Y015039D01*
X014860Y014991D02*
X014860Y015088D01*
X014812Y015136D01*
X014715Y015136D01*
X014666Y015088D01*
X014715Y014943D02*
X014812Y014943D01*
X014860Y014991D01*
X014960Y014943D02*
X015008Y014991D01*
X015008Y015185D01*
X015056Y015136D02*
X014960Y015136D01*
X015158Y015233D02*
X015351Y014943D01*
X015452Y014943D02*
X015646Y014943D01*
X015646Y015233D01*
X015452Y015233D01*
X015351Y015233D02*
X015158Y014943D01*
X015305Y014656D02*
X015450Y014656D01*
X015498Y014608D01*
X015450Y014559D01*
X015353Y014559D01*
X015305Y014511D01*
X015353Y014463D01*
X015498Y014463D01*
X015646Y014656D02*
X015597Y014705D01*
X015597Y014801D01*
X015747Y014656D02*
X015940Y014463D01*
X015747Y014463D01*
X015747Y014656D02*
X015940Y014656D01*
X016040Y014656D02*
X016137Y014656D01*
X016088Y014705D02*
X016088Y014511D01*
X016040Y014463D01*
X016236Y014463D02*
X016333Y014463D01*
X016285Y014463D02*
X016285Y014656D01*
X016333Y014656D01*
X016285Y014753D02*
X016285Y014801D01*
X016433Y014753D02*
X016481Y014705D01*
X016481Y014463D01*
X016631Y014463D02*
X016776Y014463D01*
X016824Y014511D01*
X016824Y014656D01*
X016972Y014753D02*
X016972Y014463D01*
X016924Y014463D02*
X017021Y014463D01*
X017122Y014559D02*
X017315Y014559D01*
X017315Y014511D02*
X017315Y014608D01*
X017267Y014656D01*
X017170Y014656D01*
X017122Y014608D01*
X017122Y014559D01*
X017170Y014463D02*
X017267Y014463D01*
X017315Y014511D01*
X017416Y014656D02*
X017464Y014656D01*
X017561Y014559D01*
X017561Y014463D02*
X017561Y014656D01*
X017662Y014656D02*
X017662Y014463D01*
X017807Y014463D01*
X017856Y014511D01*
X017856Y014656D01*
X017957Y014656D02*
X018102Y014656D01*
X018150Y014608D01*
X018150Y014511D01*
X018102Y014463D01*
X017957Y014463D01*
X017957Y014273D02*
X018150Y013983D01*
X018249Y013983D02*
X018298Y013983D01*
X018298Y014031D01*
X018249Y014031D01*
X018249Y013983D01*
X018249Y014128D02*
X018298Y014128D01*
X018298Y014176D01*
X018249Y014176D01*
X018249Y014128D01*
X018399Y014176D02*
X018544Y014176D01*
X018592Y014128D01*
X018544Y014079D01*
X018447Y014079D01*
X018399Y014031D01*
X018447Y013983D01*
X018592Y013983D01*
X018693Y014031D02*
X018742Y013983D01*
X018887Y013983D01*
X018887Y013886D02*
X018887Y014176D01*
X018742Y014176D01*
X018693Y014128D01*
X018693Y014031D01*
X018987Y013983D02*
X019035Y014031D01*
X019035Y014225D01*
X019083Y014176D02*
X018987Y014176D01*
X019183Y014176D02*
X019280Y014176D01*
X019231Y014225D02*
X019231Y014031D01*
X019183Y013983D01*
X019381Y013983D02*
X019381Y014128D01*
X019429Y014176D01*
X019526Y014176D01*
X019574Y014128D01*
X019574Y014273D02*
X019574Y013983D01*
X019034Y014511D02*
X019034Y014705D01*
X018986Y014753D01*
X018889Y014753D01*
X018841Y014705D01*
X018841Y014608D01*
X018889Y014559D01*
X018889Y014656D01*
X018986Y014656D01*
X018986Y014559D01*
X018889Y014559D01*
X018841Y014511D02*
X018889Y014463D01*
X018986Y014463D01*
X019034Y014511D01*
X018740Y014463D02*
X018594Y014463D01*
X018546Y014511D01*
X018594Y014559D01*
X018691Y014559D01*
X018740Y014608D01*
X018691Y014656D01*
X018546Y014656D01*
X018445Y014608D02*
X018396Y014656D01*
X018300Y014656D01*
X018251Y014608D01*
X018251Y014559D01*
X018445Y014559D01*
X018445Y014511D02*
X018445Y014608D01*
X018445Y014511D02*
X018396Y014463D01*
X018300Y014463D01*
X017856Y013983D02*
X017662Y014273D01*
X017561Y014128D02*
X017561Y014031D01*
X017513Y013983D01*
X017367Y013983D01*
X017367Y013934D02*
X017367Y014176D01*
X017513Y014176D01*
X017561Y014128D01*
X017464Y013886D02*
X017416Y013886D01*
X017367Y013934D01*
X017266Y013983D02*
X017169Y013983D01*
X017218Y013983D02*
X017218Y014176D01*
X017266Y014176D01*
X017218Y014273D02*
X017218Y014321D01*
X017070Y014176D02*
X016973Y014176D01*
X017021Y014225D02*
X017021Y014031D01*
X016973Y013983D01*
X016873Y013983D02*
X016873Y014273D01*
X016825Y014176D02*
X016728Y014176D01*
X016680Y014128D01*
X016680Y013983D01*
X016579Y014031D02*
X016530Y013983D01*
X016385Y013983D01*
X016385Y014176D01*
X016284Y014176D02*
X016139Y014176D01*
X016091Y014128D01*
X016091Y014031D01*
X016139Y013983D01*
X016284Y013983D01*
X016284Y014273D01*
X015989Y014031D02*
X015941Y014031D01*
X015941Y013983D01*
X015989Y013983D01*
X015989Y014031D01*
X015842Y014031D02*
X015794Y013983D01*
X015649Y013983D01*
X015547Y014031D02*
X015499Y013983D01*
X015402Y013983D01*
X015354Y014031D01*
X015354Y014128D01*
X015402Y014176D01*
X015499Y014176D01*
X015547Y014128D01*
X015547Y014031D01*
X015649Y014176D02*
X015794Y014176D01*
X015842Y014128D01*
X015842Y014031D01*
X015253Y013983D02*
X015253Y014176D01*
X015204Y014176D01*
X015156Y014128D01*
X015108Y014176D01*
X015059Y014128D01*
X015059Y013983D01*
X015156Y013983D02*
X015156Y014128D01*
X015940Y014943D02*
X015940Y015233D01*
X015795Y015233D01*
X015747Y015185D01*
X015747Y015088D01*
X015795Y015039D01*
X015940Y015039D01*
X015646Y015088D02*
X015549Y015088D01*
X016433Y014608D02*
X016530Y014608D01*
X016631Y014656D02*
X016631Y014414D01*
X016679Y014366D01*
X016728Y014366D01*
X016825Y014176D02*
X016873Y014128D01*
X016579Y014176D02*
X016579Y014031D01*
X016972Y014753D02*
X017021Y014753D01*
X013829Y014608D02*
X013732Y014608D01*
X013239Y014128D02*
X013191Y014176D01*
X013094Y014176D01*
X013046Y014128D01*
X013046Y014079D01*
X013239Y014079D01*
X013239Y014031D02*
X013239Y014128D01*
X013239Y014031D02*
X013191Y013983D01*
X013094Y013983D01*
X012945Y013983D02*
X012848Y013983D01*
X012896Y013983D02*
X012896Y014273D01*
X012945Y014273D01*
X012748Y014176D02*
X012748Y014031D01*
X012700Y013983D01*
X012555Y013983D01*
X012555Y013934D02*
X012603Y013886D01*
X012652Y013886D01*
X012555Y013934D02*
X012555Y014176D01*
X012454Y014128D02*
X012357Y014128D01*
X012405Y014225D02*
X012357Y014273D01*
X012405Y014225D02*
X012405Y013983D01*
X008672Y013983D02*
X008479Y013983D01*
X008378Y014031D02*
X008378Y014128D01*
X008329Y014176D01*
X008232Y014176D01*
X008184Y014128D01*
X008184Y014079D01*
X008378Y014079D01*
X008378Y014031D02*
X008329Y013983D01*
X008232Y013983D01*
X008083Y013983D02*
X008083Y014176D01*
X008083Y014079D02*
X007986Y014176D01*
X007938Y014176D01*
X008479Y014176D02*
X008672Y013983D01*
X008672Y014176D02*
X008479Y014176D01*
X008623Y014463D02*
X008623Y014656D01*
X008623Y014559D02*
X008526Y014656D01*
X008478Y014656D01*
X012318Y008425D02*
X012318Y008363D01*
X012318Y008239D02*
X012318Y007993D01*
X012380Y007993D02*
X012256Y007993D01*
X012134Y008054D02*
X012134Y008178D01*
X012073Y008239D01*
X011887Y008239D01*
X011766Y008116D02*
X011581Y008239D01*
X011766Y008116D02*
X011581Y007993D01*
X011766Y007993D02*
X011766Y008363D01*
X011887Y007993D02*
X012073Y007993D01*
X012134Y008054D01*
X012318Y008239D02*
X012380Y008239D01*
X012502Y008239D02*
X012563Y008239D01*
X012687Y008116D01*
X012687Y007993D02*
X012687Y008239D01*
X012809Y008239D02*
X012932Y008239D01*
X012871Y008301D02*
X012871Y008054D01*
X012809Y007993D01*
X013054Y007993D02*
X013054Y008178D01*
X013116Y008239D01*
X013239Y008239D01*
X013239Y008116D02*
X013054Y008116D01*
X013054Y007993D02*
X013239Y007993D01*
X013301Y008054D01*
X013239Y008116D01*
X013422Y008178D02*
X013484Y008116D01*
X013669Y008116D01*
X013669Y007993D02*
X013669Y008363D01*
X013484Y008363D01*
X013422Y008301D01*
X013422Y008178D01*
X013790Y008239D02*
X014037Y007993D01*
X013790Y007993D01*
X013790Y008239D02*
X014037Y008239D01*
X014159Y008239D02*
X014283Y008239D01*
X014221Y008301D02*
X014221Y008054D01*
X014159Y007993D01*
X014283Y007825D02*
X014283Y007763D01*
X014283Y007639D02*
X014283Y007393D01*
X014344Y007393D02*
X014221Y007393D01*
X014099Y007393D02*
X014099Y007639D01*
X013914Y007639D01*
X013852Y007578D01*
X013852Y007393D01*
X013730Y007454D02*
X013730Y007578D01*
X013669Y007639D01*
X013484Y007639D01*
X013484Y007331D01*
X013545Y007269D01*
X013607Y007269D01*
X013669Y007393D02*
X013484Y007393D01*
X013362Y007393D02*
X013362Y007763D01*
X013300Y007639D02*
X013177Y007639D01*
X013115Y007578D01*
X013115Y007393D01*
X012994Y007454D02*
X012932Y007516D01*
X012747Y007516D01*
X012747Y007578D02*
X012747Y007393D01*
X012932Y007393D01*
X012994Y007454D01*
X012932Y007639D02*
X012809Y007639D01*
X012747Y007578D01*
X012625Y007639D02*
X012625Y007393D01*
X012625Y007516D02*
X012502Y007639D01*
X012440Y007639D01*
X012319Y007578D02*
X012319Y007454D01*
X012257Y007393D01*
X012072Y007393D01*
X012072Y007763D01*
X012072Y007639D02*
X012257Y007639D01*
X012319Y007578D01*
X011950Y007639D02*
X011950Y007454D01*
X011888Y007393D01*
X011827Y007454D01*
X011765Y007393D01*
X011703Y007454D01*
X011703Y007639D01*
X011520Y007639D02*
X011397Y007639D01*
X011335Y007578D01*
X011335Y007393D01*
X011520Y007393D01*
X011582Y007454D01*
X011520Y007516D01*
X011335Y007516D01*
X011214Y007516D02*
X011090Y007639D01*
X011028Y007639D01*
X010907Y007578D02*
X010907Y007454D01*
X010845Y007393D01*
X010721Y007393D01*
X010660Y007516D02*
X010907Y007516D01*
X010907Y007578D02*
X010845Y007639D01*
X010721Y007639D01*
X010660Y007578D01*
X010660Y007516D01*
X010538Y007454D02*
X010477Y007454D01*
X010477Y007393D01*
X010538Y007393D01*
X010538Y007454D01*
X010354Y007454D02*
X010354Y007578D01*
X010292Y007639D01*
X010107Y007639D01*
X009986Y007578D02*
X009986Y007454D01*
X009924Y007393D01*
X009801Y007393D01*
X009739Y007454D01*
X009739Y007578D01*
X009801Y007639D01*
X009924Y007639D01*
X009986Y007578D01*
X010107Y007393D02*
X010292Y007393D01*
X010354Y007454D01*
X009618Y007393D02*
X009618Y007639D01*
X009556Y007639D01*
X009494Y007578D01*
X009432Y007639D01*
X009371Y007578D01*
X009371Y007393D01*
X009494Y007393D02*
X009494Y007578D01*
X011214Y007639D02*
X011214Y007393D01*
X011918Y007039D02*
X012165Y006793D01*
X011918Y006793D01*
X011918Y007039D02*
X012165Y007039D01*
X012287Y007039D02*
X012411Y007039D01*
X012349Y007101D02*
X012349Y006854D01*
X012287Y006793D01*
X012533Y006793D02*
X012656Y006793D01*
X012594Y006793D02*
X012594Y007039D01*
X012656Y007039D01*
X012778Y006978D02*
X012902Y006978D01*
X013023Y007039D02*
X013023Y006731D01*
X013085Y006669D01*
X013147Y006669D01*
X013177Y006563D02*
X013362Y006378D01*
X013115Y006378D01*
X012994Y006439D02*
X012994Y006501D01*
X012932Y006563D01*
X012809Y006563D01*
X012747Y006501D01*
X012747Y006439D01*
X012809Y006378D01*
X012932Y006378D01*
X012994Y006439D01*
X012932Y006378D02*
X012994Y006316D01*
X012994Y006254D01*
X012932Y006193D01*
X012809Y006193D01*
X012747Y006254D01*
X012747Y006316D01*
X012809Y006378D01*
X012625Y006439D02*
X012564Y006378D01*
X012379Y006378D01*
X012379Y006501D02*
X012440Y006563D01*
X012564Y006563D01*
X012625Y006501D01*
X012625Y006439D01*
X012625Y006254D02*
X012564Y006193D01*
X012440Y006193D01*
X012379Y006254D01*
X012379Y006501D01*
X012257Y006501D02*
X012195Y006563D01*
X012072Y006563D01*
X012010Y006501D01*
X012010Y006439D01*
X012257Y006193D01*
X012010Y006193D01*
X012840Y006793D02*
X012840Y007101D01*
X012778Y007163D01*
X012594Y007163D02*
X012594Y007225D01*
X013023Y006793D02*
X013208Y006793D01*
X013270Y006854D01*
X013270Y007039D01*
X013454Y007163D02*
X013454Y006793D01*
X013516Y006793D02*
X013392Y006793D01*
X013637Y006916D02*
X013637Y006978D01*
X013699Y007039D01*
X013822Y007039D01*
X013884Y006978D01*
X013884Y006854D01*
X013822Y006793D01*
X013699Y006793D01*
X013637Y006916D02*
X013884Y006916D01*
X014006Y007039D02*
X014067Y007039D01*
X014191Y006916D01*
X014191Y006793D02*
X014191Y007039D01*
X014312Y007039D02*
X014312Y006793D01*
X014497Y006793D01*
X014559Y006854D01*
X014559Y007039D01*
X014681Y007039D02*
X014866Y007039D01*
X014927Y006978D01*
X014927Y006854D01*
X014866Y006793D01*
X014681Y006793D01*
X014589Y006563D02*
X014466Y006563D01*
X014404Y006501D01*
X014404Y006439D01*
X014466Y006378D01*
X014404Y006316D01*
X014404Y006254D01*
X014466Y006193D01*
X014589Y006193D01*
X014651Y006254D01*
X014774Y006254D02*
X014774Y006193D01*
X014835Y006193D01*
X014835Y006254D01*
X014774Y006254D01*
X014957Y006254D02*
X015018Y006193D01*
X015142Y006193D01*
X015204Y006254D01*
X015325Y006193D02*
X015572Y006193D01*
X015693Y006193D02*
X015940Y006193D01*
X015693Y006439D01*
X015693Y006501D01*
X015755Y006563D01*
X015879Y006563D01*
X015940Y006501D01*
X015971Y006793D02*
X016032Y006854D01*
X016032Y007101D01*
X015971Y007163D01*
X015847Y007163D01*
X015785Y007101D01*
X015785Y006978D01*
X015847Y006916D01*
X015847Y007039D01*
X015971Y007039D01*
X015971Y006916D01*
X015847Y006916D01*
X015785Y006854D02*
X015847Y006793D01*
X015971Y006793D01*
X015664Y006793D02*
X015479Y006793D01*
X015417Y006854D01*
X015479Y006916D01*
X015602Y006916D01*
X015664Y006978D01*
X015602Y007039D01*
X015417Y007039D01*
X015296Y006978D02*
X015296Y006854D01*
X015234Y006793D01*
X015111Y006793D01*
X015049Y006916D02*
X015296Y006916D01*
X015296Y006978D02*
X015234Y007039D01*
X015111Y007039D01*
X015049Y006978D01*
X015049Y006916D01*
X015018Y006563D02*
X014957Y006501D01*
X014957Y006439D01*
X015018Y006378D01*
X014957Y006316D01*
X014957Y006254D01*
X015018Y006378D02*
X015080Y006378D01*
X015204Y006501D02*
X015142Y006563D01*
X015018Y006563D01*
X014651Y006501D02*
X014589Y006563D01*
X014528Y006378D02*
X014466Y006378D01*
X014283Y006254D02*
X014283Y006193D01*
X014283Y006254D02*
X014036Y006501D01*
X014036Y006563D01*
X014283Y006563D01*
X013915Y006501D02*
X013853Y006563D01*
X013729Y006563D01*
X013668Y006501D01*
X013668Y006439D01*
X013729Y006378D01*
X013668Y006316D01*
X013668Y006254D01*
X013729Y006193D01*
X013853Y006193D01*
X013915Y006254D01*
X013791Y006378D02*
X013729Y006378D01*
X013546Y006254D02*
X013484Y006254D01*
X013484Y006193D01*
X013546Y006193D01*
X013546Y006254D01*
X013177Y006193D02*
X013177Y006563D01*
X013454Y007163D02*
X013516Y007163D01*
X013669Y007393D02*
X013730Y007454D01*
X013362Y007578D02*
X013300Y007639D01*
X014283Y007639D02*
X014344Y007639D01*
X014466Y007639D02*
X014528Y007639D01*
X014651Y007516D01*
X014651Y007393D02*
X014651Y007639D01*
X014773Y007639D02*
X014773Y007393D01*
X014958Y007393D01*
X015019Y007454D01*
X015019Y007639D01*
X015141Y007639D02*
X015326Y007639D01*
X015388Y007578D01*
X015388Y007454D01*
X015326Y007393D01*
X015141Y007393D01*
X015509Y007516D02*
X015756Y007516D01*
X015756Y007454D02*
X015756Y007578D01*
X015694Y007639D01*
X015571Y007639D01*
X015509Y007578D01*
X015509Y007516D01*
X015571Y007393D02*
X015694Y007393D01*
X015756Y007454D01*
X015878Y007454D02*
X015939Y007516D01*
X016063Y007516D01*
X016124Y007578D01*
X016063Y007639D01*
X015878Y007639D01*
X015878Y007454D02*
X015939Y007393D01*
X016124Y007393D01*
X016246Y007454D02*
X016308Y007393D01*
X016431Y007393D01*
X016493Y007454D01*
X016493Y007701D01*
X016431Y007763D01*
X016308Y007763D01*
X016246Y007701D01*
X016246Y007578D01*
X016308Y007516D01*
X016308Y007639D01*
X016431Y007639D01*
X016431Y007516D01*
X016308Y007516D01*
X016614Y007639D02*
X016861Y007393D01*
X016614Y007393D01*
X016614Y007639D02*
X016861Y007639D01*
X016983Y007639D02*
X017107Y007639D01*
X017045Y007701D02*
X017045Y007454D01*
X016983Y007393D01*
X017229Y007393D02*
X017352Y007393D01*
X017290Y007393D02*
X017290Y007639D01*
X017352Y007639D01*
X017474Y007578D02*
X017598Y007578D01*
X017719Y007578D02*
X017719Y007516D01*
X017966Y007516D01*
X017966Y007454D02*
X017966Y007578D01*
X017904Y007639D01*
X017781Y007639D01*
X017719Y007578D01*
X017781Y007393D02*
X017904Y007393D01*
X017966Y007454D01*
X018087Y007454D02*
X018087Y007578D01*
X018149Y007639D01*
X018273Y007639D01*
X018334Y007578D01*
X018334Y007454D01*
X018273Y007393D01*
X018149Y007393D01*
X018087Y007454D01*
X018456Y007331D02*
X018456Y007639D01*
X018456Y007763D02*
X018456Y007825D01*
X018456Y007331D02*
X018518Y007269D01*
X018580Y007269D01*
X017536Y007393D02*
X017536Y007701D01*
X017474Y007763D01*
X017290Y007763D02*
X017290Y007825D01*
X016370Y008054D02*
X016308Y007993D01*
X016247Y007993D01*
X016185Y008054D01*
X016185Y008363D01*
X016247Y008363D02*
X016123Y008363D01*
X015940Y008239D02*
X016002Y008178D01*
X016002Y008054D01*
X015940Y007993D01*
X015816Y007993D01*
X015755Y008054D01*
X015755Y008178D01*
X015816Y008239D01*
X015940Y008239D01*
X015633Y008178D02*
X015633Y008054D01*
X015572Y007993D01*
X015448Y007993D01*
X015386Y008116D02*
X015633Y008116D01*
X015633Y008178D02*
X015572Y008239D01*
X015448Y008239D01*
X015386Y008178D01*
X015386Y008116D01*
X014897Y008178D02*
X014773Y008178D01*
X014897Y008363D02*
X014650Y008363D01*
X014528Y008239D02*
X014467Y008239D01*
X014467Y007993D01*
X014528Y007993D02*
X014405Y007993D01*
X014467Y008363D02*
X014467Y008425D01*
X014897Y008363D02*
X014897Y007993D01*
X015449Y006563D02*
X015449Y006193D01*
X015572Y006439D02*
X015449Y006563D01*
X015535Y005344D02*
X015342Y005344D01*
X015241Y005344D02*
X015047Y005053D01*
X014898Y005102D02*
X014898Y005295D01*
X014946Y005247D02*
X014849Y005247D01*
X014750Y005198D02*
X014750Y005102D01*
X014701Y005053D01*
X014605Y005053D01*
X014556Y005150D02*
X014750Y005150D01*
X014750Y005198D02*
X014701Y005247D01*
X014605Y005247D01*
X014556Y005198D01*
X014556Y005150D01*
X014455Y005150D02*
X014358Y005247D01*
X014310Y005247D01*
X014209Y005247D02*
X014064Y005247D01*
X014016Y005198D01*
X014016Y005053D01*
X013915Y005102D02*
X013866Y005150D01*
X013721Y005150D01*
X013721Y005198D02*
X013721Y005053D01*
X013866Y005053D01*
X013915Y005102D01*
X013866Y005247D02*
X013770Y005247D01*
X013721Y005198D01*
X013620Y005053D02*
X013523Y005053D01*
X013572Y005053D02*
X013572Y005344D01*
X013620Y005344D01*
X013424Y005247D02*
X013375Y005247D01*
X013375Y005053D01*
X013327Y005053D02*
X013424Y005053D01*
X013227Y005053D02*
X013034Y005053D01*
X012933Y005102D02*
X012933Y005198D01*
X012884Y005247D01*
X012788Y005247D01*
X012739Y005198D01*
X012739Y005150D01*
X012933Y005150D01*
X012933Y005102D02*
X012884Y005053D01*
X012788Y005053D01*
X012638Y005053D02*
X012638Y005247D01*
X012638Y005150D02*
X012541Y005247D01*
X012493Y005247D01*
X012098Y005295D02*
X012098Y005102D01*
X011904Y005295D01*
X011904Y005102D01*
X011953Y005053D01*
X012049Y005053D01*
X012098Y005102D01*
X012098Y005295D02*
X012049Y005344D01*
X011953Y005344D01*
X011904Y005295D01*
X011803Y005102D02*
X011755Y005102D01*
X011755Y005053D01*
X011803Y005053D01*
X011803Y005102D01*
X011656Y005102D02*
X011607Y005053D01*
X011511Y005053D01*
X011462Y005102D01*
X011462Y005295D01*
X011511Y005344D01*
X011607Y005344D01*
X011656Y005295D01*
X011656Y005247D01*
X011607Y005198D01*
X011462Y005198D01*
X011116Y004864D02*
X010922Y004573D01*
X010773Y004622D02*
X010724Y004573D01*
X010773Y004622D02*
X010773Y004815D01*
X010821Y004767D02*
X010724Y004767D01*
X010625Y004718D02*
X010576Y004767D01*
X010479Y004767D01*
X010431Y004718D01*
X010431Y004670D01*
X010625Y004670D01*
X010625Y004622D02*
X010625Y004718D01*
X010625Y004622D02*
X010576Y004573D01*
X010479Y004573D01*
X010330Y004573D02*
X010330Y004767D01*
X010233Y004767D02*
X010185Y004767D01*
X010233Y004767D02*
X010330Y004670D01*
X010084Y004573D02*
X010084Y004767D01*
X009939Y004767D01*
X009891Y004718D01*
X009891Y004573D01*
X009790Y004622D02*
X009741Y004670D01*
X009596Y004670D01*
X009596Y004718D02*
X009596Y004573D01*
X009741Y004573D01*
X009790Y004622D01*
X009741Y004767D02*
X009645Y004767D01*
X009596Y004718D01*
X009495Y004573D02*
X009398Y004573D01*
X009447Y004573D02*
X009447Y004864D01*
X009495Y004864D01*
X009299Y004767D02*
X009250Y004767D01*
X009250Y004573D01*
X009202Y004573D02*
X009299Y004573D01*
X009102Y004573D02*
X008909Y004573D01*
X008808Y004622D02*
X008808Y004718D01*
X008759Y004767D01*
X008662Y004767D01*
X008614Y004718D01*
X008614Y004670D01*
X008808Y004670D01*
X008808Y004622D02*
X008759Y004573D01*
X008662Y004573D01*
X008710Y004432D02*
X008710Y004384D01*
X008710Y004287D02*
X008710Y004093D01*
X008758Y004093D02*
X008662Y004093D01*
X008562Y004093D02*
X008368Y004093D01*
X008267Y004142D02*
X008267Y004238D01*
X008219Y004287D01*
X008122Y004287D01*
X008074Y004238D01*
X008074Y004190D01*
X008267Y004190D01*
X008267Y004142D02*
X008219Y004093D01*
X008122Y004093D01*
X007973Y004093D02*
X007973Y004287D01*
X007973Y004190D02*
X007876Y004287D01*
X007828Y004287D01*
X008368Y004287D02*
X008562Y004093D01*
X008562Y004287D02*
X008368Y004287D01*
X008513Y004573D02*
X008513Y004767D01*
X008416Y004767D02*
X008368Y004767D01*
X008416Y004767D02*
X008513Y004670D01*
X008909Y004767D02*
X009102Y004573D01*
X009102Y004767D02*
X008909Y004767D01*
X008906Y004384D02*
X008906Y004093D01*
X008858Y004093D02*
X008955Y004093D01*
X009056Y004093D02*
X009056Y004238D01*
X009104Y004287D01*
X009201Y004287D01*
X009201Y004190D02*
X009056Y004190D01*
X009056Y004093D02*
X009201Y004093D01*
X009250Y004142D01*
X009201Y004190D01*
X009351Y004238D02*
X009351Y004093D01*
X009351Y004238D02*
X009399Y004287D01*
X009544Y004287D01*
X009544Y004093D01*
X009645Y004287D02*
X009693Y004287D01*
X009790Y004190D01*
X009790Y004093D02*
X009790Y004287D01*
X009891Y004238D02*
X009891Y004190D01*
X010084Y004190D01*
X010084Y004142D02*
X010084Y004238D01*
X010036Y004287D01*
X009939Y004287D01*
X009891Y004238D01*
X009939Y004093D02*
X010036Y004093D01*
X010084Y004142D01*
X010184Y004093D02*
X010232Y004142D01*
X010232Y004335D01*
X010184Y004287D02*
X010281Y004287D01*
X010382Y004384D02*
X010575Y004093D01*
X010677Y004093D02*
X010870Y004093D01*
X010870Y004384D01*
X010677Y004384D01*
X010575Y004384D02*
X010382Y004093D01*
X010773Y004238D02*
X010870Y004238D01*
X010971Y004238D02*
X011020Y004190D01*
X011165Y004190D01*
X011165Y004093D02*
X011165Y004384D01*
X011020Y004384D01*
X010971Y004335D01*
X010971Y004238D01*
X011116Y004573D02*
X010922Y004864D01*
X011217Y004718D02*
X011217Y004670D01*
X011410Y004670D01*
X011410Y004622D02*
X011410Y004718D01*
X011362Y004767D01*
X011265Y004767D01*
X011217Y004718D01*
X011265Y004573D02*
X011362Y004573D01*
X011410Y004622D01*
X011266Y004384D02*
X011459Y004093D01*
X011561Y004093D02*
X011754Y004093D01*
X011561Y004287D01*
X011754Y004287D01*
X011854Y004287D02*
X011950Y004287D01*
X011902Y004335D02*
X011902Y004142D01*
X011854Y004093D01*
X012050Y004093D02*
X012147Y004093D01*
X012099Y004093D02*
X012099Y004287D01*
X012147Y004287D01*
X012099Y004384D02*
X012099Y004432D01*
X012149Y004573D02*
X012101Y004622D01*
X012149Y004670D01*
X012246Y004670D01*
X012294Y004718D01*
X012246Y004767D01*
X012101Y004767D01*
X012000Y004718D02*
X011951Y004767D01*
X011806Y004767D01*
X011854Y004670D02*
X011951Y004670D01*
X012000Y004718D01*
X012000Y004573D02*
X011854Y004573D01*
X011806Y004622D01*
X011854Y004670D01*
X012149Y004573D02*
X012294Y004573D01*
X012395Y004670D02*
X012589Y004670D01*
X012589Y004622D02*
X012589Y004718D01*
X012541Y004767D01*
X012444Y004767D01*
X012395Y004718D01*
X012395Y004670D01*
X012444Y004573D02*
X012541Y004573D01*
X012589Y004622D01*
X012689Y004767D02*
X012738Y004767D01*
X012834Y004670D01*
X012834Y004573D02*
X012834Y004767D01*
X012936Y004718D02*
X012936Y004622D01*
X012984Y004573D01*
X013129Y004573D01*
X013129Y004477D02*
X013129Y004767D01*
X012984Y004767D01*
X012936Y004718D01*
X012834Y004384D02*
X012786Y004384D01*
X012786Y004093D01*
X012834Y004093D02*
X012738Y004093D01*
X012638Y004142D02*
X012590Y004093D01*
X012445Y004093D01*
X012445Y004045D02*
X012493Y003997D01*
X012541Y003997D01*
X012445Y004045D02*
X012445Y004287D01*
X012343Y004238D02*
X012247Y004238D01*
X012295Y004335D02*
X012247Y004384D01*
X012295Y004335D02*
X012295Y004093D01*
X012638Y004142D02*
X012638Y004287D01*
X012936Y004238D02*
X012936Y004190D01*
X013129Y004190D01*
X013129Y004142D02*
X013129Y004238D01*
X013081Y004287D01*
X012984Y004287D01*
X012936Y004238D01*
X012984Y004093D02*
X013081Y004093D01*
X013129Y004142D01*
X013230Y004287D02*
X013278Y004287D01*
X013375Y004190D01*
X013375Y004093D02*
X013375Y004287D01*
X013476Y004287D02*
X013476Y004093D01*
X013621Y004093D01*
X013669Y004142D01*
X013669Y004287D01*
X013770Y004287D02*
X013916Y004287D01*
X013964Y004238D01*
X013964Y004142D01*
X013916Y004093D01*
X013770Y004093D01*
X014065Y004190D02*
X014259Y004190D01*
X014259Y004142D02*
X014259Y004238D01*
X014210Y004287D01*
X014113Y004287D01*
X014065Y004238D01*
X014065Y004190D01*
X014113Y004093D02*
X014210Y004093D01*
X014259Y004142D01*
X014360Y004142D02*
X014408Y004190D01*
X014505Y004190D01*
X014553Y004238D01*
X014505Y004287D01*
X014360Y004287D01*
X014360Y004142D02*
X014408Y004093D01*
X014553Y004093D01*
X014848Y004093D02*
X014654Y004384D01*
X014799Y004573D02*
X014799Y004864D01*
X014654Y004864D01*
X014605Y004815D01*
X014605Y004718D01*
X014654Y004670D01*
X014799Y004670D01*
X014504Y004622D02*
X014456Y004573D01*
X014311Y004573D01*
X014209Y004573D02*
X014113Y004573D01*
X014161Y004573D02*
X014161Y004767D01*
X014209Y004767D01*
X014311Y004767D02*
X014456Y004767D01*
X014504Y004718D01*
X014504Y004622D01*
X014161Y004864D02*
X014161Y004912D01*
X014209Y005053D02*
X014209Y005247D01*
X014455Y005247D02*
X014455Y005053D01*
X014849Y005053D02*
X014898Y005102D01*
X015047Y005344D02*
X015241Y005053D01*
X015342Y005053D02*
X015535Y005053D01*
X015535Y005344D01*
X015637Y005295D02*
X015637Y005198D01*
X015685Y005150D01*
X015830Y005150D01*
X015830Y005053D02*
X015830Y005344D01*
X015685Y005344D01*
X015637Y005295D01*
X015535Y005198D02*
X015439Y005198D01*
X015487Y004912D02*
X015487Y004815D01*
X015535Y004767D01*
X015637Y004767D02*
X015830Y004573D01*
X015637Y004573D01*
X015637Y004767D02*
X015830Y004767D01*
X015930Y004767D02*
X016027Y004767D01*
X015978Y004815D02*
X015978Y004622D01*
X015930Y004573D01*
X016126Y004573D02*
X016223Y004573D01*
X016175Y004573D02*
X016175Y004767D01*
X016223Y004767D01*
X016175Y004864D02*
X016175Y004912D01*
X016323Y004864D02*
X016371Y004815D01*
X016371Y004573D01*
X016521Y004573D02*
X016666Y004573D01*
X016714Y004622D01*
X016714Y004767D01*
X016862Y004864D02*
X016862Y004573D01*
X016910Y004573D02*
X016814Y004573D01*
X016763Y004384D02*
X016763Y004093D01*
X016863Y004093D02*
X016911Y004142D01*
X016911Y004335D01*
X016863Y004287D02*
X016960Y004287D01*
X017108Y004287D02*
X017108Y004093D01*
X017156Y004093D02*
X017059Y004093D01*
X017257Y004093D02*
X017402Y004093D01*
X017451Y004142D01*
X017451Y004238D01*
X017402Y004287D01*
X017257Y004287D01*
X017257Y004045D01*
X017306Y003997D01*
X017354Y003997D01*
X017156Y004287D02*
X017108Y004287D01*
X017108Y004384D02*
X017108Y004432D01*
X017060Y004573D02*
X017157Y004573D01*
X017205Y004622D01*
X017205Y004718D01*
X017157Y004767D01*
X017060Y004767D01*
X017012Y004718D01*
X017012Y004670D01*
X017205Y004670D01*
X017306Y004767D02*
X017354Y004767D01*
X017451Y004670D01*
X017451Y004573D02*
X017451Y004767D01*
X017552Y004767D02*
X017552Y004573D01*
X017697Y004573D01*
X017745Y004622D01*
X017745Y004767D01*
X017846Y004767D02*
X017992Y004767D01*
X018040Y004718D01*
X018040Y004622D01*
X017992Y004573D01*
X017846Y004573D01*
X017846Y004384D02*
X018040Y004093D01*
X018139Y004093D02*
X018187Y004093D01*
X018187Y004142D01*
X018139Y004142D01*
X018139Y004093D01*
X018139Y004238D02*
X018187Y004238D01*
X018187Y004287D01*
X018139Y004287D01*
X018139Y004238D01*
X018288Y004287D02*
X018434Y004287D01*
X018482Y004238D01*
X018434Y004190D01*
X018337Y004190D01*
X018288Y004142D01*
X018337Y004093D01*
X018482Y004093D01*
X018583Y004142D02*
X018583Y004238D01*
X018631Y004287D01*
X018777Y004287D01*
X018777Y003997D01*
X018777Y004093D02*
X018631Y004093D01*
X018583Y004142D01*
X018876Y004093D02*
X018925Y004142D01*
X018925Y004335D01*
X018973Y004287D02*
X018876Y004287D01*
X019073Y004287D02*
X019169Y004287D01*
X019121Y004335D02*
X019121Y004142D01*
X019073Y004093D01*
X019271Y004093D02*
X019271Y004238D01*
X019319Y004287D01*
X019416Y004287D01*
X019464Y004238D01*
X019464Y004093D02*
X019464Y004384D01*
X018924Y004622D02*
X018876Y004573D01*
X018779Y004573D01*
X018730Y004622D01*
X018779Y004670D02*
X018730Y004718D01*
X018730Y004815D01*
X018779Y004864D01*
X018876Y004864D01*
X018924Y004815D01*
X018924Y004622D01*
X018876Y004670D02*
X018876Y004767D01*
X018779Y004767D01*
X018779Y004670D01*
X018876Y004670D01*
X018629Y004718D02*
X018581Y004767D01*
X018436Y004767D01*
X018484Y004670D02*
X018581Y004670D01*
X018629Y004718D01*
X018629Y004573D02*
X018484Y004573D01*
X018436Y004622D01*
X018484Y004670D01*
X018335Y004670D02*
X018141Y004670D01*
X018141Y004718D01*
X018189Y004767D01*
X018286Y004767D01*
X018335Y004718D01*
X018335Y004622D01*
X018286Y004573D01*
X018189Y004573D01*
X017745Y004093D02*
X017552Y004384D01*
X016910Y004864D02*
X016862Y004864D01*
X016521Y004767D02*
X016521Y004525D01*
X016569Y004477D01*
X016617Y004477D01*
X016618Y004287D02*
X016570Y004238D01*
X016570Y004093D01*
X016468Y004142D02*
X016420Y004093D01*
X016275Y004093D01*
X016275Y004287D01*
X016174Y004287D02*
X016029Y004287D01*
X015980Y004238D01*
X015980Y004142D01*
X016029Y004093D01*
X016174Y004093D01*
X016174Y004384D01*
X016468Y004287D02*
X016468Y004142D01*
X016618Y004287D02*
X016715Y004287D01*
X016763Y004238D01*
X016419Y004718D02*
X016323Y004718D01*
X015879Y004142D02*
X015831Y004142D01*
X015831Y004093D01*
X015879Y004093D01*
X015879Y004142D01*
X015732Y004142D02*
X015732Y004238D01*
X015683Y004287D01*
X015538Y004287D01*
X015437Y004238D02*
X015437Y004142D01*
X015389Y004093D01*
X015292Y004093D01*
X015244Y004142D01*
X015244Y004238D01*
X015292Y004287D01*
X015389Y004287D01*
X015437Y004238D01*
X015538Y004093D02*
X015683Y004093D01*
X015732Y004142D01*
X015388Y004573D02*
X015243Y004573D01*
X015195Y004622D01*
X015243Y004670D01*
X015340Y004670D01*
X015388Y004718D01*
X015340Y004767D01*
X015195Y004767D01*
X015143Y004287D02*
X015094Y004287D01*
X015046Y004238D01*
X014997Y004287D01*
X014949Y004238D01*
X014949Y004093D01*
X015046Y004093D02*
X015046Y004238D01*
X015143Y004287D02*
X015143Y004093D01*
X013718Y004573D02*
X013525Y004573D01*
X013424Y004573D02*
X013230Y004767D01*
X013424Y004767D02*
X013230Y004573D01*
X013525Y004864D02*
X013718Y004864D01*
X013718Y004573D01*
X013718Y004718D02*
X013622Y004718D01*
X013227Y005053D02*
X013034Y005247D01*
X013227Y005247D01*
X013375Y005344D02*
X013375Y005392D01*
X009250Y004912D02*
X009250Y004864D01*
X008955Y004384D02*
X008906Y004384D01*
X008758Y004287D02*
X008710Y004287D01*
D12*
X008024Y003578D02*
X008024Y000232D01*
X007906Y000114D01*
X005386Y000114D01*
X005268Y000232D01*
X005268Y002319D01*
X005268Y003165D01*
X005266Y003204D01*
X005260Y003242D01*
X005251Y003279D01*
X005238Y003316D01*
X005221Y003351D01*
X005202Y003384D01*
X005179Y003415D01*
X005153Y003444D01*
X005124Y003470D01*
X005093Y003493D01*
X005060Y003512D01*
X005025Y003529D01*
X004988Y003542D01*
X004951Y003551D01*
X004913Y003557D01*
X004874Y003559D01*
X004835Y003557D01*
X004797Y003551D01*
X004760Y003542D01*
X004723Y003529D01*
X004688Y003512D01*
X004655Y003493D01*
X004624Y003470D01*
X004595Y003444D01*
X004569Y003415D01*
X004546Y003384D01*
X004527Y003351D01*
X004510Y003316D01*
X004497Y003279D01*
X004488Y003242D01*
X004482Y003204D01*
X004480Y003165D01*
X004481Y003165D02*
X004481Y002338D01*
X004481Y002319D02*
X004481Y000232D01*
X004363Y000114D01*
X000229Y000114D01*
X000150Y000232D01*
X000150Y002319D01*
X000150Y003657D01*
M02*
