G75*
%MOIN*%
%OFA0B0*%
%FSLAX24Y24*%
%IPPOS*%
%LPD*%
%AMOC8*
5,1,8,0,0,1.08239X$1,22.5*
%
%ADD10C,0.0516*%
%ADD11C,0.0110*%
%ADD12R,0.0516X0.0516*%
%ADD13C,0.0634*%
%ADD14OC8,0.0630*%
%ADD15C,0.0060*%
%ADD16C,0.0396*%
%ADD17C,0.0160*%
%ADD18C,0.0240*%
%ADD19C,0.0280*%
D10*
X003221Y004795D03*
X003418Y005385D03*
X004008Y004795D03*
X004402Y005385D03*
X004796Y004795D03*
X005189Y005385D03*
X005583Y004795D03*
X006174Y005385D03*
X006370Y004795D03*
X010189Y011921D03*
X009993Y012511D03*
X010780Y012511D03*
X011174Y011921D03*
X011567Y012511D03*
X011961Y011921D03*
X012355Y012511D03*
X012945Y011921D03*
X013142Y012511D03*
X011705Y015759D03*
X010918Y015759D03*
X010130Y015759D03*
X009343Y015759D03*
X009737Y016547D03*
X010524Y016547D03*
X011311Y016547D03*
X011311Y017531D03*
X010524Y017531D03*
X009737Y017531D03*
X010130Y018319D03*
X009343Y018319D03*
X008162Y017531D03*
X007374Y017531D03*
X006587Y017531D03*
X005800Y017531D03*
X005012Y017531D03*
X004619Y018319D03*
X005406Y018319D03*
X006193Y018319D03*
X006981Y018319D03*
X007768Y018319D03*
X007374Y016547D03*
X006587Y016547D03*
X005800Y016547D03*
X005012Y016547D03*
X004225Y016547D03*
X004619Y015759D03*
X005406Y015759D03*
X006193Y015759D03*
X006981Y015759D03*
X007768Y015759D03*
X008162Y016547D03*
X010918Y018319D03*
X011705Y018319D03*
D11*
X000430Y002302D02*
X000430Y000838D01*
X000264Y000838D01*
X000264Y002302D01*
X000430Y002302D01*
X000430Y000947D02*
X000264Y000947D01*
X000264Y001056D02*
X000430Y001056D01*
X000430Y001165D02*
X000264Y001165D01*
X000264Y001274D02*
X000430Y001274D01*
X000430Y001383D02*
X000264Y001383D01*
X000264Y001492D02*
X000430Y001492D01*
X000430Y001601D02*
X000264Y001601D01*
X000264Y001710D02*
X000430Y001710D01*
X000430Y001819D02*
X000264Y001819D01*
X000264Y001928D02*
X000430Y001928D01*
X000430Y002037D02*
X000264Y002037D01*
X000264Y002146D02*
X000430Y002146D01*
X000430Y002255D02*
X000264Y002255D01*
X000824Y002302D02*
X000824Y000838D01*
X000658Y000838D01*
X000658Y002302D01*
X000824Y002302D01*
X000824Y000947D02*
X000658Y000947D01*
X000658Y001056D02*
X000824Y001056D01*
X000824Y001165D02*
X000658Y001165D01*
X000658Y001274D02*
X000824Y001274D01*
X000824Y001383D02*
X000658Y001383D01*
X000658Y001492D02*
X000824Y001492D01*
X000824Y001601D02*
X000658Y001601D01*
X000658Y001710D02*
X000824Y001710D01*
X000824Y001819D02*
X000658Y001819D01*
X000658Y001928D02*
X000824Y001928D01*
X000824Y002037D02*
X000658Y002037D01*
X000658Y002146D02*
X000824Y002146D01*
X000824Y002255D02*
X000658Y002255D01*
X001217Y002302D02*
X001217Y000838D01*
X001051Y000838D01*
X001051Y002302D01*
X001217Y002302D01*
X001217Y000947D02*
X001051Y000947D01*
X001051Y001056D02*
X001217Y001056D01*
X001217Y001165D02*
X001051Y001165D01*
X001051Y001274D02*
X001217Y001274D01*
X001217Y001383D02*
X001051Y001383D01*
X001051Y001492D02*
X001217Y001492D01*
X001217Y001601D02*
X001051Y001601D01*
X001051Y001710D02*
X001217Y001710D01*
X001217Y001819D02*
X001051Y001819D01*
X001051Y001928D02*
X001217Y001928D01*
X001217Y002037D02*
X001051Y002037D01*
X001051Y002146D02*
X001217Y002146D01*
X001217Y002255D02*
X001051Y002255D01*
X001611Y002302D02*
X001611Y000838D01*
X001445Y000838D01*
X001445Y002302D01*
X001611Y002302D01*
X001611Y000947D02*
X001445Y000947D01*
X001445Y001056D02*
X001611Y001056D01*
X001611Y001165D02*
X001445Y001165D01*
X001445Y001274D02*
X001611Y001274D01*
X001611Y001383D02*
X001445Y001383D01*
X001445Y001492D02*
X001611Y001492D01*
X001611Y001601D02*
X001445Y001601D01*
X001445Y001710D02*
X001611Y001710D01*
X001611Y001819D02*
X001445Y001819D01*
X001445Y001928D02*
X001611Y001928D01*
X001611Y002037D02*
X001445Y002037D01*
X001445Y002146D02*
X001611Y002146D01*
X001611Y002255D02*
X001445Y002255D01*
X002005Y002302D02*
X002005Y000838D01*
X001839Y000838D01*
X001839Y002302D01*
X002005Y002302D01*
X002005Y000947D02*
X001839Y000947D01*
X001839Y001056D02*
X002005Y001056D01*
X002005Y001165D02*
X001839Y001165D01*
X001839Y001274D02*
X002005Y001274D01*
X002005Y001383D02*
X001839Y001383D01*
X001839Y001492D02*
X002005Y001492D01*
X002005Y001601D02*
X001839Y001601D01*
X001839Y001710D02*
X002005Y001710D01*
X002005Y001819D02*
X001839Y001819D01*
X001839Y001928D02*
X002005Y001928D01*
X002005Y002037D02*
X001839Y002037D01*
X001839Y002146D02*
X002005Y002146D01*
X002005Y002255D02*
X001839Y002255D01*
X002398Y002302D02*
X002398Y000838D01*
X002232Y000838D01*
X002232Y002302D01*
X002398Y002302D01*
X002398Y000947D02*
X002232Y000947D01*
X002232Y001056D02*
X002398Y001056D01*
X002398Y001165D02*
X002232Y001165D01*
X002232Y001274D02*
X002398Y001274D01*
X002398Y001383D02*
X002232Y001383D01*
X002232Y001492D02*
X002398Y001492D01*
X002398Y001601D02*
X002232Y001601D01*
X002232Y001710D02*
X002398Y001710D01*
X002398Y001819D02*
X002232Y001819D01*
X002232Y001928D02*
X002398Y001928D01*
X002398Y002037D02*
X002232Y002037D01*
X002232Y002146D02*
X002398Y002146D01*
X002398Y002255D02*
X002232Y002255D01*
X002792Y002302D02*
X002792Y000838D01*
X002626Y000838D01*
X002626Y002302D01*
X002792Y002302D01*
X002792Y000947D02*
X002626Y000947D01*
X002626Y001056D02*
X002792Y001056D01*
X002792Y001165D02*
X002626Y001165D01*
X002626Y001274D02*
X002792Y001274D01*
X002792Y001383D02*
X002626Y001383D01*
X002626Y001492D02*
X002792Y001492D01*
X002792Y001601D02*
X002626Y001601D01*
X002626Y001710D02*
X002792Y001710D01*
X002792Y001819D02*
X002626Y001819D01*
X002626Y001928D02*
X002792Y001928D01*
X002792Y002037D02*
X002626Y002037D01*
X002626Y002146D02*
X002792Y002146D01*
X002792Y002255D02*
X002626Y002255D01*
X003186Y002302D02*
X003186Y000838D01*
X003020Y000838D01*
X003020Y002302D01*
X003186Y002302D01*
X003186Y000947D02*
X003020Y000947D01*
X003020Y001056D02*
X003186Y001056D01*
X003186Y001165D02*
X003020Y001165D01*
X003020Y001274D02*
X003186Y001274D01*
X003186Y001383D02*
X003020Y001383D01*
X003020Y001492D02*
X003186Y001492D01*
X003186Y001601D02*
X003020Y001601D01*
X003020Y001710D02*
X003186Y001710D01*
X003186Y001819D02*
X003020Y001819D01*
X003020Y001928D02*
X003186Y001928D01*
X003186Y002037D02*
X003020Y002037D01*
X003020Y002146D02*
X003186Y002146D01*
X003186Y002255D02*
X003020Y002255D01*
X003579Y002302D02*
X003579Y000838D01*
X003413Y000838D01*
X003413Y002302D01*
X003579Y002302D01*
X003579Y000947D02*
X003413Y000947D01*
X003413Y001056D02*
X003579Y001056D01*
X003579Y001165D02*
X003413Y001165D01*
X003413Y001274D02*
X003579Y001274D01*
X003579Y001383D02*
X003413Y001383D01*
X003413Y001492D02*
X003579Y001492D01*
X003579Y001601D02*
X003413Y001601D01*
X003413Y001710D02*
X003579Y001710D01*
X003579Y001819D02*
X003413Y001819D01*
X003413Y001928D02*
X003579Y001928D01*
X003579Y002037D02*
X003413Y002037D01*
X003413Y002146D02*
X003579Y002146D01*
X003579Y002255D02*
X003413Y002255D01*
X003973Y002302D02*
X003973Y000838D01*
X003807Y000838D01*
X003807Y002302D01*
X003973Y002302D01*
X003973Y000947D02*
X003807Y000947D01*
X003807Y001056D02*
X003973Y001056D01*
X003973Y001165D02*
X003807Y001165D01*
X003807Y001274D02*
X003973Y001274D01*
X003973Y001383D02*
X003807Y001383D01*
X003807Y001492D02*
X003973Y001492D01*
X003973Y001601D02*
X003807Y001601D01*
X003807Y001710D02*
X003973Y001710D01*
X003973Y001819D02*
X003807Y001819D01*
X003807Y001928D02*
X003973Y001928D01*
X003973Y002037D02*
X003807Y002037D01*
X003807Y002146D02*
X003973Y002146D01*
X003973Y002255D02*
X003807Y002255D01*
X004367Y002302D02*
X004367Y000838D01*
X004201Y000838D01*
X004201Y002302D01*
X004367Y002302D01*
X004367Y000947D02*
X004201Y000947D01*
X004201Y001056D02*
X004367Y001056D01*
X004367Y001165D02*
X004201Y001165D01*
X004201Y001274D02*
X004367Y001274D01*
X004367Y001383D02*
X004201Y001383D01*
X004201Y001492D02*
X004367Y001492D01*
X004367Y001601D02*
X004201Y001601D01*
X004201Y001710D02*
X004367Y001710D01*
X004367Y001819D02*
X004201Y001819D01*
X004201Y001928D02*
X004367Y001928D01*
X004367Y002037D02*
X004201Y002037D01*
X004201Y002146D02*
X004367Y002146D01*
X004367Y002255D02*
X004201Y002255D01*
X005548Y002302D02*
X005548Y000838D01*
X005382Y000838D01*
X005382Y002302D01*
X005548Y002302D01*
X005548Y000947D02*
X005382Y000947D01*
X005382Y001056D02*
X005548Y001056D01*
X005548Y001165D02*
X005382Y001165D01*
X005382Y001274D02*
X005548Y001274D01*
X005548Y001383D02*
X005382Y001383D01*
X005382Y001492D02*
X005548Y001492D01*
X005548Y001601D02*
X005382Y001601D01*
X005382Y001710D02*
X005548Y001710D01*
X005548Y001819D02*
X005382Y001819D01*
X005382Y001928D02*
X005548Y001928D01*
X005548Y002037D02*
X005382Y002037D01*
X005382Y002146D02*
X005548Y002146D01*
X005548Y002255D02*
X005382Y002255D01*
X005942Y002302D02*
X005942Y000838D01*
X005776Y000838D01*
X005776Y002302D01*
X005942Y002302D01*
X005942Y000947D02*
X005776Y000947D01*
X005776Y001056D02*
X005942Y001056D01*
X005942Y001165D02*
X005776Y001165D01*
X005776Y001274D02*
X005942Y001274D01*
X005942Y001383D02*
X005776Y001383D01*
X005776Y001492D02*
X005942Y001492D01*
X005942Y001601D02*
X005776Y001601D01*
X005776Y001710D02*
X005942Y001710D01*
X005942Y001819D02*
X005776Y001819D01*
X005776Y001928D02*
X005942Y001928D01*
X005942Y002037D02*
X005776Y002037D01*
X005776Y002146D02*
X005942Y002146D01*
X005942Y002255D02*
X005776Y002255D01*
X006335Y002302D02*
X006335Y000838D01*
X006169Y000838D01*
X006169Y002302D01*
X006335Y002302D01*
X006335Y000947D02*
X006169Y000947D01*
X006169Y001056D02*
X006335Y001056D01*
X006335Y001165D02*
X006169Y001165D01*
X006169Y001274D02*
X006335Y001274D01*
X006335Y001383D02*
X006169Y001383D01*
X006169Y001492D02*
X006335Y001492D01*
X006335Y001601D02*
X006169Y001601D01*
X006169Y001710D02*
X006335Y001710D01*
X006335Y001819D02*
X006169Y001819D01*
X006169Y001928D02*
X006335Y001928D01*
X006335Y002037D02*
X006169Y002037D01*
X006169Y002146D02*
X006335Y002146D01*
X006335Y002255D02*
X006169Y002255D01*
X006729Y002302D02*
X006729Y000838D01*
X006563Y000838D01*
X006563Y002302D01*
X006729Y002302D01*
X006729Y000947D02*
X006563Y000947D01*
X006563Y001056D02*
X006729Y001056D01*
X006729Y001165D02*
X006563Y001165D01*
X006563Y001274D02*
X006729Y001274D01*
X006729Y001383D02*
X006563Y001383D01*
X006563Y001492D02*
X006729Y001492D01*
X006729Y001601D02*
X006563Y001601D01*
X006563Y001710D02*
X006729Y001710D01*
X006729Y001819D02*
X006563Y001819D01*
X006563Y001928D02*
X006729Y001928D01*
X006729Y002037D02*
X006563Y002037D01*
X006563Y002146D02*
X006729Y002146D01*
X006729Y002255D02*
X006563Y002255D01*
X007123Y002302D02*
X007123Y000838D01*
X006957Y000838D01*
X006957Y002302D01*
X007123Y002302D01*
X007123Y000947D02*
X006957Y000947D01*
X006957Y001056D02*
X007123Y001056D01*
X007123Y001165D02*
X006957Y001165D01*
X006957Y001274D02*
X007123Y001274D01*
X007123Y001383D02*
X006957Y001383D01*
X006957Y001492D02*
X007123Y001492D01*
X007123Y001601D02*
X006957Y001601D01*
X006957Y001710D02*
X007123Y001710D01*
X007123Y001819D02*
X006957Y001819D01*
X006957Y001928D02*
X007123Y001928D01*
X007123Y002037D02*
X006957Y002037D01*
X006957Y002146D02*
X007123Y002146D01*
X007123Y002255D02*
X006957Y002255D01*
X007516Y002302D02*
X007516Y000838D01*
X007350Y000838D01*
X007350Y002302D01*
X007516Y002302D01*
X007516Y000947D02*
X007350Y000947D01*
X007350Y001056D02*
X007516Y001056D01*
X007516Y001165D02*
X007350Y001165D01*
X007350Y001274D02*
X007516Y001274D01*
X007516Y001383D02*
X007350Y001383D01*
X007350Y001492D02*
X007516Y001492D01*
X007516Y001601D02*
X007350Y001601D01*
X007350Y001710D02*
X007516Y001710D01*
X007516Y001819D02*
X007350Y001819D01*
X007350Y001928D02*
X007516Y001928D01*
X007516Y002037D02*
X007350Y002037D01*
X007350Y002146D02*
X007516Y002146D01*
X007516Y002255D02*
X007350Y002255D01*
X007910Y002302D02*
X007910Y000838D01*
X007744Y000838D01*
X007744Y002302D01*
X007910Y002302D01*
X007910Y000947D02*
X007744Y000947D01*
X007744Y001056D02*
X007910Y001056D01*
X007910Y001165D02*
X007744Y001165D01*
X007744Y001274D02*
X007910Y001274D01*
X007910Y001383D02*
X007744Y001383D01*
X007744Y001492D02*
X007910Y001492D01*
X007910Y001601D02*
X007744Y001601D01*
X007744Y001710D02*
X007910Y001710D01*
X007910Y001819D02*
X007744Y001819D01*
X007744Y001928D02*
X007910Y001928D01*
X007910Y002037D02*
X007744Y002037D01*
X007744Y002146D02*
X007910Y002146D01*
X007910Y002255D02*
X007744Y002255D01*
D12*
X004225Y017531D03*
D13*
X005449Y014206D02*
X005449Y013573D01*
X006449Y013573D02*
X006449Y014206D01*
X007449Y014206D02*
X007449Y013573D01*
X004012Y011844D02*
X004012Y011210D01*
X003012Y011210D02*
X003012Y011844D01*
X002012Y011844D02*
X002012Y011210D01*
X001012Y011210D02*
X001012Y011844D01*
D14*
X003193Y013496D03*
X004193Y013496D03*
X005662Y012133D03*
X007237Y012133D03*
X007237Y010133D03*
X005662Y010133D03*
D15*
X005692Y010113D02*
X007207Y010113D01*
X007207Y010103D02*
X006792Y010103D01*
X006792Y009949D01*
X007052Y009688D01*
X007207Y009688D01*
X007207Y010103D01*
X007267Y010103D01*
X007267Y010163D01*
X007682Y010163D01*
X007682Y010318D01*
X007421Y010578D01*
X007267Y010578D01*
X007267Y010163D01*
X007207Y010163D01*
X007207Y010103D01*
X007207Y010055D02*
X007267Y010055D01*
X007267Y010103D02*
X007267Y009688D01*
X007421Y009688D01*
X007682Y009949D01*
X007682Y010103D01*
X007267Y010103D01*
X007267Y010113D02*
X019705Y010113D01*
X019705Y010055D02*
X007682Y010055D01*
X007682Y009996D02*
X019705Y009996D01*
X019705Y009938D02*
X007670Y009938D01*
X007612Y009879D02*
X019705Y009879D01*
X019705Y009821D02*
X007553Y009821D01*
X007495Y009762D02*
X019705Y009762D01*
X019705Y009704D02*
X007436Y009704D01*
X007267Y009704D02*
X007207Y009704D01*
X007207Y009762D02*
X007267Y009762D01*
X007267Y009821D02*
X007207Y009821D01*
X007207Y009879D02*
X007267Y009879D01*
X007267Y009938D02*
X007207Y009938D01*
X007207Y009996D02*
X007267Y009996D01*
X007267Y010172D02*
X007207Y010172D01*
X007207Y010163D02*
X007207Y010578D01*
X007052Y010578D01*
X006792Y010318D01*
X006792Y010163D01*
X007207Y010163D01*
X007207Y010230D02*
X007267Y010230D01*
X007267Y010289D02*
X007207Y010289D01*
X007207Y010347D02*
X007267Y010347D01*
X007267Y010406D02*
X007207Y010406D01*
X007207Y010464D02*
X007267Y010464D01*
X007267Y010523D02*
X007207Y010523D01*
X006997Y010523D02*
X005902Y010523D01*
X005846Y010578D02*
X005692Y010578D01*
X005692Y010163D01*
X006107Y010163D01*
X006107Y010318D01*
X005846Y010578D01*
X005960Y010464D02*
X006938Y010464D01*
X006880Y010406D02*
X006019Y010406D01*
X006077Y010347D02*
X006821Y010347D01*
X006792Y010289D02*
X006107Y010289D01*
X006107Y010230D02*
X006792Y010230D01*
X006792Y010172D02*
X006107Y010172D01*
X006107Y010103D02*
X005692Y010103D01*
X005692Y009688D01*
X005846Y009688D01*
X006107Y009949D01*
X006107Y010103D01*
X006107Y010055D02*
X006792Y010055D01*
X006792Y009996D02*
X006107Y009996D01*
X006096Y009938D02*
X006803Y009938D01*
X006861Y009879D02*
X006037Y009879D01*
X005979Y009821D02*
X006920Y009821D01*
X006978Y009762D02*
X005920Y009762D01*
X005862Y009704D02*
X007037Y009704D01*
X007682Y010172D02*
X019705Y010172D01*
X019705Y010230D02*
X007682Y010230D01*
X007682Y010289D02*
X019705Y010289D01*
X019705Y010347D02*
X007652Y010347D01*
X007594Y010406D02*
X019705Y010406D01*
X019705Y010464D02*
X007535Y010464D01*
X007477Y010523D02*
X019705Y010523D01*
X019705Y010581D02*
X014370Y010581D01*
X014272Y010541D02*
X014036Y010541D01*
X013818Y010631D01*
X013652Y010798D01*
X013561Y011016D01*
X013561Y011251D01*
X013652Y011469D01*
X013818Y011636D01*
X014036Y011726D01*
X014272Y011726D01*
X014490Y011636D01*
X014656Y011469D01*
X014747Y011251D01*
X014747Y011016D01*
X014656Y010798D01*
X014490Y010631D01*
X014272Y010541D01*
X014498Y010640D02*
X019705Y010640D01*
X019705Y010698D02*
X014557Y010698D01*
X014615Y010757D02*
X019705Y010757D01*
X019705Y010815D02*
X014664Y010815D01*
X014688Y010874D02*
X019705Y010874D01*
X019705Y010932D02*
X014712Y010932D01*
X014736Y010991D02*
X019705Y010991D01*
X019705Y011049D02*
X014747Y011049D01*
X014747Y011108D02*
X019705Y011108D01*
X019705Y011166D02*
X014747Y011166D01*
X014747Y011225D02*
X019705Y011225D01*
X019705Y011283D02*
X014733Y011283D01*
X014709Y011342D02*
X019705Y011342D01*
X019705Y011400D02*
X014685Y011400D01*
X014661Y011459D02*
X019705Y011459D01*
X019705Y011517D02*
X014608Y011517D01*
X014550Y011576D02*
X019705Y011576D01*
X019705Y011634D02*
X014491Y011634D01*
X014352Y011693D02*
X019705Y011693D01*
X019705Y011751D02*
X013252Y011751D01*
X013240Y011724D02*
X013293Y011852D01*
X013293Y011990D01*
X013240Y012118D01*
X013194Y012164D01*
X013211Y012164D01*
X013339Y012217D01*
X013437Y012314D01*
X013490Y012442D01*
X013490Y012581D01*
X013476Y012615D01*
X013478Y012618D01*
X013511Y012643D01*
X013513Y012652D01*
X013519Y012659D01*
X013519Y012700D01*
X013524Y012742D01*
X013519Y012749D01*
X013519Y017310D01*
X012893Y017936D01*
X012823Y018006D01*
X011936Y018006D01*
X011952Y018017D01*
X012006Y018071D01*
X012049Y018135D01*
X012078Y018205D01*
X012093Y018280D01*
X012093Y018289D01*
X011735Y018289D01*
X011735Y018349D01*
X011675Y018349D01*
X011675Y018706D01*
X011667Y018706D01*
X011592Y018691D01*
X011521Y018662D01*
X011458Y018620D01*
X011404Y018566D01*
X011361Y018502D01*
X011332Y018432D01*
X011317Y018357D01*
X011317Y018349D01*
X011675Y018349D01*
X011675Y018289D01*
X011317Y018289D01*
X011317Y018280D01*
X011332Y018205D01*
X011361Y018135D01*
X011404Y018071D01*
X011458Y018017D01*
X011474Y018006D01*
X011400Y018006D01*
X011234Y018172D01*
X011266Y018249D01*
X011266Y018388D01*
X011213Y018516D01*
X011115Y018613D01*
X010987Y018666D01*
X010849Y018666D01*
X010721Y018613D01*
X010623Y018516D01*
X010570Y018388D01*
X010570Y018249D01*
X010623Y018121D01*
X010721Y018024D01*
X010849Y017971D01*
X010987Y017971D01*
X011064Y018003D01*
X011204Y017863D01*
X011114Y017826D01*
X011017Y017728D01*
X010964Y017600D01*
X010964Y017462D01*
X011017Y017334D01*
X011114Y017236D01*
X011191Y017204D01*
X011191Y017186D01*
X011360Y017017D01*
X011546Y017017D01*
X011593Y017016D01*
X011595Y017017D01*
X011597Y017017D01*
X011631Y017051D01*
X011870Y017276D01*
X011821Y017157D01*
X011821Y016921D01*
X011911Y016703D01*
X012078Y016537D01*
X012296Y016446D01*
X012532Y016446D01*
X012749Y016537D01*
X012916Y016703D01*
X013006Y016921D01*
X013006Y017157D01*
X012916Y017375D01*
X012749Y017541D01*
X012579Y017612D01*
X012679Y017612D01*
X013159Y017159D01*
X013159Y013543D01*
X012491Y012832D01*
X012424Y012859D01*
X012286Y012859D01*
X012158Y012806D01*
X012060Y012708D01*
X012007Y012581D01*
X012007Y012442D01*
X012060Y012314D01*
X012158Y012217D01*
X012286Y012164D01*
X012424Y012164D01*
X012552Y012217D01*
X012650Y012314D01*
X012703Y012442D01*
X012703Y012581D01*
X012666Y012668D01*
X013279Y013320D01*
X013279Y012831D01*
X013211Y012859D01*
X013073Y012859D01*
X012945Y012806D01*
X012847Y012708D01*
X012794Y012581D01*
X012794Y012442D01*
X012847Y012314D01*
X012893Y012269D01*
X012876Y012269D01*
X012748Y012216D01*
X012650Y012118D01*
X012597Y011990D01*
X012597Y011852D01*
X012650Y011724D01*
X012748Y011626D01*
X012876Y011573D01*
X013014Y011573D01*
X013142Y011626D01*
X013240Y011724D01*
X013209Y011693D02*
X013956Y011693D01*
X013817Y011634D02*
X013151Y011634D01*
X013021Y011576D02*
X013758Y011576D01*
X013700Y011517D02*
X009435Y011517D01*
X009483Y011469D02*
X009316Y011636D01*
X009099Y011726D01*
X008863Y011726D01*
X008645Y011636D01*
X008478Y011469D01*
X008388Y011251D01*
X008388Y011016D01*
X008478Y010798D01*
X008645Y010631D01*
X008863Y010541D01*
X009099Y010541D01*
X009316Y010631D01*
X009483Y010798D01*
X009573Y011016D01*
X009573Y011251D01*
X009483Y011469D01*
X009487Y011459D02*
X013647Y011459D01*
X013623Y011400D02*
X009512Y011400D01*
X009536Y011342D02*
X013599Y011342D01*
X013575Y011283D02*
X009560Y011283D01*
X009573Y011225D02*
X013561Y011225D01*
X013561Y011166D02*
X009573Y011166D01*
X009573Y011108D02*
X013561Y011108D01*
X013561Y011049D02*
X009573Y011049D01*
X009563Y010991D02*
X013572Y010991D01*
X013596Y010932D02*
X009539Y010932D01*
X009515Y010874D02*
X013620Y010874D01*
X013644Y010815D02*
X009490Y010815D01*
X009442Y010757D02*
X013692Y010757D01*
X013751Y010698D02*
X009384Y010698D01*
X009325Y010640D02*
X013809Y010640D01*
X013938Y010581D02*
X009196Y010581D01*
X008765Y010581D02*
X000280Y010581D01*
X000280Y010523D02*
X005422Y010523D01*
X005477Y010578D02*
X005217Y010318D01*
X005217Y010163D01*
X005632Y010163D01*
X005632Y010103D01*
X005692Y010103D01*
X005692Y010163D01*
X005632Y010163D01*
X005632Y010578D01*
X005477Y010578D01*
X005363Y010464D02*
X000280Y010464D01*
X000280Y010406D02*
X005305Y010406D01*
X005246Y010347D02*
X000280Y010347D01*
X000280Y010289D02*
X005217Y010289D01*
X005217Y010230D02*
X000280Y010230D01*
X000280Y010172D02*
X005217Y010172D01*
X005217Y010103D02*
X005217Y009949D01*
X005477Y009688D01*
X005632Y009688D01*
X005632Y010103D01*
X005217Y010103D01*
X005217Y010055D02*
X000280Y010055D01*
X000280Y010113D02*
X005632Y010113D01*
X005632Y010055D02*
X005692Y010055D01*
X005692Y009996D02*
X005632Y009996D01*
X005632Y009938D02*
X005692Y009938D01*
X005692Y009879D02*
X005632Y009879D01*
X005632Y009821D02*
X005692Y009821D01*
X005692Y009762D02*
X005632Y009762D01*
X005632Y009704D02*
X005692Y009704D01*
X005462Y009704D02*
X000280Y009704D01*
X000280Y009762D02*
X005404Y009762D01*
X005345Y009821D02*
X000280Y009821D01*
X000280Y009879D02*
X005287Y009879D01*
X005228Y009938D02*
X000280Y009938D01*
X000280Y009996D02*
X005217Y009996D01*
X005632Y010172D02*
X005692Y010172D01*
X005692Y010230D02*
X005632Y010230D01*
X005632Y010289D02*
X005692Y010289D01*
X005692Y010347D02*
X005632Y010347D01*
X005632Y010406D02*
X005692Y010406D01*
X005692Y010464D02*
X005632Y010464D01*
X005632Y010523D02*
X005692Y010523D01*
X005830Y011728D02*
X005494Y011728D01*
X005299Y011923D01*
X004619Y011923D01*
X004541Y011916D01*
X004419Y011865D01*
X004419Y011129D01*
X004357Y010980D01*
X004243Y010865D01*
X004093Y010803D01*
X003931Y010803D01*
X003782Y010865D01*
X003667Y010980D01*
X003605Y011129D01*
X003605Y011925D01*
X003667Y012074D01*
X003782Y012189D01*
X003931Y012251D01*
X004093Y012251D01*
X004163Y012222D01*
X004456Y012343D01*
X005239Y012343D01*
X005239Y013219D01*
X005219Y013228D01*
X005104Y013342D01*
X005042Y013492D01*
X005042Y014287D01*
X005104Y014437D01*
X005219Y014551D01*
X005368Y014613D01*
X005530Y014613D01*
X005680Y014551D01*
X005794Y014437D01*
X005856Y014287D01*
X005856Y013492D01*
X005794Y013342D01*
X005680Y013228D01*
X005659Y013219D01*
X005659Y012538D01*
X005830Y012538D01*
X006067Y012301D01*
X006067Y011966D01*
X005830Y011728D01*
X005852Y011751D02*
X007046Y011751D01*
X007069Y011728D02*
X007404Y011728D01*
X007642Y011966D01*
X007642Y012301D01*
X007404Y012538D01*
X007069Y012538D01*
X006832Y012301D01*
X006832Y011966D01*
X007069Y011728D01*
X006987Y011810D02*
X005911Y011810D01*
X005969Y011868D02*
X006929Y011868D01*
X006870Y011927D02*
X006028Y011927D01*
X006067Y011985D02*
X006832Y011985D01*
X006832Y012044D02*
X006067Y012044D01*
X006067Y012102D02*
X006832Y012102D01*
X006832Y012161D02*
X006067Y012161D01*
X006067Y012219D02*
X006832Y012219D01*
X006832Y012278D02*
X006067Y012278D01*
X006032Y012336D02*
X006867Y012336D01*
X006925Y012395D02*
X005973Y012395D01*
X005915Y012453D02*
X006984Y012453D01*
X007042Y012512D02*
X005856Y012512D01*
X005659Y012570D02*
X009645Y012570D01*
X009645Y012581D02*
X009645Y012442D01*
X009698Y012314D01*
X009796Y012217D01*
X009923Y012164D01*
X009940Y012164D01*
X009895Y012118D01*
X009842Y011990D01*
X009842Y011852D01*
X009895Y011724D01*
X009992Y011626D01*
X010120Y011573D01*
X010259Y011573D01*
X010386Y011626D01*
X010484Y011724D01*
X010537Y011852D01*
X010537Y011990D01*
X010484Y012118D01*
X010386Y012216D01*
X010259Y012269D01*
X010242Y012269D01*
X010287Y012314D01*
X010340Y012442D01*
X010340Y012581D01*
X010308Y012658D01*
X010405Y012754D01*
X010405Y012717D01*
X010464Y012658D01*
X010432Y012581D01*
X010432Y012442D01*
X010485Y012314D01*
X010583Y012217D01*
X010711Y012164D01*
X010849Y012164D01*
X010977Y012217D01*
X011075Y012314D01*
X011128Y012442D01*
X011128Y012581D01*
X011075Y012708D01*
X010977Y012806D01*
X010849Y012859D01*
X010711Y012859D01*
X010645Y012832D01*
X010645Y015484D01*
X010671Y015458D01*
X010734Y015416D01*
X010805Y015387D01*
X010880Y015372D01*
X010888Y015372D01*
X010888Y015729D01*
X010948Y015729D01*
X010948Y015372D01*
X010956Y015372D01*
X011031Y015387D01*
X011101Y015416D01*
X011165Y015458D01*
X011219Y015512D01*
X011261Y015576D01*
X011291Y015646D01*
X011306Y015721D01*
X011306Y015729D01*
X011317Y015729D01*
X011317Y015721D01*
X011332Y015646D01*
X011361Y015576D01*
X011404Y015512D01*
X011458Y015458D01*
X011521Y015416D01*
X011592Y015387D01*
X011667Y015372D01*
X011675Y015372D01*
X011675Y015729D01*
X011735Y015729D01*
X011735Y015372D01*
X011743Y015372D01*
X011818Y015387D01*
X011889Y015416D01*
X011952Y015458D01*
X012006Y015512D01*
X012049Y015576D01*
X012078Y015646D01*
X012093Y015721D01*
X012093Y015729D01*
X013159Y015729D01*
X013159Y015671D02*
X012083Y015671D01*
X012093Y015729D02*
X011735Y015729D01*
X011675Y015729D01*
X011317Y015729D01*
X011306Y015729D02*
X010948Y015729D01*
X010888Y015729D01*
X010888Y015671D02*
X010948Y015671D01*
X010948Y015729D02*
X010948Y015789D01*
X011306Y015789D01*
X011306Y015798D01*
X011291Y015873D01*
X011261Y015943D01*
X011219Y016007D01*
X011165Y016061D01*
X011101Y016103D01*
X011031Y016132D01*
X010956Y016147D01*
X010948Y016147D01*
X010948Y015789D01*
X010888Y015789D01*
X010888Y016147D01*
X010880Y016147D01*
X010805Y016132D01*
X010734Y016103D01*
X010671Y016061D01*
X010645Y016035D01*
X010645Y016220D01*
X010721Y016252D01*
X010819Y016350D01*
X010872Y016478D01*
X010872Y016616D01*
X010819Y016744D01*
X010721Y016842D01*
X010593Y016895D01*
X010455Y016895D01*
X010327Y016842D01*
X010229Y016744D01*
X010176Y016616D01*
X010176Y016478D01*
X010229Y016350D01*
X010327Y016252D01*
X010405Y016220D01*
X010405Y015977D01*
X010327Y016054D01*
X010199Y016107D01*
X010061Y016107D01*
X009933Y016054D01*
X009916Y016037D01*
X009746Y016037D01*
X009676Y015967D01*
X009646Y015937D01*
X009638Y015956D01*
X009540Y016054D01*
X009412Y016107D01*
X009274Y016107D01*
X009146Y016054D01*
X009048Y015956D01*
X008995Y015829D01*
X008995Y015690D01*
X009048Y015562D01*
X009146Y015465D01*
X009274Y015412D01*
X009412Y015412D01*
X009540Y015465D01*
X009617Y015541D01*
X009617Y015315D01*
X009687Y015245D01*
X010285Y014647D01*
X010285Y012974D01*
X010139Y012827D01*
X010062Y012859D01*
X009923Y012859D01*
X009796Y012806D01*
X009698Y012708D01*
X009645Y012581D01*
X009665Y012629D02*
X005659Y012629D01*
X005659Y012687D02*
X009689Y012687D01*
X009735Y012746D02*
X005659Y012746D01*
X005659Y012804D02*
X009794Y012804D01*
X010174Y012863D02*
X005659Y012863D01*
X005659Y012921D02*
X010233Y012921D01*
X010285Y012980D02*
X005659Y012980D01*
X005659Y013038D02*
X010285Y013038D01*
X010285Y013097D02*
X005659Y013097D01*
X005659Y013155D02*
X007287Y013155D01*
X007278Y013158D02*
X007345Y013137D01*
X007414Y013126D01*
X007419Y013126D01*
X007419Y013859D01*
X007479Y013859D01*
X007479Y013126D01*
X007484Y013126D01*
X007554Y013137D01*
X007621Y013158D01*
X007683Y013190D01*
X007740Y013232D01*
X007790Y013281D01*
X007831Y013338D01*
X007863Y013401D01*
X007885Y013468D01*
X007896Y013537D01*
X007896Y013859D01*
X007479Y013859D01*
X007479Y013919D01*
X007896Y013919D01*
X007896Y014241D01*
X007885Y014311D01*
X007863Y014378D01*
X007831Y014440D01*
X007790Y014497D01*
X007740Y014547D01*
X007683Y014588D01*
X007621Y014620D01*
X007554Y014642D01*
X007484Y014653D01*
X007479Y014653D01*
X007479Y013919D01*
X007419Y013919D01*
X007419Y013859D01*
X007002Y013859D01*
X007002Y013537D01*
X007013Y013468D01*
X007035Y013401D01*
X007067Y013338D01*
X007108Y013281D01*
X007158Y013232D01*
X007215Y013190D01*
X007278Y013158D01*
X007183Y013214D02*
X006647Y013214D01*
X006680Y013228D02*
X006794Y013342D01*
X006856Y013492D01*
X006856Y014287D01*
X006794Y014437D01*
X006680Y014551D01*
X006530Y014613D01*
X006368Y014613D01*
X006219Y014551D01*
X006104Y014437D01*
X006042Y014287D01*
X006042Y013492D01*
X006104Y013342D01*
X006219Y013228D01*
X006368Y013166D01*
X006530Y013166D01*
X006680Y013228D01*
X006724Y013272D02*
X007117Y013272D01*
X007072Y013331D02*
X006783Y013331D01*
X006814Y013389D02*
X007041Y013389D01*
X007020Y013448D02*
X006838Y013448D01*
X006856Y013506D02*
X007007Y013506D01*
X007002Y013565D02*
X006856Y013565D01*
X006856Y013623D02*
X007002Y013623D01*
X007002Y013682D02*
X006856Y013682D01*
X006856Y013740D02*
X007002Y013740D01*
X007002Y013799D02*
X006856Y013799D01*
X006856Y013857D02*
X007002Y013857D01*
X007002Y013919D02*
X007419Y013919D01*
X007419Y014653D01*
X007414Y014653D01*
X007345Y014642D01*
X007278Y014620D01*
X007215Y014588D01*
X007158Y014547D01*
X007108Y014497D01*
X007067Y014440D01*
X007035Y014378D01*
X007013Y014311D01*
X007002Y014241D01*
X007002Y013919D01*
X007002Y013974D02*
X006856Y013974D01*
X006856Y013916D02*
X007419Y013916D01*
X007419Y013974D02*
X007479Y013974D01*
X007479Y013916D02*
X010285Y013916D01*
X010285Y013974D02*
X007896Y013974D01*
X007896Y014033D02*
X010285Y014033D01*
X010285Y014091D02*
X007896Y014091D01*
X007896Y014150D02*
X010285Y014150D01*
X010285Y014208D02*
X007896Y014208D01*
X007892Y014267D02*
X010285Y014267D01*
X010285Y014325D02*
X007880Y014325D01*
X007860Y014384D02*
X010285Y014384D01*
X010285Y014442D02*
X007830Y014442D01*
X007786Y014501D02*
X010285Y014501D01*
X010285Y014559D02*
X007723Y014559D01*
X007626Y014618D02*
X010285Y014618D01*
X010255Y014676D02*
X004185Y014676D01*
X004148Y014618D02*
X007273Y014618D01*
X007175Y014559D02*
X006660Y014559D01*
X006730Y014501D02*
X007112Y014501D01*
X007068Y014442D02*
X006788Y014442D01*
X006816Y014384D02*
X007038Y014384D01*
X007018Y014325D02*
X006840Y014325D01*
X006856Y014267D02*
X007006Y014267D01*
X007002Y014208D02*
X006856Y014208D01*
X006856Y014150D02*
X007002Y014150D01*
X007002Y014091D02*
X006856Y014091D01*
X006856Y014033D02*
X007002Y014033D01*
X007419Y014033D02*
X007479Y014033D01*
X007479Y014091D02*
X007419Y014091D01*
X007419Y014150D02*
X007479Y014150D01*
X007479Y014208D02*
X007419Y014208D01*
X007419Y014267D02*
X007479Y014267D01*
X007479Y014325D02*
X007419Y014325D01*
X007419Y014384D02*
X007479Y014384D01*
X007479Y014442D02*
X007419Y014442D01*
X007419Y014501D02*
X007479Y014501D01*
X007479Y014559D02*
X007419Y014559D01*
X007419Y014618D02*
X007479Y014618D01*
X007479Y013857D02*
X007419Y013857D01*
X007419Y013799D02*
X007479Y013799D01*
X007479Y013740D02*
X007419Y013740D01*
X007419Y013682D02*
X007479Y013682D01*
X007479Y013623D02*
X007419Y013623D01*
X007419Y013565D02*
X007479Y013565D01*
X007479Y013506D02*
X007419Y013506D01*
X007419Y013448D02*
X007479Y013448D01*
X007479Y013389D02*
X007419Y013389D01*
X007419Y013331D02*
X007479Y013331D01*
X007479Y013272D02*
X007419Y013272D01*
X007419Y013214D02*
X007479Y013214D01*
X007479Y013155D02*
X007419Y013155D01*
X007611Y013155D02*
X010285Y013155D01*
X010285Y013214D02*
X007716Y013214D01*
X007781Y013272D02*
X010285Y013272D01*
X010285Y013331D02*
X007826Y013331D01*
X007857Y013389D02*
X010285Y013389D01*
X010285Y013448D02*
X007879Y013448D01*
X007891Y013506D02*
X010285Y013506D01*
X010285Y013565D02*
X007896Y013565D01*
X007896Y013623D02*
X010285Y013623D01*
X010285Y013682D02*
X007896Y013682D01*
X007896Y013740D02*
X010285Y013740D01*
X010285Y013799D02*
X007896Y013799D01*
X007896Y013857D02*
X010285Y013857D01*
X010645Y013857D02*
X013159Y013857D01*
X013159Y013799D02*
X010645Y013799D01*
X010645Y013740D02*
X013159Y013740D01*
X013159Y013682D02*
X010645Y013682D01*
X010645Y013623D02*
X013159Y013623D01*
X013159Y013565D02*
X010645Y013565D01*
X010645Y013506D02*
X013124Y013506D01*
X013070Y013448D02*
X010645Y013448D01*
X010645Y013389D02*
X013015Y013389D01*
X012960Y013331D02*
X010645Y013331D01*
X010645Y013272D02*
X012905Y013272D01*
X012850Y013214D02*
X010645Y013214D01*
X010645Y013155D02*
X012795Y013155D01*
X012740Y013097D02*
X010645Y013097D01*
X010645Y013038D02*
X012685Y013038D01*
X012630Y012980D02*
X010645Y012980D01*
X010645Y012921D02*
X012575Y012921D01*
X012520Y012863D02*
X011732Y012863D01*
X011751Y012855D02*
X011680Y012884D01*
X011606Y012899D01*
X011597Y012899D01*
X011597Y012541D01*
X011955Y012541D01*
X011955Y012550D01*
X011940Y012625D01*
X011911Y012695D01*
X011869Y012759D01*
X011815Y012813D01*
X011751Y012855D01*
X011823Y012804D02*
X012156Y012804D01*
X012097Y012746D02*
X011877Y012746D01*
X011914Y012687D02*
X012051Y012687D01*
X012027Y012629D02*
X011938Y012629D01*
X011951Y012570D02*
X012007Y012570D01*
X012007Y012512D02*
X011597Y012512D01*
X011597Y012541D02*
X011597Y012481D01*
X011597Y012124D01*
X011606Y012124D01*
X011680Y012139D01*
X011691Y012143D01*
X011666Y012118D01*
X011613Y011990D01*
X011613Y011852D01*
X011666Y011724D01*
X011764Y011626D01*
X011892Y011573D01*
X012030Y011573D01*
X012158Y011626D01*
X012256Y011724D01*
X012309Y011852D01*
X012309Y011990D01*
X012256Y012118D01*
X012158Y012216D01*
X012030Y012269D01*
X011892Y012269D01*
X011860Y012255D01*
X011869Y012264D01*
X011911Y012328D01*
X011940Y012398D01*
X011955Y012473D01*
X011955Y012481D01*
X011597Y012481D01*
X011537Y012481D01*
X011537Y012124D01*
X011529Y012124D01*
X011454Y012139D01*
X011443Y012143D01*
X011468Y012118D01*
X011521Y011990D01*
X011521Y011852D01*
X011468Y011724D01*
X011371Y011626D01*
X011243Y011573D01*
X011104Y011573D01*
X010977Y011626D01*
X010879Y011724D01*
X010826Y011852D01*
X010826Y011990D01*
X010879Y012118D01*
X010977Y012216D01*
X011104Y012269D01*
X011243Y012269D01*
X011275Y012255D01*
X011266Y012264D01*
X011224Y012328D01*
X011194Y012398D01*
X011180Y012473D01*
X011180Y012481D01*
X011537Y012481D01*
X011537Y012541D01*
X011180Y012541D01*
X011180Y012550D01*
X011194Y012625D01*
X011224Y012695D01*
X011266Y012759D01*
X011320Y012813D01*
X011384Y012855D01*
X011454Y012884D01*
X011529Y012899D01*
X011537Y012899D01*
X011537Y012541D01*
X011597Y012541D01*
X011597Y012570D02*
X011537Y012570D01*
X011537Y012512D02*
X011128Y012512D01*
X011128Y012570D02*
X011184Y012570D01*
X011196Y012629D02*
X011108Y012629D01*
X011083Y012687D02*
X011220Y012687D01*
X011258Y012746D02*
X011037Y012746D01*
X010979Y012804D02*
X011312Y012804D01*
X011403Y012863D02*
X010645Y012863D01*
X010525Y012766D02*
X010525Y014283D01*
X010525Y014696D01*
X010525Y016546D01*
X010524Y016547D01*
X010268Y016782D02*
X010046Y016782D01*
X010038Y016794D02*
X009984Y016848D01*
X009920Y016891D01*
X009850Y016920D01*
X009775Y016935D01*
X009767Y016935D01*
X009767Y016577D01*
X010124Y016577D01*
X010124Y016585D01*
X010110Y016660D01*
X010080Y016731D01*
X010038Y016794D01*
X009991Y016841D02*
X010326Y016841D01*
X010221Y016724D02*
X010083Y016724D01*
X010107Y016665D02*
X010197Y016665D01*
X010176Y016607D02*
X010120Y016607D01*
X010176Y016548D02*
X009767Y016548D01*
X009767Y016577D02*
X009767Y016517D01*
X010124Y016517D01*
X010124Y016509D01*
X010110Y016434D01*
X010080Y016363D01*
X010038Y016300D01*
X009984Y016246D01*
X009920Y016203D01*
X009850Y016174D01*
X009775Y016159D01*
X009767Y016159D01*
X009767Y016517D01*
X009707Y016517D01*
X009707Y016159D01*
X009698Y016159D01*
X009623Y016174D01*
X009553Y016203D01*
X009489Y016246D01*
X009435Y016300D01*
X009393Y016363D01*
X009364Y016434D01*
X009349Y016509D01*
X009349Y016517D01*
X009707Y016517D01*
X009707Y016577D01*
X009707Y016935D01*
X009698Y016935D01*
X009623Y016920D01*
X009553Y016891D01*
X009489Y016848D01*
X009435Y016794D01*
X009393Y016731D01*
X009364Y016660D01*
X009349Y016585D01*
X009349Y016577D01*
X009707Y016577D01*
X009767Y016577D01*
X009767Y016607D02*
X009707Y016607D01*
X009707Y016665D02*
X009767Y016665D01*
X009767Y016724D02*
X009707Y016724D01*
X009707Y016782D02*
X009767Y016782D01*
X009767Y016841D02*
X009707Y016841D01*
X009707Y016899D02*
X009767Y016899D01*
X009899Y016899D02*
X011830Y016899D01*
X011821Y016958D02*
X009404Y016958D01*
X009404Y016921D02*
X009404Y017157D01*
X009314Y017375D01*
X009147Y017541D01*
X008929Y017632D01*
X008694Y017632D01*
X008510Y017555D01*
X008510Y017600D01*
X008457Y017728D01*
X008359Y017826D01*
X008231Y017879D01*
X008093Y017879D01*
X007965Y017826D01*
X007867Y017728D01*
X007814Y017600D01*
X007814Y017462D01*
X007867Y017334D01*
X007965Y017236D01*
X008093Y017183D01*
X008230Y017183D01*
X008219Y017157D01*
X008219Y016921D01*
X008230Y016895D01*
X008093Y016895D01*
X007965Y016842D01*
X007867Y016744D01*
X007814Y016616D01*
X007814Y016478D01*
X007867Y016350D01*
X007965Y016252D01*
X008093Y016199D01*
X008231Y016199D01*
X008359Y016252D01*
X008457Y016350D01*
X008510Y016478D01*
X008510Y016523D01*
X008694Y016446D01*
X008929Y016446D01*
X009147Y016537D01*
X009314Y016703D01*
X009404Y016921D01*
X009395Y016899D02*
X009574Y016899D01*
X009482Y016841D02*
X009371Y016841D01*
X009347Y016782D02*
X009428Y016782D01*
X009390Y016724D02*
X009322Y016724D01*
X009366Y016665D02*
X009276Y016665D01*
X009217Y016607D02*
X009353Y016607D01*
X009353Y016490D02*
X009034Y016490D01*
X009159Y016548D02*
X009707Y016548D01*
X009707Y016490D02*
X009767Y016490D01*
X009767Y016431D02*
X009707Y016431D01*
X009707Y016373D02*
X009767Y016373D01*
X009767Y016314D02*
X009707Y016314D01*
X009707Y016256D02*
X009767Y016256D01*
X009767Y016197D02*
X009707Y016197D01*
X009567Y016197D02*
X006757Y016197D01*
X006771Y016203D02*
X006834Y016246D01*
X006888Y016300D01*
X006931Y016363D01*
X006960Y016434D01*
X006975Y016509D01*
X006975Y016517D01*
X006617Y016517D01*
X006617Y016577D01*
X006557Y016577D01*
X006557Y016935D01*
X006549Y016935D01*
X006474Y016920D01*
X006403Y016891D01*
X006340Y016848D01*
X006286Y016794D01*
X006243Y016731D01*
X006214Y016660D01*
X006199Y016585D01*
X006199Y016577D01*
X006557Y016577D01*
X006557Y016517D01*
X006199Y016517D01*
X006199Y016509D01*
X006214Y016434D01*
X006243Y016363D01*
X006286Y016300D01*
X006340Y016246D01*
X006403Y016203D01*
X006474Y016174D01*
X006549Y016159D01*
X006557Y016159D01*
X006557Y016517D01*
X006617Y016517D01*
X006617Y016159D01*
X006625Y016159D01*
X006700Y016174D01*
X006771Y016203D01*
X006844Y016256D02*
X007173Y016256D01*
X007177Y016252D02*
X007305Y016199D01*
X007444Y016199D01*
X007571Y016252D01*
X007669Y016350D01*
X007722Y016478D01*
X007722Y016616D01*
X007669Y016744D01*
X007571Y016842D01*
X007444Y016895D01*
X007305Y016895D01*
X007177Y016842D01*
X007080Y016744D01*
X007027Y016616D01*
X007027Y016478D01*
X007080Y016350D01*
X007177Y016252D01*
X007115Y016314D02*
X006898Y016314D01*
X006935Y016373D02*
X007070Y016373D01*
X007046Y016431D02*
X006959Y016431D01*
X006971Y016490D02*
X007027Y016490D01*
X007027Y016548D02*
X006617Y016548D01*
X006617Y016577D02*
X006975Y016577D01*
X006975Y016585D01*
X006960Y016660D01*
X006931Y016731D01*
X006888Y016794D01*
X006834Y016848D01*
X006771Y016891D01*
X006700Y016920D01*
X006625Y016935D01*
X006617Y016935D01*
X006617Y016577D01*
X006617Y016607D02*
X006557Y016607D01*
X006557Y016665D02*
X006617Y016665D01*
X006617Y016724D02*
X006557Y016724D01*
X006557Y016782D02*
X006617Y016782D01*
X006617Y016841D02*
X006557Y016841D01*
X006557Y016899D02*
X006617Y016899D01*
X006749Y016899D02*
X008228Y016899D01*
X008219Y016958D02*
X005222Y016958D01*
X005222Y017016D02*
X008219Y017016D01*
X008219Y017075D02*
X005222Y017075D01*
X005222Y017133D02*
X008219Y017133D01*
X008072Y017192D02*
X007464Y017192D01*
X007444Y017183D02*
X007571Y017236D01*
X007669Y017334D01*
X007722Y017462D01*
X007722Y017600D01*
X007669Y017728D01*
X007571Y017826D01*
X007444Y017879D01*
X007305Y017879D01*
X007177Y017826D01*
X007080Y017728D01*
X007027Y017600D01*
X007027Y017462D01*
X007080Y017334D01*
X007177Y017236D01*
X007305Y017183D01*
X007444Y017183D01*
X007586Y017250D02*
X007951Y017250D01*
X007892Y017309D02*
X007644Y017309D01*
X007683Y017367D02*
X007853Y017367D01*
X007829Y017426D02*
X007707Y017426D01*
X007722Y017484D02*
X007814Y017484D01*
X007814Y017543D02*
X007722Y017543D01*
X007722Y017601D02*
X007814Y017601D01*
X007839Y017660D02*
X007698Y017660D01*
X007673Y017718D02*
X007863Y017718D01*
X007916Y017777D02*
X007620Y017777D01*
X007549Y017835D02*
X007988Y017835D01*
X007934Y018011D02*
X009105Y018011D01*
X009096Y018017D02*
X009159Y017975D01*
X009230Y017946D01*
X009305Y017931D01*
X009313Y017931D01*
X009313Y018288D01*
X009373Y018288D01*
X009373Y017931D01*
X009381Y017931D01*
X009456Y017946D01*
X009527Y017975D01*
X009590Y018017D01*
X009644Y018071D01*
X009687Y018135D01*
X009716Y018205D01*
X009731Y018280D01*
X009731Y018289D01*
X009373Y018289D01*
X009373Y018349D01*
X009313Y018349D01*
X009313Y018706D01*
X009305Y018706D01*
X009230Y018691D01*
X009159Y018662D01*
X009096Y018620D01*
X009042Y018566D01*
X008999Y018502D01*
X008970Y018432D01*
X008955Y018357D01*
X008955Y018349D01*
X009313Y018349D01*
X009313Y018289D01*
X008955Y018289D01*
X008955Y018280D01*
X008970Y018205D01*
X008999Y018135D01*
X009042Y018071D01*
X009096Y018017D01*
X009044Y018069D02*
X008011Y018069D01*
X007965Y018024D02*
X008063Y018121D01*
X008116Y018249D01*
X008116Y018388D01*
X008063Y018516D01*
X007965Y018613D01*
X007923Y018631D01*
X007890Y018732D01*
X007723Y018962D01*
X007723Y018962D01*
X007723Y018962D01*
X007492Y019129D01*
X007222Y019217D01*
X002392Y019217D01*
X002170Y019126D01*
X002000Y018956D01*
X002000Y018956D01*
X001909Y018734D01*
X001909Y015186D01*
X001889Y015166D01*
X001889Y014975D01*
X002023Y014840D01*
X002214Y014840D01*
X002349Y014975D01*
X002349Y015166D01*
X002329Y015186D01*
X002329Y018614D01*
X002332Y018650D01*
X002359Y018716D01*
X002410Y018767D01*
X002476Y018794D01*
X002512Y018797D01*
X007079Y018797D01*
X007154Y018792D01*
X007297Y018745D01*
X007418Y018657D01*
X007501Y018543D01*
X007473Y018516D01*
X007420Y018388D01*
X007420Y018249D01*
X007473Y018121D01*
X007571Y018024D01*
X007699Y017971D01*
X007837Y017971D01*
X007965Y018024D01*
X008066Y018128D02*
X009004Y018128D01*
X008978Y018186D02*
X008090Y018186D01*
X008114Y018245D02*
X008962Y018245D01*
X008956Y018362D02*
X008116Y018362D01*
X008116Y018303D02*
X009313Y018303D01*
X009313Y018245D02*
X009373Y018245D01*
X009373Y018303D02*
X009783Y018303D01*
X009783Y018249D02*
X009783Y018388D01*
X009835Y018516D01*
X009933Y018613D01*
X010061Y018666D01*
X010199Y018666D01*
X010327Y018613D01*
X010425Y018516D01*
X010478Y018388D01*
X010478Y018249D01*
X010425Y018121D01*
X010327Y018024D01*
X010199Y017971D01*
X010061Y017971D01*
X009933Y018024D01*
X009835Y018121D01*
X009783Y018249D01*
X009784Y018245D02*
X009724Y018245D01*
X009708Y018186D02*
X009809Y018186D01*
X009833Y018128D02*
X009682Y018128D01*
X009642Y018069D02*
X009888Y018069D01*
X009964Y018011D02*
X009581Y018011D01*
X009472Y017952D02*
X011114Y017952D01*
X011173Y017894D02*
X010661Y017894D01*
X010637Y017904D02*
X010562Y017919D01*
X010554Y017919D01*
X010554Y017561D01*
X010912Y017561D01*
X010912Y017569D01*
X010897Y017644D01*
X010868Y017715D01*
X010825Y017778D01*
X010771Y017832D01*
X010708Y017875D01*
X010637Y017904D01*
X010554Y017894D02*
X010494Y017894D01*
X010494Y017919D02*
X010486Y017919D01*
X010411Y017904D01*
X010340Y017875D01*
X010277Y017832D01*
X010223Y017778D01*
X010180Y017715D01*
X010151Y017644D01*
X010136Y017569D01*
X010136Y017561D01*
X010494Y017561D01*
X010494Y017501D01*
X010554Y017501D01*
X010554Y017143D01*
X010562Y017143D01*
X010637Y017158D01*
X010708Y017187D01*
X010771Y017230D01*
X010825Y017284D01*
X010868Y017347D01*
X010897Y017418D01*
X010912Y017493D01*
X010912Y017501D01*
X010554Y017501D01*
X010554Y017561D01*
X010494Y017561D01*
X010494Y017919D01*
X010494Y017835D02*
X010554Y017835D01*
X010554Y017777D02*
X010494Y017777D01*
X010494Y017718D02*
X010554Y017718D01*
X010554Y017660D02*
X010494Y017660D01*
X010494Y017601D02*
X010554Y017601D01*
X010554Y017543D02*
X010964Y017543D01*
X010964Y017601D02*
X010905Y017601D01*
X010890Y017660D02*
X010988Y017660D01*
X011013Y017718D02*
X010865Y017718D01*
X010826Y017777D02*
X011065Y017777D01*
X011137Y017835D02*
X010767Y017835D01*
X010751Y018011D02*
X010297Y018011D01*
X010373Y018069D02*
X010675Y018069D01*
X010620Y018128D02*
X010428Y018128D01*
X010452Y018186D02*
X010596Y018186D01*
X010572Y018245D02*
X010476Y018245D01*
X010478Y018303D02*
X010570Y018303D01*
X010570Y018362D02*
X010478Y018362D01*
X010465Y018420D02*
X010583Y018420D01*
X010608Y018479D02*
X010440Y018479D01*
X010403Y018537D02*
X010645Y018537D01*
X010703Y018596D02*
X010345Y018596D01*
X010228Y018654D02*
X010820Y018654D01*
X011016Y018654D02*
X011510Y018654D01*
X011434Y018596D02*
X011132Y018596D01*
X011191Y018537D02*
X011385Y018537D01*
X011352Y018479D02*
X011228Y018479D01*
X011252Y018420D02*
X011330Y018420D01*
X011318Y018362D02*
X011266Y018362D01*
X011266Y018303D02*
X011675Y018303D01*
X011675Y018362D02*
X011735Y018362D01*
X011735Y018349D02*
X011735Y018706D01*
X011743Y018706D01*
X011818Y018691D01*
X011889Y018662D01*
X011952Y018620D01*
X012006Y018566D01*
X012049Y018502D01*
X012078Y018432D01*
X012093Y018357D01*
X012093Y018349D01*
X011735Y018349D01*
X011735Y018303D02*
X019705Y018303D01*
X019705Y018245D02*
X012086Y018245D01*
X012070Y018186D02*
X019705Y018186D01*
X019705Y018128D02*
X012044Y018128D01*
X012004Y018069D02*
X019705Y018069D01*
X019705Y018011D02*
X011943Y018011D01*
X012181Y017732D02*
X011548Y017137D01*
X011410Y017137D01*
X011311Y017236D01*
X011311Y017531D01*
X011003Y017367D02*
X010876Y017367D01*
X010898Y017426D02*
X010979Y017426D01*
X010964Y017484D02*
X010910Y017484D01*
X010842Y017309D02*
X011042Y017309D01*
X011100Y017250D02*
X010792Y017250D01*
X010714Y017192D02*
X011191Y017192D01*
X011244Y017133D02*
X009404Y017133D01*
X009404Y017075D02*
X011303Y017075D01*
X011242Y016895D02*
X011114Y016842D01*
X011017Y016744D01*
X010964Y016616D01*
X010964Y016478D01*
X011017Y016350D01*
X011114Y016252D01*
X011242Y016199D01*
X011381Y016199D01*
X011508Y016252D01*
X011606Y016350D01*
X011659Y016478D01*
X011659Y016616D01*
X011606Y016744D01*
X011508Y016842D01*
X011381Y016895D01*
X011242Y016895D01*
X011114Y016841D02*
X010722Y016841D01*
X010780Y016782D02*
X011055Y016782D01*
X011008Y016724D02*
X010827Y016724D01*
X010851Y016665D02*
X010984Y016665D01*
X010964Y016607D02*
X010872Y016607D01*
X010872Y016548D02*
X010964Y016548D01*
X010964Y016490D02*
X010872Y016490D01*
X010853Y016431D02*
X010983Y016431D01*
X011007Y016373D02*
X010828Y016373D01*
X010783Y016314D02*
X011052Y016314D01*
X011111Y016256D02*
X010725Y016256D01*
X010645Y016197D02*
X013159Y016197D01*
X013159Y016139D02*
X011785Y016139D01*
X011818Y016132D02*
X011743Y016147D01*
X011735Y016147D01*
X011735Y015789D01*
X012093Y015789D01*
X012093Y015798D01*
X012078Y015873D01*
X012049Y015943D01*
X012006Y016007D01*
X011952Y016061D01*
X011889Y016103D01*
X011818Y016132D01*
X011735Y016139D02*
X011675Y016139D01*
X011675Y016147D02*
X011675Y015789D01*
X011675Y015729D01*
X011675Y015671D02*
X011735Y015671D01*
X011735Y015729D02*
X011735Y015789D01*
X011675Y015789D01*
X011317Y015789D01*
X011317Y015798D01*
X011332Y015873D01*
X011361Y015943D01*
X011404Y016007D01*
X011458Y016061D01*
X011521Y016103D01*
X011592Y016132D01*
X011667Y016147D01*
X011675Y016147D01*
X011625Y016139D02*
X010998Y016139D01*
X010948Y016139D02*
X010888Y016139D01*
X010838Y016139D02*
X010645Y016139D01*
X010645Y016080D02*
X010700Y016080D01*
X010888Y016080D02*
X010948Y016080D01*
X010948Y016022D02*
X010888Y016022D01*
X010888Y015963D02*
X010948Y015963D01*
X010948Y015905D02*
X010888Y015905D01*
X010888Y015846D02*
X010948Y015846D01*
X010948Y015788D02*
X011675Y015788D01*
X011675Y015846D02*
X011735Y015846D01*
X011735Y015788D02*
X013159Y015788D01*
X013159Y015846D02*
X012083Y015846D01*
X012065Y015905D02*
X013159Y015905D01*
X013159Y015963D02*
X012035Y015963D01*
X011991Y016022D02*
X013159Y016022D01*
X013159Y016080D02*
X011923Y016080D01*
X011735Y016080D02*
X011675Y016080D01*
X011675Y016022D02*
X011735Y016022D01*
X011735Y015963D02*
X011675Y015963D01*
X011675Y015905D02*
X011735Y015905D01*
X011735Y015612D02*
X011675Y015612D01*
X011675Y015554D02*
X011735Y015554D01*
X011735Y015495D02*
X011675Y015495D01*
X011675Y015437D02*
X011735Y015437D01*
X011735Y015378D02*
X011675Y015378D01*
X011633Y015378D02*
X010990Y015378D01*
X010948Y015378D02*
X010888Y015378D01*
X010846Y015378D02*
X010645Y015378D01*
X010645Y015320D02*
X013159Y015320D01*
X013159Y015378D02*
X011777Y015378D01*
X011920Y015437D02*
X013159Y015437D01*
X013159Y015495D02*
X011990Y015495D01*
X012034Y015554D02*
X013159Y015554D01*
X013159Y015612D02*
X012064Y015612D01*
X011490Y015437D02*
X011133Y015437D01*
X011202Y015495D02*
X011421Y015495D01*
X011376Y015554D02*
X011247Y015554D01*
X011277Y015612D02*
X011346Y015612D01*
X011327Y015671D02*
X011295Y015671D01*
X011296Y015846D02*
X011327Y015846D01*
X011346Y015905D02*
X011277Y015905D01*
X011248Y015963D02*
X011375Y015963D01*
X011419Y016022D02*
X011204Y016022D01*
X011135Y016080D02*
X011487Y016080D01*
X011512Y016256D02*
X013159Y016256D01*
X013159Y016314D02*
X011571Y016314D01*
X011616Y016373D02*
X013159Y016373D01*
X013159Y016431D02*
X011640Y016431D01*
X011659Y016490D02*
X012191Y016490D01*
X012066Y016548D02*
X011659Y016548D01*
X011659Y016607D02*
X012008Y016607D01*
X011949Y016665D02*
X011639Y016665D01*
X011615Y016724D02*
X011903Y016724D01*
X011879Y016782D02*
X011568Y016782D01*
X011509Y016841D02*
X011854Y016841D01*
X011821Y017016D02*
X011594Y017016D01*
X011577Y017016D02*
X009404Y017016D01*
X009389Y017192D02*
X009647Y017192D01*
X009667Y017183D02*
X009806Y017183D01*
X009934Y017236D01*
X010031Y017334D01*
X010084Y017462D01*
X010084Y017600D01*
X010031Y017728D01*
X009934Y017826D01*
X009806Y017879D01*
X009667Y017879D01*
X009540Y017826D01*
X009442Y017728D01*
X009389Y017600D01*
X009389Y017462D01*
X009442Y017334D01*
X009540Y017236D01*
X009667Y017183D01*
X009525Y017250D02*
X009365Y017250D01*
X009341Y017309D02*
X009467Y017309D01*
X009428Y017367D02*
X009317Y017367D01*
X009263Y017426D02*
X009404Y017426D01*
X009389Y017484D02*
X009204Y017484D01*
X009143Y017543D02*
X009389Y017543D01*
X009389Y017601D02*
X009002Y017601D01*
X008621Y017601D02*
X008509Y017601D01*
X008485Y017660D02*
X009414Y017660D01*
X009438Y017718D02*
X008461Y017718D01*
X008408Y017777D02*
X009491Y017777D01*
X009562Y017835D02*
X008336Y017835D01*
X008102Y018420D02*
X008968Y018420D01*
X008990Y018479D02*
X008078Y018479D01*
X008041Y018537D02*
X009023Y018537D01*
X009072Y018596D02*
X007983Y018596D01*
X007915Y018654D02*
X009148Y018654D01*
X009313Y018654D02*
X009373Y018654D01*
X009381Y018706D02*
X009373Y018706D01*
X009373Y018349D01*
X009731Y018349D01*
X009731Y018357D01*
X009716Y018432D01*
X009687Y018502D01*
X009644Y018566D01*
X009590Y018620D01*
X009527Y018662D01*
X009456Y018691D01*
X009381Y018706D01*
X009373Y018596D02*
X009313Y018596D01*
X009313Y018537D02*
X009373Y018537D01*
X009373Y018479D02*
X009313Y018479D01*
X009313Y018420D02*
X009373Y018420D01*
X009373Y018362D02*
X009313Y018362D01*
X009313Y018186D02*
X009373Y018186D01*
X009373Y018128D02*
X009313Y018128D01*
X009313Y018069D02*
X009373Y018069D01*
X009373Y018011D02*
X009313Y018011D01*
X009313Y017952D02*
X009373Y017952D01*
X009213Y017952D02*
X005535Y017952D01*
X005519Y017946D02*
X005590Y017975D01*
X005653Y018017D01*
X005707Y018071D01*
X005750Y018135D01*
X005779Y018205D01*
X005794Y018280D01*
X005794Y018289D01*
X005436Y018289D01*
X005436Y018349D01*
X005376Y018349D01*
X005376Y018706D01*
X005368Y018706D01*
X005293Y018691D01*
X005222Y018662D01*
X005159Y018620D01*
X005105Y018566D01*
X005062Y018502D01*
X005033Y018432D01*
X005018Y018357D01*
X005018Y018349D01*
X005376Y018349D01*
X005376Y018289D01*
X005018Y018289D01*
X005018Y018280D01*
X005033Y018205D01*
X005062Y018135D01*
X005105Y018071D01*
X005159Y018017D01*
X005222Y017975D01*
X005293Y017946D01*
X005368Y017931D01*
X005376Y017931D01*
X005376Y018288D01*
X005436Y018288D01*
X005436Y017931D01*
X005444Y017931D01*
X005519Y017946D01*
X005436Y017952D02*
X005376Y017952D01*
X005376Y018011D02*
X005436Y018011D01*
X005436Y018069D02*
X005376Y018069D01*
X005376Y018128D02*
X005436Y018128D01*
X005436Y018186D02*
X005376Y018186D01*
X005376Y018245D02*
X005436Y018245D01*
X005436Y018303D02*
X005846Y018303D01*
X005846Y018249D02*
X005898Y018121D01*
X005996Y018024D01*
X006124Y017971D01*
X006262Y017971D01*
X006390Y018024D01*
X006488Y018121D01*
X006541Y018249D01*
X006541Y018388D01*
X006488Y018516D01*
X006390Y018613D01*
X006262Y018666D01*
X006124Y018666D01*
X005996Y018613D01*
X005898Y018516D01*
X005846Y018388D01*
X005846Y018249D01*
X005847Y018245D02*
X005787Y018245D01*
X005771Y018186D02*
X005872Y018186D01*
X005896Y018128D02*
X005745Y018128D01*
X005705Y018069D02*
X005951Y018069D01*
X006027Y018011D02*
X005644Y018011D01*
X005730Y017879D02*
X005603Y017826D01*
X005505Y017728D01*
X005452Y017600D01*
X005452Y017462D01*
X005505Y017334D01*
X005603Y017236D01*
X005730Y017183D01*
X005869Y017183D01*
X005997Y017236D01*
X006094Y017334D01*
X006147Y017462D01*
X006147Y017600D01*
X006094Y017728D01*
X005997Y017826D01*
X005869Y017879D01*
X005730Y017879D01*
X005625Y017835D02*
X005186Y017835D01*
X005209Y017826D02*
X005081Y017879D01*
X005073Y017879D01*
X004931Y018164D01*
X004966Y018249D01*
X004966Y018388D01*
X004913Y018516D01*
X004816Y018613D01*
X004688Y018666D01*
X004549Y018666D01*
X004421Y018613D01*
X004324Y018516D01*
X004271Y018388D01*
X004271Y018249D01*
X004324Y018121D01*
X004421Y018024D01*
X004549Y017971D01*
X004558Y017971D01*
X004700Y017686D01*
X004664Y017600D01*
X004664Y017462D01*
X004717Y017334D01*
X004802Y017249D01*
X004802Y016829D01*
X004730Y016757D01*
X004507Y016757D01*
X004422Y016842D01*
X004294Y016895D01*
X004156Y016895D01*
X004028Y016842D01*
X003930Y016744D01*
X003877Y016616D01*
X003877Y016478D01*
X003930Y016350D01*
X004028Y016252D01*
X004156Y016199D01*
X004294Y016199D01*
X004422Y016252D01*
X004507Y016337D01*
X004672Y016337D01*
X004558Y016107D01*
X004549Y016107D01*
X004421Y016054D01*
X004324Y015956D01*
X004271Y015829D01*
X004271Y015690D01*
X004293Y015637D01*
X003200Y013901D01*
X003026Y013901D01*
X002838Y013713D01*
X002474Y013667D01*
X002008Y013497D01*
X001591Y013227D01*
X001591Y013227D01*
X001244Y012871D01*
X000986Y012447D01*
X000918Y012245D01*
X000782Y012189D01*
X000667Y012074D01*
X000605Y011925D01*
X000605Y011129D01*
X000667Y010980D01*
X000782Y010865D01*
X000931Y010803D01*
X001093Y010803D01*
X001243Y010865D01*
X001357Y010980D01*
X001419Y011129D01*
X001419Y011925D01*
X001357Y012074D01*
X001326Y012106D01*
X001379Y012264D01*
X001587Y012605D01*
X001866Y012891D01*
X002201Y013108D01*
X002576Y013245D01*
X002838Y013278D01*
X003026Y013091D01*
X003361Y013091D01*
X003598Y013328D01*
X003598Y013663D01*
X003567Y013695D01*
X004648Y015412D01*
X004688Y015412D01*
X004816Y015465D01*
X004913Y015562D01*
X004966Y015690D01*
X004966Y015829D01*
X004931Y015914D01*
X005073Y016199D01*
X005081Y016199D01*
X005209Y016252D01*
X005307Y016350D01*
X005360Y016478D01*
X005360Y016616D01*
X005307Y016744D01*
X005222Y016829D01*
X005222Y017249D01*
X005307Y017334D01*
X005360Y017462D01*
X005360Y017600D01*
X005307Y017728D01*
X005209Y017826D01*
X005258Y017777D02*
X005554Y017777D01*
X005501Y017718D02*
X005311Y017718D01*
X005335Y017660D02*
X005477Y017660D01*
X005452Y017601D02*
X005360Y017601D01*
X005360Y017543D02*
X005452Y017543D01*
X005452Y017484D02*
X005360Y017484D01*
X005345Y017426D02*
X005467Y017426D01*
X005491Y017367D02*
X005321Y017367D01*
X005282Y017309D02*
X005530Y017309D01*
X005588Y017250D02*
X005223Y017250D01*
X005222Y017192D02*
X005710Y017192D01*
X005890Y017192D02*
X006497Y017192D01*
X006518Y017183D02*
X006656Y017183D01*
X006784Y017236D01*
X006882Y017334D01*
X006935Y017462D01*
X006935Y017600D01*
X006882Y017728D01*
X006784Y017826D01*
X006656Y017879D01*
X006518Y017879D01*
X006390Y017826D01*
X006292Y017728D01*
X006239Y017600D01*
X006239Y017462D01*
X006292Y017334D01*
X006390Y017236D01*
X006518Y017183D01*
X006376Y017250D02*
X006011Y017250D01*
X006069Y017309D02*
X006317Y017309D01*
X006278Y017367D02*
X006108Y017367D01*
X006132Y017426D02*
X006254Y017426D01*
X006239Y017484D02*
X006147Y017484D01*
X006147Y017543D02*
X006239Y017543D01*
X006240Y017601D02*
X006147Y017601D01*
X006123Y017660D02*
X006264Y017660D01*
X006288Y017718D02*
X006098Y017718D01*
X006046Y017777D02*
X006341Y017777D01*
X006413Y017835D02*
X005974Y017835D01*
X006360Y018011D02*
X006814Y018011D01*
X006784Y018024D02*
X006912Y017971D01*
X007050Y017971D01*
X007178Y018024D01*
X007276Y018121D01*
X007329Y018249D01*
X007329Y018388D01*
X007276Y018516D01*
X007178Y018613D01*
X007050Y018666D01*
X006912Y018666D01*
X006784Y018613D01*
X006686Y018516D01*
X006633Y018388D01*
X006633Y018249D01*
X006686Y018121D01*
X006784Y018024D01*
X006738Y018069D02*
X006436Y018069D01*
X006491Y018128D02*
X006683Y018128D01*
X006659Y018186D02*
X006515Y018186D01*
X006539Y018245D02*
X006635Y018245D01*
X006633Y018303D02*
X006541Y018303D01*
X006541Y018362D02*
X006633Y018362D01*
X006646Y018420D02*
X006528Y018420D01*
X006503Y018479D02*
X006671Y018479D01*
X006708Y018537D02*
X006466Y018537D01*
X006408Y018596D02*
X006766Y018596D01*
X006883Y018654D02*
X006291Y018654D01*
X006095Y018654D02*
X005601Y018654D01*
X005590Y018662D02*
X005653Y018620D01*
X005707Y018566D01*
X005750Y018502D01*
X005779Y018432D01*
X005794Y018357D01*
X005794Y018349D01*
X005436Y018349D01*
X005436Y018706D01*
X005444Y018706D01*
X005519Y018691D01*
X005590Y018662D01*
X005677Y018596D02*
X005979Y018596D01*
X005920Y018537D02*
X005726Y018537D01*
X005759Y018479D02*
X005883Y018479D01*
X005859Y018420D02*
X005781Y018420D01*
X005793Y018362D02*
X005846Y018362D01*
X005436Y018362D02*
X005376Y018362D01*
X005376Y018420D02*
X005436Y018420D01*
X005436Y018479D02*
X005376Y018479D01*
X005376Y018537D02*
X005436Y018537D01*
X005436Y018596D02*
X005376Y018596D01*
X005376Y018654D02*
X005436Y018654D01*
X005211Y018654D02*
X004716Y018654D01*
X004833Y018596D02*
X005135Y018596D01*
X005086Y018537D02*
X004891Y018537D01*
X004929Y018479D02*
X005053Y018479D01*
X005031Y018420D02*
X004953Y018420D01*
X004966Y018362D02*
X005019Y018362D01*
X004966Y018303D02*
X005376Y018303D01*
X005041Y018186D02*
X004940Y018186D01*
X004949Y018128D02*
X005067Y018128D01*
X005107Y018069D02*
X004978Y018069D01*
X005007Y018011D02*
X005168Y018011D01*
X005276Y017952D02*
X005036Y017952D01*
X005066Y017894D02*
X010387Y017894D01*
X010281Y017835D02*
X009911Y017835D01*
X009983Y017777D02*
X010222Y017777D01*
X010183Y017718D02*
X010035Y017718D01*
X010060Y017660D02*
X010158Y017660D01*
X010143Y017601D02*
X010084Y017601D01*
X010084Y017543D02*
X010494Y017543D01*
X010494Y017501D02*
X010136Y017501D01*
X010136Y017493D01*
X010151Y017418D01*
X010180Y017347D01*
X010223Y017284D01*
X010277Y017230D01*
X010340Y017187D01*
X010411Y017158D01*
X010486Y017143D01*
X010494Y017143D01*
X010494Y017501D01*
X010494Y017484D02*
X010554Y017484D01*
X010554Y017426D02*
X010494Y017426D01*
X010494Y017367D02*
X010554Y017367D01*
X010554Y017309D02*
X010494Y017309D01*
X010494Y017250D02*
X010554Y017250D01*
X010554Y017192D02*
X010494Y017192D01*
X010334Y017192D02*
X009827Y017192D01*
X009948Y017250D02*
X010256Y017250D01*
X010206Y017309D02*
X010006Y017309D01*
X010045Y017367D02*
X010172Y017367D01*
X010150Y017426D02*
X010069Y017426D01*
X010084Y017484D02*
X010138Y017484D01*
X010918Y018319D02*
X011350Y017886D01*
X012773Y017886D01*
X013399Y017261D01*
X013399Y012708D01*
X013142Y012511D01*
X012794Y012512D02*
X012703Y012512D01*
X012703Y012570D02*
X012794Y012570D01*
X012814Y012629D02*
X012683Y012629D01*
X012685Y012687D02*
X012839Y012687D01*
X012885Y012746D02*
X012740Y012746D01*
X012794Y012804D02*
X012943Y012804D01*
X012849Y012863D02*
X013279Y012863D01*
X013279Y012921D02*
X012904Y012921D01*
X012959Y012980D02*
X013279Y012980D01*
X013279Y013038D02*
X013014Y013038D01*
X013069Y013097D02*
X013279Y013097D01*
X013279Y013155D02*
X013124Y013155D01*
X013179Y013214D02*
X013279Y013214D01*
X013279Y013272D02*
X013234Y013272D01*
X013279Y013496D02*
X013279Y017211D01*
X012727Y017732D01*
X012181Y017732D01*
X012604Y017601D02*
X012690Y017601D01*
X012746Y017543D02*
X012752Y017543D01*
X012806Y017484D02*
X012814Y017484D01*
X012865Y017426D02*
X012876Y017426D01*
X012919Y017367D02*
X012938Y017367D01*
X012943Y017309D02*
X013000Y017309D01*
X012968Y017250D02*
X013062Y017250D01*
X013124Y017192D02*
X012992Y017192D01*
X013006Y017133D02*
X013159Y017133D01*
X013159Y017075D02*
X013006Y017075D01*
X013006Y017016D02*
X013159Y017016D01*
X013159Y016958D02*
X013006Y016958D01*
X012997Y016899D02*
X013159Y016899D01*
X013159Y016841D02*
X012973Y016841D01*
X012949Y016782D02*
X013159Y016782D01*
X013159Y016724D02*
X012925Y016724D01*
X012878Y016665D02*
X013159Y016665D01*
X013159Y016607D02*
X012820Y016607D01*
X012761Y016548D02*
X013159Y016548D01*
X013159Y016490D02*
X012637Y016490D01*
X013519Y016490D02*
X019705Y016490D01*
X019705Y016548D02*
X013519Y016548D01*
X013519Y016607D02*
X019705Y016607D01*
X019705Y016665D02*
X013519Y016665D01*
X013519Y016724D02*
X019705Y016724D01*
X019705Y016782D02*
X013519Y016782D01*
X013519Y016841D02*
X019705Y016841D01*
X019705Y016899D02*
X013519Y016899D01*
X013519Y016958D02*
X019705Y016958D01*
X019705Y017016D02*
X013519Y017016D01*
X013519Y017075D02*
X019705Y017075D01*
X019705Y017133D02*
X013519Y017133D01*
X013519Y017192D02*
X019705Y017192D01*
X019705Y017250D02*
X013519Y017250D01*
X013519Y017309D02*
X019705Y017309D01*
X019705Y017367D02*
X013462Y017367D01*
X013403Y017426D02*
X019705Y017426D01*
X019705Y017484D02*
X013345Y017484D01*
X013286Y017543D02*
X019705Y017543D01*
X019705Y017601D02*
X013228Y017601D01*
X013169Y017660D02*
X019705Y017660D01*
X019705Y017718D02*
X013111Y017718D01*
X013052Y017777D02*
X019705Y017777D01*
X019705Y017835D02*
X012994Y017835D01*
X012935Y017894D02*
X019705Y017894D01*
X019705Y017952D02*
X012877Y017952D01*
X012092Y018362D02*
X019705Y018362D01*
X019705Y018420D02*
X012080Y018420D01*
X012058Y018479D02*
X019705Y018479D01*
X019705Y018537D02*
X012025Y018537D01*
X011976Y018596D02*
X019705Y018596D01*
X019705Y018654D02*
X011900Y018654D01*
X011735Y018654D02*
X011675Y018654D01*
X011675Y018596D02*
X011735Y018596D01*
X011735Y018537D02*
X011675Y018537D01*
X011675Y018479D02*
X011735Y018479D01*
X011735Y018420D02*
X011675Y018420D01*
X011324Y018245D02*
X011264Y018245D01*
X011239Y018186D02*
X011340Y018186D01*
X011366Y018128D02*
X011278Y018128D01*
X011337Y018069D02*
X011406Y018069D01*
X011395Y018011D02*
X011467Y018011D01*
X011844Y017250D02*
X011860Y017250D01*
X011836Y017192D02*
X011781Y017192D01*
X011821Y017133D02*
X011719Y017133D01*
X011656Y017075D02*
X011821Y017075D01*
X010405Y016197D02*
X009906Y016197D01*
X009994Y016256D02*
X010323Y016256D01*
X010265Y016314D02*
X010048Y016314D01*
X010084Y016373D02*
X010220Y016373D01*
X010195Y016431D02*
X010109Y016431D01*
X010121Y016490D02*
X010176Y016490D01*
X010264Y016080D02*
X010405Y016080D01*
X010405Y016022D02*
X010360Y016022D01*
X010405Y016139D02*
X005486Y016139D01*
X005519Y016132D02*
X005444Y016147D01*
X005436Y016147D01*
X005436Y015789D01*
X005794Y015789D01*
X005794Y015798D01*
X005779Y015873D01*
X005750Y015943D01*
X005707Y016007D01*
X005653Y016061D01*
X005590Y016103D01*
X005519Y016132D01*
X005436Y016139D02*
X005376Y016139D01*
X005376Y016147D02*
X005376Y015789D01*
X005376Y015729D01*
X005436Y015729D01*
X005436Y015372D01*
X005444Y015372D01*
X005519Y015387D01*
X005590Y015416D01*
X005653Y015458D01*
X005707Y015512D01*
X005750Y015576D01*
X005779Y015646D01*
X005794Y015721D01*
X005794Y015729D01*
X005846Y015729D01*
X005846Y015690D02*
X005898Y015562D01*
X005996Y015465D01*
X006124Y015412D01*
X006262Y015412D01*
X006390Y015465D01*
X006488Y015562D01*
X006541Y015690D01*
X006541Y015829D01*
X006488Y015956D01*
X006390Y016054D01*
X006262Y016107D01*
X006124Y016107D01*
X005996Y016054D01*
X005898Y015956D01*
X005846Y015829D01*
X005846Y015690D01*
X005854Y015671D02*
X005784Y015671D01*
X005794Y015729D02*
X005436Y015729D01*
X005376Y015729D01*
X005376Y015372D01*
X005368Y015372D01*
X005293Y015387D01*
X005222Y015416D01*
X005159Y015458D01*
X005105Y015512D01*
X005062Y015576D01*
X005033Y015646D01*
X005018Y015721D01*
X005018Y015729D01*
X004966Y015729D01*
X005018Y015729D02*
X005376Y015729D01*
X005376Y015671D02*
X005436Y015671D01*
X005436Y015729D02*
X005436Y015789D01*
X005376Y015789D01*
X005018Y015789D01*
X005018Y015798D01*
X005033Y015873D01*
X005062Y015943D01*
X005105Y016007D01*
X005159Y016061D01*
X005222Y016103D01*
X005293Y016132D01*
X005368Y016147D01*
X005376Y016147D01*
X005326Y016139D02*
X005043Y016139D01*
X005072Y016197D02*
X006417Y016197D01*
X006330Y016256D02*
X006001Y016256D01*
X005997Y016252D02*
X006094Y016350D01*
X006147Y016478D01*
X006147Y016616D01*
X006094Y016744D01*
X005997Y016842D01*
X005869Y016895D01*
X005730Y016895D01*
X005603Y016842D01*
X005505Y016744D01*
X005452Y016616D01*
X005452Y016478D01*
X005505Y016350D01*
X005603Y016252D01*
X005730Y016199D01*
X005869Y016199D01*
X005997Y016252D01*
X006059Y016314D02*
X006276Y016314D01*
X006239Y016373D02*
X006104Y016373D01*
X006128Y016431D02*
X006215Y016431D01*
X006203Y016490D02*
X006147Y016490D01*
X006147Y016548D02*
X006557Y016548D01*
X006557Y016490D02*
X006617Y016490D01*
X006617Y016431D02*
X006557Y016431D01*
X006557Y016373D02*
X006617Y016373D01*
X006617Y016314D02*
X006557Y016314D01*
X006557Y016256D02*
X006617Y016256D01*
X006617Y016197D02*
X006557Y016197D01*
X006423Y016022D02*
X006751Y016022D01*
X006784Y016054D02*
X006686Y015956D01*
X006633Y015829D01*
X006633Y015690D01*
X006686Y015562D01*
X006784Y015465D01*
X006912Y015412D01*
X007050Y015412D01*
X007178Y015465D01*
X007276Y015562D01*
X007329Y015690D01*
X007329Y015829D01*
X007276Y015956D01*
X007178Y016054D01*
X007050Y016107D01*
X006912Y016107D01*
X006784Y016054D01*
X006847Y016080D02*
X006327Y016080D01*
X006481Y015963D02*
X006693Y015963D01*
X006665Y015905D02*
X006510Y015905D01*
X006534Y015846D02*
X006640Y015846D01*
X006633Y015788D02*
X006541Y015788D01*
X006541Y015729D02*
X006633Y015729D01*
X006641Y015671D02*
X006533Y015671D01*
X006509Y015612D02*
X006665Y015612D01*
X006694Y015554D02*
X006480Y015554D01*
X006421Y015495D02*
X006753Y015495D01*
X006851Y015437D02*
X006323Y015437D01*
X006063Y015437D02*
X005621Y015437D01*
X005690Y015495D02*
X005965Y015495D01*
X005907Y015554D02*
X005735Y015554D01*
X005765Y015612D02*
X005878Y015612D01*
X005846Y015788D02*
X005436Y015788D01*
X005436Y015846D02*
X005376Y015846D01*
X005376Y015788D02*
X004966Y015788D01*
X004959Y015846D02*
X005028Y015846D01*
X005046Y015905D02*
X004935Y015905D01*
X004955Y015963D02*
X005076Y015963D01*
X005120Y016022D02*
X004985Y016022D01*
X005014Y016080D02*
X005188Y016080D01*
X005213Y016256D02*
X005599Y016256D01*
X005540Y016314D02*
X005272Y016314D01*
X005317Y016373D02*
X005495Y016373D01*
X005471Y016431D02*
X005341Y016431D01*
X005360Y016490D02*
X005452Y016490D01*
X005452Y016548D02*
X005360Y016548D01*
X005360Y016607D02*
X005452Y016607D01*
X005472Y016665D02*
X005340Y016665D01*
X005315Y016724D02*
X005496Y016724D01*
X005543Y016782D02*
X005268Y016782D01*
X005222Y016841D02*
X005602Y016841D01*
X005222Y016899D02*
X006425Y016899D01*
X006333Y016841D02*
X005997Y016841D01*
X006056Y016782D02*
X006278Y016782D01*
X006241Y016724D02*
X006103Y016724D01*
X006127Y016665D02*
X006216Y016665D01*
X006204Y016607D02*
X006147Y016607D01*
X006059Y016080D02*
X005624Y016080D01*
X005692Y016022D02*
X005964Y016022D01*
X005905Y015963D02*
X005736Y015963D01*
X005765Y015905D02*
X005877Y015905D01*
X005853Y015846D02*
X005784Y015846D01*
X005436Y015905D02*
X005376Y015905D01*
X005376Y015963D02*
X005436Y015963D01*
X005436Y016022D02*
X005376Y016022D01*
X005376Y016080D02*
X005436Y016080D01*
X005436Y015612D02*
X005376Y015612D01*
X005376Y015554D02*
X005436Y015554D01*
X005436Y015495D02*
X005376Y015495D01*
X005376Y015437D02*
X005436Y015437D01*
X005436Y015378D02*
X005376Y015378D01*
X005334Y015378D02*
X004627Y015378D01*
X004590Y015320D02*
X009617Y015320D01*
X009617Y015378D02*
X005478Y015378D01*
X005191Y015437D02*
X004749Y015437D01*
X004846Y015495D02*
X005122Y015495D01*
X005077Y015554D02*
X004905Y015554D01*
X004934Y015612D02*
X005047Y015612D01*
X005028Y015671D02*
X004958Y015671D01*
X004553Y015261D02*
X009670Y015261D01*
X009729Y015203D02*
X004516Y015203D01*
X004479Y015144D02*
X009787Y015144D01*
X009846Y015086D02*
X004443Y015086D01*
X004406Y015027D02*
X009904Y015027D01*
X009963Y014969D02*
X004369Y014969D01*
X004332Y014910D02*
X010021Y014910D01*
X010080Y014852D02*
X004295Y014852D01*
X004258Y014793D02*
X010138Y014793D01*
X010197Y014735D02*
X004222Y014735D01*
X004111Y014559D02*
X005239Y014559D01*
X005169Y014501D02*
X004074Y014501D01*
X004037Y014442D02*
X005110Y014442D01*
X005082Y014384D02*
X004001Y014384D01*
X003964Y014325D02*
X005058Y014325D01*
X005042Y014267D02*
X003927Y014267D01*
X003890Y014208D02*
X005042Y014208D01*
X005042Y014150D02*
X003853Y014150D01*
X003817Y014091D02*
X005042Y014091D01*
X005042Y014033D02*
X003780Y014033D01*
X003743Y013974D02*
X005042Y013974D01*
X005042Y013916D02*
X004402Y013916D01*
X004378Y013941D02*
X004638Y013680D01*
X004638Y013526D01*
X004223Y013526D01*
X004163Y013526D01*
X004163Y013941D01*
X004009Y013941D01*
X003748Y013680D01*
X003748Y013526D01*
X004163Y013526D01*
X004163Y013466D01*
X003748Y013466D01*
X003748Y013311D01*
X004009Y013051D01*
X004163Y013051D01*
X004163Y013466D01*
X004223Y013466D01*
X004223Y013526D01*
X004223Y013941D01*
X004378Y013941D01*
X004461Y013857D02*
X005042Y013857D01*
X005042Y013799D02*
X004519Y013799D01*
X004578Y013740D02*
X005042Y013740D01*
X005042Y013682D02*
X004636Y013682D01*
X004638Y013623D02*
X005042Y013623D01*
X005042Y013565D02*
X004638Y013565D01*
X004638Y013466D02*
X004223Y013466D01*
X004223Y013051D01*
X004378Y013051D01*
X004638Y013311D01*
X004638Y013466D01*
X004638Y013448D02*
X005060Y013448D01*
X005042Y013506D02*
X004223Y013506D01*
X004223Y013448D02*
X004163Y013448D01*
X004163Y013506D02*
X003598Y013506D01*
X003598Y013448D02*
X003748Y013448D01*
X003748Y013389D02*
X003598Y013389D01*
X003598Y013331D02*
X003748Y013331D01*
X003787Y013272D02*
X003543Y013272D01*
X003484Y013214D02*
X003846Y013214D01*
X003904Y013155D02*
X003426Y013155D01*
X003367Y013097D02*
X003963Y013097D01*
X004163Y013097D02*
X004223Y013097D01*
X004223Y013155D02*
X004163Y013155D01*
X004163Y013214D02*
X004223Y013214D01*
X004223Y013272D02*
X004163Y013272D01*
X004163Y013331D02*
X004223Y013331D01*
X004223Y013389D02*
X004163Y013389D01*
X004163Y013565D02*
X004223Y013565D01*
X004223Y013623D02*
X004163Y013623D01*
X004163Y013682D02*
X004223Y013682D01*
X004223Y013740D02*
X004163Y013740D01*
X004163Y013799D02*
X004223Y013799D01*
X004223Y013857D02*
X004163Y013857D01*
X004163Y013916D02*
X004223Y013916D01*
X003984Y013916D02*
X003706Y013916D01*
X003669Y013857D02*
X003926Y013857D01*
X003867Y013799D02*
X003632Y013799D01*
X003596Y013740D02*
X003809Y013740D01*
X003750Y013682D02*
X003580Y013682D01*
X003598Y013623D02*
X003748Y013623D01*
X003748Y013565D02*
X003598Y013565D01*
X003210Y013916D02*
X000280Y013916D01*
X000280Y013974D02*
X003247Y013974D01*
X003283Y014033D02*
X000280Y014033D01*
X000280Y014091D02*
X003320Y014091D01*
X003357Y014150D02*
X000280Y014150D01*
X000280Y014208D02*
X003394Y014208D01*
X003431Y014267D02*
X000280Y014267D01*
X000280Y014325D02*
X003468Y014325D01*
X003504Y014384D02*
X000280Y014384D01*
X000280Y014442D02*
X003541Y014442D01*
X003578Y014501D02*
X000280Y014501D01*
X000280Y014559D02*
X003615Y014559D01*
X003652Y014618D02*
X000280Y014618D01*
X000280Y014676D02*
X003689Y014676D01*
X003725Y014735D02*
X000280Y014735D01*
X000280Y014793D02*
X003762Y014793D01*
X003799Y014852D02*
X002225Y014852D01*
X002284Y014910D02*
X003836Y014910D01*
X003873Y014969D02*
X002342Y014969D01*
X002349Y015027D02*
X003909Y015027D01*
X003946Y015086D02*
X002349Y015086D01*
X002349Y015144D02*
X003983Y015144D01*
X004020Y015203D02*
X002329Y015203D01*
X002329Y015261D02*
X004057Y015261D01*
X004094Y015320D02*
X002329Y015320D01*
X002329Y015378D02*
X004130Y015378D01*
X004167Y015437D02*
X002329Y015437D01*
X002329Y015495D02*
X004204Y015495D01*
X004241Y015554D02*
X002329Y015554D01*
X002329Y015612D02*
X004278Y015612D01*
X004279Y015671D02*
X002329Y015671D01*
X002329Y015729D02*
X004271Y015729D01*
X004271Y015788D02*
X002329Y015788D01*
X002329Y015846D02*
X004278Y015846D01*
X004302Y015905D02*
X002329Y015905D01*
X002329Y015963D02*
X004331Y015963D01*
X004389Y016022D02*
X002329Y016022D01*
X002329Y016080D02*
X004485Y016080D01*
X004573Y016139D02*
X002329Y016139D01*
X002329Y016197D02*
X004603Y016197D01*
X004632Y016256D02*
X004426Y016256D01*
X004484Y016314D02*
X004661Y016314D01*
X004756Y016782D02*
X004481Y016782D01*
X004423Y016841D02*
X004802Y016841D01*
X004802Y016899D02*
X002329Y016899D01*
X002329Y016841D02*
X004027Y016841D01*
X003969Y016782D02*
X002329Y016782D01*
X002329Y016724D02*
X003922Y016724D01*
X003897Y016665D02*
X002329Y016665D01*
X002329Y016607D02*
X003877Y016607D01*
X003877Y016548D02*
X002329Y016548D01*
X002329Y016490D02*
X003877Y016490D01*
X003896Y016431D02*
X002329Y016431D01*
X002329Y016373D02*
X003920Y016373D01*
X003965Y016314D02*
X002329Y016314D01*
X002329Y016256D02*
X004024Y016256D01*
X004802Y016958D02*
X002329Y016958D01*
X002329Y017016D02*
X004802Y017016D01*
X004802Y017075D02*
X002329Y017075D01*
X002329Y017133D02*
X004802Y017133D01*
X004802Y017192D02*
X004528Y017192D01*
X004520Y017183D02*
X004573Y017236D01*
X004573Y017826D01*
X004520Y017879D01*
X003930Y017879D01*
X003877Y017826D01*
X003877Y017236D01*
X003930Y017183D01*
X004520Y017183D01*
X004573Y017250D02*
X004801Y017250D01*
X004743Y017309D02*
X004573Y017309D01*
X004573Y017367D02*
X004704Y017367D01*
X004679Y017426D02*
X004573Y017426D01*
X004573Y017484D02*
X004664Y017484D01*
X004664Y017543D02*
X004573Y017543D01*
X004573Y017601D02*
X004665Y017601D01*
X004689Y017660D02*
X004573Y017660D01*
X004573Y017718D02*
X004684Y017718D01*
X004655Y017777D02*
X004573Y017777D01*
X004563Y017835D02*
X004625Y017835D01*
X004596Y017894D02*
X002329Y017894D01*
X002329Y017952D02*
X004567Y017952D01*
X004452Y018011D02*
X002329Y018011D01*
X002329Y018069D02*
X004376Y018069D01*
X004321Y018128D02*
X002329Y018128D01*
X002329Y018186D02*
X004297Y018186D01*
X004273Y018245D02*
X002329Y018245D01*
X002329Y018303D02*
X004271Y018303D01*
X004271Y018362D02*
X002329Y018362D01*
X002329Y018420D02*
X004284Y018420D01*
X004309Y018479D02*
X002329Y018479D01*
X002329Y018537D02*
X004346Y018537D01*
X004404Y018596D02*
X002329Y018596D01*
X002334Y018654D02*
X004521Y018654D01*
X004964Y018245D02*
X005025Y018245D01*
X003886Y017835D02*
X002329Y017835D01*
X002329Y017777D02*
X003877Y017777D01*
X003877Y017718D02*
X002329Y017718D01*
X002329Y017660D02*
X003877Y017660D01*
X003877Y017601D02*
X002329Y017601D01*
X002329Y017543D02*
X003877Y017543D01*
X003877Y017484D02*
X002329Y017484D01*
X002329Y017426D02*
X003877Y017426D01*
X003877Y017367D02*
X002329Y017367D01*
X002329Y017309D02*
X003877Y017309D01*
X003877Y017250D02*
X002329Y017250D01*
X002329Y017192D02*
X003921Y017192D01*
X002422Y018771D02*
X007216Y018771D01*
X007341Y018713D02*
X002358Y018713D01*
X001973Y018888D02*
X000280Y018888D01*
X000280Y018830D02*
X001948Y018830D01*
X001924Y018771D02*
X000280Y018771D01*
X000280Y018713D02*
X001909Y018713D01*
X001909Y018654D02*
X000280Y018654D01*
X000280Y018596D02*
X001909Y018596D01*
X001909Y018537D02*
X000280Y018537D01*
X000280Y018479D02*
X001909Y018479D01*
X001909Y018420D02*
X000280Y018420D01*
X000280Y018362D02*
X001909Y018362D01*
X001909Y018303D02*
X000280Y018303D01*
X000280Y018245D02*
X001909Y018245D01*
X001909Y018186D02*
X000280Y018186D01*
X000280Y018128D02*
X001909Y018128D01*
X001909Y018069D02*
X000280Y018069D01*
X000280Y018011D02*
X001909Y018011D01*
X001909Y017952D02*
X000280Y017952D01*
X000280Y017894D02*
X001909Y017894D01*
X001909Y017835D02*
X000280Y017835D01*
X000280Y017777D02*
X001909Y017777D01*
X001909Y017718D02*
X000280Y017718D01*
X000280Y017660D02*
X001909Y017660D01*
X001909Y017601D02*
X000280Y017601D01*
X000280Y017543D02*
X001909Y017543D01*
X001909Y017484D02*
X000280Y017484D01*
X000280Y017426D02*
X001909Y017426D01*
X001909Y017367D02*
X000280Y017367D01*
X000280Y017309D02*
X001909Y017309D01*
X001909Y017250D02*
X000280Y017250D01*
X000280Y017192D02*
X001909Y017192D01*
X001909Y017133D02*
X000280Y017133D01*
X000280Y017075D02*
X001909Y017075D01*
X001909Y017016D02*
X000280Y017016D01*
X000280Y016958D02*
X001909Y016958D01*
X001909Y016899D02*
X000280Y016899D01*
X000280Y016841D02*
X001909Y016841D01*
X001909Y016782D02*
X000280Y016782D01*
X000280Y016724D02*
X001909Y016724D01*
X001909Y016665D02*
X000280Y016665D01*
X000280Y016607D02*
X001909Y016607D01*
X001909Y016548D02*
X000280Y016548D01*
X000280Y016490D02*
X001909Y016490D01*
X001909Y016431D02*
X000280Y016431D01*
X000280Y016373D02*
X001909Y016373D01*
X001909Y016314D02*
X000280Y016314D01*
X000280Y016256D02*
X001909Y016256D01*
X001909Y016197D02*
X000280Y016197D01*
X000280Y016139D02*
X001909Y016139D01*
X001909Y016080D02*
X000280Y016080D01*
X000280Y016022D02*
X001909Y016022D01*
X001909Y015963D02*
X000280Y015963D01*
X000280Y015905D02*
X001909Y015905D01*
X001909Y015846D02*
X000280Y015846D01*
X000280Y015788D02*
X001909Y015788D01*
X001909Y015729D02*
X000280Y015729D01*
X000280Y015671D02*
X001909Y015671D01*
X001909Y015612D02*
X000280Y015612D01*
X000280Y015554D02*
X001909Y015554D01*
X001909Y015495D02*
X000280Y015495D01*
X000280Y015437D02*
X001909Y015437D01*
X001909Y015378D02*
X000280Y015378D01*
X000280Y015320D02*
X001909Y015320D01*
X001909Y015261D02*
X000280Y015261D01*
X000280Y015203D02*
X001909Y015203D01*
X001889Y015144D02*
X000280Y015144D01*
X000280Y015086D02*
X001889Y015086D01*
X001889Y015027D02*
X000280Y015027D01*
X000280Y014969D02*
X001895Y014969D01*
X001953Y014910D02*
X000280Y014910D01*
X000280Y014852D02*
X002012Y014852D01*
X002982Y013857D02*
X000280Y013857D01*
X000280Y013799D02*
X002924Y013799D01*
X002865Y013740D02*
X000280Y013740D01*
X000280Y013682D02*
X002592Y013682D01*
X002355Y013623D02*
X000280Y013623D01*
X000280Y013565D02*
X002194Y013565D01*
X002034Y013506D02*
X000280Y013506D01*
X000280Y013448D02*
X001932Y013448D01*
X001842Y013389D02*
X000280Y013389D01*
X000280Y013331D02*
X001751Y013331D01*
X001661Y013272D02*
X000280Y013272D01*
X000280Y013214D02*
X001578Y013214D01*
X001521Y013155D02*
X000280Y013155D01*
X000280Y013097D02*
X001464Y013097D01*
X001407Y013038D02*
X000280Y013038D01*
X000280Y012980D02*
X001350Y012980D01*
X001293Y012921D02*
X000280Y012921D01*
X000280Y012863D02*
X001239Y012863D01*
X001244Y012871D02*
X001244Y012871D01*
X001244Y012871D01*
X001203Y012804D02*
X000280Y012804D01*
X000280Y012746D02*
X001168Y012746D01*
X001132Y012687D02*
X000280Y012687D01*
X000280Y012629D02*
X001096Y012629D01*
X001061Y012570D02*
X000280Y012570D01*
X000280Y012512D02*
X001025Y012512D01*
X000989Y012453D02*
X000280Y012453D01*
X000280Y012395D02*
X000968Y012395D01*
X000986Y012447D02*
X000986Y012447D01*
X000948Y012336D02*
X000280Y012336D01*
X000280Y012278D02*
X000929Y012278D01*
X000855Y012219D02*
X000280Y012219D01*
X000280Y012161D02*
X000754Y012161D01*
X000695Y012102D02*
X000280Y012102D01*
X000280Y012044D02*
X000655Y012044D01*
X000630Y011985D02*
X000280Y011985D01*
X000280Y011927D02*
X000606Y011927D01*
X000605Y011868D02*
X000280Y011868D01*
X000280Y011810D02*
X000605Y011810D01*
X000605Y011751D02*
X000280Y011751D01*
X000280Y011693D02*
X000605Y011693D01*
X000605Y011634D02*
X000280Y011634D01*
X000280Y011576D02*
X000605Y011576D01*
X000605Y011517D02*
X000280Y011517D01*
X000280Y011459D02*
X000605Y011459D01*
X000605Y011400D02*
X000280Y011400D01*
X000280Y011342D02*
X000605Y011342D01*
X000605Y011283D02*
X000280Y011283D01*
X000280Y011225D02*
X000605Y011225D01*
X000605Y011166D02*
X000280Y011166D01*
X000280Y011108D02*
X000614Y011108D01*
X000638Y011049D02*
X000280Y011049D01*
X000280Y010991D02*
X000663Y010991D01*
X000715Y010932D02*
X000280Y010932D01*
X000280Y010874D02*
X000773Y010874D01*
X000902Y010815D02*
X000280Y010815D01*
X000280Y010757D02*
X008519Y010757D01*
X008471Y010815D02*
X004122Y010815D01*
X004251Y010874D02*
X008447Y010874D01*
X008423Y010932D02*
X004310Y010932D01*
X004362Y010991D02*
X008398Y010991D01*
X008388Y011049D02*
X004386Y011049D01*
X004410Y011108D02*
X008388Y011108D01*
X008388Y011166D02*
X004419Y011166D01*
X004419Y011225D02*
X008388Y011225D01*
X008401Y011283D02*
X004419Y011283D01*
X004419Y011342D02*
X008426Y011342D01*
X008450Y011400D02*
X004419Y011400D01*
X004419Y011459D02*
X008474Y011459D01*
X008527Y011517D02*
X004419Y011517D01*
X004419Y011576D02*
X008585Y011576D01*
X008644Y011634D02*
X004419Y011634D01*
X004419Y011693D02*
X008783Y011693D01*
X009179Y011693D02*
X009925Y011693D01*
X009883Y011751D02*
X007427Y011751D01*
X007486Y011810D02*
X009859Y011810D01*
X009842Y011868D02*
X007544Y011868D01*
X007603Y011927D02*
X009842Y011927D01*
X009842Y011985D02*
X007642Y011985D01*
X007642Y012044D02*
X009864Y012044D01*
X009888Y012102D02*
X007642Y012102D01*
X007642Y012161D02*
X009938Y012161D01*
X009793Y012219D02*
X007642Y012219D01*
X007642Y012278D02*
X009734Y012278D01*
X009689Y012336D02*
X007606Y012336D01*
X007548Y012395D02*
X009664Y012395D01*
X009645Y012453D02*
X007489Y012453D01*
X007431Y012512D02*
X009645Y012512D01*
X009993Y012511D02*
X010405Y012924D01*
X010405Y014696D01*
X009737Y015365D01*
X009737Y015858D01*
X009796Y015917D01*
X009973Y015917D01*
X010130Y015759D01*
X009996Y016080D02*
X009477Y016080D01*
X009572Y016022D02*
X009731Y016022D01*
X009672Y015963D02*
X009631Y015963D01*
X009479Y016256D02*
X008363Y016256D01*
X008421Y016314D02*
X009426Y016314D01*
X009389Y016373D02*
X008466Y016373D01*
X008490Y016431D02*
X009365Y016431D01*
X009209Y016080D02*
X007902Y016080D01*
X007965Y016054D02*
X007837Y016107D01*
X007699Y016107D01*
X007571Y016054D01*
X007473Y015956D01*
X007420Y015829D01*
X007420Y015690D01*
X007473Y015562D01*
X007571Y015465D01*
X007699Y015412D01*
X007837Y015412D01*
X007965Y015465D01*
X008063Y015562D01*
X008116Y015690D01*
X008116Y015829D01*
X008063Y015956D01*
X007965Y016054D01*
X007998Y016022D02*
X009114Y016022D01*
X009055Y015963D02*
X008056Y015963D01*
X008084Y015905D02*
X009027Y015905D01*
X009002Y015846D02*
X008109Y015846D01*
X008116Y015788D02*
X008995Y015788D01*
X008995Y015729D02*
X008116Y015729D01*
X008108Y015671D02*
X009003Y015671D01*
X009027Y015612D02*
X008084Y015612D01*
X008054Y015554D02*
X009057Y015554D01*
X009115Y015495D02*
X007996Y015495D01*
X007898Y015437D02*
X009213Y015437D01*
X009473Y015437D02*
X009617Y015437D01*
X009617Y015495D02*
X009571Y015495D01*
X008588Y016490D02*
X008510Y016490D01*
X007961Y016256D02*
X007575Y016256D01*
X007634Y016314D02*
X007902Y016314D01*
X007857Y016373D02*
X007679Y016373D01*
X007703Y016431D02*
X007833Y016431D01*
X007814Y016490D02*
X007722Y016490D01*
X007722Y016548D02*
X007814Y016548D01*
X007814Y016607D02*
X007722Y016607D01*
X007702Y016665D02*
X007834Y016665D01*
X007859Y016724D02*
X007678Y016724D01*
X007631Y016782D02*
X007906Y016782D01*
X007964Y016841D02*
X007572Y016841D01*
X007177Y016841D02*
X006841Y016841D01*
X006896Y016782D02*
X007118Y016782D01*
X007071Y016724D02*
X006933Y016724D01*
X006958Y016665D02*
X007047Y016665D01*
X007027Y016607D02*
X006970Y016607D01*
X007115Y016080D02*
X007634Y016080D01*
X007539Y016022D02*
X007210Y016022D01*
X007269Y015963D02*
X007480Y015963D01*
X007452Y015905D02*
X007297Y015905D01*
X007321Y015846D02*
X007428Y015846D01*
X007420Y015788D02*
X007329Y015788D01*
X007329Y015729D02*
X007420Y015729D01*
X007428Y015671D02*
X007320Y015671D01*
X007296Y015612D02*
X007453Y015612D01*
X007482Y015554D02*
X007267Y015554D01*
X007209Y015495D02*
X007540Y015495D01*
X007638Y015437D02*
X007111Y015437D01*
X006239Y014559D02*
X005660Y014559D01*
X005730Y014501D02*
X006169Y014501D01*
X006110Y014442D02*
X005788Y014442D01*
X005816Y014384D02*
X006082Y014384D01*
X006058Y014325D02*
X005840Y014325D01*
X005856Y014267D02*
X006042Y014267D01*
X006042Y014208D02*
X005856Y014208D01*
X005856Y014150D02*
X006042Y014150D01*
X006042Y014091D02*
X005856Y014091D01*
X005856Y014033D02*
X006042Y014033D01*
X006042Y013974D02*
X005856Y013974D01*
X005856Y013916D02*
X006042Y013916D01*
X006042Y013857D02*
X005856Y013857D01*
X005856Y013799D02*
X006042Y013799D01*
X006042Y013740D02*
X005856Y013740D01*
X005856Y013682D02*
X006042Y013682D01*
X006042Y013623D02*
X005856Y013623D01*
X005856Y013565D02*
X006042Y013565D01*
X006042Y013506D02*
X005856Y013506D01*
X005838Y013448D02*
X006060Y013448D01*
X006085Y013389D02*
X005814Y013389D01*
X005783Y013331D02*
X006115Y013331D01*
X006174Y013272D02*
X005724Y013272D01*
X005659Y013214D02*
X006252Y013214D01*
X005239Y013214D02*
X004541Y013214D01*
X004599Y013272D02*
X005174Y013272D01*
X005115Y013331D02*
X004638Y013331D01*
X004638Y013389D02*
X005085Y013389D01*
X005239Y013155D02*
X004482Y013155D01*
X004424Y013097D02*
X005239Y013097D01*
X005239Y013038D02*
X002093Y013038D01*
X002003Y012980D02*
X005239Y012980D01*
X005239Y012921D02*
X001912Y012921D01*
X001838Y012863D02*
X005239Y012863D01*
X005239Y012804D02*
X001781Y012804D01*
X001724Y012746D02*
X005239Y012746D01*
X005239Y012687D02*
X001667Y012687D01*
X001610Y012629D02*
X005239Y012629D01*
X005239Y012570D02*
X001566Y012570D01*
X001530Y012512D02*
X005239Y012512D01*
X005239Y012453D02*
X001494Y012453D01*
X001459Y012395D02*
X005239Y012395D01*
X005354Y011868D02*
X004427Y011868D01*
X004419Y011810D02*
X005413Y011810D01*
X005471Y011751D02*
X004419Y011751D01*
X004298Y012278D02*
X003123Y012278D01*
X003117Y012280D02*
X003047Y012291D01*
X003042Y012291D01*
X003042Y011557D01*
X002982Y011557D01*
X002982Y011497D01*
X002565Y011497D01*
X002565Y011175D01*
X002576Y011106D01*
X002598Y011039D01*
X002630Y010976D01*
X002671Y010919D01*
X002721Y010869D01*
X002778Y010828D01*
X002841Y010796D01*
X002908Y010774D01*
X002977Y010763D01*
X002982Y010763D01*
X002982Y011497D01*
X003042Y011497D01*
X003042Y010763D01*
X003047Y010763D01*
X003117Y010774D01*
X003184Y010796D01*
X003246Y010828D01*
X003303Y010869D01*
X003353Y010919D01*
X003394Y010976D01*
X003426Y011039D01*
X003448Y011106D01*
X003459Y011175D01*
X003459Y011497D01*
X003042Y011497D01*
X003042Y011557D01*
X003459Y011557D01*
X003459Y011879D01*
X003448Y011949D01*
X003426Y012016D01*
X003394Y012078D01*
X003353Y012135D01*
X003303Y012185D01*
X003246Y012226D01*
X003184Y012258D01*
X003117Y012280D01*
X003042Y012278D02*
X002982Y012278D01*
X002982Y012291D02*
X002977Y012291D01*
X002908Y012280D01*
X002841Y012258D01*
X002778Y012226D01*
X002721Y012185D01*
X002671Y012135D01*
X002630Y012078D01*
X002598Y012016D01*
X002576Y011949D01*
X002565Y011879D01*
X002565Y011557D01*
X002982Y011557D01*
X002982Y012291D01*
X002982Y012219D02*
X003042Y012219D01*
X003042Y012161D02*
X002982Y012161D01*
X002982Y012102D02*
X003042Y012102D01*
X003042Y012044D02*
X002982Y012044D01*
X002982Y011985D02*
X003042Y011985D01*
X003042Y011927D02*
X002982Y011927D01*
X002982Y011868D02*
X003042Y011868D01*
X003042Y011810D02*
X002982Y011810D01*
X002982Y011751D02*
X003042Y011751D01*
X003042Y011693D02*
X002982Y011693D01*
X002982Y011634D02*
X003042Y011634D01*
X003042Y011576D02*
X002982Y011576D01*
X002982Y011517D02*
X002042Y011517D01*
X002042Y011497D02*
X002042Y011557D01*
X001982Y011557D01*
X001982Y011497D01*
X001565Y011497D01*
X001565Y011175D01*
X001576Y011106D01*
X001598Y011039D01*
X001630Y010976D01*
X001671Y010919D01*
X001721Y010869D01*
X001778Y010828D01*
X001841Y010796D01*
X001908Y010774D01*
X001977Y010763D01*
X001982Y010763D01*
X001982Y011497D01*
X002042Y011497D01*
X002042Y010763D01*
X002047Y010763D01*
X002117Y010774D01*
X002184Y010796D01*
X002246Y010828D01*
X002303Y010869D01*
X002353Y010919D01*
X002394Y010976D01*
X002426Y011039D01*
X002448Y011106D01*
X002459Y011175D01*
X002459Y011497D01*
X002042Y011497D01*
X002042Y011459D02*
X001982Y011459D01*
X001982Y011517D02*
X001419Y011517D01*
X001419Y011459D02*
X001565Y011459D01*
X001565Y011400D02*
X001419Y011400D01*
X001419Y011342D02*
X001565Y011342D01*
X001565Y011283D02*
X001419Y011283D01*
X001419Y011225D02*
X001565Y011225D01*
X001567Y011166D02*
X001419Y011166D01*
X001410Y011108D02*
X001576Y011108D01*
X001595Y011049D02*
X001386Y011049D01*
X001362Y010991D02*
X001622Y010991D01*
X001662Y010932D02*
X001310Y010932D01*
X001251Y010874D02*
X001717Y010874D01*
X001803Y010815D02*
X001122Y010815D01*
X001419Y011576D02*
X001565Y011576D01*
X001565Y011557D02*
X001982Y011557D01*
X001982Y012291D01*
X001977Y012291D01*
X001908Y012280D01*
X001841Y012258D01*
X001778Y012226D01*
X001721Y012185D01*
X001671Y012135D01*
X001630Y012078D01*
X001598Y012016D01*
X001576Y011949D01*
X001565Y011879D01*
X001565Y011557D01*
X001565Y011634D02*
X001419Y011634D01*
X001419Y011693D02*
X001565Y011693D01*
X001565Y011751D02*
X001419Y011751D01*
X001419Y011810D02*
X001565Y011810D01*
X001565Y011868D02*
X001419Y011868D01*
X001418Y011927D02*
X001573Y011927D01*
X001588Y011985D02*
X001394Y011985D01*
X001370Y012044D02*
X001613Y012044D01*
X001648Y012102D02*
X001329Y012102D01*
X001344Y012161D02*
X001697Y012161D01*
X001769Y012219D02*
X001364Y012219D01*
X001387Y012278D02*
X001902Y012278D01*
X001982Y012278D02*
X002042Y012278D01*
X002042Y012291D02*
X002042Y011557D01*
X002459Y011557D01*
X002459Y011879D01*
X002448Y011949D01*
X002426Y012016D01*
X002394Y012078D01*
X002353Y012135D01*
X002303Y012185D01*
X002246Y012226D01*
X002184Y012258D01*
X002117Y012280D01*
X002047Y012291D01*
X002042Y012291D01*
X002042Y012219D02*
X001982Y012219D01*
X001982Y012161D02*
X002042Y012161D01*
X002042Y012102D02*
X001982Y012102D01*
X001982Y012044D02*
X002042Y012044D01*
X002042Y011985D02*
X001982Y011985D01*
X001982Y011927D02*
X002042Y011927D01*
X002042Y011868D02*
X001982Y011868D01*
X001982Y011810D02*
X002042Y011810D01*
X002042Y011751D02*
X001982Y011751D01*
X001982Y011693D02*
X002042Y011693D01*
X002042Y011634D02*
X001982Y011634D01*
X001982Y011576D02*
X002042Y011576D01*
X002042Y011400D02*
X001982Y011400D01*
X001982Y011342D02*
X002042Y011342D01*
X002042Y011283D02*
X001982Y011283D01*
X001982Y011225D02*
X002042Y011225D01*
X002042Y011166D02*
X001982Y011166D01*
X001982Y011108D02*
X002042Y011108D01*
X002042Y011049D02*
X001982Y011049D01*
X001982Y010991D02*
X002042Y010991D01*
X002042Y010932D02*
X001982Y010932D01*
X001982Y010874D02*
X002042Y010874D01*
X002042Y010815D02*
X001982Y010815D01*
X002221Y010815D02*
X002803Y010815D01*
X002717Y010874D02*
X002308Y010874D01*
X002363Y010932D02*
X002662Y010932D01*
X002622Y010991D02*
X002402Y010991D01*
X002430Y011049D02*
X002595Y011049D01*
X002576Y011108D02*
X002448Y011108D01*
X002458Y011166D02*
X002567Y011166D01*
X002565Y011225D02*
X002459Y011225D01*
X002459Y011283D02*
X002565Y011283D01*
X002565Y011342D02*
X002459Y011342D01*
X002459Y011400D02*
X002565Y011400D01*
X002565Y011459D02*
X002459Y011459D01*
X002459Y011576D02*
X002565Y011576D01*
X002565Y011634D02*
X002459Y011634D01*
X002459Y011693D02*
X002565Y011693D01*
X002565Y011751D02*
X002459Y011751D01*
X002459Y011810D02*
X002565Y011810D01*
X002565Y011868D02*
X002459Y011868D01*
X002451Y011927D02*
X002573Y011927D01*
X002588Y011985D02*
X002436Y011985D01*
X002412Y012044D02*
X002613Y012044D01*
X002648Y012102D02*
X002377Y012102D01*
X002327Y012161D02*
X002697Y012161D01*
X002769Y012219D02*
X002256Y012219D01*
X002123Y012278D02*
X002902Y012278D01*
X003256Y012219D02*
X003855Y012219D01*
X003754Y012161D02*
X003327Y012161D01*
X003377Y012102D02*
X003695Y012102D01*
X003655Y012044D02*
X003412Y012044D01*
X003436Y011985D02*
X003630Y011985D01*
X003606Y011927D02*
X003451Y011927D01*
X003459Y011868D02*
X003605Y011868D01*
X003605Y011810D02*
X003459Y011810D01*
X003459Y011751D02*
X003605Y011751D01*
X003605Y011693D02*
X003459Y011693D01*
X003459Y011634D02*
X003605Y011634D01*
X003605Y011576D02*
X003459Y011576D01*
X003459Y011459D02*
X003605Y011459D01*
X003605Y011517D02*
X003042Y011517D01*
X003042Y011459D02*
X002982Y011459D01*
X002982Y011400D02*
X003042Y011400D01*
X003042Y011342D02*
X002982Y011342D01*
X002982Y011283D02*
X003042Y011283D01*
X003042Y011225D02*
X002982Y011225D01*
X002982Y011166D02*
X003042Y011166D01*
X003042Y011108D02*
X002982Y011108D01*
X002982Y011049D02*
X003042Y011049D01*
X003042Y010991D02*
X002982Y010991D01*
X002982Y010932D02*
X003042Y010932D01*
X003042Y010874D02*
X002982Y010874D01*
X002982Y010815D02*
X003042Y010815D01*
X003221Y010815D02*
X003902Y010815D01*
X003773Y010874D02*
X003308Y010874D01*
X003363Y010932D02*
X003715Y010932D01*
X003663Y010991D02*
X003402Y010991D01*
X003430Y011049D02*
X003638Y011049D01*
X003614Y011108D02*
X003448Y011108D01*
X003458Y011166D02*
X003605Y011166D01*
X003605Y011225D02*
X003459Y011225D01*
X003459Y011283D02*
X003605Y011283D01*
X003605Y011342D02*
X003459Y011342D01*
X003459Y011400D02*
X003605Y011400D01*
X004439Y012336D02*
X001423Y012336D01*
X002183Y013097D02*
X003019Y013097D01*
X002961Y013155D02*
X002330Y013155D01*
X002490Y013214D02*
X002902Y013214D01*
X002844Y013272D02*
X002792Y013272D01*
X000280Y010698D02*
X008578Y010698D01*
X008636Y010640D02*
X000280Y010640D01*
X000280Y009645D02*
X019705Y009645D01*
X019705Y009587D02*
X000280Y009587D01*
X000280Y009528D02*
X019705Y009528D01*
X019705Y009470D02*
X000280Y009470D01*
X000280Y009411D02*
X019705Y009411D01*
X019705Y009353D02*
X000280Y009353D01*
X000280Y009294D02*
X019705Y009294D01*
X019705Y009236D02*
X000280Y009236D01*
X000280Y009177D02*
X019705Y009177D01*
X019705Y009119D02*
X000280Y009119D01*
X000280Y009060D02*
X019705Y009060D01*
X019705Y009002D02*
X000280Y009002D01*
X000280Y008943D02*
X019705Y008943D01*
X019705Y008885D02*
X000280Y008885D01*
X000280Y008826D02*
X019705Y008826D01*
X019705Y008768D02*
X000280Y008768D01*
X000280Y008709D02*
X019705Y008709D01*
X019705Y008651D02*
X000280Y008651D01*
X000280Y008592D02*
X019705Y008592D01*
X019705Y008534D02*
X000280Y008534D01*
X000280Y008475D02*
X019705Y008475D01*
X019705Y008417D02*
X000280Y008417D01*
X000280Y008358D02*
X019705Y008358D01*
X019705Y008300D02*
X000280Y008300D01*
X000280Y008241D02*
X019705Y008241D01*
X019705Y008183D02*
X000280Y008183D01*
X000280Y008124D02*
X019705Y008124D01*
X019705Y008066D02*
X000280Y008066D01*
X000280Y008007D02*
X019705Y008007D01*
X019705Y007949D02*
X000280Y007949D01*
X000280Y007890D02*
X019705Y007890D01*
X019705Y007832D02*
X000280Y007832D01*
X000280Y007773D02*
X019705Y007773D01*
X019705Y007715D02*
X000280Y007715D01*
X000280Y007656D02*
X019705Y007656D01*
X019705Y007598D02*
X000280Y007598D01*
X000280Y007539D02*
X019705Y007539D01*
X019705Y007481D02*
X000280Y007481D01*
X000280Y007422D02*
X019705Y007422D01*
X019705Y007364D02*
X000280Y007364D01*
X000280Y007305D02*
X019705Y007305D01*
X019705Y007247D02*
X000280Y007247D01*
X000280Y007188D02*
X019705Y007188D01*
X019705Y007130D02*
X000280Y007130D01*
X000280Y007071D02*
X019705Y007071D01*
X019705Y007013D02*
X000280Y007013D01*
X000280Y006954D02*
X019705Y006954D01*
X019705Y006896D02*
X000280Y006896D01*
X000280Y006837D02*
X019705Y006837D01*
X019705Y006779D02*
X000280Y006779D01*
X000280Y006720D02*
X001982Y006720D01*
X001873Y006675D02*
X001707Y006509D01*
X001616Y006291D01*
X001616Y006055D01*
X001707Y005837D01*
X001873Y005670D01*
X002091Y005580D01*
X002327Y005580D01*
X002545Y005670D01*
X002711Y005837D01*
X002802Y006055D01*
X002802Y006291D01*
X002711Y006509D01*
X002545Y006675D01*
X002327Y006765D01*
X002091Y006765D01*
X001873Y006675D01*
X001860Y006662D02*
X000280Y006662D01*
X000280Y006603D02*
X001802Y006603D01*
X001743Y006545D02*
X000280Y006545D01*
X000280Y006486D02*
X001698Y006486D01*
X001673Y006428D02*
X000280Y006428D01*
X000280Y006369D02*
X001649Y006369D01*
X001625Y006311D02*
X000280Y006311D01*
X000280Y006252D02*
X001616Y006252D01*
X001616Y006194D02*
X000280Y006194D01*
X000280Y006135D02*
X001616Y006135D01*
X001616Y006077D02*
X000280Y006077D01*
X000280Y006018D02*
X001632Y006018D01*
X001656Y005960D02*
X000280Y005960D01*
X000280Y005901D02*
X001680Y005901D01*
X001704Y005843D02*
X000280Y005843D01*
X000280Y005784D02*
X001759Y005784D01*
X001818Y005726D02*
X000280Y005726D01*
X000280Y005667D02*
X001881Y005667D01*
X002022Y005609D02*
X000280Y005609D01*
X000280Y005550D02*
X002707Y005550D01*
X002707Y005593D02*
X002707Y004155D01*
X002777Y004084D01*
X004164Y002698D01*
X004164Y002448D01*
X004141Y002448D01*
X004087Y002394D01*
X004033Y002448D01*
X003747Y002448D01*
X003693Y002394D01*
X003639Y002448D01*
X003354Y002448D01*
X003300Y002394D01*
X003273Y002421D01*
X003273Y002578D01*
X003357Y002578D01*
X003463Y002621D01*
X003544Y002703D01*
X003588Y002808D01*
X003588Y002923D01*
X003544Y003029D01*
X003463Y003110D01*
X003357Y003154D01*
X003242Y003154D01*
X003136Y003110D01*
X003055Y003029D01*
X003011Y002923D01*
X003011Y002818D01*
X002933Y002739D01*
X002933Y002424D01*
X002905Y002451D01*
X002863Y002475D01*
X002816Y002488D01*
X002739Y002488D01*
X002739Y001685D01*
X002679Y001685D01*
X002679Y002488D01*
X002602Y002488D01*
X002555Y002475D01*
X002513Y002451D01*
X002484Y002422D01*
X002458Y002448D01*
X002173Y002448D01*
X002119Y002394D01*
X002064Y002448D01*
X001779Y002448D01*
X001753Y002422D01*
X001724Y002451D01*
X001682Y002475D01*
X001635Y002488D01*
X001558Y002488D01*
X001558Y001685D01*
X001498Y001685D01*
X001498Y002488D01*
X001421Y002488D01*
X001374Y002475D01*
X001332Y002451D01*
X001304Y002424D01*
X001304Y002739D01*
X001226Y002818D01*
X001226Y002923D01*
X001182Y003029D01*
X001101Y003110D01*
X000995Y003154D01*
X000880Y003154D01*
X000774Y003110D01*
X000693Y003029D01*
X000649Y002923D01*
X000649Y002808D01*
X000693Y002703D01*
X000774Y002621D01*
X000880Y002578D01*
X000964Y002578D01*
X000964Y002421D01*
X000937Y002394D01*
X000883Y002448D01*
X000598Y002448D01*
X000544Y002394D01*
X000490Y002448D01*
X000294Y002448D01*
X000294Y003717D01*
X000280Y003730D01*
X000280Y019665D01*
X019705Y019665D01*
X019705Y003389D01*
X008168Y003389D01*
X008168Y003638D01*
X008084Y003722D01*
X007964Y003722D01*
X007880Y003638D01*
X007880Y003389D01*
X007872Y003389D01*
X007796Y003313D01*
X007796Y003206D01*
X007872Y003129D01*
X007880Y003129D01*
X007880Y002488D01*
X007857Y002488D01*
X007857Y001685D01*
X007797Y001685D01*
X007797Y002488D01*
X007720Y002488D01*
X007673Y002475D01*
X007631Y002451D01*
X007602Y002422D01*
X007593Y002431D01*
X007593Y004572D01*
X007636Y004590D01*
X007717Y004671D01*
X007761Y004777D01*
X007761Y004892D01*
X007717Y004997D01*
X007636Y005078D01*
X007530Y005122D01*
X007416Y005122D01*
X007310Y005078D01*
X007229Y004997D01*
X007185Y004892D01*
X007185Y004777D01*
X007229Y004671D01*
X007310Y004590D01*
X007353Y004572D01*
X007353Y002448D01*
X007291Y002448D01*
X007265Y002422D01*
X007236Y002451D01*
X007194Y002475D01*
X007147Y002488D01*
X007070Y002488D01*
X007070Y001685D01*
X007010Y001685D01*
X007010Y002488D01*
X006933Y002488D01*
X006886Y002475D01*
X006843Y002451D01*
X006815Y002422D01*
X006789Y002448D01*
X006703Y002448D01*
X006629Y002522D01*
X006629Y003019D01*
X006559Y003089D01*
X005658Y003991D01*
X003847Y003991D01*
X003795Y004043D01*
X003795Y004312D01*
X003932Y004450D01*
X003939Y004447D01*
X004077Y004447D01*
X004205Y004500D01*
X004303Y004598D01*
X004356Y004726D01*
X004356Y004864D01*
X004303Y004992D01*
X004205Y005090D01*
X004077Y005143D01*
X003939Y005143D01*
X003811Y005090D01*
X003713Y004992D01*
X003660Y004864D01*
X003660Y004726D01*
X003713Y004598D01*
X003727Y004584D01*
X003625Y004482D01*
X003615Y004472D01*
X003604Y004482D01*
X003502Y004584D01*
X003516Y004598D01*
X003569Y004726D01*
X003569Y004864D01*
X003516Y004992D01*
X003470Y005038D01*
X003487Y005038D01*
X003615Y005091D01*
X003713Y005188D01*
X003766Y005316D01*
X003766Y005455D01*
X003713Y005582D01*
X003615Y005680D01*
X003487Y005733D01*
X003349Y005733D01*
X003221Y005680D01*
X003123Y005582D01*
X003070Y005455D01*
X003070Y005316D01*
X003123Y005188D01*
X003169Y005143D01*
X003152Y005143D01*
X003024Y005090D01*
X002947Y005013D01*
X002947Y005493D01*
X003271Y005817D01*
X005573Y005817D01*
X005858Y005532D01*
X005826Y005455D01*
X005826Y005316D01*
X005879Y005188D01*
X005977Y005091D01*
X006104Y005038D01*
X006121Y005038D01*
X006076Y004992D01*
X006023Y004864D01*
X006023Y004726D01*
X006076Y004598D01*
X006173Y004500D01*
X006301Y004447D01*
X006440Y004447D01*
X006567Y004500D01*
X006665Y004598D01*
X006718Y004726D01*
X006718Y004864D01*
X006665Y004992D01*
X006567Y005090D01*
X006440Y005143D01*
X006423Y005143D01*
X006468Y005188D01*
X006521Y005316D01*
X006521Y005455D01*
X006468Y005582D01*
X006371Y005680D01*
X006243Y005733D01*
X006104Y005733D01*
X006027Y005701D01*
X005672Y006057D01*
X003171Y006057D01*
X003101Y005986D01*
X002707Y005593D01*
X002723Y005609D02*
X002396Y005609D01*
X002537Y005667D02*
X002782Y005667D01*
X002840Y005726D02*
X002600Y005726D01*
X002659Y005784D02*
X002899Y005784D01*
X002957Y005843D02*
X002714Y005843D01*
X002738Y005901D02*
X003016Y005901D01*
X003074Y005960D02*
X002762Y005960D01*
X002786Y006018D02*
X003133Y006018D01*
X003221Y005937D02*
X005622Y005937D01*
X006174Y005385D01*
X005850Y005258D02*
X005513Y005258D01*
X005537Y005316D02*
X005537Y005455D01*
X005484Y005582D01*
X005386Y005680D01*
X005259Y005733D01*
X005120Y005733D01*
X004992Y005680D01*
X004895Y005582D01*
X004842Y005455D01*
X004842Y005316D01*
X004895Y005188D01*
X004920Y005163D01*
X004909Y005168D01*
X004834Y005183D01*
X004826Y005183D01*
X004826Y004825D01*
X005183Y004825D01*
X005183Y004833D01*
X005169Y004908D01*
X005139Y004979D01*
X005097Y005042D01*
X005088Y005051D01*
X005120Y005038D01*
X005259Y005038D01*
X005386Y005091D01*
X005484Y005188D01*
X005537Y005316D01*
X005826Y005316D01*
X005826Y005375D02*
X005537Y005375D01*
X005537Y005433D02*
X005826Y005433D01*
X005841Y005492D02*
X005522Y005492D01*
X005498Y005550D02*
X005839Y005550D01*
X005780Y005609D02*
X005458Y005609D01*
X005399Y005667D02*
X005722Y005667D01*
X005663Y005726D02*
X005276Y005726D01*
X005102Y005726D02*
X004489Y005726D01*
X004471Y005733D02*
X004333Y005733D01*
X004205Y005680D01*
X004107Y005582D01*
X004054Y005455D01*
X004054Y005316D01*
X004107Y005188D01*
X004205Y005091D01*
X004333Y005038D01*
X004471Y005038D01*
X004503Y005051D01*
X004494Y005042D01*
X004452Y004979D01*
X004423Y004908D01*
X004408Y004833D01*
X004408Y004825D01*
X004766Y004825D01*
X004766Y005183D01*
X004757Y005183D01*
X004683Y005168D01*
X004672Y005163D01*
X004697Y005188D01*
X004750Y005316D01*
X004750Y005455D01*
X004697Y005582D01*
X004599Y005680D01*
X004471Y005733D01*
X004612Y005667D02*
X004979Y005667D01*
X004921Y005609D02*
X004670Y005609D01*
X004710Y005550D02*
X004881Y005550D01*
X004857Y005492D02*
X004734Y005492D01*
X004750Y005433D02*
X004842Y005433D01*
X004842Y005375D02*
X004750Y005375D01*
X004750Y005316D02*
X004842Y005316D01*
X004866Y005258D02*
X004726Y005258D01*
X004701Y005199D02*
X004890Y005199D01*
X004826Y005141D02*
X004766Y005141D01*
X004766Y005082D02*
X004826Y005082D01*
X004826Y005024D02*
X004766Y005024D01*
X004766Y004965D02*
X004826Y004965D01*
X004826Y004907D02*
X004766Y004907D01*
X004766Y004848D02*
X004826Y004848D01*
X004826Y004825D02*
X004766Y004825D01*
X004766Y004765D01*
X004826Y004765D01*
X004826Y004825D01*
X004826Y004790D02*
X005235Y004790D01*
X005183Y004765D02*
X004826Y004765D01*
X004826Y004407D01*
X004834Y004407D01*
X004909Y004422D01*
X004979Y004451D01*
X005043Y004494D01*
X005097Y004548D01*
X005139Y004611D01*
X005169Y004682D01*
X005183Y004757D01*
X005183Y004765D01*
X005178Y004731D02*
X005235Y004731D01*
X005235Y004726D02*
X005288Y004598D01*
X005386Y004500D01*
X005514Y004447D01*
X005652Y004447D01*
X005780Y004500D01*
X005878Y004598D01*
X005931Y004726D01*
X005931Y004864D01*
X005878Y004992D01*
X005780Y005090D01*
X005652Y005143D01*
X005514Y005143D01*
X005386Y005090D01*
X005288Y004992D01*
X005235Y004864D01*
X005235Y004726D01*
X005257Y004673D02*
X005165Y004673D01*
X005141Y004614D02*
X005281Y004614D01*
X005330Y004556D02*
X005102Y004556D01*
X005047Y004497D02*
X005393Y004497D01*
X005774Y004497D02*
X006180Y004497D01*
X006118Y004556D02*
X005836Y004556D01*
X005885Y004614D02*
X006069Y004614D01*
X006045Y004673D02*
X005909Y004673D01*
X005931Y004731D02*
X006023Y004731D01*
X006023Y004790D02*
X005931Y004790D01*
X005931Y004848D02*
X006023Y004848D01*
X006040Y004907D02*
X005913Y004907D01*
X005889Y004965D02*
X006065Y004965D01*
X006108Y005024D02*
X005846Y005024D01*
X005787Y005082D02*
X005996Y005082D01*
X005926Y005141D02*
X005657Y005141D01*
X005510Y005141D02*
X005437Y005141D01*
X005489Y005199D02*
X005874Y005199D01*
X006003Y005726D02*
X006087Y005726D01*
X005944Y005784D02*
X006933Y005784D01*
X006880Y005837D02*
X007047Y005670D01*
X007264Y005580D01*
X007500Y005580D01*
X007718Y005670D01*
X007885Y005837D01*
X007975Y006055D01*
X007975Y006291D01*
X007885Y006509D01*
X007718Y006675D01*
X007500Y006765D01*
X007264Y006765D01*
X007047Y006675D01*
X006880Y006509D01*
X006790Y006291D01*
X006790Y006055D01*
X006880Y005837D01*
X006878Y005843D02*
X005886Y005843D01*
X005827Y005901D02*
X006853Y005901D01*
X006829Y005960D02*
X005769Y005960D01*
X005710Y006018D02*
X006805Y006018D01*
X006790Y006077D02*
X002802Y006077D01*
X002802Y006135D02*
X006790Y006135D01*
X006790Y006194D02*
X002802Y006194D01*
X002802Y006252D02*
X006790Y006252D01*
X006798Y006311D02*
X002793Y006311D01*
X002769Y006369D02*
X006822Y006369D01*
X006846Y006428D02*
X002745Y006428D01*
X002721Y006486D02*
X006871Y006486D01*
X006916Y006545D02*
X002675Y006545D01*
X002617Y006603D02*
X006975Y006603D01*
X007033Y006662D02*
X002558Y006662D01*
X002436Y006720D02*
X007156Y006720D01*
X007609Y006720D02*
X019705Y006720D01*
X019705Y006662D02*
X007731Y006662D01*
X007790Y006603D02*
X019705Y006603D01*
X019705Y006545D02*
X007848Y006545D01*
X007894Y006486D02*
X019705Y006486D01*
X019705Y006428D02*
X007918Y006428D01*
X007942Y006369D02*
X019705Y006369D01*
X019705Y006311D02*
X007967Y006311D01*
X007975Y006252D02*
X019705Y006252D01*
X019705Y006194D02*
X007975Y006194D01*
X007975Y006135D02*
X019705Y006135D01*
X019705Y006077D02*
X007975Y006077D01*
X007960Y006018D02*
X019705Y006018D01*
X019705Y005960D02*
X007935Y005960D01*
X007911Y005901D02*
X019705Y005901D01*
X019705Y005843D02*
X007887Y005843D01*
X007832Y005784D02*
X019705Y005784D01*
X019705Y005726D02*
X007773Y005726D01*
X007711Y005667D02*
X019705Y005667D01*
X019705Y005609D02*
X007569Y005609D01*
X007195Y005609D02*
X006442Y005609D01*
X006482Y005550D02*
X019705Y005550D01*
X019705Y005492D02*
X006506Y005492D01*
X006521Y005433D02*
X019705Y005433D01*
X019705Y005375D02*
X006521Y005375D01*
X006521Y005316D02*
X019705Y005316D01*
X019705Y005258D02*
X006497Y005258D01*
X006473Y005199D02*
X019705Y005199D01*
X019705Y005141D02*
X006444Y005141D01*
X006575Y005082D02*
X007319Y005082D01*
X007255Y005024D02*
X006633Y005024D01*
X006676Y004965D02*
X007215Y004965D01*
X007191Y004907D02*
X006701Y004907D01*
X006718Y004848D02*
X007185Y004848D01*
X007185Y004790D02*
X006718Y004790D01*
X006718Y004731D02*
X007204Y004731D01*
X007228Y004673D02*
X006696Y004673D01*
X006672Y004614D02*
X007285Y004614D01*
X007353Y004556D02*
X006623Y004556D01*
X006561Y004497D02*
X007353Y004497D01*
X007353Y004439D02*
X004950Y004439D01*
X004826Y004439D02*
X004766Y004439D01*
X004766Y004407D02*
X004766Y004765D01*
X004408Y004765D01*
X004408Y004757D01*
X004423Y004682D01*
X004452Y004611D01*
X004494Y004548D01*
X004548Y004494D01*
X004612Y004451D01*
X004683Y004422D01*
X004757Y004407D01*
X004766Y004407D01*
X004766Y004497D02*
X004826Y004497D01*
X004826Y004556D02*
X004766Y004556D01*
X004766Y004614D02*
X004826Y004614D01*
X004826Y004673D02*
X004766Y004673D01*
X004766Y004731D02*
X004826Y004731D01*
X004766Y004790D02*
X004356Y004790D01*
X004356Y004848D02*
X004411Y004848D01*
X004423Y004907D02*
X004338Y004907D01*
X004314Y004965D02*
X004447Y004965D01*
X004482Y005024D02*
X004271Y005024D01*
X004225Y005082D02*
X004213Y005082D01*
X004155Y005141D02*
X004082Y005141D01*
X004103Y005199D02*
X003717Y005199D01*
X003741Y005258D02*
X004078Y005258D01*
X004054Y005316D02*
X003766Y005316D01*
X003766Y005375D02*
X004054Y005375D01*
X004054Y005433D02*
X003766Y005433D01*
X003750Y005492D02*
X004070Y005492D01*
X004094Y005550D02*
X003726Y005550D01*
X003686Y005609D02*
X004134Y005609D01*
X004192Y005667D02*
X003628Y005667D01*
X003505Y005726D02*
X004315Y005726D01*
X003935Y005141D02*
X003665Y005141D01*
X003595Y005082D02*
X003804Y005082D01*
X003745Y005024D02*
X003484Y005024D01*
X003527Y004965D02*
X003702Y004965D01*
X003678Y004907D02*
X003551Y004907D01*
X003569Y004848D02*
X003660Y004848D01*
X003660Y004790D02*
X003569Y004790D01*
X003569Y004731D02*
X003660Y004731D01*
X003682Y004673D02*
X003547Y004673D01*
X003523Y004614D02*
X003707Y004614D01*
X003699Y004556D02*
X003530Y004556D01*
X003589Y004497D02*
X003640Y004497D01*
X003604Y004482D02*
X003604Y004482D01*
X003555Y004362D02*
X003555Y003943D01*
X003747Y003751D01*
X005558Y003751D01*
X006389Y002920D01*
X006389Y002472D01*
X006252Y002335D01*
X006252Y001570D01*
X005889Y001685D02*
X005829Y001685D01*
X005829Y002488D01*
X005752Y002488D01*
X005705Y002475D01*
X005662Y002451D01*
X005634Y002422D01*
X005608Y002448D01*
X005412Y002448D01*
X005412Y003288D01*
X005305Y003509D01*
X005153Y003631D01*
X005509Y003631D01*
X006269Y002870D01*
X006269Y002522D01*
X006195Y002448D01*
X006110Y002448D01*
X006084Y002422D01*
X006055Y002451D01*
X006013Y002475D01*
X005966Y002488D01*
X005889Y002488D01*
X005889Y001685D01*
X005889Y001689D02*
X005829Y001689D01*
X005829Y001748D02*
X005889Y001748D01*
X005889Y001806D02*
X005829Y001806D01*
X005829Y001865D02*
X005889Y001865D01*
X005889Y001923D02*
X005829Y001923D01*
X005829Y001982D02*
X005889Y001982D01*
X005889Y002040D02*
X005829Y002040D01*
X005829Y002099D02*
X005889Y002099D01*
X005889Y002157D02*
X005829Y002157D01*
X005829Y002216D02*
X005889Y002216D01*
X005889Y002274D02*
X005829Y002274D01*
X005829Y002333D02*
X005889Y002333D01*
X005889Y002391D02*
X005829Y002391D01*
X005829Y002450D02*
X005889Y002450D01*
X006056Y002450D02*
X006197Y002450D01*
X006256Y002508D02*
X005412Y002508D01*
X005412Y002450D02*
X005661Y002450D01*
X005412Y002567D02*
X006269Y002567D01*
X006269Y002625D02*
X005412Y002625D01*
X005412Y002684D02*
X006269Y002684D01*
X006269Y002742D02*
X005412Y002742D01*
X005412Y002801D02*
X006269Y002801D01*
X006269Y002859D02*
X005412Y002859D01*
X005412Y002918D02*
X006221Y002918D01*
X006163Y002976D02*
X005412Y002976D01*
X005412Y003035D02*
X006104Y003035D01*
X006046Y003093D02*
X005412Y003093D01*
X005412Y003152D02*
X005987Y003152D01*
X005929Y003210D02*
X005412Y003210D01*
X005412Y003269D02*
X005870Y003269D01*
X005812Y003327D02*
X005393Y003327D01*
X005365Y003386D02*
X005753Y003386D01*
X005695Y003444D02*
X005336Y003444D01*
X005308Y003503D02*
X005636Y003503D01*
X005578Y003561D02*
X005239Y003561D01*
X005305Y003509D02*
X005305Y003509D01*
X005166Y003620D02*
X005519Y003620D01*
X005608Y003871D02*
X006509Y002969D01*
X006509Y002472D01*
X006646Y002335D01*
X006646Y001570D01*
X007010Y001689D02*
X007070Y001689D01*
X007070Y001748D02*
X007010Y001748D01*
X007010Y001806D02*
X007070Y001806D01*
X007070Y001865D02*
X007010Y001865D01*
X007010Y001923D02*
X007070Y001923D01*
X007070Y001982D02*
X007010Y001982D01*
X007010Y002040D02*
X007070Y002040D01*
X007070Y002099D02*
X007010Y002099D01*
X007010Y002157D02*
X007070Y002157D01*
X007070Y002216D02*
X007010Y002216D01*
X007010Y002274D02*
X007070Y002274D01*
X007070Y002333D02*
X007010Y002333D01*
X007010Y002391D02*
X007070Y002391D01*
X007070Y002450D02*
X007010Y002450D01*
X006842Y002450D02*
X006701Y002450D01*
X006643Y002508D02*
X007353Y002508D01*
X007353Y002450D02*
X007237Y002450D01*
X007353Y002567D02*
X006629Y002567D01*
X006629Y002625D02*
X007353Y002625D01*
X007353Y002684D02*
X006629Y002684D01*
X006629Y002742D02*
X007353Y002742D01*
X007353Y002801D02*
X006629Y002801D01*
X006629Y002859D02*
X007353Y002859D01*
X007353Y002918D02*
X006629Y002918D01*
X006629Y002976D02*
X007353Y002976D01*
X007353Y003035D02*
X006613Y003035D01*
X006555Y003093D02*
X007353Y003093D01*
X007353Y003152D02*
X006496Y003152D01*
X006438Y003210D02*
X007353Y003210D01*
X007353Y003269D02*
X006379Y003269D01*
X006321Y003327D02*
X007353Y003327D01*
X007353Y003386D02*
X006262Y003386D01*
X006204Y003444D02*
X007353Y003444D01*
X007353Y003503D02*
X006145Y003503D01*
X006087Y003561D02*
X007353Y003561D01*
X007353Y003620D02*
X006028Y003620D01*
X005970Y003678D02*
X007353Y003678D01*
X007353Y003737D02*
X005911Y003737D01*
X005853Y003795D02*
X007353Y003795D01*
X007353Y003854D02*
X005794Y003854D01*
X005736Y003912D02*
X007353Y003912D01*
X007353Y003971D02*
X005677Y003971D01*
X005608Y003871D02*
X003797Y003871D01*
X003675Y003993D01*
X003675Y004362D01*
X004008Y004696D01*
X004008Y004795D01*
X004334Y004673D02*
X004426Y004673D01*
X004413Y004731D02*
X004356Y004731D01*
X004310Y004614D02*
X004451Y004614D01*
X004489Y004556D02*
X004261Y004556D01*
X004199Y004497D02*
X004545Y004497D01*
X004642Y004439D02*
X003921Y004439D01*
X003863Y004380D02*
X007353Y004380D01*
X007353Y004322D02*
X003804Y004322D01*
X003795Y004263D02*
X007353Y004263D01*
X007353Y004205D02*
X003795Y004205D01*
X003795Y004146D02*
X007353Y004146D01*
X007353Y004088D02*
X003795Y004088D01*
X003808Y004029D02*
X007353Y004029D01*
X007593Y004029D02*
X019705Y004029D01*
X019705Y003971D02*
X007593Y003971D01*
X007593Y003912D02*
X019705Y003912D01*
X019705Y003854D02*
X007593Y003854D01*
X007593Y003795D02*
X019705Y003795D01*
X019705Y003737D02*
X007593Y003737D01*
X007593Y003678D02*
X007921Y003678D01*
X007880Y003620D02*
X007593Y003620D01*
X007593Y003561D02*
X007880Y003561D01*
X007880Y003503D02*
X007593Y003503D01*
X007593Y003444D02*
X007880Y003444D01*
X007868Y003386D02*
X007593Y003386D01*
X007593Y003327D02*
X007810Y003327D01*
X007796Y003269D02*
X007593Y003269D01*
X007593Y003210D02*
X007796Y003210D01*
X007849Y003152D02*
X007593Y003152D01*
X007593Y003093D02*
X007880Y003093D01*
X007880Y003035D02*
X007593Y003035D01*
X007593Y002976D02*
X007880Y002976D01*
X007880Y002918D02*
X007593Y002918D01*
X007593Y002859D02*
X007880Y002859D01*
X007880Y002801D02*
X007593Y002801D01*
X007593Y002742D02*
X007880Y002742D01*
X007880Y002684D02*
X007593Y002684D01*
X007593Y002625D02*
X007880Y002625D01*
X007880Y002567D02*
X007593Y002567D01*
X007593Y002508D02*
X007880Y002508D01*
X007857Y002450D02*
X007797Y002450D01*
X007797Y002391D02*
X007857Y002391D01*
X007857Y002333D02*
X007797Y002333D01*
X007797Y002274D02*
X007857Y002274D01*
X007857Y002216D02*
X007797Y002216D01*
X007797Y002157D02*
X007857Y002157D01*
X007857Y002099D02*
X007797Y002099D01*
X007797Y002040D02*
X007857Y002040D01*
X007857Y001982D02*
X007797Y001982D01*
X007797Y001923D02*
X007857Y001923D01*
X007857Y001865D02*
X007797Y001865D01*
X007797Y001806D02*
X007857Y001806D01*
X007857Y001748D02*
X007797Y001748D01*
X007797Y001689D02*
X007857Y001689D01*
X007473Y001610D02*
X007433Y001570D01*
X007473Y001610D02*
X007473Y004834D01*
X007742Y004731D02*
X019705Y004731D01*
X019705Y004673D02*
X007718Y004673D01*
X007660Y004614D02*
X019705Y004614D01*
X019705Y004556D02*
X007593Y004556D01*
X007593Y004497D02*
X019705Y004497D01*
X019705Y004439D02*
X007593Y004439D01*
X007593Y004380D02*
X019705Y004380D01*
X019705Y004322D02*
X007593Y004322D01*
X007593Y004263D02*
X019705Y004263D01*
X019705Y004205D02*
X007593Y004205D01*
X007593Y004146D02*
X019705Y004146D01*
X019705Y004088D02*
X007593Y004088D01*
X008127Y003678D02*
X019705Y003678D01*
X019705Y003620D02*
X008168Y003620D01*
X008168Y003561D02*
X019705Y003561D01*
X019705Y003503D02*
X008168Y003503D01*
X008168Y003444D02*
X019705Y003444D01*
X019705Y004790D02*
X007761Y004790D01*
X007761Y004848D02*
X019705Y004848D01*
X019705Y004907D02*
X007755Y004907D01*
X007730Y004965D02*
X019705Y004965D01*
X019705Y005024D02*
X007691Y005024D01*
X007627Y005082D02*
X019705Y005082D01*
X019705Y011810D02*
X013276Y011810D01*
X013293Y011868D02*
X019705Y011868D01*
X019705Y011927D02*
X013293Y011927D01*
X013293Y011985D02*
X019705Y011985D01*
X019705Y012044D02*
X013271Y012044D01*
X013247Y012102D02*
X019705Y012102D01*
X019705Y012161D02*
X013197Y012161D01*
X013342Y012219D02*
X019705Y012219D01*
X019705Y012278D02*
X013400Y012278D01*
X013446Y012336D02*
X019705Y012336D01*
X019705Y012395D02*
X013470Y012395D01*
X013490Y012453D02*
X019705Y012453D01*
X019705Y012512D02*
X013490Y012512D01*
X013490Y012570D02*
X019705Y012570D01*
X019705Y012629D02*
X013493Y012629D01*
X013519Y012687D02*
X019705Y012687D01*
X019705Y012746D02*
X013521Y012746D01*
X013519Y012804D02*
X019705Y012804D01*
X019705Y012863D02*
X013519Y012863D01*
X013519Y012921D02*
X019705Y012921D01*
X019705Y012980D02*
X013519Y012980D01*
X013519Y013038D02*
X019705Y013038D01*
X019705Y013097D02*
X013519Y013097D01*
X013519Y013155D02*
X019705Y013155D01*
X019705Y013214D02*
X013519Y013214D01*
X013519Y013272D02*
X019705Y013272D01*
X019705Y013331D02*
X013519Y013331D01*
X013519Y013389D02*
X019705Y013389D01*
X019705Y013448D02*
X013519Y013448D01*
X013519Y013506D02*
X019705Y013506D01*
X019705Y013565D02*
X013519Y013565D01*
X013519Y013623D02*
X019705Y013623D01*
X019705Y013682D02*
X013519Y013682D01*
X013519Y013740D02*
X019705Y013740D01*
X019705Y013799D02*
X013519Y013799D01*
X013519Y013857D02*
X019705Y013857D01*
X019705Y013916D02*
X013519Y013916D01*
X013519Y013974D02*
X019705Y013974D01*
X019705Y014033D02*
X013519Y014033D01*
X013519Y014091D02*
X019705Y014091D01*
X019705Y014150D02*
X013519Y014150D01*
X013519Y014208D02*
X019705Y014208D01*
X019705Y014267D02*
X013519Y014267D01*
X013519Y014325D02*
X019705Y014325D01*
X019705Y014384D02*
X013519Y014384D01*
X013519Y014442D02*
X019705Y014442D01*
X019705Y014501D02*
X013519Y014501D01*
X013519Y014559D02*
X019705Y014559D01*
X019705Y014618D02*
X013519Y014618D01*
X013519Y014676D02*
X019705Y014676D01*
X019705Y014735D02*
X013519Y014735D01*
X013519Y014793D02*
X019705Y014793D01*
X019705Y014852D02*
X013519Y014852D01*
X013519Y014910D02*
X019705Y014910D01*
X019705Y014969D02*
X013519Y014969D01*
X013519Y015027D02*
X019705Y015027D01*
X019705Y015086D02*
X013519Y015086D01*
X013519Y015144D02*
X019705Y015144D01*
X019705Y015203D02*
X013519Y015203D01*
X013519Y015261D02*
X019705Y015261D01*
X019705Y015320D02*
X013519Y015320D01*
X013519Y015378D02*
X019705Y015378D01*
X019705Y015437D02*
X013519Y015437D01*
X013519Y015495D02*
X019705Y015495D01*
X019705Y015554D02*
X013519Y015554D01*
X013519Y015612D02*
X019705Y015612D01*
X019705Y015671D02*
X013519Y015671D01*
X013519Y015729D02*
X019705Y015729D01*
X019705Y015788D02*
X013519Y015788D01*
X013519Y015846D02*
X019705Y015846D01*
X019705Y015905D02*
X013519Y015905D01*
X013519Y015963D02*
X019705Y015963D01*
X019705Y016022D02*
X013519Y016022D01*
X013519Y016080D02*
X019705Y016080D01*
X019705Y016139D02*
X013519Y016139D01*
X013519Y016197D02*
X019705Y016197D01*
X019705Y016256D02*
X013519Y016256D01*
X013519Y016314D02*
X019705Y016314D01*
X019705Y016373D02*
X013519Y016373D01*
X013519Y016431D02*
X019705Y016431D01*
X019705Y018713D02*
X007896Y018713D01*
X007890Y018732D02*
X007890Y018732D01*
X007861Y018771D02*
X019705Y018771D01*
X019705Y018830D02*
X007819Y018830D01*
X007776Y018888D02*
X019705Y018888D01*
X019705Y018947D02*
X007734Y018947D01*
X007663Y019005D02*
X019705Y019005D01*
X019705Y019064D02*
X007583Y019064D01*
X007502Y019122D02*
X019705Y019122D01*
X019705Y019181D02*
X007334Y019181D01*
X007492Y019129D02*
X007492Y019129D01*
X007420Y018654D02*
X007079Y018654D01*
X007195Y018596D02*
X007462Y018596D01*
X007495Y018537D02*
X007254Y018537D01*
X007291Y018479D02*
X007458Y018479D01*
X007434Y018420D02*
X007315Y018420D01*
X007329Y018362D02*
X007420Y018362D01*
X007420Y018303D02*
X007329Y018303D01*
X007327Y018245D02*
X007422Y018245D01*
X007446Y018186D02*
X007302Y018186D01*
X007278Y018128D02*
X007471Y018128D01*
X007525Y018069D02*
X007223Y018069D01*
X007147Y018011D02*
X007602Y018011D01*
X007200Y017835D02*
X006761Y017835D01*
X006833Y017777D02*
X007128Y017777D01*
X007076Y017718D02*
X006886Y017718D01*
X006910Y017660D02*
X007051Y017660D01*
X007027Y017601D02*
X006934Y017601D01*
X006935Y017543D02*
X007027Y017543D01*
X007027Y017484D02*
X006935Y017484D01*
X006920Y017426D02*
X007042Y017426D01*
X007066Y017367D02*
X006896Y017367D01*
X006857Y017309D02*
X007105Y017309D01*
X007163Y017250D02*
X006798Y017250D01*
X006677Y017192D02*
X007284Y017192D01*
X009538Y018654D02*
X010032Y018654D01*
X009916Y018596D02*
X009614Y018596D01*
X009663Y018537D02*
X009857Y018537D01*
X009820Y018479D02*
X009696Y018479D01*
X009718Y018420D02*
X009796Y018420D01*
X009783Y018362D02*
X009730Y018362D01*
X010888Y015612D02*
X010948Y015612D01*
X010948Y015554D02*
X010888Y015554D01*
X010888Y015495D02*
X010948Y015495D01*
X010948Y015437D02*
X010888Y015437D01*
X010702Y015437D02*
X010645Y015437D01*
X010645Y015261D02*
X013159Y015261D01*
X013159Y015203D02*
X010645Y015203D01*
X010645Y015144D02*
X013159Y015144D01*
X013159Y015086D02*
X010645Y015086D01*
X010645Y015027D02*
X013159Y015027D01*
X013159Y014969D02*
X010645Y014969D01*
X010645Y014910D02*
X013159Y014910D01*
X013159Y014852D02*
X010645Y014852D01*
X010645Y014793D02*
X013159Y014793D01*
X013159Y014735D02*
X010645Y014735D01*
X010645Y014676D02*
X013159Y014676D01*
X013159Y014618D02*
X010645Y014618D01*
X010645Y014559D02*
X013159Y014559D01*
X013159Y014501D02*
X010645Y014501D01*
X010645Y014442D02*
X013159Y014442D01*
X013159Y014384D02*
X010645Y014384D01*
X010645Y014325D02*
X013159Y014325D01*
X013159Y014267D02*
X010645Y014267D01*
X010645Y014208D02*
X013159Y014208D01*
X013159Y014150D02*
X010645Y014150D01*
X010645Y014091D02*
X013159Y014091D01*
X013159Y014033D02*
X010645Y014033D01*
X010645Y013974D02*
X013159Y013974D01*
X013159Y013916D02*
X010645Y013916D01*
X010525Y012766D02*
X010780Y012511D01*
X010432Y012512D02*
X010340Y012512D01*
X010340Y012570D02*
X010432Y012570D01*
X010452Y012629D02*
X010320Y012629D01*
X010338Y012687D02*
X010434Y012687D01*
X010405Y012746D02*
X010397Y012746D01*
X010432Y012453D02*
X010340Y012453D01*
X010321Y012395D02*
X010452Y012395D01*
X010476Y012336D02*
X010296Y012336D01*
X010251Y012278D02*
X010522Y012278D01*
X010580Y012219D02*
X010377Y012219D01*
X010441Y012161D02*
X010922Y012161D01*
X010872Y012102D02*
X010491Y012102D01*
X010515Y012044D02*
X010848Y012044D01*
X010826Y011985D02*
X010537Y011985D01*
X010537Y011927D02*
X010826Y011927D01*
X010826Y011868D02*
X010537Y011868D01*
X010520Y011810D02*
X010843Y011810D01*
X010867Y011751D02*
X010496Y011751D01*
X010453Y011693D02*
X010910Y011693D01*
X010968Y011634D02*
X010395Y011634D01*
X010265Y011576D02*
X011098Y011576D01*
X011250Y011576D02*
X011885Y011576D01*
X011756Y011634D02*
X011379Y011634D01*
X011438Y011693D02*
X011697Y011693D01*
X011655Y011751D02*
X011480Y011751D01*
X011504Y011810D02*
X011631Y011810D01*
X011613Y011868D02*
X011521Y011868D01*
X011521Y011927D02*
X011613Y011927D01*
X011613Y011985D02*
X011521Y011985D01*
X011499Y012044D02*
X011636Y012044D01*
X011660Y012102D02*
X011475Y012102D01*
X011537Y012161D02*
X011597Y012161D01*
X011597Y012219D02*
X011537Y012219D01*
X011537Y012278D02*
X011597Y012278D01*
X011597Y012336D02*
X011537Y012336D01*
X011537Y012395D02*
X011597Y012395D01*
X011597Y012453D02*
X011537Y012453D01*
X011537Y012629D02*
X011597Y012629D01*
X011597Y012687D02*
X011537Y012687D01*
X011537Y012746D02*
X011597Y012746D01*
X011597Y012804D02*
X011537Y012804D01*
X011537Y012863D02*
X011597Y012863D01*
X011951Y012453D02*
X012007Y012453D01*
X012027Y012395D02*
X011939Y012395D01*
X011915Y012336D02*
X012051Y012336D01*
X012096Y012278D02*
X011878Y012278D01*
X012149Y012219D02*
X012155Y012219D01*
X012213Y012161D02*
X012693Y012161D01*
X012644Y012102D02*
X012262Y012102D01*
X012287Y012044D02*
X012620Y012044D01*
X012597Y011985D02*
X012309Y011985D01*
X012309Y011927D02*
X012597Y011927D01*
X012597Y011868D02*
X012309Y011868D01*
X012292Y011810D02*
X012615Y011810D01*
X012639Y011751D02*
X012267Y011751D01*
X012225Y011693D02*
X012681Y011693D01*
X012740Y011634D02*
X012166Y011634D01*
X012037Y011576D02*
X012869Y011576D01*
X012757Y012219D02*
X012555Y012219D01*
X012613Y012278D02*
X012884Y012278D01*
X012838Y012336D02*
X012659Y012336D01*
X012683Y012395D02*
X012814Y012395D01*
X012794Y012453D02*
X012703Y012453D01*
X012355Y012511D02*
X013279Y013496D01*
X011183Y012453D02*
X011128Y012453D01*
X011108Y012395D02*
X011196Y012395D01*
X011220Y012336D02*
X011084Y012336D01*
X011038Y012278D02*
X011257Y012278D01*
X010986Y012219D02*
X010980Y012219D01*
X010113Y011576D02*
X009376Y011576D01*
X009318Y011634D02*
X009984Y011634D01*
X005605Y005784D02*
X003238Y005784D01*
X003180Y005726D02*
X003331Y005726D01*
X003208Y005667D02*
X003121Y005667D01*
X003149Y005609D02*
X003063Y005609D01*
X003110Y005550D02*
X003004Y005550D01*
X002947Y005492D02*
X003085Y005492D01*
X003070Y005433D02*
X002947Y005433D01*
X002947Y005375D02*
X003070Y005375D01*
X003070Y005316D02*
X002947Y005316D01*
X002947Y005258D02*
X003094Y005258D01*
X003118Y005199D02*
X002947Y005199D01*
X002947Y005141D02*
X003147Y005141D01*
X003016Y005082D02*
X002947Y005082D01*
X002947Y005024D02*
X002958Y005024D01*
X002707Y005024D02*
X000280Y005024D01*
X000280Y005082D02*
X002707Y005082D01*
X002707Y005141D02*
X000280Y005141D01*
X000280Y005199D02*
X002707Y005199D01*
X002707Y005258D02*
X000280Y005258D01*
X000280Y005316D02*
X002707Y005316D01*
X002707Y005375D02*
X000280Y005375D01*
X000280Y005433D02*
X002707Y005433D01*
X002707Y005492D02*
X000280Y005492D01*
X000280Y004965D02*
X002707Y004965D01*
X002707Y004907D02*
X000280Y004907D01*
X000280Y004848D02*
X002707Y004848D01*
X002707Y004790D02*
X000280Y004790D01*
X000280Y004731D02*
X002707Y004731D01*
X002707Y004673D02*
X000280Y004673D01*
X000280Y004614D02*
X002707Y004614D01*
X002707Y004556D02*
X000280Y004556D01*
X000280Y004497D02*
X002707Y004497D01*
X002707Y004439D02*
X000280Y004439D01*
X000280Y004380D02*
X002707Y004380D01*
X002707Y004322D02*
X000280Y004322D01*
X000280Y004263D02*
X002707Y004263D01*
X002707Y004205D02*
X000280Y004205D01*
X000280Y004146D02*
X002715Y004146D01*
X002774Y004088D02*
X000280Y004088D01*
X000280Y004029D02*
X002832Y004029D01*
X002891Y003971D02*
X000280Y003971D01*
X000280Y003912D02*
X002949Y003912D01*
X003008Y003854D02*
X000280Y003854D01*
X000280Y003795D02*
X003066Y003795D01*
X003125Y003737D02*
X000280Y003737D01*
X000294Y003678D02*
X003183Y003678D01*
X003242Y003620D02*
X000294Y003620D01*
X000294Y003561D02*
X003300Y003561D01*
X003359Y003503D02*
X000294Y003503D01*
X000294Y003444D02*
X003417Y003444D01*
X003476Y003386D02*
X000294Y003386D01*
X000294Y003327D02*
X003534Y003327D01*
X003593Y003269D02*
X000294Y003269D01*
X000294Y003210D02*
X003651Y003210D01*
X003710Y003152D02*
X003362Y003152D01*
X003237Y003152D02*
X001000Y003152D01*
X000875Y003152D02*
X000294Y003152D01*
X000294Y003093D02*
X000758Y003093D01*
X000699Y003035D02*
X000294Y003035D01*
X000294Y002976D02*
X000671Y002976D01*
X000649Y002918D02*
X000294Y002918D01*
X000294Y002859D02*
X000649Y002859D01*
X000652Y002801D02*
X000294Y002801D01*
X000294Y002742D02*
X000677Y002742D01*
X000712Y002684D02*
X000294Y002684D01*
X000294Y002625D02*
X000770Y002625D01*
X000964Y002567D02*
X000294Y002567D01*
X000294Y002508D02*
X000964Y002508D01*
X000964Y002450D02*
X000294Y002450D01*
X001117Y003093D02*
X003120Y003093D01*
X003061Y003035D02*
X001176Y003035D01*
X001203Y002976D02*
X003034Y002976D01*
X003011Y002918D02*
X001226Y002918D01*
X001226Y002859D02*
X003011Y002859D01*
X002994Y002801D02*
X001243Y002801D01*
X001301Y002742D02*
X002936Y002742D01*
X002933Y002684D02*
X001304Y002684D01*
X001304Y002625D02*
X002933Y002625D01*
X002933Y002567D02*
X001304Y002567D01*
X001304Y002508D02*
X002933Y002508D01*
X002933Y002450D02*
X002906Y002450D01*
X002739Y002450D02*
X002679Y002450D01*
X002679Y002391D02*
X002739Y002391D01*
X002739Y002333D02*
X002679Y002333D01*
X002679Y002274D02*
X002739Y002274D01*
X002739Y002216D02*
X002679Y002216D01*
X002679Y002157D02*
X002739Y002157D01*
X002739Y002099D02*
X002679Y002099D01*
X002679Y002040D02*
X002739Y002040D01*
X002739Y001982D02*
X002679Y001982D01*
X002679Y001923D02*
X002739Y001923D01*
X002739Y001865D02*
X002679Y001865D01*
X002679Y001806D02*
X002739Y001806D01*
X002739Y001748D02*
X002679Y001748D01*
X002679Y001689D02*
X002739Y001689D01*
X002512Y002450D02*
X001725Y002450D01*
X001558Y002450D02*
X001498Y002450D01*
X001498Y002391D02*
X001558Y002391D01*
X001558Y002333D02*
X001498Y002333D01*
X001498Y002274D02*
X001558Y002274D01*
X001558Y002216D02*
X001498Y002216D01*
X001498Y002157D02*
X001558Y002157D01*
X001558Y002099D02*
X001498Y002099D01*
X001498Y002040D02*
X001558Y002040D01*
X001558Y001982D02*
X001498Y001982D01*
X001498Y001923D02*
X001558Y001923D01*
X001558Y001865D02*
X001498Y001865D01*
X001498Y001806D02*
X001558Y001806D01*
X001558Y001748D02*
X001498Y001748D01*
X001498Y001689D02*
X001558Y001689D01*
X001331Y002450D02*
X001304Y002450D01*
X002827Y004204D02*
X002827Y005543D01*
X003221Y005937D01*
X003221Y004795D02*
X003221Y004696D01*
X003555Y004362D01*
X002827Y004204D02*
X004284Y002748D01*
X004284Y001570D01*
X004164Y002450D02*
X003273Y002450D01*
X003273Y002508D02*
X004164Y002508D01*
X004164Y002567D02*
X003273Y002567D01*
X003467Y002625D02*
X004164Y002625D01*
X004164Y002684D02*
X003525Y002684D01*
X003560Y002742D02*
X004119Y002742D01*
X004061Y002801D02*
X003585Y002801D01*
X003588Y002859D02*
X004002Y002859D01*
X003944Y002918D02*
X003588Y002918D01*
X003566Y002976D02*
X003885Y002976D01*
X003827Y003035D02*
X003538Y003035D01*
X003479Y003093D02*
X003768Y003093D01*
X005180Y004848D02*
X005235Y004848D01*
X005253Y004907D02*
X005169Y004907D01*
X005145Y004965D02*
X005277Y004965D01*
X005320Y005024D02*
X005109Y005024D01*
X005367Y005082D02*
X005379Y005082D01*
X006261Y005726D02*
X006991Y005726D01*
X007054Y005667D02*
X006384Y005667D01*
X007593Y002450D02*
X007630Y002450D01*
X001997Y018947D02*
X000280Y018947D01*
X000280Y019005D02*
X002050Y019005D01*
X002109Y019064D02*
X000280Y019064D01*
X000280Y019122D02*
X002167Y019122D01*
X002170Y019126D02*
X002170Y019126D01*
X002304Y019181D02*
X000280Y019181D01*
X000280Y019239D02*
X019705Y019239D01*
X019705Y019298D02*
X000280Y019298D01*
X000280Y019356D02*
X019705Y019356D01*
X019705Y019415D02*
X000280Y019415D01*
X000280Y019473D02*
X019705Y019473D01*
X019705Y019532D02*
X000280Y019532D01*
X000280Y019590D02*
X019705Y019590D01*
X019705Y019649D02*
X000280Y019649D01*
D16*
X007473Y004834D03*
X006804Y004263D03*
X005563Y002984D03*
X004382Y004165D03*
X003300Y002866D03*
X000937Y002866D03*
X006804Y002689D03*
D17*
X003300Y002866D02*
X003103Y002669D01*
X003103Y001570D01*
X001134Y001570D02*
X000741Y001570D01*
X000347Y001570D01*
X001134Y001570D02*
X001134Y002669D01*
X000937Y002866D01*
D18*
X001012Y011527D02*
X001012Y011708D01*
X001022Y011794D01*
X001036Y011880D01*
X001054Y011965D01*
X001076Y012049D01*
X001101Y012133D01*
X001130Y012215D01*
X001163Y012295D01*
X001199Y012375D01*
X001238Y012452D01*
X001281Y012528D01*
X001327Y012602D01*
X001376Y012674D01*
X001428Y012743D01*
X001483Y012810D01*
X001542Y012875D01*
X001603Y012937D01*
X001666Y012997D01*
X001732Y013053D01*
X001801Y013107D01*
X001871Y013158D01*
X001944Y013205D01*
X002019Y013249D01*
X002096Y013290D01*
X002174Y013328D01*
X002254Y013362D01*
X002336Y013393D01*
X002419Y013420D01*
X002502Y013443D01*
X002587Y013463D01*
X002673Y013479D01*
X002759Y013491D01*
X002845Y013499D01*
X002932Y013504D01*
X003019Y013505D01*
X003106Y013502D01*
X003193Y013495D01*
X003193Y013496D02*
X004619Y015759D01*
X005012Y016547D01*
X005012Y017531D01*
X004619Y018319D01*
X004225Y016547D02*
X005012Y016547D01*
X007079Y019008D02*
X007130Y019006D01*
X007182Y019000D01*
X007232Y018991D01*
X007282Y018977D01*
X007331Y018960D01*
X007378Y018940D01*
X007424Y018916D01*
X007467Y018888D01*
X007509Y018858D01*
X007548Y018824D01*
X007584Y018788D01*
X007618Y018749D01*
X007648Y018707D01*
X007676Y018664D01*
X007700Y018618D01*
X007720Y018571D01*
X007737Y018522D01*
X007751Y018472D01*
X007760Y018422D01*
X007766Y018370D01*
X007768Y018319D01*
X007079Y019007D02*
X002512Y019007D01*
X002512Y019008D02*
X002473Y019006D01*
X002435Y019000D01*
X002398Y018991D01*
X002361Y018978D01*
X002326Y018961D01*
X002293Y018942D01*
X002262Y018919D01*
X002233Y018893D01*
X002207Y018864D01*
X002184Y018833D01*
X002165Y018800D01*
X002148Y018765D01*
X002135Y018728D01*
X002126Y018691D01*
X002120Y018653D01*
X002118Y018614D01*
X002119Y018614D02*
X002119Y015070D01*
X004619Y012133D02*
X005662Y012133D01*
X005634Y012135D01*
X005607Y012140D01*
X005580Y012149D01*
X005556Y012162D01*
X005532Y012177D01*
X005511Y012195D01*
X005493Y012216D01*
X005478Y012240D01*
X005465Y012264D01*
X005456Y012291D01*
X005451Y012318D01*
X005449Y012346D01*
X005449Y013889D01*
X004619Y012133D02*
X004571Y012131D01*
X004524Y012126D01*
X004478Y012116D01*
X004432Y012103D01*
X004387Y012087D01*
X004344Y012067D01*
X004302Y012044D01*
X004263Y012017D01*
X004225Y011988D01*
X004190Y011956D01*
X004158Y011921D01*
X004129Y011883D01*
X004102Y011844D01*
X004079Y011802D01*
X004059Y011759D01*
X004043Y011714D01*
X004030Y011668D01*
X004020Y011622D01*
X004015Y011575D01*
X004013Y011527D01*
D19*
X002119Y015070D03*
M02*
