G75*
%MOIN*%
%OFA0B0*%
%FSLAX24Y24*%
%IPPOS*%
%LPD*%
%AMOC8*
5,1,8,0,0,1.08239X$1,22.5*
%
%ADD10C,0.0000*%
%ADD11C,0.0028*%
D10*
X000150Y000110D02*
X000150Y019795D01*
X019835Y019795D01*
X019835Y003259D01*
X007926Y003259D01*
X006919Y006173D02*
X006921Y006216D01*
X006927Y006258D01*
X006937Y006300D01*
X006950Y006340D01*
X006968Y006379D01*
X006988Y006417D01*
X007013Y006452D01*
X007040Y006485D01*
X007070Y006515D01*
X007103Y006542D01*
X007138Y006567D01*
X007176Y006587D01*
X007215Y006605D01*
X007255Y006618D01*
X007297Y006628D01*
X007339Y006634D01*
X007382Y006636D01*
X007425Y006634D01*
X007467Y006628D01*
X007509Y006618D01*
X007549Y006605D01*
X007588Y006587D01*
X007626Y006567D01*
X007661Y006542D01*
X007694Y006515D01*
X007724Y006485D01*
X007751Y006452D01*
X007776Y006417D01*
X007796Y006379D01*
X007814Y006340D01*
X007827Y006300D01*
X007837Y006258D01*
X007843Y006216D01*
X007845Y006173D01*
X007843Y006130D01*
X007837Y006088D01*
X007827Y006046D01*
X007814Y006006D01*
X007796Y005967D01*
X007776Y005929D01*
X007751Y005894D01*
X007724Y005861D01*
X007694Y005831D01*
X007661Y005804D01*
X007626Y005779D01*
X007588Y005759D01*
X007549Y005741D01*
X007509Y005728D01*
X007467Y005718D01*
X007425Y005712D01*
X007382Y005710D01*
X007339Y005712D01*
X007297Y005718D01*
X007255Y005728D01*
X007215Y005741D01*
X007176Y005759D01*
X007138Y005779D01*
X007103Y005804D01*
X007070Y005831D01*
X007040Y005861D01*
X007013Y005894D01*
X006988Y005929D01*
X006968Y005967D01*
X006950Y006006D01*
X006937Y006046D01*
X006927Y006088D01*
X006921Y006130D01*
X006919Y006173D01*
X001746Y006173D02*
X001748Y006216D01*
X001754Y006258D01*
X001764Y006300D01*
X001777Y006340D01*
X001795Y006379D01*
X001815Y006417D01*
X001840Y006452D01*
X001867Y006485D01*
X001897Y006515D01*
X001930Y006542D01*
X001965Y006567D01*
X002003Y006587D01*
X002042Y006605D01*
X002082Y006618D01*
X002124Y006628D01*
X002166Y006634D01*
X002209Y006636D01*
X002252Y006634D01*
X002294Y006628D01*
X002336Y006618D01*
X002376Y006605D01*
X002415Y006587D01*
X002453Y006567D01*
X002488Y006542D01*
X002521Y006515D01*
X002551Y006485D01*
X002578Y006452D01*
X002603Y006417D01*
X002623Y006379D01*
X002641Y006340D01*
X002654Y006300D01*
X002664Y006258D01*
X002670Y006216D01*
X002672Y006173D01*
X002670Y006130D01*
X002664Y006088D01*
X002654Y006046D01*
X002641Y006006D01*
X002623Y005967D01*
X002603Y005929D01*
X002578Y005894D01*
X002551Y005861D01*
X002521Y005831D01*
X002488Y005804D01*
X002453Y005779D01*
X002415Y005759D01*
X002376Y005741D01*
X002336Y005728D01*
X002294Y005718D01*
X002252Y005712D01*
X002209Y005710D01*
X002166Y005712D01*
X002124Y005718D01*
X002082Y005728D01*
X002042Y005741D01*
X002003Y005759D01*
X001965Y005779D01*
X001930Y005804D01*
X001897Y005831D01*
X001867Y005861D01*
X001840Y005894D01*
X001815Y005929D01*
X001795Y005967D01*
X001777Y006006D01*
X001764Y006046D01*
X001754Y006088D01*
X001748Y006130D01*
X001746Y006173D01*
X008518Y011133D02*
X008520Y011176D01*
X008526Y011218D01*
X008536Y011260D01*
X008549Y011300D01*
X008567Y011339D01*
X008587Y011377D01*
X008612Y011412D01*
X008639Y011445D01*
X008669Y011475D01*
X008702Y011502D01*
X008737Y011527D01*
X008775Y011547D01*
X008814Y011565D01*
X008854Y011578D01*
X008896Y011588D01*
X008938Y011594D01*
X008981Y011596D01*
X009024Y011594D01*
X009066Y011588D01*
X009108Y011578D01*
X009148Y011565D01*
X009187Y011547D01*
X009225Y011527D01*
X009260Y011502D01*
X009293Y011475D01*
X009323Y011445D01*
X009350Y011412D01*
X009375Y011377D01*
X009395Y011339D01*
X009413Y011300D01*
X009426Y011260D01*
X009436Y011218D01*
X009442Y011176D01*
X009444Y011133D01*
X009442Y011090D01*
X009436Y011048D01*
X009426Y011006D01*
X009413Y010966D01*
X009395Y010927D01*
X009375Y010889D01*
X009350Y010854D01*
X009323Y010821D01*
X009293Y010791D01*
X009260Y010764D01*
X009225Y010739D01*
X009187Y010719D01*
X009148Y010701D01*
X009108Y010688D01*
X009066Y010678D01*
X009024Y010672D01*
X008981Y010670D01*
X008938Y010672D01*
X008896Y010678D01*
X008854Y010688D01*
X008814Y010701D01*
X008775Y010719D01*
X008737Y010739D01*
X008702Y010764D01*
X008669Y010791D01*
X008639Y010821D01*
X008612Y010854D01*
X008587Y010889D01*
X008567Y010927D01*
X008549Y010966D01*
X008536Y011006D01*
X008526Y011048D01*
X008520Y011090D01*
X008518Y011133D01*
X013691Y011133D02*
X013693Y011176D01*
X013699Y011218D01*
X013709Y011260D01*
X013722Y011300D01*
X013740Y011339D01*
X013760Y011377D01*
X013785Y011412D01*
X013812Y011445D01*
X013842Y011475D01*
X013875Y011502D01*
X013910Y011527D01*
X013948Y011547D01*
X013987Y011565D01*
X014027Y011578D01*
X014069Y011588D01*
X014111Y011594D01*
X014154Y011596D01*
X014197Y011594D01*
X014239Y011588D01*
X014281Y011578D01*
X014321Y011565D01*
X014360Y011547D01*
X014398Y011527D01*
X014433Y011502D01*
X014466Y011475D01*
X014496Y011445D01*
X014523Y011412D01*
X014548Y011377D01*
X014568Y011339D01*
X014586Y011300D01*
X014599Y011260D01*
X014609Y011218D01*
X014615Y011176D01*
X014617Y011133D01*
X014615Y011090D01*
X014609Y011048D01*
X014599Y011006D01*
X014586Y010966D01*
X014568Y010927D01*
X014548Y010889D01*
X014523Y010854D01*
X014496Y010821D01*
X014466Y010791D01*
X014433Y010764D01*
X014398Y010739D01*
X014360Y010719D01*
X014321Y010701D01*
X014281Y010688D01*
X014239Y010678D01*
X014197Y010672D01*
X014154Y010670D01*
X014111Y010672D01*
X014069Y010678D01*
X014027Y010688D01*
X013987Y010701D01*
X013948Y010719D01*
X013910Y010739D01*
X013875Y010764D01*
X013842Y010791D01*
X013812Y010821D01*
X013785Y010854D01*
X013760Y010889D01*
X013740Y010927D01*
X013722Y010966D01*
X013709Y011006D01*
X013699Y011048D01*
X013693Y011090D01*
X013691Y011133D01*
X011951Y017039D02*
X011953Y017082D01*
X011959Y017124D01*
X011969Y017166D01*
X011982Y017206D01*
X012000Y017245D01*
X012020Y017283D01*
X012045Y017318D01*
X012072Y017351D01*
X012102Y017381D01*
X012135Y017408D01*
X012170Y017433D01*
X012208Y017453D01*
X012247Y017471D01*
X012287Y017484D01*
X012329Y017494D01*
X012371Y017500D01*
X012414Y017502D01*
X012457Y017500D01*
X012499Y017494D01*
X012541Y017484D01*
X012581Y017471D01*
X012620Y017453D01*
X012658Y017433D01*
X012693Y017408D01*
X012726Y017381D01*
X012756Y017351D01*
X012783Y017318D01*
X012808Y017283D01*
X012828Y017245D01*
X012846Y017206D01*
X012859Y017166D01*
X012869Y017124D01*
X012875Y017082D01*
X012877Y017039D01*
X012875Y016996D01*
X012869Y016954D01*
X012859Y016912D01*
X012846Y016872D01*
X012828Y016833D01*
X012808Y016795D01*
X012783Y016760D01*
X012756Y016727D01*
X012726Y016697D01*
X012693Y016670D01*
X012658Y016645D01*
X012620Y016625D01*
X012581Y016607D01*
X012541Y016594D01*
X012499Y016584D01*
X012457Y016578D01*
X012414Y016576D01*
X012371Y016578D01*
X012329Y016584D01*
X012287Y016594D01*
X012247Y016607D01*
X012208Y016625D01*
X012170Y016645D01*
X012135Y016670D01*
X012102Y016697D01*
X012072Y016727D01*
X012045Y016760D01*
X012020Y016795D01*
X012000Y016833D01*
X011982Y016872D01*
X011969Y016912D01*
X011959Y016954D01*
X011953Y016996D01*
X011951Y017039D01*
X008348Y017039D02*
X008350Y017082D01*
X008356Y017124D01*
X008366Y017166D01*
X008379Y017206D01*
X008397Y017245D01*
X008417Y017283D01*
X008442Y017318D01*
X008469Y017351D01*
X008499Y017381D01*
X008532Y017408D01*
X008567Y017433D01*
X008605Y017453D01*
X008644Y017471D01*
X008684Y017484D01*
X008726Y017494D01*
X008768Y017500D01*
X008811Y017502D01*
X008854Y017500D01*
X008896Y017494D01*
X008938Y017484D01*
X008978Y017471D01*
X009017Y017453D01*
X009055Y017433D01*
X009090Y017408D01*
X009123Y017381D01*
X009153Y017351D01*
X009180Y017318D01*
X009205Y017283D01*
X009225Y017245D01*
X009243Y017206D01*
X009256Y017166D01*
X009266Y017124D01*
X009272Y017082D01*
X009274Y017039D01*
X009272Y016996D01*
X009266Y016954D01*
X009256Y016912D01*
X009243Y016872D01*
X009225Y016833D01*
X009205Y016795D01*
X009180Y016760D01*
X009153Y016727D01*
X009123Y016697D01*
X009090Y016670D01*
X009055Y016645D01*
X009017Y016625D01*
X008978Y016607D01*
X008938Y016594D01*
X008896Y016584D01*
X008854Y016578D01*
X008811Y016576D01*
X008768Y016578D01*
X008726Y016584D01*
X008684Y016594D01*
X008644Y016607D01*
X008605Y016625D01*
X008567Y016645D01*
X008532Y016670D01*
X008499Y016697D01*
X008469Y016727D01*
X008442Y016760D01*
X008417Y016795D01*
X008397Y016833D01*
X008379Y016872D01*
X008366Y016912D01*
X008356Y016954D01*
X008350Y016996D01*
X008348Y017039D01*
D11*
X000150Y003657D02*
X000150Y002319D01*
X000150Y000232D01*
X000229Y000114D01*
X004363Y000114D01*
X004481Y000232D01*
X004481Y002319D01*
X004481Y002338D02*
X004481Y003165D01*
X004480Y003165D02*
X004482Y003204D01*
X004488Y003242D01*
X004497Y003279D01*
X004510Y003316D01*
X004527Y003351D01*
X004546Y003384D01*
X004569Y003415D01*
X004595Y003444D01*
X004624Y003470D01*
X004655Y003493D01*
X004688Y003512D01*
X004723Y003529D01*
X004760Y003542D01*
X004797Y003551D01*
X004835Y003557D01*
X004874Y003559D01*
X004913Y003557D01*
X004951Y003551D01*
X004988Y003542D01*
X005025Y003529D01*
X005060Y003512D01*
X005093Y003493D01*
X005124Y003470D01*
X005153Y003444D01*
X005179Y003415D01*
X005202Y003384D01*
X005221Y003351D01*
X005238Y003316D01*
X005251Y003279D01*
X005260Y003242D01*
X005266Y003204D01*
X005268Y003165D01*
X005268Y002319D01*
X005268Y000232D01*
X005386Y000114D01*
X007906Y000114D01*
X008024Y000232D01*
X008024Y003578D01*
M02*
