G75*
%MOIN*%
%OFA0B0*%
%FSLAX24Y24*%
%IPPOS*%
%LPD*%
%AMOC8*
5,1,8,0,0,1.08239X$1,22.5*
%
%ADD10C,0.0500*%
%ADD11C,0.0110*%
%ADD12R,0.0500X0.0500*%
%ADD13C,0.0591*%
%ADD14OC8,0.0630*%
%ADD15C,0.0060*%
%ADD16C,0.0376*%
%ADD17C,0.0160*%
%ADD18C,0.0240*%
%ADD19C,0.0260*%
D10*
X003221Y004795D03*
X003418Y005385D03*
X004008Y004795D03*
X004402Y005385D03*
X004796Y004795D03*
X005189Y005385D03*
X005583Y004795D03*
X006174Y005385D03*
X006370Y004795D03*
X010189Y011921D03*
X009993Y012511D03*
X010780Y012511D03*
X011174Y011921D03*
X011567Y012511D03*
X011961Y011921D03*
X012355Y012511D03*
X012945Y011921D03*
X013142Y012511D03*
X011705Y015759D03*
X010918Y015759D03*
X010130Y015759D03*
X009343Y015759D03*
X009737Y016547D03*
X010524Y016547D03*
X011311Y016547D03*
X011311Y017531D03*
X010524Y017531D03*
X009737Y017531D03*
X010130Y018319D03*
X009343Y018319D03*
X008162Y017531D03*
X007374Y017531D03*
X006587Y017531D03*
X005800Y017531D03*
X005012Y017531D03*
X004619Y018319D03*
X005406Y018319D03*
X006193Y018319D03*
X006981Y018319D03*
X007768Y018319D03*
X007374Y016547D03*
X006587Y016547D03*
X005800Y016547D03*
X005012Y016547D03*
X004225Y016547D03*
X004619Y015759D03*
X005406Y015759D03*
X006193Y015759D03*
X006981Y015759D03*
X007768Y015759D03*
X008162Y016547D03*
X010918Y018319D03*
X011705Y018319D03*
D11*
X000430Y002302D02*
X000430Y000838D01*
X000264Y000838D01*
X000264Y002302D01*
X000430Y002302D01*
X000430Y000947D02*
X000264Y000947D01*
X000264Y001056D02*
X000430Y001056D01*
X000430Y001165D02*
X000264Y001165D01*
X000264Y001274D02*
X000430Y001274D01*
X000430Y001383D02*
X000264Y001383D01*
X000264Y001492D02*
X000430Y001492D01*
X000430Y001601D02*
X000264Y001601D01*
X000264Y001710D02*
X000430Y001710D01*
X000430Y001819D02*
X000264Y001819D01*
X000264Y001928D02*
X000430Y001928D01*
X000430Y002037D02*
X000264Y002037D01*
X000264Y002146D02*
X000430Y002146D01*
X000430Y002255D02*
X000264Y002255D01*
X000824Y002302D02*
X000824Y000838D01*
X000658Y000838D01*
X000658Y002302D01*
X000824Y002302D01*
X000824Y000947D02*
X000658Y000947D01*
X000658Y001056D02*
X000824Y001056D01*
X000824Y001165D02*
X000658Y001165D01*
X000658Y001274D02*
X000824Y001274D01*
X000824Y001383D02*
X000658Y001383D01*
X000658Y001492D02*
X000824Y001492D01*
X000824Y001601D02*
X000658Y001601D01*
X000658Y001710D02*
X000824Y001710D01*
X000824Y001819D02*
X000658Y001819D01*
X000658Y001928D02*
X000824Y001928D01*
X000824Y002037D02*
X000658Y002037D01*
X000658Y002146D02*
X000824Y002146D01*
X000824Y002255D02*
X000658Y002255D01*
X001217Y002302D02*
X001217Y000838D01*
X001051Y000838D01*
X001051Y002302D01*
X001217Y002302D01*
X001217Y000947D02*
X001051Y000947D01*
X001051Y001056D02*
X001217Y001056D01*
X001217Y001165D02*
X001051Y001165D01*
X001051Y001274D02*
X001217Y001274D01*
X001217Y001383D02*
X001051Y001383D01*
X001051Y001492D02*
X001217Y001492D01*
X001217Y001601D02*
X001051Y001601D01*
X001051Y001710D02*
X001217Y001710D01*
X001217Y001819D02*
X001051Y001819D01*
X001051Y001928D02*
X001217Y001928D01*
X001217Y002037D02*
X001051Y002037D01*
X001051Y002146D02*
X001217Y002146D01*
X001217Y002255D02*
X001051Y002255D01*
X001611Y002302D02*
X001611Y000838D01*
X001445Y000838D01*
X001445Y002302D01*
X001611Y002302D01*
X001611Y000947D02*
X001445Y000947D01*
X001445Y001056D02*
X001611Y001056D01*
X001611Y001165D02*
X001445Y001165D01*
X001445Y001274D02*
X001611Y001274D01*
X001611Y001383D02*
X001445Y001383D01*
X001445Y001492D02*
X001611Y001492D01*
X001611Y001601D02*
X001445Y001601D01*
X001445Y001710D02*
X001611Y001710D01*
X001611Y001819D02*
X001445Y001819D01*
X001445Y001928D02*
X001611Y001928D01*
X001611Y002037D02*
X001445Y002037D01*
X001445Y002146D02*
X001611Y002146D01*
X001611Y002255D02*
X001445Y002255D01*
X002005Y002302D02*
X002005Y000838D01*
X001839Y000838D01*
X001839Y002302D01*
X002005Y002302D01*
X002005Y000947D02*
X001839Y000947D01*
X001839Y001056D02*
X002005Y001056D01*
X002005Y001165D02*
X001839Y001165D01*
X001839Y001274D02*
X002005Y001274D01*
X002005Y001383D02*
X001839Y001383D01*
X001839Y001492D02*
X002005Y001492D01*
X002005Y001601D02*
X001839Y001601D01*
X001839Y001710D02*
X002005Y001710D01*
X002005Y001819D02*
X001839Y001819D01*
X001839Y001928D02*
X002005Y001928D01*
X002005Y002037D02*
X001839Y002037D01*
X001839Y002146D02*
X002005Y002146D01*
X002005Y002255D02*
X001839Y002255D01*
X002398Y002302D02*
X002398Y000838D01*
X002232Y000838D01*
X002232Y002302D01*
X002398Y002302D01*
X002398Y000947D02*
X002232Y000947D01*
X002232Y001056D02*
X002398Y001056D01*
X002398Y001165D02*
X002232Y001165D01*
X002232Y001274D02*
X002398Y001274D01*
X002398Y001383D02*
X002232Y001383D01*
X002232Y001492D02*
X002398Y001492D01*
X002398Y001601D02*
X002232Y001601D01*
X002232Y001710D02*
X002398Y001710D01*
X002398Y001819D02*
X002232Y001819D01*
X002232Y001928D02*
X002398Y001928D01*
X002398Y002037D02*
X002232Y002037D01*
X002232Y002146D02*
X002398Y002146D01*
X002398Y002255D02*
X002232Y002255D01*
X002792Y002302D02*
X002792Y000838D01*
X002626Y000838D01*
X002626Y002302D01*
X002792Y002302D01*
X002792Y000947D02*
X002626Y000947D01*
X002626Y001056D02*
X002792Y001056D01*
X002792Y001165D02*
X002626Y001165D01*
X002626Y001274D02*
X002792Y001274D01*
X002792Y001383D02*
X002626Y001383D01*
X002626Y001492D02*
X002792Y001492D01*
X002792Y001601D02*
X002626Y001601D01*
X002626Y001710D02*
X002792Y001710D01*
X002792Y001819D02*
X002626Y001819D01*
X002626Y001928D02*
X002792Y001928D01*
X002792Y002037D02*
X002626Y002037D01*
X002626Y002146D02*
X002792Y002146D01*
X002792Y002255D02*
X002626Y002255D01*
X003186Y002302D02*
X003186Y000838D01*
X003020Y000838D01*
X003020Y002302D01*
X003186Y002302D01*
X003186Y000947D02*
X003020Y000947D01*
X003020Y001056D02*
X003186Y001056D01*
X003186Y001165D02*
X003020Y001165D01*
X003020Y001274D02*
X003186Y001274D01*
X003186Y001383D02*
X003020Y001383D01*
X003020Y001492D02*
X003186Y001492D01*
X003186Y001601D02*
X003020Y001601D01*
X003020Y001710D02*
X003186Y001710D01*
X003186Y001819D02*
X003020Y001819D01*
X003020Y001928D02*
X003186Y001928D01*
X003186Y002037D02*
X003020Y002037D01*
X003020Y002146D02*
X003186Y002146D01*
X003186Y002255D02*
X003020Y002255D01*
X003579Y002302D02*
X003579Y000838D01*
X003413Y000838D01*
X003413Y002302D01*
X003579Y002302D01*
X003579Y000947D02*
X003413Y000947D01*
X003413Y001056D02*
X003579Y001056D01*
X003579Y001165D02*
X003413Y001165D01*
X003413Y001274D02*
X003579Y001274D01*
X003579Y001383D02*
X003413Y001383D01*
X003413Y001492D02*
X003579Y001492D01*
X003579Y001601D02*
X003413Y001601D01*
X003413Y001710D02*
X003579Y001710D01*
X003579Y001819D02*
X003413Y001819D01*
X003413Y001928D02*
X003579Y001928D01*
X003579Y002037D02*
X003413Y002037D01*
X003413Y002146D02*
X003579Y002146D01*
X003579Y002255D02*
X003413Y002255D01*
X003973Y002302D02*
X003973Y000838D01*
X003807Y000838D01*
X003807Y002302D01*
X003973Y002302D01*
X003973Y000947D02*
X003807Y000947D01*
X003807Y001056D02*
X003973Y001056D01*
X003973Y001165D02*
X003807Y001165D01*
X003807Y001274D02*
X003973Y001274D01*
X003973Y001383D02*
X003807Y001383D01*
X003807Y001492D02*
X003973Y001492D01*
X003973Y001601D02*
X003807Y001601D01*
X003807Y001710D02*
X003973Y001710D01*
X003973Y001819D02*
X003807Y001819D01*
X003807Y001928D02*
X003973Y001928D01*
X003973Y002037D02*
X003807Y002037D01*
X003807Y002146D02*
X003973Y002146D01*
X003973Y002255D02*
X003807Y002255D01*
X004367Y002302D02*
X004367Y000838D01*
X004201Y000838D01*
X004201Y002302D01*
X004367Y002302D01*
X004367Y000947D02*
X004201Y000947D01*
X004201Y001056D02*
X004367Y001056D01*
X004367Y001165D02*
X004201Y001165D01*
X004201Y001274D02*
X004367Y001274D01*
X004367Y001383D02*
X004201Y001383D01*
X004201Y001492D02*
X004367Y001492D01*
X004367Y001601D02*
X004201Y001601D01*
X004201Y001710D02*
X004367Y001710D01*
X004367Y001819D02*
X004201Y001819D01*
X004201Y001928D02*
X004367Y001928D01*
X004367Y002037D02*
X004201Y002037D01*
X004201Y002146D02*
X004367Y002146D01*
X004367Y002255D02*
X004201Y002255D01*
X005548Y002302D02*
X005548Y000838D01*
X005382Y000838D01*
X005382Y002302D01*
X005548Y002302D01*
X005548Y000947D02*
X005382Y000947D01*
X005382Y001056D02*
X005548Y001056D01*
X005548Y001165D02*
X005382Y001165D01*
X005382Y001274D02*
X005548Y001274D01*
X005548Y001383D02*
X005382Y001383D01*
X005382Y001492D02*
X005548Y001492D01*
X005548Y001601D02*
X005382Y001601D01*
X005382Y001710D02*
X005548Y001710D01*
X005548Y001819D02*
X005382Y001819D01*
X005382Y001928D02*
X005548Y001928D01*
X005548Y002037D02*
X005382Y002037D01*
X005382Y002146D02*
X005548Y002146D01*
X005548Y002255D02*
X005382Y002255D01*
X005942Y002302D02*
X005942Y000838D01*
X005776Y000838D01*
X005776Y002302D01*
X005942Y002302D01*
X005942Y000947D02*
X005776Y000947D01*
X005776Y001056D02*
X005942Y001056D01*
X005942Y001165D02*
X005776Y001165D01*
X005776Y001274D02*
X005942Y001274D01*
X005942Y001383D02*
X005776Y001383D01*
X005776Y001492D02*
X005942Y001492D01*
X005942Y001601D02*
X005776Y001601D01*
X005776Y001710D02*
X005942Y001710D01*
X005942Y001819D02*
X005776Y001819D01*
X005776Y001928D02*
X005942Y001928D01*
X005942Y002037D02*
X005776Y002037D01*
X005776Y002146D02*
X005942Y002146D01*
X005942Y002255D02*
X005776Y002255D01*
X006335Y002302D02*
X006335Y000838D01*
X006169Y000838D01*
X006169Y002302D01*
X006335Y002302D01*
X006335Y000947D02*
X006169Y000947D01*
X006169Y001056D02*
X006335Y001056D01*
X006335Y001165D02*
X006169Y001165D01*
X006169Y001274D02*
X006335Y001274D01*
X006335Y001383D02*
X006169Y001383D01*
X006169Y001492D02*
X006335Y001492D01*
X006335Y001601D02*
X006169Y001601D01*
X006169Y001710D02*
X006335Y001710D01*
X006335Y001819D02*
X006169Y001819D01*
X006169Y001928D02*
X006335Y001928D01*
X006335Y002037D02*
X006169Y002037D01*
X006169Y002146D02*
X006335Y002146D01*
X006335Y002255D02*
X006169Y002255D01*
X006729Y002302D02*
X006729Y000838D01*
X006563Y000838D01*
X006563Y002302D01*
X006729Y002302D01*
X006729Y000947D02*
X006563Y000947D01*
X006563Y001056D02*
X006729Y001056D01*
X006729Y001165D02*
X006563Y001165D01*
X006563Y001274D02*
X006729Y001274D01*
X006729Y001383D02*
X006563Y001383D01*
X006563Y001492D02*
X006729Y001492D01*
X006729Y001601D02*
X006563Y001601D01*
X006563Y001710D02*
X006729Y001710D01*
X006729Y001819D02*
X006563Y001819D01*
X006563Y001928D02*
X006729Y001928D01*
X006729Y002037D02*
X006563Y002037D01*
X006563Y002146D02*
X006729Y002146D01*
X006729Y002255D02*
X006563Y002255D01*
X007123Y002302D02*
X007123Y000838D01*
X006957Y000838D01*
X006957Y002302D01*
X007123Y002302D01*
X007123Y000947D02*
X006957Y000947D01*
X006957Y001056D02*
X007123Y001056D01*
X007123Y001165D02*
X006957Y001165D01*
X006957Y001274D02*
X007123Y001274D01*
X007123Y001383D02*
X006957Y001383D01*
X006957Y001492D02*
X007123Y001492D01*
X007123Y001601D02*
X006957Y001601D01*
X006957Y001710D02*
X007123Y001710D01*
X007123Y001819D02*
X006957Y001819D01*
X006957Y001928D02*
X007123Y001928D01*
X007123Y002037D02*
X006957Y002037D01*
X006957Y002146D02*
X007123Y002146D01*
X007123Y002255D02*
X006957Y002255D01*
X007516Y002302D02*
X007516Y000838D01*
X007350Y000838D01*
X007350Y002302D01*
X007516Y002302D01*
X007516Y000947D02*
X007350Y000947D01*
X007350Y001056D02*
X007516Y001056D01*
X007516Y001165D02*
X007350Y001165D01*
X007350Y001274D02*
X007516Y001274D01*
X007516Y001383D02*
X007350Y001383D01*
X007350Y001492D02*
X007516Y001492D01*
X007516Y001601D02*
X007350Y001601D01*
X007350Y001710D02*
X007516Y001710D01*
X007516Y001819D02*
X007350Y001819D01*
X007350Y001928D02*
X007516Y001928D01*
X007516Y002037D02*
X007350Y002037D01*
X007350Y002146D02*
X007516Y002146D01*
X007516Y002255D02*
X007350Y002255D01*
X007910Y002302D02*
X007910Y000838D01*
X007744Y000838D01*
X007744Y002302D01*
X007910Y002302D01*
X007910Y000947D02*
X007744Y000947D01*
X007744Y001056D02*
X007910Y001056D01*
X007910Y001165D02*
X007744Y001165D01*
X007744Y001274D02*
X007910Y001274D01*
X007910Y001383D02*
X007744Y001383D01*
X007744Y001492D02*
X007910Y001492D01*
X007910Y001601D02*
X007744Y001601D01*
X007744Y001710D02*
X007910Y001710D01*
X007910Y001819D02*
X007744Y001819D01*
X007744Y001928D02*
X007910Y001928D01*
X007910Y002037D02*
X007744Y002037D01*
X007744Y002146D02*
X007910Y002146D01*
X007910Y002255D02*
X007744Y002255D01*
D12*
X004225Y017531D03*
D13*
X005449Y014185D02*
X005449Y013594D01*
X006449Y013594D02*
X006449Y014185D01*
X007449Y014185D02*
X007449Y013594D01*
X004012Y011822D02*
X004012Y011232D01*
X003012Y011232D02*
X003012Y011822D01*
X002012Y011822D02*
X002012Y011232D01*
X001012Y011232D02*
X001012Y011822D01*
D14*
X003193Y013496D03*
X004193Y013496D03*
X005662Y012133D03*
X007237Y012133D03*
X007237Y010133D03*
X005662Y010133D03*
D15*
X005692Y010113D02*
X007207Y010113D01*
X007207Y010103D02*
X006792Y010103D01*
X006792Y009949D01*
X007052Y009688D01*
X007207Y009688D01*
X007207Y010103D01*
X007267Y010103D01*
X007267Y010163D01*
X007682Y010163D01*
X007682Y010318D01*
X007421Y010578D01*
X007267Y010578D01*
X007267Y010163D01*
X007207Y010163D01*
X007207Y010103D01*
X007207Y010055D02*
X007267Y010055D01*
X007267Y010103D02*
X007267Y009688D01*
X007421Y009688D01*
X007682Y009949D01*
X007682Y010103D01*
X007267Y010103D01*
X007267Y010113D02*
X019655Y010113D01*
X019655Y010055D02*
X007682Y010055D01*
X007682Y009996D02*
X019655Y009996D01*
X019655Y009938D02*
X007670Y009938D01*
X007612Y009879D02*
X019655Y009879D01*
X019655Y009821D02*
X007553Y009821D01*
X007495Y009762D02*
X019655Y009762D01*
X019655Y009704D02*
X007436Y009704D01*
X007267Y009704D02*
X007207Y009704D01*
X007207Y009762D02*
X007267Y009762D01*
X007267Y009821D02*
X007207Y009821D01*
X007207Y009879D02*
X007267Y009879D01*
X007267Y009938D02*
X007207Y009938D01*
X007207Y009996D02*
X007267Y009996D01*
X007267Y010172D02*
X007207Y010172D01*
X007207Y010163D02*
X007207Y010578D01*
X007052Y010578D01*
X006792Y010318D01*
X006792Y010163D01*
X007207Y010163D01*
X007207Y010230D02*
X007267Y010230D01*
X007267Y010289D02*
X007207Y010289D01*
X007207Y010347D02*
X007267Y010347D01*
X007267Y010406D02*
X007207Y010406D01*
X007207Y010464D02*
X007267Y010464D01*
X007267Y010523D02*
X007207Y010523D01*
X006997Y010523D02*
X005902Y010523D01*
X005846Y010578D02*
X005692Y010578D01*
X005692Y010163D01*
X006107Y010163D01*
X006107Y010318D01*
X005846Y010578D01*
X005960Y010464D02*
X006938Y010464D01*
X006880Y010406D02*
X006019Y010406D01*
X006077Y010347D02*
X006821Y010347D01*
X006792Y010289D02*
X006107Y010289D01*
X006107Y010230D02*
X006792Y010230D01*
X006792Y010172D02*
X006107Y010172D01*
X006107Y010103D02*
X005692Y010103D01*
X005692Y009688D01*
X005846Y009688D01*
X006107Y009949D01*
X006107Y010103D01*
X006107Y010055D02*
X006792Y010055D01*
X006792Y009996D02*
X006107Y009996D01*
X006096Y009938D02*
X006803Y009938D01*
X006861Y009879D02*
X006037Y009879D01*
X005979Y009821D02*
X006920Y009821D01*
X006978Y009762D02*
X005920Y009762D01*
X005862Y009704D02*
X007037Y009704D01*
X007682Y010172D02*
X019655Y010172D01*
X019655Y010230D02*
X007682Y010230D01*
X007682Y010289D02*
X019655Y010289D01*
X019655Y010347D02*
X007652Y010347D01*
X007594Y010406D02*
X019655Y010406D01*
X019655Y010464D02*
X007535Y010464D01*
X007477Y010523D02*
X008776Y010523D01*
X008853Y010491D02*
X008617Y010589D01*
X008436Y010769D01*
X008338Y011006D01*
X008338Y011261D01*
X008436Y011497D01*
X008617Y011678D01*
X008853Y011776D01*
X009109Y011776D01*
X009345Y011678D01*
X009525Y011497D01*
X009623Y011261D01*
X009623Y011006D01*
X009525Y010769D01*
X009345Y010589D01*
X009109Y010491D01*
X008853Y010491D01*
X008634Y010581D02*
X000330Y010581D01*
X000330Y010523D02*
X005422Y010523D01*
X005477Y010578D02*
X005217Y010318D01*
X005217Y010163D01*
X005632Y010163D01*
X005632Y010103D01*
X005692Y010103D01*
X005692Y010163D01*
X005632Y010163D01*
X005632Y010578D01*
X005477Y010578D01*
X005363Y010464D02*
X000330Y010464D01*
X000330Y010406D02*
X005305Y010406D01*
X005246Y010347D02*
X000330Y010347D01*
X000330Y010289D02*
X005217Y010289D01*
X005217Y010230D02*
X000330Y010230D01*
X000330Y010172D02*
X005217Y010172D01*
X005217Y010103D02*
X005217Y009949D01*
X005477Y009688D01*
X005632Y009688D01*
X005632Y010103D01*
X005217Y010103D01*
X005217Y010055D02*
X000330Y010055D01*
X000330Y010113D02*
X005632Y010113D01*
X005632Y010055D02*
X005692Y010055D01*
X005692Y009996D02*
X005632Y009996D01*
X005632Y009938D02*
X005692Y009938D01*
X005692Y009879D02*
X005632Y009879D01*
X005632Y009821D02*
X005692Y009821D01*
X005692Y009762D02*
X005632Y009762D01*
X005632Y009704D02*
X005692Y009704D01*
X005462Y009704D02*
X000330Y009704D01*
X000330Y009762D02*
X005404Y009762D01*
X005345Y009821D02*
X000330Y009821D01*
X000330Y009879D02*
X005287Y009879D01*
X005228Y009938D02*
X000330Y009938D01*
X000330Y009996D02*
X005217Y009996D01*
X005632Y010172D02*
X005692Y010172D01*
X005692Y010230D02*
X005632Y010230D01*
X005632Y010289D02*
X005692Y010289D01*
X005692Y010347D02*
X005632Y010347D01*
X005632Y010406D02*
X005692Y010406D01*
X005692Y010464D02*
X005632Y010464D01*
X005632Y010523D02*
X005692Y010523D01*
X005830Y011728D02*
X005494Y011728D01*
X005299Y011923D01*
X004619Y011923D01*
X004541Y011916D01*
X004398Y011857D01*
X004397Y011856D01*
X004397Y011155D01*
X004339Y011014D01*
X004230Y010905D01*
X004089Y010847D01*
X003936Y010847D01*
X003794Y010905D01*
X003686Y011014D01*
X003627Y011155D01*
X003627Y011899D01*
X003686Y012041D01*
X003794Y012149D01*
X003936Y012208D01*
X004089Y012208D01*
X004128Y012191D01*
X004156Y012219D01*
X004156Y012219D01*
X004456Y012343D01*
X005239Y012343D01*
X005239Y013264D01*
X005231Y013267D01*
X005123Y013376D01*
X005064Y013517D01*
X005064Y014261D01*
X005123Y014403D01*
X005231Y014511D01*
X005373Y014570D01*
X005526Y014570D01*
X005667Y014511D01*
X005776Y014403D01*
X005834Y014261D01*
X005834Y013517D01*
X005776Y013376D01*
X005667Y013267D01*
X005659Y013264D01*
X005659Y012538D01*
X005830Y012538D01*
X006067Y012301D01*
X006067Y011966D01*
X005830Y011728D01*
X005852Y011751D02*
X007046Y011751D01*
X007069Y011728D02*
X007404Y011728D01*
X007642Y011966D01*
X007642Y012301D01*
X007404Y012538D01*
X007069Y012538D01*
X006832Y012301D01*
X006832Y011966D01*
X007069Y011728D01*
X006987Y011810D02*
X005911Y011810D01*
X005969Y011868D02*
X006929Y011868D01*
X006870Y011927D02*
X006028Y011927D01*
X006067Y011985D02*
X006832Y011985D01*
X006832Y012044D02*
X006067Y012044D01*
X006067Y012102D02*
X006832Y012102D01*
X006832Y012161D02*
X006067Y012161D01*
X006067Y012219D02*
X006832Y012219D01*
X006832Y012278D02*
X006067Y012278D01*
X006032Y012336D02*
X006867Y012336D01*
X006925Y012395D02*
X005973Y012395D01*
X005915Y012453D02*
X006984Y012453D01*
X007042Y012512D02*
X005856Y012512D01*
X005659Y012570D02*
X009653Y012570D01*
X009653Y012579D02*
X009653Y012444D01*
X009704Y012319D01*
X009800Y012223D01*
X009925Y012171D01*
X009959Y012171D01*
X009901Y012113D01*
X009849Y011988D01*
X009849Y011853D01*
X009901Y011728D01*
X009997Y011633D01*
X010122Y011581D01*
X010257Y011581D01*
X010382Y011633D01*
X010478Y011728D01*
X010529Y011853D01*
X010529Y011988D01*
X010478Y012113D01*
X010382Y012209D01*
X010257Y012261D01*
X010223Y012261D01*
X010281Y012319D01*
X010333Y012444D01*
X010333Y012579D01*
X010302Y012652D01*
X010405Y012754D01*
X010405Y012717D01*
X010470Y012652D01*
X010440Y012579D01*
X010440Y012444D01*
X010492Y012319D01*
X010587Y012223D01*
X010712Y012171D01*
X010848Y012171D01*
X010973Y012223D01*
X011068Y012319D01*
X011120Y012444D01*
X011120Y012579D01*
X011068Y012704D01*
X010973Y012800D01*
X010848Y012851D01*
X010712Y012851D01*
X010645Y012824D01*
X010645Y015495D01*
X010675Y015464D01*
X010738Y015423D01*
X010807Y015394D01*
X010880Y015379D01*
X010888Y015379D01*
X010888Y015729D01*
X010948Y015729D01*
X010948Y015379D01*
X010955Y015379D01*
X011029Y015394D01*
X011098Y015423D01*
X011160Y015464D01*
X011213Y015517D01*
X011254Y015579D01*
X011283Y015649D01*
X011298Y015722D01*
X011298Y015729D01*
X011325Y015729D01*
X011325Y015722D01*
X011340Y015649D01*
X011368Y015579D01*
X011410Y015517D01*
X011463Y015464D01*
X011525Y015423D01*
X011594Y015394D01*
X011668Y015379D01*
X011675Y015379D01*
X011675Y015729D01*
X011735Y015729D01*
X011735Y015379D01*
X011743Y015379D01*
X011816Y015394D01*
X011885Y015423D01*
X011947Y015464D01*
X012000Y015517D01*
X012042Y015579D01*
X012071Y015649D01*
X012085Y015722D01*
X012085Y015729D01*
X013159Y015729D01*
X013159Y015671D02*
X012075Y015671D01*
X012085Y015729D02*
X011735Y015729D01*
X011675Y015729D01*
X011325Y015729D01*
X011298Y015729D02*
X010948Y015729D01*
X010888Y015729D01*
X010888Y015671D02*
X010948Y015671D01*
X010948Y015729D02*
X010948Y015789D01*
X011298Y015789D01*
X011298Y015797D01*
X011283Y015870D01*
X011254Y015939D01*
X011213Y016002D01*
X011160Y016055D01*
X011098Y016096D01*
X011029Y016125D01*
X010955Y016139D01*
X010948Y016139D01*
X010888Y016139D01*
X010888Y015789D01*
X010948Y015789D01*
X010948Y016139D01*
X010958Y016139D02*
X011665Y016139D01*
X011668Y016139D02*
X011594Y016125D01*
X011525Y016096D01*
X011463Y016055D01*
X011410Y016002D01*
X011368Y015939D01*
X011340Y015870D01*
X011325Y015797D01*
X011325Y015789D01*
X011675Y015789D01*
X011675Y015729D01*
X011675Y015671D02*
X011735Y015671D01*
X011735Y015729D02*
X011735Y015789D01*
X012085Y015789D01*
X012085Y015797D01*
X012071Y015870D01*
X012042Y015939D01*
X012000Y016002D01*
X011947Y016055D01*
X011885Y016096D01*
X011816Y016125D01*
X011743Y016139D01*
X011735Y016139D01*
X011675Y016139D01*
X011675Y015789D01*
X011735Y015789D01*
X011735Y016139D01*
X011745Y016139D02*
X013159Y016139D01*
X013159Y016197D02*
X010645Y016197D01*
X010645Y016229D02*
X010717Y016259D01*
X010812Y016354D01*
X010864Y016479D01*
X010864Y016614D01*
X010812Y016739D01*
X010717Y016835D01*
X010592Y016887D01*
X010456Y016887D01*
X010331Y016835D01*
X010236Y016739D01*
X010184Y016614D01*
X010184Y016479D01*
X010236Y016354D01*
X010331Y016259D01*
X010405Y016228D01*
X010405Y015966D01*
X010323Y016048D01*
X010198Y016099D01*
X010063Y016099D01*
X009938Y016048D01*
X009927Y016037D01*
X009746Y016037D01*
X009676Y015967D01*
X009640Y015931D01*
X009631Y015952D01*
X009536Y016048D01*
X009411Y016099D01*
X009275Y016099D01*
X009150Y016048D01*
X009055Y015952D01*
X009003Y015827D01*
X009003Y015692D01*
X009055Y015567D01*
X009150Y015471D01*
X009275Y015419D01*
X009411Y015419D01*
X009536Y015471D01*
X009617Y015552D01*
X009617Y015315D01*
X009687Y015245D01*
X010285Y014647D01*
X010285Y012974D01*
X010133Y012821D01*
X010060Y012851D01*
X009925Y012851D01*
X009800Y012800D01*
X009704Y012704D01*
X009653Y012579D01*
X009673Y012629D02*
X005659Y012629D01*
X005659Y012687D02*
X009697Y012687D01*
X009746Y012746D02*
X005659Y012746D01*
X005659Y012804D02*
X009811Y012804D01*
X010174Y012863D02*
X005659Y012863D01*
X005659Y012921D02*
X010233Y012921D01*
X010285Y012980D02*
X005659Y012980D01*
X005659Y013038D02*
X010285Y013038D01*
X010285Y013097D02*
X005659Y013097D01*
X005659Y013155D02*
X010285Y013155D01*
X010285Y013214D02*
X007640Y013214D01*
X007612Y013200D02*
X007672Y013230D01*
X007726Y013270D01*
X007774Y013317D01*
X007813Y013371D01*
X007843Y013431D01*
X007864Y013495D01*
X007874Y013561D01*
X007874Y013859D01*
X007479Y013859D01*
X007479Y013169D01*
X007483Y013169D01*
X007549Y013179D01*
X007612Y013200D01*
X007479Y013214D02*
X007419Y013214D01*
X007419Y013169D02*
X007419Y013859D01*
X007479Y013859D01*
X007479Y013919D01*
X007874Y013919D01*
X007874Y014218D01*
X007864Y014284D01*
X007843Y014348D01*
X007813Y014408D01*
X007774Y014462D01*
X007726Y014509D01*
X007672Y014548D01*
X007612Y014579D01*
X007549Y014599D01*
X007483Y014610D01*
X007479Y014610D01*
X007479Y013919D01*
X007419Y013919D01*
X007419Y013859D01*
X007024Y013859D01*
X007024Y013561D01*
X007034Y013495D01*
X007055Y013431D01*
X007085Y013371D01*
X007125Y013317D01*
X007172Y013270D01*
X007226Y013230D01*
X007286Y013200D01*
X007350Y013179D01*
X007416Y013169D01*
X007419Y013169D01*
X007419Y013272D02*
X007479Y013272D01*
X007479Y013331D02*
X007419Y013331D01*
X007419Y013389D02*
X007479Y013389D01*
X007479Y013448D02*
X007419Y013448D01*
X007419Y013506D02*
X007479Y013506D01*
X007479Y013565D02*
X007419Y013565D01*
X007419Y013623D02*
X007479Y013623D01*
X007479Y013682D02*
X007419Y013682D01*
X007419Y013740D02*
X007479Y013740D01*
X007479Y013799D02*
X007419Y013799D01*
X007419Y013857D02*
X007479Y013857D01*
X007479Y013916D02*
X010285Y013916D01*
X010285Y013974D02*
X007874Y013974D01*
X007874Y014033D02*
X010285Y014033D01*
X010285Y014091D02*
X007874Y014091D01*
X007874Y014150D02*
X010285Y014150D01*
X010285Y014208D02*
X007874Y014208D01*
X007867Y014267D02*
X010285Y014267D01*
X010285Y014325D02*
X007851Y014325D01*
X007825Y014384D02*
X010285Y014384D01*
X010285Y014442D02*
X007788Y014442D01*
X007734Y014501D02*
X010285Y014501D01*
X010285Y014559D02*
X007650Y014559D01*
X007479Y014559D02*
X007419Y014559D01*
X007419Y014610D02*
X007416Y014610D01*
X007350Y014599D01*
X007286Y014579D01*
X007226Y014548D01*
X007172Y014509D01*
X007125Y014462D01*
X007085Y014408D01*
X007055Y014348D01*
X007034Y014284D01*
X007024Y014218D01*
X007024Y013919D01*
X007419Y013919D01*
X007419Y014610D01*
X007419Y014501D02*
X007479Y014501D01*
X007479Y014442D02*
X007419Y014442D01*
X007419Y014384D02*
X007479Y014384D01*
X007479Y014325D02*
X007419Y014325D01*
X007419Y014267D02*
X007479Y014267D01*
X007479Y014208D02*
X007419Y014208D01*
X007419Y014150D02*
X007479Y014150D01*
X007479Y014091D02*
X007419Y014091D01*
X007419Y014033D02*
X007479Y014033D01*
X007479Y013974D02*
X007419Y013974D01*
X007419Y013916D02*
X006834Y013916D01*
X006834Y013974D02*
X007024Y013974D01*
X007024Y014033D02*
X006834Y014033D01*
X006834Y014091D02*
X007024Y014091D01*
X007024Y014150D02*
X006834Y014150D01*
X006834Y014208D02*
X007024Y014208D01*
X007032Y014267D02*
X006832Y014267D01*
X006834Y014261D02*
X006776Y014403D01*
X006667Y014511D01*
X006526Y014570D01*
X006373Y014570D01*
X006231Y014511D01*
X006123Y014403D01*
X006064Y014261D01*
X006064Y013517D01*
X006123Y013376D01*
X006231Y013267D01*
X006373Y013209D01*
X006526Y013209D01*
X006667Y013267D01*
X006776Y013376D01*
X006834Y013517D01*
X006834Y014261D01*
X006808Y014325D02*
X007048Y014325D01*
X007073Y014384D02*
X006784Y014384D01*
X006736Y014442D02*
X007111Y014442D01*
X007164Y014501D02*
X006678Y014501D01*
X006551Y014559D02*
X007248Y014559D01*
X007024Y013857D02*
X006834Y013857D01*
X006834Y013799D02*
X007024Y013799D01*
X007024Y013740D02*
X006834Y013740D01*
X006834Y013682D02*
X007024Y013682D01*
X007024Y013623D02*
X006834Y013623D01*
X006834Y013565D02*
X007024Y013565D01*
X007033Y013506D02*
X006830Y013506D01*
X006806Y013448D02*
X007050Y013448D01*
X007076Y013389D02*
X006781Y013389D01*
X006731Y013331D02*
X007115Y013331D01*
X007169Y013272D02*
X006672Y013272D01*
X006538Y013214D02*
X007259Y013214D01*
X007729Y013272D02*
X010285Y013272D01*
X010285Y013331D02*
X007784Y013331D01*
X007822Y013389D02*
X010285Y013389D01*
X010285Y013448D02*
X007849Y013448D01*
X007866Y013506D02*
X010285Y013506D01*
X010285Y013565D02*
X007874Y013565D01*
X007874Y013623D02*
X010285Y013623D01*
X010285Y013682D02*
X007874Y013682D01*
X007874Y013740D02*
X010285Y013740D01*
X010285Y013799D02*
X007874Y013799D01*
X007874Y013857D02*
X010285Y013857D01*
X010645Y013857D02*
X013159Y013857D01*
X013159Y013799D02*
X010645Y013799D01*
X010645Y013740D02*
X013159Y013740D01*
X013159Y013682D02*
X010645Y013682D01*
X010645Y013623D02*
X013159Y013623D01*
X013159Y013565D02*
X010645Y013565D01*
X010645Y013506D02*
X013124Y013506D01*
X013159Y013543D02*
X012485Y012825D01*
X012422Y012851D01*
X012287Y012851D01*
X012162Y012800D01*
X012066Y012704D01*
X012015Y012579D01*
X012015Y012444D01*
X012066Y012319D01*
X012162Y012223D01*
X012287Y012171D01*
X012422Y012171D01*
X012547Y012223D01*
X012643Y012319D01*
X012695Y012444D01*
X012695Y012579D01*
X012660Y012662D01*
X013279Y013320D01*
X013279Y012823D01*
X013210Y012851D01*
X013074Y012851D01*
X012950Y012800D01*
X012854Y012704D01*
X012802Y012579D01*
X012802Y012444D01*
X012854Y012319D01*
X012912Y012261D01*
X012878Y012261D01*
X012753Y012209D01*
X012657Y012113D01*
X012605Y011988D01*
X012605Y011853D01*
X012657Y011728D01*
X012753Y011633D01*
X012878Y011581D01*
X013013Y011581D01*
X013138Y011633D01*
X013234Y011728D01*
X013285Y011853D01*
X013285Y011988D01*
X013234Y012113D01*
X013176Y012171D01*
X013210Y012171D01*
X013335Y012223D01*
X013430Y012319D01*
X013482Y012444D01*
X013482Y012579D01*
X013470Y012609D01*
X013478Y012618D01*
X013511Y012643D01*
X013513Y012652D01*
X013519Y012659D01*
X013519Y012700D01*
X013524Y012742D01*
X013519Y012749D01*
X013519Y017310D01*
X012893Y017936D01*
X012823Y018006D01*
X011922Y018006D01*
X011947Y018023D01*
X012000Y018076D01*
X012042Y018139D01*
X012071Y018208D01*
X012085Y018281D01*
X012085Y018289D01*
X011735Y018289D01*
X011735Y018349D01*
X011675Y018349D01*
X011675Y018699D01*
X011668Y018699D01*
X011594Y018684D01*
X011525Y018655D01*
X011463Y018614D01*
X011410Y018561D01*
X011368Y018499D01*
X011340Y018429D01*
X011325Y018356D01*
X011325Y018349D01*
X011675Y018349D01*
X011675Y018289D01*
X011325Y018289D01*
X011325Y018281D01*
X011340Y018208D01*
X011368Y018139D01*
X011410Y018076D01*
X011463Y018023D01*
X011488Y018006D01*
X011400Y018006D01*
X011228Y018178D01*
X011258Y018251D01*
X011258Y018386D01*
X011206Y018511D01*
X011110Y018607D01*
X010985Y018659D01*
X010850Y018659D01*
X010725Y018607D01*
X010629Y018511D01*
X010578Y018386D01*
X010578Y018251D01*
X010629Y018126D01*
X010725Y018030D01*
X010850Y017979D01*
X010985Y017979D01*
X011058Y018009D01*
X011210Y017857D01*
X011119Y017819D01*
X011023Y017724D01*
X010971Y017599D01*
X010971Y017463D01*
X011023Y017339D01*
X011119Y017243D01*
X011191Y017213D01*
X011191Y017186D01*
X011360Y017017D01*
X011546Y017017D01*
X011593Y017016D01*
X011595Y017017D01*
X011597Y017017D01*
X011631Y017051D01*
X011782Y017193D01*
X011771Y017167D01*
X011771Y016911D01*
X011869Y016675D01*
X012050Y016494D01*
X012286Y016396D01*
X012542Y016396D01*
X012778Y016494D01*
X012959Y016675D01*
X013056Y016911D01*
X013056Y017167D01*
X012996Y017313D01*
X013159Y017159D01*
X013159Y013543D01*
X013279Y013496D02*
X013279Y017211D01*
X012727Y017732D01*
X012181Y017732D01*
X011548Y017137D01*
X011410Y017137D01*
X011311Y017236D01*
X011311Y017531D01*
X010997Y017660D02*
X010882Y017660D01*
X010889Y017642D02*
X010861Y017711D01*
X010819Y017773D01*
X010766Y017826D01*
X010704Y017868D01*
X010635Y017896D01*
X010561Y017911D01*
X010554Y017911D01*
X010554Y017561D01*
X010904Y017561D01*
X010904Y017569D01*
X010889Y017642D01*
X010897Y017601D02*
X010973Y017601D01*
X010971Y017543D02*
X010554Y017543D01*
X010554Y017561D02*
X010554Y017501D01*
X010554Y017151D01*
X010561Y017151D01*
X010635Y017166D01*
X010704Y017194D01*
X010766Y017236D01*
X010819Y017289D01*
X010861Y017351D01*
X010889Y017420D01*
X010904Y017494D01*
X010904Y017501D01*
X010554Y017501D01*
X010494Y017501D01*
X010494Y017151D01*
X010487Y017151D01*
X010413Y017166D01*
X010344Y017194D01*
X010282Y017236D01*
X010229Y017289D01*
X010187Y017351D01*
X010159Y017420D01*
X010144Y017494D01*
X010144Y017501D01*
X010494Y017501D01*
X010494Y017561D01*
X010144Y017561D01*
X010144Y017569D01*
X010159Y017642D01*
X010187Y017711D01*
X010229Y017773D01*
X010282Y017826D01*
X010344Y017868D01*
X010413Y017896D01*
X010487Y017911D01*
X010494Y017911D01*
X010494Y017561D01*
X010554Y017561D01*
X010554Y017601D02*
X010494Y017601D01*
X010494Y017543D02*
X010077Y017543D01*
X010077Y017599D02*
X010025Y017724D01*
X009929Y017819D01*
X009804Y017871D01*
X009669Y017871D01*
X009544Y017819D01*
X009448Y017724D01*
X009397Y017599D01*
X009397Y017463D01*
X009448Y017339D01*
X009544Y017243D01*
X009669Y017191D01*
X009804Y017191D01*
X009929Y017243D01*
X010025Y017339D01*
X010077Y017463D01*
X010077Y017599D01*
X010076Y017601D02*
X010151Y017601D01*
X010166Y017660D02*
X010051Y017660D01*
X010027Y017718D02*
X010192Y017718D01*
X010232Y017777D02*
X009972Y017777D01*
X009890Y017835D02*
X010295Y017835D01*
X010407Y017894D02*
X005066Y017894D01*
X005077Y017871D02*
X004926Y018173D01*
X004959Y018251D01*
X004959Y018386D01*
X004907Y018511D01*
X004811Y018607D01*
X004686Y018659D01*
X004551Y018659D01*
X004426Y018607D01*
X004330Y018511D01*
X004279Y018386D01*
X004279Y018251D01*
X004330Y018126D01*
X004426Y018030D01*
X004551Y017979D01*
X004554Y017979D01*
X004705Y017677D01*
X004672Y017599D01*
X004672Y017463D01*
X004724Y017339D01*
X004802Y017260D01*
X004802Y016818D01*
X004741Y016757D01*
X004496Y016757D01*
X004417Y016835D01*
X004292Y016887D01*
X004157Y016887D01*
X004032Y016835D01*
X003937Y016739D01*
X003885Y016614D01*
X003885Y016479D01*
X003937Y016354D01*
X004032Y016259D01*
X004157Y016207D01*
X004292Y016207D01*
X004417Y016259D01*
X004496Y016337D01*
X004672Y016337D01*
X004554Y016099D01*
X004551Y016099D01*
X004426Y016048D01*
X004330Y015952D01*
X004279Y015827D01*
X004279Y015692D01*
X004330Y015567D01*
X004426Y015471D01*
X004551Y015419D01*
X004686Y015419D01*
X004811Y015471D01*
X004907Y015567D01*
X004959Y015692D01*
X004959Y015827D01*
X004926Y015905D01*
X005077Y016207D01*
X005080Y016207D01*
X005205Y016259D01*
X005300Y016354D01*
X005352Y016479D01*
X005352Y016614D01*
X005300Y016739D01*
X005222Y016818D01*
X005222Y017260D01*
X005300Y017339D01*
X005352Y017463D01*
X005352Y017599D01*
X005300Y017724D01*
X005205Y017819D01*
X005080Y017871D01*
X005077Y017871D01*
X005036Y017952D02*
X005299Y017952D01*
X005295Y017953D02*
X005368Y017939D01*
X005376Y017939D01*
X005376Y018288D01*
X005436Y018288D01*
X005436Y017939D01*
X005443Y017939D01*
X005517Y017953D01*
X005586Y017982D01*
X005648Y018023D01*
X005701Y018076D01*
X005743Y018139D01*
X005771Y018208D01*
X005786Y018281D01*
X005786Y018289D01*
X005436Y018289D01*
X005436Y018349D01*
X005376Y018349D01*
X005376Y018699D01*
X005368Y018699D01*
X005295Y018684D01*
X005226Y018655D01*
X005164Y018614D01*
X005111Y018561D01*
X005069Y018499D01*
X005041Y018429D01*
X005026Y018356D01*
X005026Y018349D01*
X005376Y018349D01*
X005376Y018289D01*
X005026Y018289D01*
X005026Y018281D01*
X005041Y018208D01*
X005069Y018139D01*
X005111Y018076D01*
X005164Y018023D01*
X005226Y017982D01*
X005295Y017953D01*
X005376Y017952D02*
X005436Y017952D01*
X005436Y018011D02*
X005376Y018011D01*
X005376Y018069D02*
X005436Y018069D01*
X005436Y018128D02*
X005376Y018128D01*
X005376Y018186D02*
X005436Y018186D01*
X005436Y018245D02*
X005376Y018245D01*
X005376Y018303D02*
X004959Y018303D01*
X004956Y018245D02*
X005033Y018245D01*
X005049Y018186D02*
X004932Y018186D01*
X004949Y018128D02*
X005076Y018128D01*
X005118Y018069D02*
X004978Y018069D01*
X005007Y018011D02*
X005182Y018011D01*
X005166Y017835D02*
X005646Y017835D01*
X005607Y017819D02*
X005511Y017724D01*
X005460Y017599D01*
X005460Y017463D01*
X005511Y017339D01*
X005607Y017243D01*
X005732Y017191D01*
X005867Y017191D01*
X005992Y017243D01*
X006088Y017339D01*
X006140Y017463D01*
X006140Y017599D01*
X006088Y017724D01*
X005992Y017819D01*
X005867Y017871D01*
X005732Y017871D01*
X005607Y017819D01*
X005565Y017777D02*
X005247Y017777D01*
X005303Y017718D02*
X005509Y017718D01*
X005485Y017660D02*
X005327Y017660D01*
X005351Y017601D02*
X005461Y017601D01*
X005460Y017543D02*
X005352Y017543D01*
X005352Y017484D02*
X005460Y017484D01*
X005475Y017426D02*
X005337Y017426D01*
X005312Y017367D02*
X005499Y017367D01*
X005541Y017309D02*
X005271Y017309D01*
X005222Y017250D02*
X005599Y017250D01*
X005730Y017192D02*
X005222Y017192D01*
X005222Y017133D02*
X008169Y017133D01*
X008169Y017167D02*
X008169Y016911D01*
X008179Y016887D01*
X008094Y016887D01*
X007969Y016835D01*
X007874Y016739D01*
X007822Y016614D01*
X007822Y016479D01*
X007874Y016354D01*
X007969Y016259D01*
X008094Y016207D01*
X008229Y016207D01*
X008354Y016259D01*
X008450Y016354D01*
X008499Y016473D01*
X008684Y016396D01*
X008939Y016396D01*
X009175Y016494D01*
X009356Y016675D01*
X009454Y016911D01*
X009454Y017167D01*
X009356Y017403D01*
X009175Y017584D01*
X008939Y017682D01*
X008684Y017682D01*
X008499Y017605D01*
X008450Y017724D01*
X008354Y017819D01*
X008229Y017871D01*
X008094Y017871D01*
X007969Y017819D01*
X007874Y017724D01*
X007822Y017599D01*
X007822Y017463D01*
X007874Y017339D01*
X007969Y017243D01*
X008094Y017191D01*
X008179Y017191D01*
X008169Y017167D01*
X008092Y017192D02*
X007444Y017192D01*
X007442Y017191D02*
X007567Y017243D01*
X007663Y017339D01*
X007714Y017463D01*
X007714Y017599D01*
X007663Y017724D01*
X007567Y017819D01*
X007442Y017871D01*
X007307Y017871D01*
X007182Y017819D01*
X007086Y017724D01*
X007034Y017599D01*
X007034Y017463D01*
X007086Y017339D01*
X007182Y017243D01*
X007307Y017191D01*
X007442Y017191D01*
X007305Y017192D02*
X006657Y017192D01*
X006655Y017191D02*
X006780Y017243D01*
X006875Y017339D01*
X006927Y017463D01*
X006927Y017599D01*
X006875Y017724D01*
X006780Y017819D01*
X006655Y017871D01*
X006519Y017871D01*
X006394Y017819D01*
X006299Y017724D01*
X006247Y017599D01*
X006247Y017463D01*
X006299Y017339D01*
X006394Y017243D01*
X006519Y017191D01*
X006655Y017191D01*
X006517Y017192D02*
X005869Y017192D01*
X006000Y017250D02*
X006387Y017250D01*
X006328Y017309D02*
X006058Y017309D01*
X006100Y017367D02*
X006287Y017367D01*
X006263Y017426D02*
X006124Y017426D01*
X006140Y017484D02*
X006247Y017484D01*
X006247Y017543D02*
X006140Y017543D01*
X006138Y017601D02*
X006248Y017601D01*
X006272Y017660D02*
X006114Y017660D01*
X006090Y017718D02*
X006297Y017718D01*
X006352Y017777D02*
X006035Y017777D01*
X005953Y017835D02*
X006433Y017835D01*
X006339Y018011D02*
X006835Y018011D01*
X006788Y018030D02*
X006913Y017979D01*
X007048Y017979D01*
X007173Y018030D01*
X007269Y018126D01*
X007321Y018251D01*
X007321Y018386D01*
X007269Y018511D01*
X007173Y018607D01*
X007048Y018659D01*
X006913Y018659D01*
X006788Y018607D01*
X006692Y018511D01*
X006641Y018386D01*
X006641Y018251D01*
X006692Y018126D01*
X006788Y018030D01*
X006749Y018069D02*
X006425Y018069D01*
X006386Y018030D02*
X006482Y018126D01*
X006533Y018251D01*
X006533Y018386D01*
X006482Y018511D01*
X006386Y018607D01*
X006261Y018659D01*
X006126Y018659D01*
X006001Y018607D01*
X005905Y018511D01*
X005853Y018386D01*
X005853Y018251D01*
X005905Y018126D01*
X006001Y018030D01*
X006126Y017979D01*
X006261Y017979D01*
X006386Y018030D01*
X006482Y018128D02*
X006692Y018128D01*
X006667Y018186D02*
X006507Y018186D01*
X006531Y018245D02*
X006643Y018245D01*
X006641Y018303D02*
X006533Y018303D01*
X006533Y018362D02*
X006641Y018362D01*
X006655Y018420D02*
X006519Y018420D01*
X006495Y018479D02*
X006679Y018479D01*
X006719Y018537D02*
X006455Y018537D01*
X006397Y018596D02*
X006777Y018596D01*
X006903Y018654D02*
X006271Y018654D01*
X006116Y018654D02*
X005587Y018654D01*
X005586Y018655D02*
X005517Y018684D01*
X005443Y018699D01*
X005436Y018699D01*
X005436Y018349D01*
X005786Y018349D01*
X005786Y018356D01*
X005771Y018429D01*
X005743Y018499D01*
X005701Y018561D01*
X005648Y018614D01*
X005586Y018655D01*
X005666Y018596D02*
X005990Y018596D01*
X005931Y018537D02*
X005717Y018537D01*
X005751Y018479D02*
X005892Y018479D01*
X005868Y018420D02*
X005773Y018420D01*
X005785Y018362D02*
X005853Y018362D01*
X005853Y018303D02*
X005436Y018303D01*
X005436Y018362D02*
X005376Y018362D01*
X005376Y018420D02*
X005436Y018420D01*
X005436Y018479D02*
X005376Y018479D01*
X005376Y018537D02*
X005436Y018537D01*
X005436Y018596D02*
X005376Y018596D01*
X005376Y018654D02*
X005436Y018654D01*
X005225Y018654D02*
X004696Y018654D01*
X004822Y018596D02*
X005146Y018596D01*
X005095Y018537D02*
X004880Y018537D01*
X004920Y018479D02*
X005061Y018479D01*
X005039Y018420D02*
X004944Y018420D01*
X004959Y018362D02*
X005027Y018362D01*
X005513Y017952D02*
X009236Y017952D01*
X009232Y017953D02*
X009305Y017939D01*
X009313Y017939D01*
X009313Y018288D01*
X009373Y018288D01*
X009373Y017939D01*
X009380Y017939D01*
X009454Y017953D01*
X009523Y017982D01*
X009585Y018023D01*
X009638Y018076D01*
X009680Y018139D01*
X009708Y018208D01*
X009723Y018281D01*
X009723Y018289D01*
X009373Y018289D01*
X009373Y018349D01*
X009313Y018349D01*
X009313Y018699D01*
X009305Y018699D01*
X009232Y018684D01*
X009163Y018655D01*
X009101Y018614D01*
X009048Y018561D01*
X009006Y018499D01*
X008978Y018429D01*
X008963Y018356D01*
X008963Y018349D01*
X009313Y018349D01*
X009313Y018289D01*
X008963Y018289D01*
X008963Y018281D01*
X008978Y018208D01*
X009006Y018139D01*
X009048Y018076D01*
X009101Y018023D01*
X009163Y017982D01*
X009232Y017953D01*
X009313Y017952D02*
X009373Y017952D01*
X009373Y018011D02*
X009313Y018011D01*
X009313Y018069D02*
X009373Y018069D01*
X009373Y018128D02*
X009313Y018128D01*
X009313Y018186D02*
X009373Y018186D01*
X009373Y018245D02*
X009313Y018245D01*
X009313Y018303D02*
X008108Y018303D01*
X008108Y018251D02*
X008056Y018126D01*
X007961Y018030D01*
X007836Y017979D01*
X007700Y017979D01*
X007576Y018030D01*
X007480Y018126D01*
X007428Y018251D01*
X007428Y018386D01*
X007480Y018511D01*
X007505Y018537D01*
X007243Y018537D01*
X007282Y018479D02*
X007467Y018479D01*
X007442Y018420D02*
X007307Y018420D01*
X007321Y018362D02*
X007428Y018362D01*
X007428Y018303D02*
X007321Y018303D01*
X007318Y018245D02*
X007431Y018245D01*
X007455Y018186D02*
X007294Y018186D01*
X007270Y018128D02*
X007479Y018128D01*
X007536Y018069D02*
X007212Y018069D01*
X007127Y018011D02*
X007622Y018011D01*
X007528Y017835D02*
X008008Y017835D01*
X007927Y017777D02*
X007609Y017777D01*
X007665Y017718D02*
X007871Y017718D01*
X007847Y017660D02*
X007689Y017660D01*
X007713Y017601D02*
X007823Y017601D01*
X007822Y017543D02*
X007714Y017543D01*
X007714Y017484D02*
X007822Y017484D01*
X007837Y017426D02*
X007699Y017426D01*
X007675Y017367D02*
X007862Y017367D01*
X007903Y017309D02*
X007633Y017309D01*
X007575Y017250D02*
X007962Y017250D01*
X008169Y017075D02*
X005222Y017075D01*
X005222Y017016D02*
X008169Y017016D01*
X008169Y016958D02*
X005222Y016958D01*
X005222Y016899D02*
X006445Y016899D01*
X006476Y016912D02*
X006407Y016884D01*
X006345Y016842D01*
X006292Y016789D01*
X006250Y016727D01*
X006222Y016658D01*
X006207Y016584D01*
X006207Y016577D01*
X006557Y016577D01*
X006557Y016927D01*
X006550Y016927D01*
X006476Y016912D01*
X006557Y016899D02*
X006617Y016899D01*
X006624Y016927D02*
X006617Y016927D01*
X006617Y016577D01*
X006557Y016577D01*
X006557Y016517D01*
X006207Y016517D01*
X006207Y016509D01*
X006222Y016436D01*
X006250Y016367D01*
X006292Y016305D01*
X006345Y016252D01*
X006407Y016210D01*
X006476Y016181D01*
X006550Y016167D01*
X006557Y016167D01*
X006557Y016517D01*
X006617Y016517D01*
X006617Y016577D01*
X006967Y016577D01*
X006967Y016584D01*
X006952Y016658D01*
X006924Y016727D01*
X006882Y016789D01*
X006829Y016842D01*
X006767Y016884D01*
X006698Y016912D01*
X006624Y016927D01*
X006617Y016841D02*
X006557Y016841D01*
X006557Y016782D02*
X006617Y016782D01*
X006617Y016724D02*
X006557Y016724D01*
X006557Y016665D02*
X006617Y016665D01*
X006617Y016607D02*
X006557Y016607D01*
X006557Y016548D02*
X006140Y016548D01*
X006140Y016490D02*
X006211Y016490D01*
X006224Y016431D02*
X006120Y016431D01*
X006140Y016479D02*
X006088Y016354D01*
X005992Y016259D01*
X005867Y016207D01*
X005732Y016207D01*
X005607Y016259D01*
X005511Y016354D01*
X005460Y016479D01*
X005460Y016614D01*
X005511Y016739D01*
X005607Y016835D01*
X005732Y016887D01*
X005867Y016887D01*
X005992Y016835D01*
X006088Y016739D01*
X006140Y016614D01*
X006140Y016479D01*
X006096Y016373D02*
X006248Y016373D01*
X006285Y016314D02*
X006048Y016314D01*
X005986Y016256D02*
X006341Y016256D01*
X006438Y016197D02*
X005072Y016197D01*
X005043Y016139D02*
X005366Y016139D01*
X005368Y016139D02*
X005295Y016125D01*
X005226Y016096D01*
X005164Y016055D01*
X005111Y016002D01*
X005069Y015939D01*
X005041Y015870D01*
X005026Y015797D01*
X005026Y015789D01*
X005376Y015789D01*
X005376Y015729D01*
X005436Y015729D01*
X005436Y015379D01*
X005443Y015379D01*
X005517Y015394D01*
X005586Y015423D01*
X005648Y015464D01*
X005701Y015517D01*
X005743Y015579D01*
X005771Y015649D01*
X005786Y015722D01*
X005786Y015729D01*
X005853Y015729D01*
X005853Y015692D02*
X005905Y015567D01*
X006001Y015471D01*
X006126Y015419D01*
X006261Y015419D01*
X006386Y015471D01*
X006482Y015567D01*
X006533Y015692D01*
X006533Y015827D01*
X006482Y015952D01*
X006386Y016048D01*
X006261Y016099D01*
X006126Y016099D01*
X006001Y016048D01*
X005905Y015952D01*
X005853Y015827D01*
X005853Y015692D01*
X005862Y015671D02*
X005776Y015671D01*
X005786Y015729D02*
X005436Y015729D01*
X005376Y015729D01*
X005376Y015379D01*
X005368Y015379D01*
X005295Y015394D01*
X005226Y015423D01*
X005164Y015464D01*
X005111Y015517D01*
X005069Y015579D01*
X005041Y015649D01*
X005026Y015722D01*
X005026Y015729D01*
X004959Y015729D01*
X004950Y015671D02*
X005036Y015671D01*
X005026Y015729D02*
X005376Y015729D01*
X005376Y015671D02*
X005436Y015671D01*
X005436Y015729D02*
X005436Y015789D01*
X005786Y015789D01*
X005786Y015797D01*
X005771Y015870D01*
X005743Y015939D01*
X005701Y016002D01*
X005648Y016055D01*
X005586Y016096D01*
X005517Y016125D01*
X005443Y016139D01*
X005436Y016139D01*
X005376Y016139D01*
X005376Y015789D01*
X005436Y015789D01*
X005436Y016139D01*
X005446Y016139D02*
X010405Y016139D01*
X010405Y016197D02*
X009886Y016197D01*
X009917Y016210D02*
X009979Y016252D01*
X010032Y016305D01*
X010073Y016367D01*
X010102Y016436D01*
X010117Y016509D01*
X010117Y016517D01*
X009767Y016517D01*
X009767Y016577D01*
X010117Y016577D01*
X010117Y016584D01*
X010102Y016658D01*
X010073Y016727D01*
X010032Y016789D01*
X009979Y016842D01*
X009917Y016884D01*
X009847Y016912D01*
X009774Y016927D01*
X009767Y016927D01*
X009767Y016577D01*
X009707Y016577D01*
X009707Y016927D01*
X009699Y016927D01*
X009626Y016912D01*
X009557Y016884D01*
X009494Y016842D01*
X009441Y016789D01*
X009400Y016727D01*
X009371Y016658D01*
X009357Y016584D01*
X009357Y016577D01*
X009707Y016577D01*
X009707Y016517D01*
X009767Y016517D01*
X009767Y016167D01*
X009774Y016167D01*
X009847Y016181D01*
X009917Y016210D01*
X009983Y016256D02*
X010338Y016256D01*
X010276Y016314D02*
X010038Y016314D01*
X010076Y016373D02*
X010228Y016373D01*
X010204Y016431D02*
X010100Y016431D01*
X010113Y016490D02*
X010184Y016490D01*
X010184Y016548D02*
X009767Y016548D01*
X009767Y016490D02*
X009707Y016490D01*
X009707Y016517D02*
X009707Y016167D01*
X009699Y016167D01*
X009626Y016181D01*
X009557Y016210D01*
X009494Y016252D01*
X009441Y016305D01*
X009400Y016367D01*
X009371Y016436D01*
X009357Y016509D01*
X009357Y016517D01*
X009707Y016517D01*
X009707Y016548D02*
X009230Y016548D01*
X009288Y016607D02*
X009361Y016607D01*
X009347Y016665D02*
X009374Y016665D01*
X009376Y016724D02*
X009399Y016724D01*
X009401Y016782D02*
X009437Y016782D01*
X009425Y016841D02*
X009493Y016841D01*
X009449Y016899D02*
X009595Y016899D01*
X009707Y016899D02*
X009767Y016899D01*
X009767Y016841D02*
X009707Y016841D01*
X009707Y016782D02*
X009767Y016782D01*
X009767Y016724D02*
X009707Y016724D01*
X009707Y016665D02*
X009767Y016665D01*
X009767Y016607D02*
X009707Y016607D01*
X009707Y016431D02*
X009767Y016431D01*
X009767Y016373D02*
X009707Y016373D01*
X009707Y016314D02*
X009767Y016314D01*
X009767Y016256D02*
X009707Y016256D01*
X009707Y016197D02*
X009767Y016197D01*
X009731Y016022D02*
X009561Y016022D01*
X009620Y015963D02*
X009672Y015963D01*
X009737Y015858D02*
X009796Y015917D01*
X009973Y015917D01*
X010130Y015759D01*
X010017Y016080D02*
X009457Y016080D01*
X009587Y016197D02*
X006736Y016197D01*
X006767Y016210D02*
X006829Y016252D01*
X006882Y016305D01*
X006924Y016367D01*
X006952Y016436D01*
X006967Y016509D01*
X006967Y016517D01*
X006617Y016517D01*
X006617Y016167D01*
X006624Y016167D01*
X006698Y016181D01*
X006767Y016210D01*
X006833Y016256D02*
X007188Y016256D01*
X007182Y016259D02*
X007307Y016207D01*
X007442Y016207D01*
X007567Y016259D01*
X007663Y016354D01*
X007714Y016479D01*
X007714Y016614D01*
X007663Y016739D01*
X007567Y016835D01*
X007442Y016887D01*
X007307Y016887D01*
X007182Y016835D01*
X007086Y016739D01*
X007034Y016614D01*
X007034Y016479D01*
X007086Y016354D01*
X007182Y016259D01*
X007126Y016314D02*
X006889Y016314D01*
X006926Y016373D02*
X007078Y016373D01*
X007054Y016431D02*
X006950Y016431D01*
X006963Y016490D02*
X007034Y016490D01*
X007034Y016548D02*
X006617Y016548D01*
X006617Y016490D02*
X006557Y016490D01*
X006557Y016431D02*
X006617Y016431D01*
X006617Y016373D02*
X006557Y016373D01*
X006557Y016314D02*
X006617Y016314D01*
X006617Y016256D02*
X006557Y016256D01*
X006557Y016197D02*
X006617Y016197D01*
X006788Y016048D02*
X006692Y015952D01*
X006641Y015827D01*
X006641Y015692D01*
X006692Y015567D01*
X006788Y015471D01*
X006913Y015419D01*
X007048Y015419D01*
X007173Y015471D01*
X007269Y015567D01*
X007321Y015692D01*
X007321Y015827D01*
X007269Y015952D01*
X007173Y016048D01*
X007048Y016099D01*
X006913Y016099D01*
X006788Y016048D01*
X006762Y016022D02*
X006412Y016022D01*
X006470Y015963D02*
X006704Y015963D01*
X006673Y015905D02*
X006501Y015905D01*
X006525Y015846D02*
X006649Y015846D01*
X006641Y015788D02*
X006533Y015788D01*
X006533Y015729D02*
X006641Y015729D01*
X006649Y015671D02*
X006525Y015671D01*
X006500Y015612D02*
X006674Y015612D01*
X006705Y015554D02*
X006469Y015554D01*
X006410Y015495D02*
X006764Y015495D01*
X006871Y015437D02*
X006303Y015437D01*
X006084Y015437D02*
X005607Y015437D01*
X005679Y015495D02*
X005977Y015495D01*
X005918Y015554D02*
X005726Y015554D01*
X005756Y015612D02*
X005886Y015612D01*
X005853Y015788D02*
X005436Y015788D01*
X005436Y015846D02*
X005376Y015846D01*
X005376Y015788D02*
X004959Y015788D01*
X004950Y015846D02*
X005036Y015846D01*
X005055Y015905D02*
X004926Y015905D01*
X004955Y015963D02*
X005085Y015963D01*
X005131Y016022D02*
X004985Y016022D01*
X005014Y016080D02*
X005202Y016080D01*
X005376Y016080D02*
X005436Y016080D01*
X005436Y016022D02*
X005376Y016022D01*
X005376Y015963D02*
X005436Y015963D01*
X005436Y015905D02*
X005376Y015905D01*
X005376Y015612D02*
X005436Y015612D01*
X005436Y015554D02*
X005376Y015554D01*
X005376Y015495D02*
X005436Y015495D01*
X005436Y015437D02*
X005376Y015437D01*
X005205Y015437D02*
X004728Y015437D01*
X004835Y015495D02*
X005133Y015495D01*
X005086Y015554D02*
X004894Y015554D01*
X004926Y015612D02*
X005056Y015612D01*
X004509Y015437D02*
X002329Y015437D01*
X002329Y015495D02*
X004402Y015495D01*
X004343Y015554D02*
X002329Y015554D01*
X002329Y015612D02*
X004311Y015612D01*
X004287Y015671D02*
X002329Y015671D01*
X002329Y015729D02*
X004279Y015729D01*
X004279Y015788D02*
X002329Y015788D01*
X002329Y015846D02*
X004287Y015846D01*
X004311Y015905D02*
X002329Y015905D01*
X002329Y015963D02*
X004342Y015963D01*
X004400Y016022D02*
X002329Y016022D01*
X002329Y016080D02*
X004505Y016080D01*
X004573Y016139D02*
X002329Y016139D01*
X002329Y016197D02*
X004603Y016197D01*
X004632Y016256D02*
X004411Y016256D01*
X004473Y016314D02*
X004661Y016314D01*
X004767Y016782D02*
X004470Y016782D01*
X004403Y016841D02*
X004802Y016841D01*
X004802Y016899D02*
X002329Y016899D01*
X002329Y016841D02*
X004046Y016841D01*
X003980Y016782D02*
X002329Y016782D01*
X002329Y016724D02*
X003930Y016724D01*
X003906Y016665D02*
X002329Y016665D01*
X002329Y016607D02*
X003885Y016607D01*
X003885Y016548D02*
X002329Y016548D01*
X002329Y016490D02*
X003885Y016490D01*
X003905Y016431D02*
X002329Y016431D01*
X002329Y016373D02*
X003929Y016373D01*
X003976Y016314D02*
X002329Y016314D01*
X002329Y016256D02*
X004039Y016256D01*
X004802Y016958D02*
X002329Y016958D01*
X002329Y017016D02*
X004802Y017016D01*
X004802Y017075D02*
X002329Y017075D01*
X002329Y017133D02*
X004802Y017133D01*
X004802Y017192D02*
X004513Y017192D01*
X004512Y017191D02*
X004565Y017244D01*
X004565Y017818D01*
X004512Y017871D01*
X003938Y017871D01*
X003885Y017818D01*
X003885Y017244D01*
X003938Y017191D01*
X004512Y017191D01*
X004565Y017250D02*
X004802Y017250D01*
X004754Y017309D02*
X004565Y017309D01*
X004565Y017367D02*
X004712Y017367D01*
X004688Y017426D02*
X004565Y017426D01*
X004565Y017484D02*
X004672Y017484D01*
X004672Y017543D02*
X004565Y017543D01*
X004565Y017601D02*
X004673Y017601D01*
X004698Y017660D02*
X004565Y017660D01*
X004565Y017718D02*
X004684Y017718D01*
X004655Y017777D02*
X004565Y017777D01*
X004548Y017835D02*
X004625Y017835D01*
X004596Y017894D02*
X002329Y017894D01*
X002329Y017952D02*
X004567Y017952D01*
X004473Y018011D02*
X002329Y018011D01*
X002329Y018069D02*
X004387Y018069D01*
X004329Y018128D02*
X002329Y018128D01*
X002329Y018186D02*
X004305Y018186D01*
X004281Y018245D02*
X002329Y018245D01*
X002329Y018303D02*
X004279Y018303D01*
X004279Y018362D02*
X002329Y018362D01*
X002329Y018420D02*
X004293Y018420D01*
X004317Y018479D02*
X002329Y018479D01*
X002329Y018537D02*
X004357Y018537D01*
X004415Y018596D02*
X002329Y018596D01*
X002329Y018614D02*
X002332Y018650D01*
X002359Y018716D01*
X002410Y018767D01*
X002476Y018794D01*
X002512Y018797D01*
X007079Y018797D01*
X007154Y018792D01*
X007297Y018745D01*
X007418Y018657D01*
X007505Y018537D01*
X007462Y018596D02*
X007184Y018596D01*
X007058Y018654D02*
X007420Y018654D01*
X007341Y018713D02*
X002358Y018713D01*
X002334Y018654D02*
X004541Y018654D01*
X003902Y017835D02*
X002329Y017835D01*
X002329Y017777D02*
X003885Y017777D01*
X003885Y017718D02*
X002329Y017718D01*
X002329Y017660D02*
X003885Y017660D01*
X003885Y017601D02*
X002329Y017601D01*
X002329Y017543D02*
X003885Y017543D01*
X003885Y017484D02*
X002329Y017484D01*
X002329Y017426D02*
X003885Y017426D01*
X003885Y017367D02*
X002329Y017367D01*
X002329Y017309D02*
X003885Y017309D01*
X003885Y017250D02*
X002329Y017250D01*
X002329Y017192D02*
X003937Y017192D01*
X005222Y016841D02*
X005621Y016841D01*
X005554Y016782D02*
X005257Y016782D01*
X005307Y016724D02*
X005505Y016724D01*
X005481Y016665D02*
X005331Y016665D01*
X005352Y016607D02*
X005460Y016607D01*
X005460Y016548D02*
X005352Y016548D01*
X005352Y016490D02*
X005460Y016490D01*
X005479Y016431D02*
X005332Y016431D01*
X005308Y016373D02*
X005504Y016373D01*
X005551Y016314D02*
X005261Y016314D01*
X005198Y016256D02*
X005614Y016256D01*
X005610Y016080D02*
X006080Y016080D01*
X005975Y016022D02*
X005681Y016022D01*
X005727Y015963D02*
X005916Y015963D01*
X005886Y015905D02*
X005757Y015905D01*
X005776Y015846D02*
X005861Y015846D01*
X006307Y016080D02*
X006867Y016080D01*
X007094Y016080D02*
X007655Y016080D01*
X007700Y016099D02*
X007576Y016048D01*
X007480Y015952D01*
X007428Y015827D01*
X007428Y015692D01*
X007480Y015567D01*
X007576Y015471D01*
X007700Y015419D01*
X007836Y015419D01*
X007961Y015471D01*
X008056Y015567D01*
X008108Y015692D01*
X008108Y015827D01*
X008056Y015952D01*
X007961Y016048D01*
X007836Y016099D01*
X007700Y016099D01*
X007550Y016022D02*
X007199Y016022D01*
X007258Y015963D02*
X007491Y015963D01*
X007460Y015905D02*
X007288Y015905D01*
X007313Y015846D02*
X007436Y015846D01*
X007428Y015788D02*
X007321Y015788D01*
X007321Y015729D02*
X007428Y015729D01*
X007437Y015671D02*
X007312Y015671D01*
X007288Y015612D02*
X007461Y015612D01*
X007493Y015554D02*
X007256Y015554D01*
X007197Y015495D02*
X007551Y015495D01*
X007658Y015437D02*
X007090Y015437D01*
X007878Y015437D02*
X009233Y015437D01*
X009126Y015495D02*
X007985Y015495D01*
X008043Y015554D02*
X009068Y015554D01*
X009036Y015612D02*
X008075Y015612D01*
X008099Y015671D02*
X009012Y015671D01*
X009003Y015729D02*
X008108Y015729D01*
X008108Y015788D02*
X009003Y015788D01*
X009011Y015846D02*
X008100Y015846D01*
X008076Y015905D02*
X009035Y015905D01*
X009066Y015963D02*
X008045Y015963D01*
X007986Y016022D02*
X009125Y016022D01*
X009229Y016080D02*
X007882Y016080D01*
X007976Y016256D02*
X007560Y016256D01*
X007623Y016314D02*
X007913Y016314D01*
X007866Y016373D02*
X007670Y016373D01*
X007695Y016431D02*
X007842Y016431D01*
X007822Y016490D02*
X007714Y016490D01*
X007714Y016548D02*
X007822Y016548D01*
X007822Y016607D02*
X007714Y016607D01*
X007693Y016665D02*
X007843Y016665D01*
X007867Y016724D02*
X007669Y016724D01*
X007620Y016782D02*
X007917Y016782D01*
X007983Y016841D02*
X007553Y016841D01*
X007196Y016841D02*
X006830Y016841D01*
X006887Y016782D02*
X007129Y016782D01*
X007080Y016724D02*
X006925Y016724D01*
X006949Y016665D02*
X007056Y016665D01*
X007034Y016607D02*
X006963Y016607D01*
X006729Y016899D02*
X008174Y016899D01*
X008482Y016431D02*
X008599Y016431D01*
X008458Y016373D02*
X009397Y016373D01*
X009373Y016431D02*
X009024Y016431D01*
X009165Y016490D02*
X009360Y016490D01*
X009435Y016314D02*
X008410Y016314D01*
X008348Y016256D02*
X009490Y016256D01*
X009737Y015858D02*
X009737Y015365D01*
X010405Y014696D01*
X010405Y012924D01*
X009993Y012511D01*
X010240Y012278D02*
X010533Y012278D01*
X010484Y012336D02*
X010288Y012336D01*
X010312Y012395D02*
X010460Y012395D01*
X010440Y012453D02*
X010333Y012453D01*
X010333Y012512D02*
X010440Y012512D01*
X010440Y012570D02*
X010333Y012570D01*
X010312Y012629D02*
X010461Y012629D01*
X010434Y012687D02*
X010338Y012687D01*
X010397Y012746D02*
X010405Y012746D01*
X010525Y012766D02*
X010525Y014283D01*
X010525Y014696D01*
X010525Y016546D01*
X010524Y016547D01*
X010279Y016782D02*
X010036Y016782D01*
X010075Y016724D02*
X010229Y016724D01*
X010205Y016665D02*
X010099Y016665D01*
X010112Y016607D02*
X010184Y016607D01*
X010345Y016841D02*
X009980Y016841D01*
X009878Y016899D02*
X011776Y016899D01*
X011771Y016958D02*
X009454Y016958D01*
X009454Y017016D02*
X011577Y017016D01*
X011594Y017016D02*
X011771Y017016D01*
X011771Y017075D02*
X011656Y017075D01*
X011719Y017133D02*
X011771Y017133D01*
X011781Y017192D02*
X011782Y017192D01*
X011800Y016841D02*
X011490Y016841D01*
X011504Y016835D02*
X011379Y016887D01*
X011244Y016887D01*
X011119Y016835D01*
X011023Y016739D01*
X010971Y016614D01*
X010971Y016479D01*
X011023Y016354D01*
X011119Y016259D01*
X011244Y016207D01*
X011379Y016207D01*
X011504Y016259D01*
X011600Y016354D01*
X011651Y016479D01*
X011651Y016614D01*
X011600Y016739D01*
X011504Y016835D01*
X011557Y016782D02*
X011825Y016782D01*
X011849Y016724D02*
X011606Y016724D01*
X011630Y016665D02*
X011879Y016665D01*
X011937Y016607D02*
X011651Y016607D01*
X011651Y016548D02*
X011996Y016548D01*
X012060Y016490D02*
X011651Y016490D01*
X011632Y016431D02*
X012201Y016431D01*
X012626Y016431D02*
X013159Y016431D01*
X013159Y016373D02*
X011607Y016373D01*
X011560Y016314D02*
X013159Y016314D01*
X013159Y016256D02*
X011497Y016256D01*
X011501Y016080D02*
X011121Y016080D01*
X011193Y016022D02*
X011430Y016022D01*
X011384Y015963D02*
X011238Y015963D01*
X011269Y015905D02*
X011354Y015905D01*
X011335Y015846D02*
X011288Y015846D01*
X011288Y015671D02*
X011335Y015671D01*
X011355Y015612D02*
X011268Y015612D01*
X011237Y015554D02*
X011385Y015554D01*
X011432Y015495D02*
X011191Y015495D01*
X011119Y015437D02*
X011504Y015437D01*
X011675Y015437D02*
X011735Y015437D01*
X011735Y015495D02*
X011675Y015495D01*
X011675Y015554D02*
X011735Y015554D01*
X011735Y015612D02*
X011675Y015612D01*
X011675Y015788D02*
X010948Y015788D01*
X010948Y015846D02*
X010888Y015846D01*
X010888Y015905D02*
X010948Y015905D01*
X010948Y015963D02*
X010888Y015963D01*
X010888Y016022D02*
X010948Y016022D01*
X010948Y016080D02*
X010888Y016080D01*
X010888Y016139D02*
X010880Y016139D01*
X010807Y016125D01*
X010738Y016096D01*
X010675Y016055D01*
X010645Y016024D01*
X010645Y016229D01*
X010710Y016256D02*
X011125Y016256D01*
X011063Y016314D02*
X010772Y016314D01*
X010820Y016373D02*
X011015Y016373D01*
X010991Y016431D02*
X010844Y016431D01*
X010864Y016490D02*
X010971Y016490D01*
X010971Y016548D02*
X010864Y016548D01*
X010864Y016607D02*
X010971Y016607D01*
X010993Y016665D02*
X010843Y016665D01*
X010819Y016724D02*
X011017Y016724D01*
X011066Y016782D02*
X010769Y016782D01*
X010703Y016841D02*
X011133Y016841D01*
X011303Y017075D02*
X009454Y017075D01*
X009454Y017133D02*
X011244Y017133D01*
X011191Y017192D02*
X010698Y017192D01*
X010781Y017250D02*
X011111Y017250D01*
X011053Y017309D02*
X010833Y017309D01*
X010868Y017367D02*
X011011Y017367D01*
X010987Y017426D02*
X010891Y017426D01*
X010902Y017484D02*
X010971Y017484D01*
X011021Y017718D02*
X010856Y017718D01*
X010816Y017777D02*
X011076Y017777D01*
X011158Y017835D02*
X010753Y017835D01*
X010641Y017894D02*
X011173Y017894D01*
X011114Y017952D02*
X009450Y017952D01*
X009567Y018011D02*
X009984Y018011D01*
X009938Y018030D02*
X010063Y017979D01*
X010198Y017979D01*
X010323Y018030D01*
X010419Y018126D01*
X010470Y018251D01*
X010470Y018386D01*
X010419Y018511D01*
X010323Y018607D01*
X010198Y018659D01*
X010063Y018659D01*
X009938Y018607D01*
X009842Y018511D01*
X009790Y018386D01*
X009790Y018251D01*
X009842Y018126D01*
X009938Y018030D01*
X009899Y018069D02*
X009631Y018069D01*
X009673Y018128D02*
X009841Y018128D01*
X009817Y018186D02*
X009700Y018186D01*
X009716Y018245D02*
X009793Y018245D01*
X009790Y018303D02*
X009373Y018303D01*
X009373Y018349D02*
X009723Y018349D01*
X009723Y018356D01*
X009708Y018429D01*
X009680Y018499D01*
X009638Y018561D01*
X009585Y018614D01*
X009523Y018655D01*
X009454Y018684D01*
X009380Y018699D01*
X009373Y018699D01*
X009373Y018349D01*
X009373Y018362D02*
X009313Y018362D01*
X009313Y018420D02*
X009373Y018420D01*
X009373Y018479D02*
X009313Y018479D01*
X009313Y018537D02*
X009373Y018537D01*
X009373Y018596D02*
X009313Y018596D01*
X009313Y018654D02*
X009373Y018654D01*
X009524Y018654D02*
X010053Y018654D01*
X009927Y018596D02*
X009603Y018596D01*
X009654Y018537D02*
X009868Y018537D01*
X009829Y018479D02*
X009688Y018479D01*
X009710Y018420D02*
X009805Y018420D01*
X009790Y018362D02*
X009722Y018362D01*
X009583Y017835D02*
X008316Y017835D01*
X008397Y017777D02*
X009502Y017777D01*
X009446Y017718D02*
X008452Y017718D01*
X008476Y017660D02*
X008631Y017660D01*
X008992Y017660D02*
X009422Y017660D01*
X009398Y017601D02*
X009133Y017601D01*
X009216Y017543D02*
X009397Y017543D01*
X009397Y017484D02*
X009275Y017484D01*
X009333Y017426D02*
X009412Y017426D01*
X009436Y017367D02*
X009371Y017367D01*
X009395Y017309D02*
X009478Y017309D01*
X009536Y017250D02*
X009419Y017250D01*
X009444Y017192D02*
X009667Y017192D01*
X009806Y017192D02*
X010350Y017192D01*
X010267Y017250D02*
X009937Y017250D01*
X009995Y017309D02*
X010215Y017309D01*
X010181Y017367D02*
X010037Y017367D01*
X010061Y017426D02*
X010157Y017426D01*
X010146Y017484D02*
X010077Y017484D01*
X010494Y017484D02*
X010554Y017484D01*
X010554Y017426D02*
X010494Y017426D01*
X010494Y017367D02*
X010554Y017367D01*
X010554Y017309D02*
X010494Y017309D01*
X010494Y017250D02*
X010554Y017250D01*
X010554Y017192D02*
X010494Y017192D01*
X010494Y017660D02*
X010554Y017660D01*
X010554Y017718D02*
X010494Y017718D01*
X010494Y017777D02*
X010554Y017777D01*
X010554Y017835D02*
X010494Y017835D01*
X010494Y017894D02*
X010554Y017894D01*
X010686Y018069D02*
X010362Y018069D01*
X010419Y018128D02*
X010629Y018128D01*
X010604Y018186D02*
X010444Y018186D01*
X010468Y018245D02*
X010580Y018245D01*
X010578Y018303D02*
X010470Y018303D01*
X010470Y018362D02*
X010578Y018362D01*
X010592Y018420D02*
X010456Y018420D01*
X010432Y018479D02*
X010616Y018479D01*
X010656Y018537D02*
X010392Y018537D01*
X010334Y018596D02*
X010714Y018596D01*
X010840Y018654D02*
X010208Y018654D01*
X010276Y018011D02*
X010772Y018011D01*
X010918Y018319D02*
X011350Y017886D01*
X012773Y017886D01*
X013399Y017261D01*
X013399Y012708D01*
X013142Y012511D01*
X012895Y012278D02*
X012602Y012278D01*
X012650Y012336D02*
X012847Y012336D01*
X012822Y012395D02*
X012674Y012395D01*
X012695Y012453D02*
X012802Y012453D01*
X012802Y012512D02*
X012695Y012512D01*
X012695Y012570D02*
X012802Y012570D01*
X012823Y012629D02*
X012674Y012629D01*
X012685Y012687D02*
X012847Y012687D01*
X012896Y012746D02*
X012740Y012746D01*
X012794Y012804D02*
X012961Y012804D01*
X012849Y012863D02*
X013279Y012863D01*
X013279Y012921D02*
X012904Y012921D01*
X012959Y012980D02*
X013279Y012980D01*
X013279Y013038D02*
X013014Y013038D01*
X013069Y013097D02*
X013279Y013097D01*
X013279Y013155D02*
X013124Y013155D01*
X013179Y013214D02*
X013279Y013214D01*
X013279Y013272D02*
X013234Y013272D01*
X013279Y013496D02*
X012355Y012511D01*
X012107Y012278D02*
X011868Y012278D01*
X011862Y012269D02*
X011904Y012331D01*
X011933Y012401D01*
X011947Y012474D01*
X011947Y012481D01*
X011597Y012481D01*
X011597Y012131D01*
X011605Y012131D01*
X011678Y012146D01*
X011725Y012165D01*
X011673Y012113D01*
X011621Y011988D01*
X011621Y011853D01*
X011673Y011728D01*
X011768Y011633D01*
X011893Y011581D01*
X012029Y011581D01*
X012154Y011633D01*
X012249Y011728D01*
X012301Y011853D01*
X012301Y011988D01*
X012249Y012113D01*
X012154Y012209D01*
X012029Y012261D01*
X011893Y012261D01*
X011826Y012233D01*
X011862Y012269D01*
X011906Y012336D02*
X012059Y012336D01*
X012035Y012395D02*
X011930Y012395D01*
X011943Y012453D02*
X012015Y012453D01*
X012015Y012512D02*
X011597Y012512D01*
X011597Y012541D02*
X011947Y012541D01*
X011947Y012549D01*
X011933Y012622D01*
X011904Y012691D01*
X011862Y012754D01*
X011810Y012807D01*
X011747Y012848D01*
X011678Y012877D01*
X011605Y012891D01*
X011597Y012891D01*
X011597Y012541D01*
X011597Y012481D01*
X011537Y012481D01*
X011537Y012131D01*
X011530Y012131D01*
X011456Y012146D01*
X011410Y012165D01*
X011462Y012113D01*
X011514Y011988D01*
X011514Y011853D01*
X011462Y011728D01*
X011366Y011633D01*
X011241Y011581D01*
X011106Y011581D01*
X010981Y011633D01*
X010885Y011728D01*
X010834Y011853D01*
X010834Y011988D01*
X010885Y012113D01*
X010981Y012209D01*
X011106Y012261D01*
X011241Y012261D01*
X011308Y012233D01*
X011272Y012269D01*
X011231Y012331D01*
X011202Y012401D01*
X011187Y012474D01*
X011187Y012481D01*
X011537Y012481D01*
X011537Y012541D01*
X011187Y012541D01*
X011187Y012549D01*
X011202Y012622D01*
X011231Y012691D01*
X011272Y012754D01*
X011325Y012807D01*
X011387Y012848D01*
X011456Y012877D01*
X011530Y012891D01*
X011537Y012891D01*
X011537Y012541D01*
X011597Y012541D01*
X011597Y012570D02*
X011537Y012570D01*
X011537Y012512D02*
X011120Y012512D01*
X011120Y012570D02*
X011192Y012570D01*
X011205Y012629D02*
X011099Y012629D01*
X011075Y012687D02*
X011229Y012687D01*
X011267Y012746D02*
X011026Y012746D01*
X010961Y012804D02*
X011323Y012804D01*
X011423Y012863D02*
X010645Y012863D01*
X010645Y012921D02*
X012575Y012921D01*
X012520Y012863D02*
X011712Y012863D01*
X011597Y012863D02*
X011537Y012863D01*
X011537Y012804D02*
X011597Y012804D01*
X011597Y012746D02*
X011537Y012746D01*
X011537Y012687D02*
X011597Y012687D01*
X011597Y012629D02*
X011537Y012629D01*
X011537Y012453D02*
X011597Y012453D01*
X011597Y012395D02*
X011537Y012395D01*
X011537Y012336D02*
X011597Y012336D01*
X011597Y012278D02*
X011537Y012278D01*
X011537Y012219D02*
X011597Y012219D01*
X011597Y012161D02*
X011537Y012161D01*
X011466Y012102D02*
X011668Y012102D01*
X011644Y012044D02*
X011491Y012044D01*
X011514Y011985D02*
X011621Y011985D01*
X011621Y011927D02*
X011514Y011927D01*
X011514Y011868D02*
X011621Y011868D01*
X011639Y011810D02*
X011496Y011810D01*
X011471Y011751D02*
X011663Y011751D01*
X011708Y011693D02*
X011426Y011693D01*
X011368Y011634D02*
X011767Y011634D01*
X012155Y011634D02*
X012751Y011634D01*
X012692Y011693D02*
X012214Y011693D01*
X012259Y011751D02*
X012647Y011751D01*
X012623Y011810D02*
X012283Y011810D01*
X012301Y011868D02*
X012605Y011868D01*
X012605Y011927D02*
X012301Y011927D01*
X012301Y011985D02*
X012605Y011985D01*
X012628Y012044D02*
X012278Y012044D01*
X012254Y012102D02*
X012652Y012102D01*
X012704Y012161D02*
X012202Y012161D01*
X012171Y012219D02*
X012129Y012219D01*
X012015Y012570D02*
X011943Y012570D01*
X011930Y012629D02*
X012035Y012629D01*
X012060Y012687D02*
X011906Y012687D01*
X011868Y012746D02*
X012108Y012746D01*
X012174Y012804D02*
X011812Y012804D01*
X011720Y012161D02*
X011714Y012161D01*
X011421Y012161D02*
X011414Y012161D01*
X011266Y012278D02*
X011027Y012278D01*
X011006Y012219D02*
X010963Y012219D01*
X010933Y012161D02*
X010430Y012161D01*
X010482Y012102D02*
X010881Y012102D01*
X010857Y012044D02*
X010506Y012044D01*
X010529Y011985D02*
X010834Y011985D01*
X010834Y011927D02*
X010529Y011927D01*
X010529Y011868D02*
X010834Y011868D01*
X010852Y011810D02*
X010511Y011810D01*
X010487Y011751D02*
X010876Y011751D01*
X010921Y011693D02*
X010442Y011693D01*
X010384Y011634D02*
X010979Y011634D01*
X010596Y012219D02*
X010357Y012219D01*
X009949Y012161D02*
X007642Y012161D01*
X007642Y012219D02*
X009809Y012219D01*
X009745Y012278D02*
X007642Y012278D01*
X007606Y012336D02*
X009697Y012336D01*
X009673Y012395D02*
X007548Y012395D01*
X007489Y012453D02*
X009653Y012453D01*
X009653Y012512D02*
X007431Y012512D01*
X007642Y012102D02*
X009897Y012102D01*
X009872Y012044D02*
X007642Y012044D01*
X007642Y011985D02*
X009849Y011985D01*
X009849Y011927D02*
X007603Y011927D01*
X007544Y011868D02*
X009849Y011868D01*
X009867Y011810D02*
X007486Y011810D01*
X007427Y011751D02*
X008793Y011751D01*
X008652Y011693D02*
X004397Y011693D01*
X004397Y011751D02*
X005471Y011751D01*
X005413Y011810D02*
X004397Y011810D01*
X004427Y011868D02*
X005354Y011868D01*
X005239Y012395D02*
X001459Y012395D01*
X001494Y012453D02*
X005239Y012453D01*
X005239Y012512D02*
X001530Y012512D01*
X001566Y012570D02*
X005239Y012570D01*
X005239Y012629D02*
X001610Y012629D01*
X001587Y012605D02*
X001866Y012891D01*
X002201Y013108D01*
X002576Y013245D01*
X002838Y013278D01*
X003026Y013091D01*
X003361Y013091D01*
X003598Y013328D01*
X003598Y013663D01*
X003361Y013901D01*
X003026Y013901D01*
X002838Y013713D01*
X002474Y013667D01*
X002008Y013497D01*
X001591Y013227D01*
X001244Y012871D01*
X000986Y012447D01*
X000900Y012193D01*
X000794Y012149D01*
X000686Y012041D01*
X000627Y011899D01*
X000627Y011155D01*
X000686Y011014D01*
X000794Y010905D01*
X000936Y010847D01*
X001089Y010847D01*
X001230Y010905D01*
X001339Y011014D01*
X001397Y011155D01*
X001397Y011899D01*
X001339Y012041D01*
X001313Y012067D01*
X001379Y012264D01*
X001587Y012605D01*
X001667Y012687D02*
X005239Y012687D01*
X005239Y012746D02*
X001724Y012746D01*
X001781Y012804D02*
X005239Y012804D01*
X005239Y012863D02*
X001838Y012863D01*
X001912Y012921D02*
X005239Y012921D01*
X005239Y012980D02*
X002003Y012980D01*
X002093Y013038D02*
X005239Y013038D01*
X005239Y013097D02*
X004424Y013097D01*
X004378Y013051D02*
X004638Y013311D01*
X004638Y013466D01*
X004223Y013466D01*
X004223Y013526D01*
X004163Y013526D01*
X004163Y013941D01*
X004009Y013941D01*
X003748Y013680D01*
X003748Y013526D01*
X004163Y013526D01*
X004163Y013466D01*
X003748Y013466D01*
X003748Y013311D01*
X004009Y013051D01*
X004163Y013051D01*
X004163Y013466D01*
X004223Y013466D01*
X004223Y013051D01*
X004378Y013051D01*
X004482Y013155D02*
X005239Y013155D01*
X005239Y013214D02*
X004541Y013214D01*
X004599Y013272D02*
X005226Y013272D01*
X005168Y013331D02*
X004638Y013331D01*
X004638Y013389D02*
X005117Y013389D01*
X005093Y013448D02*
X004638Y013448D01*
X004638Y013526D02*
X004638Y013680D01*
X004378Y013941D01*
X004223Y013941D01*
X004223Y013526D01*
X004638Y013526D01*
X004638Y013565D02*
X005064Y013565D01*
X005064Y013623D02*
X004638Y013623D01*
X004636Y013682D02*
X005064Y013682D01*
X005064Y013740D02*
X004578Y013740D01*
X004519Y013799D02*
X005064Y013799D01*
X005064Y013857D02*
X004461Y013857D01*
X004402Y013916D02*
X005064Y013916D01*
X005064Y013974D02*
X000330Y013974D01*
X000330Y013916D02*
X003984Y013916D01*
X003926Y013857D02*
X003404Y013857D01*
X003463Y013799D02*
X003867Y013799D01*
X003809Y013740D02*
X003521Y013740D01*
X003580Y013682D02*
X003750Y013682D01*
X003748Y013623D02*
X003598Y013623D01*
X003598Y013565D02*
X003748Y013565D01*
X003748Y013448D02*
X003598Y013448D01*
X003598Y013506D02*
X004163Y013506D01*
X004163Y013448D02*
X004223Y013448D01*
X004223Y013506D02*
X005069Y013506D01*
X005064Y014033D02*
X000330Y014033D01*
X000330Y014091D02*
X005064Y014091D01*
X005064Y014150D02*
X000330Y014150D01*
X000330Y014208D02*
X005064Y014208D01*
X005066Y014267D02*
X000330Y014267D01*
X000330Y014325D02*
X005090Y014325D01*
X005115Y014384D02*
X000330Y014384D01*
X000330Y014442D02*
X005162Y014442D01*
X005221Y014501D02*
X000330Y014501D01*
X000330Y014559D02*
X005347Y014559D01*
X005551Y014559D02*
X006347Y014559D01*
X006221Y014501D02*
X005678Y014501D01*
X005736Y014442D02*
X006162Y014442D01*
X006115Y014384D02*
X005784Y014384D01*
X005808Y014325D02*
X006090Y014325D01*
X006066Y014267D02*
X005832Y014267D01*
X005834Y014208D02*
X006064Y014208D01*
X006064Y014150D02*
X005834Y014150D01*
X005834Y014091D02*
X006064Y014091D01*
X006064Y014033D02*
X005834Y014033D01*
X005834Y013974D02*
X006064Y013974D01*
X006064Y013916D02*
X005834Y013916D01*
X005834Y013857D02*
X006064Y013857D01*
X006064Y013799D02*
X005834Y013799D01*
X005834Y013740D02*
X006064Y013740D01*
X006064Y013682D02*
X005834Y013682D01*
X005834Y013623D02*
X006064Y013623D01*
X006064Y013565D02*
X005834Y013565D01*
X005830Y013506D02*
X006069Y013506D01*
X006093Y013448D02*
X005806Y013448D01*
X005781Y013389D02*
X006117Y013389D01*
X006168Y013331D02*
X005731Y013331D01*
X005672Y013272D02*
X006226Y013272D01*
X006360Y013214D02*
X005659Y013214D01*
X004439Y012336D02*
X001423Y012336D01*
X001387Y012278D02*
X004298Y012278D01*
X004157Y012219D02*
X003167Y012219D01*
X003175Y012217D02*
X003112Y012237D01*
X003046Y012248D01*
X003042Y012248D01*
X003042Y011557D01*
X002982Y011557D01*
X002982Y011497D01*
X002587Y011497D01*
X002587Y011198D01*
X002597Y011132D01*
X002618Y011069D01*
X002648Y011009D01*
X002688Y010955D01*
X002735Y010908D01*
X002789Y010868D01*
X002849Y010838D01*
X002913Y010817D01*
X002979Y010807D01*
X002982Y010807D01*
X002982Y011497D01*
X003042Y011497D01*
X003042Y010807D01*
X003046Y010807D01*
X003112Y010817D01*
X003175Y010838D01*
X003235Y010868D01*
X003289Y010908D01*
X003337Y010955D01*
X003376Y011009D01*
X003406Y011069D01*
X003427Y011132D01*
X003437Y011198D01*
X003437Y011497D01*
X003042Y011497D01*
X003042Y011557D01*
X003437Y011557D01*
X003437Y011856D01*
X003427Y011922D01*
X003406Y011986D01*
X003376Y012045D01*
X003337Y012099D01*
X003289Y012147D01*
X003235Y012186D01*
X003175Y012217D01*
X003270Y012161D02*
X003823Y012161D01*
X003747Y012102D02*
X003334Y012102D01*
X003377Y012044D02*
X003689Y012044D01*
X003663Y011985D02*
X003406Y011985D01*
X003425Y011927D02*
X003638Y011927D01*
X003627Y011868D02*
X003436Y011868D01*
X003437Y011810D02*
X003627Y011810D01*
X003627Y011751D02*
X003437Y011751D01*
X003437Y011693D02*
X003627Y011693D01*
X003627Y011634D02*
X003437Y011634D01*
X003437Y011576D02*
X003627Y011576D01*
X003627Y011517D02*
X003042Y011517D01*
X003042Y011459D02*
X002982Y011459D01*
X002982Y011517D02*
X002042Y011517D01*
X002042Y011497D02*
X002042Y011557D01*
X001982Y011557D01*
X001982Y011497D01*
X001587Y011497D01*
X001587Y011198D01*
X001597Y011132D01*
X001618Y011069D01*
X001648Y011009D01*
X001688Y010955D01*
X001735Y010908D01*
X001789Y010868D01*
X001849Y010838D01*
X001913Y010817D01*
X001979Y010807D01*
X001982Y010807D01*
X001982Y011497D01*
X002042Y011497D01*
X002042Y010807D01*
X002046Y010807D01*
X002112Y010817D01*
X002175Y010838D01*
X002235Y010868D01*
X002289Y010908D01*
X002337Y010955D01*
X002376Y011009D01*
X002406Y011069D01*
X002427Y011132D01*
X002437Y011198D01*
X002437Y011497D01*
X002042Y011497D01*
X002042Y011459D02*
X001982Y011459D01*
X001982Y011517D02*
X001397Y011517D01*
X001397Y011459D02*
X001587Y011459D01*
X001587Y011400D02*
X001397Y011400D01*
X001397Y011342D02*
X001587Y011342D01*
X001587Y011283D02*
X001397Y011283D01*
X001397Y011225D02*
X001587Y011225D01*
X001592Y011166D02*
X001397Y011166D01*
X001378Y011108D02*
X001605Y011108D01*
X001628Y011049D02*
X001354Y011049D01*
X001316Y010991D02*
X001662Y010991D01*
X001710Y010932D02*
X001258Y010932D01*
X001155Y010874D02*
X001781Y010874D01*
X001923Y010815D02*
X000330Y010815D01*
X000330Y010757D02*
X008449Y010757D01*
X008417Y010815D02*
X003101Y010815D01*
X003042Y010815D02*
X002982Y010815D01*
X002923Y010815D02*
X002101Y010815D01*
X002042Y010815D02*
X001982Y010815D01*
X001982Y010874D02*
X002042Y010874D01*
X002042Y010932D02*
X001982Y010932D01*
X001982Y010991D02*
X002042Y010991D01*
X002042Y011049D02*
X001982Y011049D01*
X001982Y011108D02*
X002042Y011108D01*
X002042Y011166D02*
X001982Y011166D01*
X001982Y011225D02*
X002042Y011225D01*
X002042Y011283D02*
X001982Y011283D01*
X001982Y011342D02*
X002042Y011342D01*
X002042Y011400D02*
X001982Y011400D01*
X001982Y011557D02*
X001587Y011557D01*
X001587Y011856D01*
X001597Y011922D01*
X001618Y011986D01*
X001648Y012045D01*
X001688Y012099D01*
X001735Y012147D01*
X001789Y012186D01*
X001849Y012217D01*
X001913Y012237D01*
X001979Y012248D01*
X001982Y012248D01*
X001982Y011557D01*
X001982Y011576D02*
X002042Y011576D01*
X002042Y011557D02*
X002042Y012248D01*
X002046Y012248D01*
X002112Y012237D01*
X002175Y012217D01*
X002235Y012186D01*
X002289Y012147D01*
X002337Y012099D01*
X002376Y012045D01*
X002406Y011986D01*
X002427Y011922D01*
X002437Y011856D01*
X002437Y011557D01*
X002042Y011557D01*
X002042Y011634D02*
X001982Y011634D01*
X001982Y011693D02*
X002042Y011693D01*
X002042Y011751D02*
X001982Y011751D01*
X001982Y011810D02*
X002042Y011810D01*
X002042Y011868D02*
X001982Y011868D01*
X001982Y011927D02*
X002042Y011927D01*
X002042Y011985D02*
X001982Y011985D01*
X001982Y012044D02*
X002042Y012044D01*
X002042Y012102D02*
X001982Y012102D01*
X001982Y012161D02*
X002042Y012161D01*
X002042Y012219D02*
X001982Y012219D01*
X001858Y012219D02*
X001364Y012219D01*
X001344Y012161D02*
X001755Y012161D01*
X001691Y012102D02*
X001325Y012102D01*
X001336Y012044D02*
X001648Y012044D01*
X001618Y011985D02*
X001362Y011985D01*
X001386Y011927D02*
X001599Y011927D01*
X001589Y011868D02*
X001397Y011868D01*
X001397Y011810D02*
X001587Y011810D01*
X001587Y011751D02*
X001397Y011751D01*
X001397Y011693D02*
X001587Y011693D01*
X001587Y011634D02*
X001397Y011634D01*
X001397Y011576D02*
X001587Y011576D01*
X002167Y012219D02*
X002858Y012219D01*
X002849Y012217D02*
X002789Y012186D01*
X002735Y012147D01*
X002688Y012099D01*
X002648Y012045D01*
X002618Y011986D01*
X002597Y011922D01*
X002587Y011856D01*
X002587Y011557D01*
X002982Y011557D01*
X002982Y012248D01*
X002979Y012248D01*
X002913Y012237D01*
X002849Y012217D01*
X002755Y012161D02*
X002270Y012161D01*
X002334Y012102D02*
X002691Y012102D01*
X002648Y012044D02*
X002377Y012044D01*
X002406Y011985D02*
X002618Y011985D01*
X002599Y011927D02*
X002425Y011927D01*
X002436Y011868D02*
X002589Y011868D01*
X002587Y011810D02*
X002437Y011810D01*
X002437Y011751D02*
X002587Y011751D01*
X002587Y011693D02*
X002437Y011693D01*
X002437Y011634D02*
X002587Y011634D01*
X002587Y011576D02*
X002437Y011576D01*
X002437Y011459D02*
X002587Y011459D01*
X002587Y011400D02*
X002437Y011400D01*
X002437Y011342D02*
X002587Y011342D01*
X002587Y011283D02*
X002437Y011283D01*
X002437Y011225D02*
X002587Y011225D01*
X002592Y011166D02*
X002432Y011166D01*
X002419Y011108D02*
X002605Y011108D01*
X002628Y011049D02*
X002397Y011049D01*
X002363Y010991D02*
X002662Y010991D01*
X002710Y010932D02*
X002314Y010932D01*
X002243Y010874D02*
X002781Y010874D01*
X002982Y010874D02*
X003042Y010874D01*
X003042Y010932D02*
X002982Y010932D01*
X002982Y010991D02*
X003042Y010991D01*
X003042Y011049D02*
X002982Y011049D01*
X002982Y011108D02*
X003042Y011108D01*
X003042Y011166D02*
X002982Y011166D01*
X002982Y011225D02*
X003042Y011225D01*
X003042Y011283D02*
X002982Y011283D01*
X002982Y011342D02*
X003042Y011342D01*
X003042Y011400D02*
X002982Y011400D01*
X002982Y011576D02*
X003042Y011576D01*
X003042Y011634D02*
X002982Y011634D01*
X002982Y011693D02*
X003042Y011693D01*
X003042Y011751D02*
X002982Y011751D01*
X002982Y011810D02*
X003042Y011810D01*
X003042Y011868D02*
X002982Y011868D01*
X002982Y011927D02*
X003042Y011927D01*
X003042Y011985D02*
X002982Y011985D01*
X002982Y012044D02*
X003042Y012044D01*
X003042Y012102D02*
X002982Y012102D01*
X002982Y012161D02*
X003042Y012161D01*
X003042Y012219D02*
X002982Y012219D01*
X003019Y013097D02*
X002183Y013097D01*
X002330Y013155D02*
X002961Y013155D01*
X002902Y013214D02*
X002490Y013214D01*
X002792Y013272D02*
X002844Y013272D01*
X002865Y013740D02*
X000330Y013740D01*
X000330Y013682D02*
X002592Y013682D01*
X002355Y013623D02*
X000330Y013623D01*
X000330Y013565D02*
X002194Y013565D01*
X002034Y013506D02*
X000330Y013506D01*
X000330Y013448D02*
X001932Y013448D01*
X001842Y013389D02*
X000330Y013389D01*
X000330Y013331D02*
X001751Y013331D01*
X001661Y013272D02*
X000330Y013272D01*
X000330Y013214D02*
X001578Y013214D01*
X001521Y013155D02*
X000330Y013155D01*
X000330Y013097D02*
X001464Y013097D01*
X001407Y013038D02*
X000330Y013038D01*
X000330Y012980D02*
X001350Y012980D01*
X001293Y012921D02*
X000330Y012921D01*
X000330Y012863D02*
X001239Y012863D01*
X001244Y012871D02*
X001244Y012871D01*
X001244Y012871D01*
X001203Y012804D02*
X000330Y012804D01*
X000330Y012746D02*
X001168Y012746D01*
X001132Y012687D02*
X000330Y012687D01*
X000330Y012629D02*
X001096Y012629D01*
X001061Y012570D02*
X000330Y012570D01*
X000330Y012512D02*
X001025Y012512D01*
X000989Y012453D02*
X000330Y012453D01*
X000330Y012395D02*
X000968Y012395D01*
X000986Y012447D02*
X000986Y012447D01*
X000948Y012336D02*
X000330Y012336D01*
X000330Y012278D02*
X000929Y012278D01*
X000909Y012219D02*
X000330Y012219D01*
X000330Y012161D02*
X000823Y012161D01*
X000747Y012102D02*
X000330Y012102D01*
X000330Y012044D02*
X000689Y012044D01*
X000663Y011985D02*
X000330Y011985D01*
X000330Y011927D02*
X000638Y011927D01*
X000627Y011868D02*
X000330Y011868D01*
X000330Y011810D02*
X000627Y011810D01*
X000627Y011751D02*
X000330Y011751D01*
X000330Y011693D02*
X000627Y011693D01*
X000627Y011634D02*
X000330Y011634D01*
X000330Y011576D02*
X000627Y011576D01*
X000627Y011517D02*
X000330Y011517D01*
X000330Y011459D02*
X000627Y011459D01*
X000627Y011400D02*
X000330Y011400D01*
X000330Y011342D02*
X000627Y011342D01*
X000627Y011283D02*
X000330Y011283D01*
X000330Y011225D02*
X000627Y011225D01*
X000627Y011166D02*
X000330Y011166D01*
X000330Y011108D02*
X000647Y011108D01*
X000671Y011049D02*
X000330Y011049D01*
X000330Y010991D02*
X000708Y010991D01*
X000767Y010932D02*
X000330Y010932D01*
X000330Y010874D02*
X000870Y010874D01*
X000330Y010698D02*
X008507Y010698D01*
X008566Y010640D02*
X000330Y010640D01*
X000330Y009645D02*
X019655Y009645D01*
X019655Y009587D02*
X000330Y009587D01*
X000330Y009528D02*
X019655Y009528D01*
X019655Y009470D02*
X000330Y009470D01*
X000330Y009411D02*
X019655Y009411D01*
X019655Y009353D02*
X000330Y009353D01*
X000330Y009294D02*
X019655Y009294D01*
X019655Y009236D02*
X000330Y009236D01*
X000330Y009177D02*
X019655Y009177D01*
X019655Y009119D02*
X000330Y009119D01*
X000330Y009060D02*
X019655Y009060D01*
X019655Y009002D02*
X000330Y009002D01*
X000330Y008943D02*
X019655Y008943D01*
X019655Y008885D02*
X000330Y008885D01*
X000330Y008826D02*
X019655Y008826D01*
X019655Y008768D02*
X000330Y008768D01*
X000330Y008709D02*
X019655Y008709D01*
X019655Y008651D02*
X000330Y008651D01*
X000330Y008592D02*
X019655Y008592D01*
X019655Y008534D02*
X000330Y008534D01*
X000330Y008475D02*
X019655Y008475D01*
X019655Y008417D02*
X000330Y008417D01*
X000330Y008358D02*
X019655Y008358D01*
X019655Y008300D02*
X000330Y008300D01*
X000330Y008241D02*
X019655Y008241D01*
X019655Y008183D02*
X000330Y008183D01*
X000330Y008124D02*
X019655Y008124D01*
X019655Y008066D02*
X000330Y008066D01*
X000330Y008007D02*
X019655Y008007D01*
X019655Y007949D02*
X000330Y007949D01*
X000330Y007890D02*
X019655Y007890D01*
X019655Y007832D02*
X000330Y007832D01*
X000330Y007773D02*
X019655Y007773D01*
X019655Y007715D02*
X000330Y007715D01*
X000330Y007656D02*
X019655Y007656D01*
X019655Y007598D02*
X000330Y007598D01*
X000330Y007539D02*
X019655Y007539D01*
X019655Y007481D02*
X000330Y007481D01*
X000330Y007422D02*
X019655Y007422D01*
X019655Y007364D02*
X000330Y007364D01*
X000330Y007305D02*
X019655Y007305D01*
X019655Y007247D02*
X000330Y007247D01*
X000330Y007188D02*
X019655Y007188D01*
X019655Y007130D02*
X000330Y007130D01*
X000330Y007071D02*
X019655Y007071D01*
X019655Y007013D02*
X000330Y007013D01*
X000330Y006954D02*
X019655Y006954D01*
X019655Y006896D02*
X000330Y006896D01*
X000330Y006837D02*
X019655Y006837D01*
X019655Y006779D02*
X007598Y006779D01*
X007510Y006815D02*
X007746Y006718D01*
X007927Y006537D01*
X008025Y006301D01*
X008025Y006045D01*
X007927Y005809D01*
X007746Y005628D01*
X007510Y005530D01*
X007254Y005530D01*
X007018Y005628D01*
X006838Y005809D01*
X006740Y006045D01*
X006740Y006301D01*
X006838Y006537D01*
X007018Y006718D01*
X007254Y006815D01*
X007510Y006815D01*
X007740Y006720D02*
X019655Y006720D01*
X019655Y006662D02*
X007802Y006662D01*
X007861Y006603D02*
X019655Y006603D01*
X019655Y006545D02*
X007919Y006545D01*
X007948Y006486D02*
X019655Y006486D01*
X019655Y006428D02*
X007972Y006428D01*
X007996Y006369D02*
X019655Y006369D01*
X019655Y006311D02*
X008021Y006311D01*
X008025Y006252D02*
X019655Y006252D01*
X019655Y006194D02*
X008025Y006194D01*
X008025Y006135D02*
X019655Y006135D01*
X019655Y006077D02*
X008025Y006077D01*
X008014Y006018D02*
X019655Y006018D01*
X019655Y005960D02*
X007990Y005960D01*
X007965Y005901D02*
X019655Y005901D01*
X019655Y005843D02*
X007941Y005843D01*
X007903Y005784D02*
X019655Y005784D01*
X019655Y005726D02*
X007844Y005726D01*
X007786Y005667D02*
X019655Y005667D01*
X019655Y005609D02*
X007700Y005609D01*
X007559Y005550D02*
X019655Y005550D01*
X019655Y005492D02*
X006498Y005492D01*
X006514Y005453D02*
X006462Y005578D01*
X006366Y005674D01*
X006241Y005725D01*
X006106Y005725D01*
X006033Y005695D01*
X005672Y006057D01*
X003171Y006057D01*
X003101Y005986D01*
X002707Y005593D01*
X002707Y004155D01*
X002777Y004084D01*
X004164Y002698D01*
X004164Y002448D01*
X004141Y002448D01*
X004087Y002394D01*
X004033Y002448D01*
X003747Y002448D01*
X003693Y002394D01*
X003639Y002448D01*
X003354Y002448D01*
X003300Y002394D01*
X003273Y002421D01*
X003273Y002588D01*
X003355Y002588D01*
X003457Y002630D01*
X003535Y002708D01*
X003578Y002810D01*
X003578Y002921D01*
X003535Y003023D01*
X003457Y003102D01*
X003355Y003144D01*
X003244Y003144D01*
X003142Y003102D01*
X003064Y003023D01*
X003021Y002921D01*
X003021Y002828D01*
X002933Y002739D01*
X002933Y002424D01*
X002905Y002451D01*
X002863Y002475D01*
X002816Y002488D01*
X002739Y002488D01*
X002739Y001685D01*
X002679Y001685D01*
X002679Y002488D01*
X002602Y002488D01*
X002555Y002475D01*
X002513Y002451D01*
X002484Y002422D01*
X002458Y002448D01*
X002173Y002448D01*
X002119Y002394D01*
X002064Y002448D01*
X001779Y002448D01*
X001753Y002422D01*
X001724Y002451D01*
X001682Y002475D01*
X001635Y002488D01*
X001558Y002488D01*
X001558Y001685D01*
X001498Y001685D01*
X001498Y002488D01*
X001421Y002488D01*
X001374Y002475D01*
X001332Y002451D01*
X001304Y002424D01*
X001304Y002739D01*
X001216Y002828D01*
X001216Y002921D01*
X001173Y003023D01*
X001095Y003102D01*
X000993Y003144D01*
X000882Y003144D01*
X000780Y003102D01*
X000702Y003023D01*
X000659Y002921D01*
X000659Y002810D01*
X000702Y002708D01*
X000780Y002630D01*
X000882Y002588D01*
X000964Y002588D01*
X000964Y002421D01*
X000937Y002394D01*
X000883Y002448D01*
X000598Y002448D01*
X000544Y002394D01*
X000490Y002448D01*
X000344Y002448D01*
X000344Y003737D01*
X003125Y003737D01*
X003066Y003795D02*
X000330Y003795D01*
X000330Y003751D02*
X000330Y019615D01*
X019655Y019615D01*
X019655Y003439D01*
X008218Y003439D01*
X008218Y003659D01*
X008104Y003772D01*
X007944Y003772D01*
X007830Y003659D01*
X007830Y003419D01*
X007746Y003334D01*
X007746Y003185D01*
X007830Y003100D01*
X007830Y001685D01*
X007797Y001685D01*
X007797Y002488D01*
X007720Y002488D01*
X007673Y002475D01*
X007631Y002451D01*
X007602Y002422D01*
X007593Y002431D01*
X007593Y004583D01*
X007630Y004598D01*
X007709Y004677D01*
X007751Y004779D01*
X007751Y004890D01*
X007709Y004992D01*
X007630Y005070D01*
X007528Y005112D01*
X007418Y005112D01*
X007315Y005070D01*
X007237Y004992D01*
X007195Y004890D01*
X007195Y004779D01*
X007237Y004677D01*
X007315Y004598D01*
X007353Y004583D01*
X007353Y002448D01*
X007291Y002448D01*
X007265Y002422D01*
X007236Y002451D01*
X007194Y002475D01*
X007147Y002488D01*
X007070Y002488D01*
X007070Y001685D01*
X007010Y001685D01*
X007010Y002488D01*
X006933Y002488D01*
X006886Y002475D01*
X006843Y002451D01*
X006815Y002422D01*
X006789Y002448D01*
X006703Y002448D01*
X006629Y002522D01*
X006629Y003019D01*
X006559Y003089D01*
X005658Y003991D01*
X003847Y003991D01*
X003795Y004043D01*
X003795Y004312D01*
X003938Y004456D01*
X003941Y004455D01*
X004076Y004455D01*
X004201Y004507D01*
X004297Y004602D01*
X004348Y004727D01*
X004348Y004863D01*
X004297Y004987D01*
X004201Y005083D01*
X004076Y005135D01*
X003941Y005135D01*
X003816Y005083D01*
X003720Y004987D01*
X003668Y004863D01*
X003668Y004727D01*
X003720Y004602D01*
X003733Y004590D01*
X003625Y004482D01*
X003615Y004472D01*
X003604Y004482D01*
X003496Y004590D01*
X003509Y004602D01*
X003561Y004727D01*
X003561Y004863D01*
X003509Y004987D01*
X003451Y005045D01*
X003485Y005045D01*
X003610Y005097D01*
X003706Y005193D01*
X003758Y005318D01*
X003758Y005453D01*
X003706Y005578D01*
X003610Y005674D01*
X003485Y005725D01*
X003350Y005725D01*
X003225Y005674D01*
X003129Y005578D01*
X003078Y005453D01*
X003078Y005318D01*
X003129Y005193D01*
X003187Y005135D01*
X003153Y005135D01*
X003028Y005083D01*
X002947Y005002D01*
X002947Y005493D01*
X003271Y005817D01*
X005573Y005817D01*
X005864Y005526D01*
X005834Y005453D01*
X005834Y005318D01*
X005885Y005193D01*
X005981Y005097D01*
X006106Y005045D01*
X006140Y005045D01*
X006082Y004987D01*
X006030Y004863D01*
X006030Y004727D01*
X006082Y004602D01*
X006178Y004507D01*
X006303Y004455D01*
X006438Y004455D01*
X006563Y004507D01*
X006659Y004602D01*
X006710Y004727D01*
X006710Y004863D01*
X006659Y004987D01*
X006563Y005083D01*
X006438Y005135D01*
X006404Y005135D01*
X006462Y005193D01*
X006514Y005318D01*
X006514Y005453D01*
X006514Y005433D02*
X019655Y005433D01*
X019655Y005375D02*
X006514Y005375D01*
X006513Y005316D02*
X019655Y005316D01*
X019655Y005258D02*
X006489Y005258D01*
X006465Y005199D02*
X019655Y005199D01*
X019655Y005141D02*
X006410Y005141D01*
X006564Y005082D02*
X007345Y005082D01*
X007269Y005024D02*
X006622Y005024D01*
X006668Y004965D02*
X007226Y004965D01*
X007202Y004907D02*
X006692Y004907D01*
X006710Y004848D02*
X007195Y004848D01*
X007195Y004790D02*
X006710Y004790D01*
X006710Y004731D02*
X007214Y004731D01*
X007241Y004673D02*
X006688Y004673D01*
X006664Y004614D02*
X007299Y004614D01*
X007353Y004556D02*
X006612Y004556D01*
X006541Y004497D02*
X007353Y004497D01*
X007353Y004439D02*
X004929Y004439D01*
X004907Y004429D02*
X004976Y004458D01*
X005038Y004500D01*
X005091Y004553D01*
X005132Y004615D01*
X005161Y004684D01*
X005176Y004757D01*
X005176Y004765D01*
X004826Y004765D01*
X004826Y004825D01*
X005176Y004825D01*
X005176Y004832D01*
X005161Y004906D01*
X005132Y004975D01*
X005091Y005037D01*
X005055Y005073D01*
X005122Y005045D01*
X005257Y005045D01*
X005382Y005097D01*
X005478Y005193D01*
X005529Y005318D01*
X005529Y005453D01*
X005478Y005578D01*
X005382Y005674D01*
X005257Y005725D01*
X005122Y005725D01*
X004997Y005674D01*
X004901Y005578D01*
X004849Y005453D01*
X004849Y005318D01*
X004901Y005193D01*
X004953Y005141D01*
X004907Y005160D01*
X004833Y005175D01*
X004826Y005175D01*
X004826Y004825D01*
X004766Y004825D01*
X004766Y005175D01*
X004758Y005175D01*
X004685Y005160D01*
X004638Y005141D01*
X004690Y005193D01*
X004742Y005318D01*
X004742Y005453D01*
X004690Y005578D01*
X004595Y005674D01*
X004470Y005725D01*
X004334Y005725D01*
X004209Y005674D01*
X004114Y005578D01*
X004062Y005453D01*
X004062Y005318D01*
X004114Y005193D01*
X004209Y005097D01*
X004334Y005045D01*
X004470Y005045D01*
X004537Y005073D01*
X004501Y005037D01*
X004459Y004975D01*
X004430Y004906D01*
X004416Y004832D01*
X004416Y004825D01*
X004766Y004825D01*
X004766Y004765D01*
X004826Y004765D01*
X004826Y004415D01*
X004833Y004415D01*
X004907Y004429D01*
X004826Y004439D02*
X004766Y004439D01*
X004766Y004415D02*
X004766Y004765D01*
X004416Y004765D01*
X004416Y004757D01*
X004430Y004684D01*
X004459Y004615D01*
X004501Y004553D01*
X004553Y004500D01*
X004616Y004458D01*
X004685Y004429D01*
X004758Y004415D01*
X004766Y004415D01*
X004766Y004497D02*
X004826Y004497D01*
X004826Y004556D02*
X004766Y004556D01*
X004766Y004614D02*
X004826Y004614D01*
X004826Y004673D02*
X004766Y004673D01*
X004766Y004731D02*
X004826Y004731D01*
X004826Y004790D02*
X005243Y004790D01*
X005243Y004848D02*
X005172Y004848D01*
X005161Y004907D02*
X005261Y004907D01*
X005243Y004863D02*
X005243Y004727D01*
X005295Y004602D01*
X005390Y004507D01*
X005515Y004455D01*
X005651Y004455D01*
X005776Y004507D01*
X005871Y004602D01*
X005923Y004727D01*
X005923Y004863D01*
X005871Y004987D01*
X005776Y005083D01*
X005651Y005135D01*
X005515Y005135D01*
X005390Y005083D01*
X005295Y004987D01*
X005243Y004863D01*
X005286Y004965D02*
X005136Y004965D01*
X005100Y005024D02*
X005331Y005024D01*
X005346Y005082D02*
X005390Y005082D01*
X005426Y005141D02*
X005937Y005141D01*
X005883Y005199D02*
X005480Y005199D01*
X005505Y005258D02*
X005858Y005258D01*
X005834Y005316D02*
X005529Y005316D01*
X005529Y005375D02*
X005834Y005375D01*
X005834Y005433D02*
X005529Y005433D01*
X005513Y005492D02*
X005850Y005492D01*
X005839Y005550D02*
X005489Y005550D01*
X005447Y005609D02*
X005780Y005609D01*
X005722Y005667D02*
X005388Y005667D01*
X005605Y005784D02*
X003238Y005784D01*
X003180Y005726D02*
X005663Y005726D01*
X005622Y005937D02*
X006174Y005385D01*
X006373Y005667D02*
X006979Y005667D01*
X006920Y005726D02*
X006003Y005726D01*
X005944Y005784D02*
X006862Y005784D01*
X006823Y005843D02*
X005886Y005843D01*
X005827Y005901D02*
X006799Y005901D01*
X006775Y005960D02*
X005769Y005960D01*
X005710Y006018D02*
X006751Y006018D01*
X006740Y006077D02*
X002852Y006077D01*
X002852Y006045D02*
X002754Y005809D01*
X002573Y005628D01*
X002337Y005530D01*
X002081Y005530D01*
X001845Y005628D01*
X001664Y005809D01*
X001566Y006045D01*
X001566Y006301D01*
X001664Y006537D01*
X001845Y006718D01*
X002081Y006815D01*
X002337Y006815D01*
X002573Y006718D01*
X002754Y006537D01*
X002852Y006301D01*
X002852Y006045D01*
X002841Y006018D02*
X003133Y006018D01*
X003074Y005960D02*
X002816Y005960D01*
X002792Y005901D02*
X003016Y005901D01*
X002957Y005843D02*
X002768Y005843D01*
X002729Y005784D02*
X002899Y005784D01*
X002840Y005726D02*
X002671Y005726D01*
X002612Y005667D02*
X002782Y005667D01*
X002723Y005609D02*
X002527Y005609D01*
X002385Y005550D02*
X002707Y005550D01*
X002707Y005492D02*
X000330Y005492D01*
X000330Y005550D02*
X002033Y005550D01*
X001891Y005609D02*
X000330Y005609D01*
X000330Y005667D02*
X001806Y005667D01*
X001747Y005726D02*
X000330Y005726D01*
X000330Y005784D02*
X001689Y005784D01*
X001650Y005843D02*
X000330Y005843D01*
X000330Y005901D02*
X001626Y005901D01*
X001602Y005960D02*
X000330Y005960D01*
X000330Y006018D02*
X001577Y006018D01*
X001566Y006077D02*
X000330Y006077D01*
X000330Y006135D02*
X001566Y006135D01*
X001566Y006194D02*
X000330Y006194D01*
X000330Y006252D02*
X001566Y006252D01*
X001571Y006311D02*
X000330Y006311D01*
X000330Y006369D02*
X001595Y006369D01*
X001619Y006428D02*
X000330Y006428D01*
X000330Y006486D02*
X001643Y006486D01*
X001672Y006545D02*
X000330Y006545D01*
X000330Y006603D02*
X001731Y006603D01*
X001789Y006662D02*
X000330Y006662D01*
X000330Y006720D02*
X001852Y006720D01*
X001993Y006779D02*
X000330Y006779D01*
X000330Y005433D02*
X002707Y005433D01*
X002707Y005375D02*
X000330Y005375D01*
X000330Y005316D02*
X002707Y005316D01*
X002707Y005258D02*
X000330Y005258D01*
X000330Y005199D02*
X002707Y005199D01*
X002707Y005141D02*
X000330Y005141D01*
X000330Y005082D02*
X002707Y005082D01*
X002707Y005024D02*
X000330Y005024D01*
X000330Y004965D02*
X002707Y004965D01*
X002707Y004907D02*
X000330Y004907D01*
X000330Y004848D02*
X002707Y004848D01*
X002707Y004790D02*
X000330Y004790D01*
X000330Y004731D02*
X002707Y004731D01*
X002707Y004673D02*
X000330Y004673D01*
X000330Y004614D02*
X002707Y004614D01*
X002707Y004556D02*
X000330Y004556D01*
X000330Y004497D02*
X002707Y004497D01*
X002707Y004439D02*
X000330Y004439D01*
X000330Y004380D02*
X002707Y004380D01*
X002707Y004322D02*
X000330Y004322D01*
X000330Y004263D02*
X002707Y004263D01*
X002707Y004205D02*
X000330Y004205D01*
X000330Y004146D02*
X002715Y004146D01*
X002774Y004088D02*
X000330Y004088D01*
X000330Y004029D02*
X002832Y004029D01*
X002891Y003971D02*
X000330Y003971D01*
X000330Y003912D02*
X002949Y003912D01*
X003008Y003854D02*
X000330Y003854D01*
X000330Y003751D02*
X000344Y003737D01*
X000344Y003678D02*
X003183Y003678D01*
X003242Y003620D02*
X000344Y003620D01*
X000344Y003561D02*
X003300Y003561D01*
X003359Y003503D02*
X000344Y003503D01*
X000344Y003444D02*
X003417Y003444D01*
X003476Y003386D02*
X000344Y003386D01*
X000344Y003327D02*
X003534Y003327D01*
X003593Y003269D02*
X000344Y003269D01*
X000344Y003210D02*
X003651Y003210D01*
X003710Y003152D02*
X000344Y003152D01*
X000344Y003093D02*
X000772Y003093D01*
X000713Y003035D02*
X000344Y003035D01*
X000344Y002976D02*
X000682Y002976D01*
X000659Y002918D02*
X000344Y002918D01*
X000344Y002859D02*
X000659Y002859D01*
X000663Y002801D02*
X000344Y002801D01*
X000344Y002742D02*
X000687Y002742D01*
X000726Y002684D02*
X000344Y002684D01*
X000344Y002625D02*
X000791Y002625D01*
X000964Y002567D02*
X000344Y002567D01*
X000344Y002508D02*
X000964Y002508D01*
X000964Y002450D02*
X000344Y002450D01*
X001103Y003093D02*
X003134Y003093D01*
X003075Y003035D02*
X001162Y003035D01*
X001193Y002976D02*
X003044Y002976D01*
X003021Y002918D02*
X001216Y002918D01*
X001216Y002859D02*
X003021Y002859D01*
X002994Y002801D02*
X001243Y002801D01*
X001301Y002742D02*
X002936Y002742D01*
X002933Y002684D02*
X001304Y002684D01*
X001304Y002625D02*
X002933Y002625D01*
X002933Y002567D02*
X001304Y002567D01*
X001304Y002508D02*
X002933Y002508D01*
X002933Y002450D02*
X002906Y002450D01*
X002739Y002450D02*
X002679Y002450D01*
X002679Y002391D02*
X002739Y002391D01*
X002739Y002333D02*
X002679Y002333D01*
X002679Y002274D02*
X002739Y002274D01*
X002739Y002216D02*
X002679Y002216D01*
X002679Y002157D02*
X002739Y002157D01*
X002739Y002099D02*
X002679Y002099D01*
X002679Y002040D02*
X002739Y002040D01*
X002739Y001982D02*
X002679Y001982D01*
X002679Y001923D02*
X002739Y001923D01*
X002739Y001865D02*
X002679Y001865D01*
X002679Y001806D02*
X002739Y001806D01*
X002739Y001748D02*
X002679Y001748D01*
X002679Y001689D02*
X002739Y001689D01*
X002512Y002450D02*
X001725Y002450D01*
X001558Y002450D02*
X001498Y002450D01*
X001498Y002391D02*
X001558Y002391D01*
X001558Y002333D02*
X001498Y002333D01*
X001498Y002274D02*
X001558Y002274D01*
X001558Y002216D02*
X001498Y002216D01*
X001498Y002157D02*
X001558Y002157D01*
X001558Y002099D02*
X001498Y002099D01*
X001498Y002040D02*
X001558Y002040D01*
X001558Y001982D02*
X001498Y001982D01*
X001498Y001923D02*
X001558Y001923D01*
X001558Y001865D02*
X001498Y001865D01*
X001498Y001806D02*
X001558Y001806D01*
X001558Y001748D02*
X001498Y001748D01*
X001498Y001689D02*
X001558Y001689D01*
X001331Y002450D02*
X001304Y002450D01*
X002827Y004204D02*
X002827Y005543D01*
X003221Y005937D01*
X005622Y005937D01*
X004990Y005667D02*
X004601Y005667D01*
X004659Y005609D02*
X004932Y005609D01*
X004890Y005550D02*
X004702Y005550D01*
X004726Y005492D02*
X004865Y005492D01*
X004849Y005433D02*
X004742Y005433D01*
X004742Y005375D02*
X004849Y005375D01*
X004850Y005316D02*
X004741Y005316D01*
X004717Y005258D02*
X004874Y005258D01*
X004898Y005199D02*
X004693Y005199D01*
X004766Y005141D02*
X004826Y005141D01*
X004826Y005082D02*
X004766Y005082D01*
X004766Y005024D02*
X004826Y005024D01*
X004826Y004965D02*
X004766Y004965D01*
X004766Y004907D02*
X004826Y004907D01*
X004826Y004848D02*
X004766Y004848D01*
X004766Y004790D02*
X004348Y004790D01*
X004348Y004848D02*
X004419Y004848D01*
X004431Y004907D02*
X004330Y004907D01*
X004306Y004965D02*
X004455Y004965D01*
X004492Y005024D02*
X004260Y005024D01*
X004245Y005082D02*
X004202Y005082D01*
X004166Y005141D02*
X003654Y005141D01*
X003709Y005199D02*
X004111Y005199D01*
X004087Y005258D02*
X003733Y005258D01*
X003757Y005316D02*
X004063Y005316D01*
X004062Y005375D02*
X003758Y005375D01*
X003758Y005433D02*
X004062Y005433D01*
X004078Y005492D02*
X003742Y005492D01*
X003717Y005550D02*
X004102Y005550D01*
X004145Y005609D02*
X003675Y005609D01*
X003617Y005667D02*
X004203Y005667D01*
X003815Y005082D02*
X003575Y005082D01*
X003473Y005024D02*
X003756Y005024D01*
X003711Y004965D02*
X003518Y004965D01*
X003542Y004907D02*
X003687Y004907D01*
X003668Y004848D02*
X003561Y004848D01*
X003561Y004790D02*
X003668Y004790D01*
X003668Y004731D02*
X003561Y004731D01*
X003538Y004673D02*
X003691Y004673D01*
X003715Y004614D02*
X003514Y004614D01*
X003530Y004556D02*
X003699Y004556D01*
X003640Y004497D02*
X003589Y004497D01*
X003604Y004482D02*
X003604Y004482D01*
X003555Y004362D02*
X003555Y003943D01*
X003747Y003751D01*
X005558Y003751D01*
X006389Y002920D01*
X006389Y002472D01*
X006252Y002335D01*
X006252Y001570D01*
X005889Y001685D02*
X005829Y001685D01*
X005829Y002488D01*
X005752Y002488D01*
X005705Y002475D01*
X005662Y002451D01*
X005634Y002422D01*
X005608Y002448D01*
X005462Y002448D01*
X005462Y003085D01*
X005462Y003299D01*
X005346Y003541D01*
X005233Y003631D01*
X005509Y003631D01*
X006269Y002870D01*
X006269Y002522D01*
X006195Y002448D01*
X006110Y002448D01*
X006084Y002422D01*
X006055Y002451D01*
X006013Y002475D01*
X005966Y002488D01*
X005889Y002488D01*
X005889Y001685D01*
X005889Y001689D02*
X005829Y001689D01*
X005829Y001748D02*
X005889Y001748D01*
X005889Y001806D02*
X005829Y001806D01*
X005829Y001865D02*
X005889Y001865D01*
X005889Y001923D02*
X005829Y001923D01*
X005829Y001982D02*
X005889Y001982D01*
X005889Y002040D02*
X005829Y002040D01*
X005829Y002099D02*
X005889Y002099D01*
X005889Y002157D02*
X005829Y002157D01*
X005829Y002216D02*
X005889Y002216D01*
X005889Y002274D02*
X005829Y002274D01*
X005829Y002333D02*
X005889Y002333D01*
X005889Y002391D02*
X005829Y002391D01*
X005829Y002450D02*
X005889Y002450D01*
X006056Y002450D02*
X006197Y002450D01*
X006256Y002508D02*
X005462Y002508D01*
X005462Y002450D02*
X005661Y002450D01*
X005462Y002567D02*
X006269Y002567D01*
X006269Y002625D02*
X005462Y002625D01*
X005462Y002684D02*
X006269Y002684D01*
X006269Y002742D02*
X005462Y002742D01*
X005462Y002801D02*
X006269Y002801D01*
X006269Y002859D02*
X005462Y002859D01*
X005462Y002918D02*
X006221Y002918D01*
X006163Y002976D02*
X005462Y002976D01*
X005462Y003035D02*
X006104Y003035D01*
X006046Y003093D02*
X005462Y003093D01*
X005462Y003152D02*
X005987Y003152D01*
X005929Y003210D02*
X005462Y003210D01*
X005462Y003269D02*
X005870Y003269D01*
X005812Y003327D02*
X005448Y003327D01*
X005420Y003386D02*
X005753Y003386D01*
X005695Y003444D02*
X005392Y003444D01*
X005364Y003503D02*
X005636Y003503D01*
X005578Y003561D02*
X005320Y003561D01*
X005346Y003541D02*
X005346Y003541D01*
X005246Y003620D02*
X005519Y003620D01*
X005608Y003871D02*
X006509Y002969D01*
X006509Y002472D01*
X006646Y002335D01*
X006646Y001570D01*
X007010Y001689D02*
X007070Y001689D01*
X007070Y001748D02*
X007010Y001748D01*
X007010Y001806D02*
X007070Y001806D01*
X007070Y001865D02*
X007010Y001865D01*
X007010Y001923D02*
X007070Y001923D01*
X007070Y001982D02*
X007010Y001982D01*
X007010Y002040D02*
X007070Y002040D01*
X007070Y002099D02*
X007010Y002099D01*
X007010Y002157D02*
X007070Y002157D01*
X007070Y002216D02*
X007010Y002216D01*
X007010Y002274D02*
X007070Y002274D01*
X007070Y002333D02*
X007010Y002333D01*
X007010Y002391D02*
X007070Y002391D01*
X007070Y002450D02*
X007010Y002450D01*
X006842Y002450D02*
X006701Y002450D01*
X006643Y002508D02*
X007353Y002508D01*
X007353Y002450D02*
X007237Y002450D01*
X007353Y002567D02*
X006629Y002567D01*
X006629Y002625D02*
X007353Y002625D01*
X007353Y002684D02*
X006629Y002684D01*
X006629Y002742D02*
X007353Y002742D01*
X007353Y002801D02*
X006629Y002801D01*
X006629Y002859D02*
X007353Y002859D01*
X007353Y002918D02*
X006629Y002918D01*
X006629Y002976D02*
X007353Y002976D01*
X007353Y003035D02*
X006613Y003035D01*
X006555Y003093D02*
X007353Y003093D01*
X007353Y003152D02*
X006496Y003152D01*
X006438Y003210D02*
X007353Y003210D01*
X007353Y003269D02*
X006379Y003269D01*
X006321Y003327D02*
X007353Y003327D01*
X007353Y003386D02*
X006262Y003386D01*
X006204Y003444D02*
X007353Y003444D01*
X007353Y003503D02*
X006145Y003503D01*
X006087Y003561D02*
X007353Y003561D01*
X007353Y003620D02*
X006028Y003620D01*
X005970Y003678D02*
X007353Y003678D01*
X007353Y003737D02*
X005911Y003737D01*
X005853Y003795D02*
X007353Y003795D01*
X007353Y003854D02*
X005794Y003854D01*
X005736Y003912D02*
X007353Y003912D01*
X007353Y003971D02*
X005677Y003971D01*
X005608Y003871D02*
X003797Y003871D01*
X003675Y003993D01*
X003675Y004362D01*
X004008Y004696D01*
X004008Y004795D01*
X004326Y004673D02*
X004435Y004673D01*
X004421Y004731D02*
X004348Y004731D01*
X004302Y004614D02*
X004459Y004614D01*
X004498Y004556D02*
X004250Y004556D01*
X004178Y004497D02*
X004557Y004497D01*
X004662Y004439D02*
X003921Y004439D01*
X003863Y004380D02*
X007353Y004380D01*
X007353Y004322D02*
X003804Y004322D01*
X003795Y004263D02*
X007353Y004263D01*
X007353Y004205D02*
X003795Y004205D01*
X003795Y004146D02*
X007353Y004146D01*
X007353Y004088D02*
X003795Y004088D01*
X003808Y004029D02*
X007353Y004029D01*
X007593Y004029D02*
X019655Y004029D01*
X019655Y003971D02*
X007593Y003971D01*
X007593Y003912D02*
X019655Y003912D01*
X019655Y003854D02*
X007593Y003854D01*
X007593Y003795D02*
X019655Y003795D01*
X019655Y003737D02*
X008140Y003737D01*
X008198Y003678D02*
X019655Y003678D01*
X019655Y003620D02*
X008218Y003620D01*
X008218Y003561D02*
X019655Y003561D01*
X019655Y003503D02*
X008218Y003503D01*
X008218Y003444D02*
X019655Y003444D01*
X019655Y004088D02*
X007593Y004088D01*
X007593Y004146D02*
X019655Y004146D01*
X019655Y004205D02*
X007593Y004205D01*
X007593Y004263D02*
X019655Y004263D01*
X019655Y004322D02*
X007593Y004322D01*
X007593Y004380D02*
X019655Y004380D01*
X019655Y004439D02*
X007593Y004439D01*
X007593Y004497D02*
X019655Y004497D01*
X019655Y004556D02*
X007593Y004556D01*
X007646Y004614D02*
X019655Y004614D01*
X019655Y004673D02*
X007705Y004673D01*
X007731Y004731D02*
X019655Y004731D01*
X019655Y004790D02*
X007751Y004790D01*
X007751Y004848D02*
X019655Y004848D01*
X019655Y004907D02*
X007744Y004907D01*
X007720Y004965D02*
X019655Y004965D01*
X019655Y005024D02*
X007677Y005024D01*
X007601Y005082D02*
X019655Y005082D01*
X019655Y010523D02*
X014359Y010523D01*
X014282Y010491D02*
X014518Y010589D01*
X014699Y010769D01*
X014797Y011006D01*
X014797Y011261D01*
X014699Y011497D01*
X014518Y011678D01*
X014282Y011776D01*
X014026Y011776D01*
X013790Y011678D01*
X013609Y011497D01*
X013511Y011261D01*
X013511Y011006D01*
X013609Y010769D01*
X013790Y010589D01*
X014026Y010491D01*
X014282Y010491D01*
X014500Y010581D02*
X019655Y010581D01*
X019655Y010640D02*
X014569Y010640D01*
X014628Y010698D02*
X019655Y010698D01*
X019655Y010757D02*
X014686Y010757D01*
X014718Y010815D02*
X019655Y010815D01*
X019655Y010874D02*
X014742Y010874D01*
X014766Y010932D02*
X019655Y010932D01*
X019655Y010991D02*
X014790Y010991D01*
X014797Y011049D02*
X019655Y011049D01*
X019655Y011108D02*
X014797Y011108D01*
X014797Y011166D02*
X019655Y011166D01*
X019655Y011225D02*
X014797Y011225D01*
X014787Y011283D02*
X019655Y011283D01*
X019655Y011342D02*
X014763Y011342D01*
X014739Y011400D02*
X019655Y011400D01*
X019655Y011459D02*
X014715Y011459D01*
X014679Y011517D02*
X019655Y011517D01*
X019655Y011576D02*
X014620Y011576D01*
X014562Y011634D02*
X019655Y011634D01*
X019655Y011693D02*
X014483Y011693D01*
X014341Y011751D02*
X019655Y011751D01*
X019655Y011810D02*
X013267Y011810D01*
X013285Y011868D02*
X019655Y011868D01*
X019655Y011927D02*
X013285Y011927D01*
X013285Y011985D02*
X019655Y011985D01*
X019655Y012044D02*
X013262Y012044D01*
X013238Y012102D02*
X019655Y012102D01*
X019655Y012161D02*
X013186Y012161D01*
X013326Y012219D02*
X019655Y012219D01*
X019655Y012278D02*
X013389Y012278D01*
X013438Y012336D02*
X019655Y012336D01*
X019655Y012395D02*
X013462Y012395D01*
X013482Y012453D02*
X019655Y012453D01*
X019655Y012512D02*
X013482Y012512D01*
X013482Y012570D02*
X019655Y012570D01*
X019655Y012629D02*
X013493Y012629D01*
X013519Y012687D02*
X019655Y012687D01*
X019655Y012746D02*
X013521Y012746D01*
X013519Y012804D02*
X019655Y012804D01*
X019655Y012863D02*
X013519Y012863D01*
X013519Y012921D02*
X019655Y012921D01*
X019655Y012980D02*
X013519Y012980D01*
X013519Y013038D02*
X019655Y013038D01*
X019655Y013097D02*
X013519Y013097D01*
X013519Y013155D02*
X019655Y013155D01*
X019655Y013214D02*
X013519Y013214D01*
X013519Y013272D02*
X019655Y013272D01*
X019655Y013331D02*
X013519Y013331D01*
X013519Y013389D02*
X019655Y013389D01*
X019655Y013448D02*
X013519Y013448D01*
X013519Y013506D02*
X019655Y013506D01*
X019655Y013565D02*
X013519Y013565D01*
X013519Y013623D02*
X019655Y013623D01*
X019655Y013682D02*
X013519Y013682D01*
X013519Y013740D02*
X019655Y013740D01*
X019655Y013799D02*
X013519Y013799D01*
X013519Y013857D02*
X019655Y013857D01*
X019655Y013916D02*
X013519Y013916D01*
X013519Y013974D02*
X019655Y013974D01*
X019655Y014033D02*
X013519Y014033D01*
X013519Y014091D02*
X019655Y014091D01*
X019655Y014150D02*
X013519Y014150D01*
X013519Y014208D02*
X019655Y014208D01*
X019655Y014267D02*
X013519Y014267D01*
X013519Y014325D02*
X019655Y014325D01*
X019655Y014384D02*
X013519Y014384D01*
X013519Y014442D02*
X019655Y014442D01*
X019655Y014501D02*
X013519Y014501D01*
X013519Y014559D02*
X019655Y014559D01*
X019655Y014618D02*
X013519Y014618D01*
X013519Y014676D02*
X019655Y014676D01*
X019655Y014735D02*
X013519Y014735D01*
X013519Y014793D02*
X019655Y014793D01*
X019655Y014852D02*
X013519Y014852D01*
X013519Y014910D02*
X019655Y014910D01*
X019655Y014969D02*
X013519Y014969D01*
X013519Y015027D02*
X019655Y015027D01*
X019655Y015086D02*
X013519Y015086D01*
X013519Y015144D02*
X019655Y015144D01*
X019655Y015203D02*
X013519Y015203D01*
X013519Y015261D02*
X019655Y015261D01*
X019655Y015320D02*
X013519Y015320D01*
X013519Y015378D02*
X019655Y015378D01*
X019655Y015437D02*
X013519Y015437D01*
X013519Y015495D02*
X019655Y015495D01*
X019655Y015554D02*
X013519Y015554D01*
X013519Y015612D02*
X019655Y015612D01*
X019655Y015671D02*
X013519Y015671D01*
X013519Y015729D02*
X019655Y015729D01*
X019655Y015788D02*
X013519Y015788D01*
X013519Y015846D02*
X019655Y015846D01*
X019655Y015905D02*
X013519Y015905D01*
X013519Y015963D02*
X019655Y015963D01*
X019655Y016022D02*
X013519Y016022D01*
X013519Y016080D02*
X019655Y016080D01*
X019655Y016139D02*
X013519Y016139D01*
X013519Y016197D02*
X019655Y016197D01*
X019655Y016256D02*
X013519Y016256D01*
X013519Y016314D02*
X019655Y016314D01*
X019655Y016373D02*
X013519Y016373D01*
X013519Y016431D02*
X019655Y016431D01*
X019655Y016490D02*
X013519Y016490D01*
X013519Y016548D02*
X019655Y016548D01*
X019655Y016607D02*
X013519Y016607D01*
X013519Y016665D02*
X019655Y016665D01*
X019655Y016724D02*
X013519Y016724D01*
X013519Y016782D02*
X019655Y016782D01*
X019655Y016841D02*
X013519Y016841D01*
X013519Y016899D02*
X019655Y016899D01*
X019655Y016958D02*
X013519Y016958D01*
X013519Y017016D02*
X019655Y017016D01*
X019655Y017075D02*
X013519Y017075D01*
X013519Y017133D02*
X019655Y017133D01*
X019655Y017192D02*
X013519Y017192D01*
X013519Y017250D02*
X019655Y017250D01*
X019655Y017309D02*
X013519Y017309D01*
X013462Y017367D02*
X019655Y017367D01*
X019655Y017426D02*
X013403Y017426D01*
X013345Y017484D02*
X019655Y017484D01*
X019655Y017543D02*
X013286Y017543D01*
X013228Y017601D02*
X019655Y017601D01*
X019655Y017660D02*
X013169Y017660D01*
X013111Y017718D02*
X019655Y017718D01*
X019655Y017777D02*
X013052Y017777D01*
X012994Y017835D02*
X019655Y017835D01*
X019655Y017894D02*
X012935Y017894D01*
X012877Y017952D02*
X019655Y017952D01*
X019655Y018011D02*
X011929Y018011D01*
X011993Y018069D02*
X019655Y018069D01*
X019655Y018128D02*
X012035Y018128D01*
X012062Y018186D02*
X019655Y018186D01*
X019655Y018245D02*
X012078Y018245D01*
X012085Y018349D02*
X012085Y018356D01*
X012071Y018429D01*
X012042Y018499D01*
X012000Y018561D01*
X011947Y018614D01*
X011885Y018655D01*
X011816Y018684D01*
X011743Y018699D01*
X011735Y018699D01*
X011735Y018349D01*
X012085Y018349D01*
X012084Y018362D02*
X019655Y018362D01*
X019655Y018420D02*
X012072Y018420D01*
X012050Y018479D02*
X019655Y018479D01*
X019655Y018537D02*
X012016Y018537D01*
X011965Y018596D02*
X019655Y018596D01*
X019655Y018654D02*
X011886Y018654D01*
X011735Y018654D02*
X011675Y018654D01*
X011675Y018596D02*
X011735Y018596D01*
X011735Y018537D02*
X011675Y018537D01*
X011675Y018479D02*
X011735Y018479D01*
X011735Y018420D02*
X011675Y018420D01*
X011675Y018362D02*
X011735Y018362D01*
X011735Y018303D02*
X019655Y018303D01*
X019655Y018713D02*
X007896Y018713D01*
X007890Y018732D02*
X007926Y018621D01*
X007961Y018607D01*
X008056Y018511D01*
X008108Y018386D01*
X008108Y018251D01*
X008106Y018245D02*
X008970Y018245D01*
X008986Y018186D02*
X008081Y018186D01*
X008057Y018128D02*
X009013Y018128D01*
X009055Y018069D02*
X008000Y018069D01*
X007914Y018011D02*
X009119Y018011D01*
X008964Y018362D02*
X008108Y018362D01*
X008094Y018420D02*
X008976Y018420D01*
X008998Y018479D02*
X008070Y018479D01*
X008030Y018537D02*
X009032Y018537D01*
X009083Y018596D02*
X007972Y018596D01*
X007915Y018654D02*
X009162Y018654D01*
X007890Y018732D02*
X007723Y018962D01*
X007723Y018962D01*
X007723Y018962D01*
X007492Y019129D01*
X007222Y019217D01*
X002392Y019217D01*
X002170Y019126D01*
X002000Y018956D01*
X002000Y018956D01*
X001909Y018734D01*
X001909Y015172D01*
X001899Y015162D01*
X001899Y014979D01*
X002027Y014850D01*
X002210Y014850D01*
X002339Y014979D01*
X002339Y015162D01*
X002329Y015172D01*
X002329Y018614D01*
X002422Y018771D02*
X007216Y018771D01*
X007502Y019122D02*
X019655Y019122D01*
X019655Y019064D02*
X007583Y019064D01*
X007663Y019005D02*
X019655Y019005D01*
X019655Y018947D02*
X007734Y018947D01*
X007776Y018888D02*
X019655Y018888D01*
X019655Y018830D02*
X007819Y018830D01*
X007861Y018771D02*
X019655Y018771D01*
X019655Y019181D02*
X007334Y019181D01*
X007492Y019129D02*
X007492Y019129D01*
X007890Y018732D02*
X007890Y018732D01*
X007221Y017835D02*
X006741Y017835D01*
X006822Y017777D02*
X007139Y017777D01*
X007084Y017718D02*
X006877Y017718D01*
X006902Y017660D02*
X007060Y017660D01*
X007036Y017601D02*
X006926Y017601D01*
X006927Y017543D02*
X007034Y017543D01*
X007034Y017484D02*
X006927Y017484D01*
X006911Y017426D02*
X007050Y017426D01*
X007074Y017367D02*
X006887Y017367D01*
X006846Y017309D02*
X007116Y017309D01*
X007174Y017250D02*
X006787Y017250D01*
X006344Y016841D02*
X005978Y016841D01*
X006045Y016782D02*
X006287Y016782D01*
X006249Y016724D02*
X006094Y016724D01*
X006119Y016665D02*
X006225Y016665D01*
X006212Y016607D02*
X006140Y016607D01*
X005376Y016139D02*
X005368Y016139D01*
X005630Y018011D02*
X006047Y018011D01*
X005962Y018069D02*
X005694Y018069D01*
X005736Y018128D02*
X005904Y018128D01*
X005880Y018186D02*
X005763Y018186D01*
X005779Y018245D02*
X005856Y018245D01*
X002304Y019181D02*
X000330Y019181D01*
X000330Y019239D02*
X019655Y019239D01*
X019655Y019298D02*
X000330Y019298D01*
X000330Y019356D02*
X019655Y019356D01*
X019655Y019415D02*
X000330Y019415D01*
X000330Y019473D02*
X019655Y019473D01*
X019655Y019532D02*
X000330Y019532D01*
X000330Y019590D02*
X019655Y019590D01*
X013159Y017133D02*
X013056Y017133D01*
X013056Y017075D02*
X013159Y017075D01*
X013159Y017016D02*
X013056Y017016D01*
X013056Y016958D02*
X013159Y016958D01*
X013159Y016899D02*
X013052Y016899D01*
X013027Y016841D02*
X013159Y016841D01*
X013159Y016782D02*
X013003Y016782D01*
X012979Y016724D02*
X013159Y016724D01*
X013159Y016665D02*
X012949Y016665D01*
X012890Y016607D02*
X013159Y016607D01*
X013159Y016548D02*
X012832Y016548D01*
X012767Y016490D02*
X013159Y016490D01*
X013159Y016080D02*
X011909Y016080D01*
X011980Y016022D02*
X013159Y016022D01*
X013159Y015963D02*
X012026Y015963D01*
X012056Y015905D02*
X013159Y015905D01*
X013159Y015846D02*
X012075Y015846D01*
X012056Y015612D02*
X013159Y015612D01*
X013159Y015554D02*
X012025Y015554D01*
X011978Y015495D02*
X013159Y015495D01*
X013159Y015437D02*
X011906Y015437D01*
X011735Y015788D02*
X013159Y015788D01*
X013159Y015378D02*
X010645Y015378D01*
X010645Y015320D02*
X013159Y015320D01*
X013159Y015261D02*
X010645Y015261D01*
X010645Y015203D02*
X013159Y015203D01*
X013159Y015144D02*
X010645Y015144D01*
X010645Y015086D02*
X013159Y015086D01*
X013159Y015027D02*
X010645Y015027D01*
X010645Y014969D02*
X013159Y014969D01*
X013159Y014910D02*
X010645Y014910D01*
X010645Y014852D02*
X013159Y014852D01*
X013159Y014793D02*
X010645Y014793D01*
X010645Y014735D02*
X013159Y014735D01*
X013159Y014676D02*
X010645Y014676D01*
X010645Y014618D02*
X013159Y014618D01*
X013159Y014559D02*
X010645Y014559D01*
X010645Y014501D02*
X013159Y014501D01*
X013159Y014442D02*
X010645Y014442D01*
X010645Y014384D02*
X013159Y014384D01*
X013159Y014325D02*
X010645Y014325D01*
X010645Y014267D02*
X013159Y014267D01*
X013159Y014208D02*
X010645Y014208D01*
X010645Y014150D02*
X013159Y014150D01*
X013159Y014091D02*
X010645Y014091D01*
X010645Y014033D02*
X013159Y014033D01*
X013159Y013974D02*
X010645Y013974D01*
X010645Y013916D02*
X013159Y013916D01*
X013070Y013448D02*
X010645Y013448D01*
X010645Y013389D02*
X013015Y013389D01*
X012960Y013331D02*
X010645Y013331D01*
X010645Y013272D02*
X012905Y013272D01*
X012850Y013214D02*
X010645Y013214D01*
X010645Y013155D02*
X012795Y013155D01*
X012740Y013097D02*
X010645Y013097D01*
X010645Y013038D02*
X012685Y013038D01*
X012630Y012980D02*
X010645Y012980D01*
X010525Y012766D02*
X010780Y012511D01*
X011100Y012395D02*
X011204Y012395D01*
X011191Y012453D02*
X011120Y012453D01*
X011075Y012336D02*
X011229Y012336D01*
X012538Y012219D02*
X012778Y012219D01*
X013243Y011751D02*
X013967Y011751D01*
X013825Y011693D02*
X013198Y011693D01*
X013140Y011634D02*
X013746Y011634D01*
X013688Y011576D02*
X009447Y011576D01*
X009389Y011634D02*
X009995Y011634D01*
X009937Y011693D02*
X009309Y011693D01*
X009168Y011751D02*
X009892Y011751D01*
X009506Y011517D02*
X013629Y011517D01*
X013593Y011459D02*
X009541Y011459D01*
X009566Y011400D02*
X013569Y011400D01*
X013545Y011342D02*
X009590Y011342D01*
X009614Y011283D02*
X013520Y011283D01*
X013511Y011225D02*
X009623Y011225D01*
X009623Y011166D02*
X013511Y011166D01*
X013511Y011108D02*
X009623Y011108D01*
X009623Y011049D02*
X013511Y011049D01*
X013517Y010991D02*
X009617Y010991D01*
X009593Y010932D02*
X013542Y010932D01*
X013566Y010874D02*
X009569Y010874D01*
X009544Y010815D02*
X013590Y010815D01*
X013622Y010757D02*
X009513Y010757D01*
X009454Y010698D02*
X013680Y010698D01*
X013739Y010640D02*
X009396Y010640D01*
X009327Y010581D02*
X013808Y010581D01*
X013949Y010523D02*
X009186Y010523D01*
X008393Y010874D02*
X004155Y010874D01*
X004258Y010932D02*
X008368Y010932D01*
X008344Y010991D02*
X004316Y010991D01*
X004354Y011049D02*
X008338Y011049D01*
X008338Y011108D02*
X004378Y011108D01*
X004397Y011166D02*
X008338Y011166D01*
X008338Y011225D02*
X004397Y011225D01*
X004397Y011283D02*
X008347Y011283D01*
X008371Y011342D02*
X004397Y011342D01*
X004397Y011400D02*
X008396Y011400D01*
X008420Y011459D02*
X004397Y011459D01*
X004397Y011517D02*
X008456Y011517D01*
X008514Y011576D02*
X004397Y011576D01*
X004397Y011634D02*
X008573Y011634D01*
X010285Y014618D02*
X000330Y014618D01*
X000330Y014676D02*
X010255Y014676D01*
X010197Y014735D02*
X000330Y014735D01*
X000330Y014793D02*
X010138Y014793D01*
X010080Y014852D02*
X002211Y014852D01*
X002270Y014910D02*
X010021Y014910D01*
X009963Y014969D02*
X002328Y014969D01*
X002339Y015027D02*
X009904Y015027D01*
X009846Y015086D02*
X002339Y015086D01*
X002339Y015144D02*
X009787Y015144D01*
X009729Y015203D02*
X002329Y015203D01*
X002329Y015261D02*
X009670Y015261D01*
X009617Y015320D02*
X002329Y015320D01*
X002329Y015378D02*
X009617Y015378D01*
X009617Y015437D02*
X009453Y015437D01*
X009560Y015495D02*
X009617Y015495D01*
X010244Y016080D02*
X010405Y016080D01*
X010405Y016022D02*
X010349Y016022D01*
X010645Y016080D02*
X010714Y016080D01*
X010645Y016139D02*
X010878Y016139D01*
X010888Y015612D02*
X010948Y015612D01*
X010948Y015554D02*
X010888Y015554D01*
X010888Y015495D02*
X010948Y015495D01*
X010948Y015437D02*
X010888Y015437D01*
X010716Y015437D02*
X010645Y015437D01*
X011675Y015846D02*
X011735Y015846D01*
X011735Y015905D02*
X011675Y015905D01*
X011675Y015963D02*
X011735Y015963D01*
X011735Y016022D02*
X011675Y016022D01*
X011675Y016080D02*
X011735Y016080D01*
X011675Y016139D02*
X011668Y016139D01*
X013046Y017192D02*
X013124Y017192D01*
X013062Y017250D02*
X013022Y017250D01*
X013000Y017309D02*
X012998Y017309D01*
X011675Y018303D02*
X011258Y018303D01*
X011255Y018245D02*
X011332Y018245D01*
X011349Y018186D02*
X011231Y018186D01*
X011278Y018128D02*
X011375Y018128D01*
X011337Y018069D02*
X011417Y018069D01*
X011395Y018011D02*
X011481Y018011D01*
X011326Y018362D02*
X011258Y018362D01*
X011244Y018420D02*
X011338Y018420D01*
X011360Y018479D02*
X011219Y018479D01*
X011180Y018537D02*
X011394Y018537D01*
X011445Y018596D02*
X011121Y018596D01*
X010995Y018654D02*
X011524Y018654D01*
X004223Y013916D02*
X004163Y013916D01*
X004163Y013857D02*
X004223Y013857D01*
X004223Y013799D02*
X004163Y013799D01*
X004163Y013740D02*
X004223Y013740D01*
X004223Y013682D02*
X004163Y013682D01*
X004163Y013623D02*
X004223Y013623D01*
X004223Y013565D02*
X004163Y013565D01*
X004163Y013389D02*
X004223Y013389D01*
X004223Y013331D02*
X004163Y013331D01*
X004163Y013272D02*
X004223Y013272D01*
X004223Y013214D02*
X004163Y013214D01*
X004163Y013155D02*
X004223Y013155D01*
X004223Y013097D02*
X004163Y013097D01*
X003963Y013097D02*
X003367Y013097D01*
X003426Y013155D02*
X003904Y013155D01*
X003846Y013214D02*
X003484Y013214D01*
X003543Y013272D02*
X003787Y013272D01*
X003748Y013331D02*
X003598Y013331D01*
X003598Y013389D02*
X003748Y013389D01*
X002982Y013857D02*
X000330Y013857D01*
X000330Y013799D02*
X002924Y013799D01*
X002026Y014852D02*
X000330Y014852D01*
X000330Y014910D02*
X001967Y014910D01*
X001909Y014969D02*
X000330Y014969D01*
X000330Y015027D02*
X001899Y015027D01*
X001899Y015086D02*
X000330Y015086D01*
X000330Y015144D02*
X001899Y015144D01*
X001909Y015203D02*
X000330Y015203D01*
X000330Y015261D02*
X001909Y015261D01*
X001909Y015320D02*
X000330Y015320D01*
X000330Y015378D02*
X001909Y015378D01*
X001909Y015437D02*
X000330Y015437D01*
X000330Y015495D02*
X001909Y015495D01*
X001909Y015554D02*
X000330Y015554D01*
X000330Y015612D02*
X001909Y015612D01*
X001909Y015671D02*
X000330Y015671D01*
X000330Y015729D02*
X001909Y015729D01*
X001909Y015788D02*
X000330Y015788D01*
X000330Y015846D02*
X001909Y015846D01*
X001909Y015905D02*
X000330Y015905D01*
X000330Y015963D02*
X001909Y015963D01*
X001909Y016022D02*
X000330Y016022D01*
X000330Y016080D02*
X001909Y016080D01*
X001909Y016139D02*
X000330Y016139D01*
X000330Y016197D02*
X001909Y016197D01*
X001909Y016256D02*
X000330Y016256D01*
X000330Y016314D02*
X001909Y016314D01*
X001909Y016373D02*
X000330Y016373D01*
X000330Y016431D02*
X001909Y016431D01*
X001909Y016490D02*
X000330Y016490D01*
X000330Y016548D02*
X001909Y016548D01*
X001909Y016607D02*
X000330Y016607D01*
X000330Y016665D02*
X001909Y016665D01*
X001909Y016724D02*
X000330Y016724D01*
X000330Y016782D02*
X001909Y016782D01*
X001909Y016841D02*
X000330Y016841D01*
X000330Y016899D02*
X001909Y016899D01*
X001909Y016958D02*
X000330Y016958D01*
X000330Y017016D02*
X001909Y017016D01*
X001909Y017075D02*
X000330Y017075D01*
X000330Y017133D02*
X001909Y017133D01*
X001909Y017192D02*
X000330Y017192D01*
X000330Y017250D02*
X001909Y017250D01*
X001909Y017309D02*
X000330Y017309D01*
X000330Y017367D02*
X001909Y017367D01*
X001909Y017426D02*
X000330Y017426D01*
X000330Y017484D02*
X001909Y017484D01*
X001909Y017543D02*
X000330Y017543D01*
X000330Y017601D02*
X001909Y017601D01*
X001909Y017660D02*
X000330Y017660D01*
X000330Y017718D02*
X001909Y017718D01*
X001909Y017777D02*
X000330Y017777D01*
X000330Y017835D02*
X001909Y017835D01*
X001909Y017894D02*
X000330Y017894D01*
X000330Y017952D02*
X001909Y017952D01*
X001909Y018011D02*
X000330Y018011D01*
X000330Y018069D02*
X001909Y018069D01*
X001909Y018128D02*
X000330Y018128D01*
X000330Y018186D02*
X001909Y018186D01*
X001909Y018245D02*
X000330Y018245D01*
X000330Y018303D02*
X001909Y018303D01*
X001909Y018362D02*
X000330Y018362D01*
X000330Y018420D02*
X001909Y018420D01*
X001909Y018479D02*
X000330Y018479D01*
X000330Y018537D02*
X001909Y018537D01*
X001909Y018596D02*
X000330Y018596D01*
X000330Y018654D02*
X001909Y018654D01*
X001909Y018713D02*
X000330Y018713D01*
X000330Y018771D02*
X001924Y018771D01*
X001948Y018830D02*
X000330Y018830D01*
X000330Y018888D02*
X001973Y018888D01*
X001997Y018947D02*
X000330Y018947D01*
X000330Y019005D02*
X002050Y019005D01*
X002109Y019064D02*
X000330Y019064D01*
X000330Y019122D02*
X002167Y019122D01*
X002170Y019126D02*
X002170Y019126D01*
X003437Y011459D02*
X003627Y011459D01*
X003627Y011400D02*
X003437Y011400D01*
X003437Y011342D02*
X003627Y011342D01*
X003627Y011283D02*
X003437Y011283D01*
X003437Y011225D02*
X003627Y011225D01*
X003627Y011166D02*
X003432Y011166D01*
X003419Y011108D02*
X003647Y011108D01*
X003671Y011049D02*
X003397Y011049D01*
X003363Y010991D02*
X003708Y010991D01*
X003767Y010932D02*
X003314Y010932D01*
X003243Y010874D02*
X003870Y010874D01*
X002425Y006779D02*
X007166Y006779D01*
X007025Y006720D02*
X002566Y006720D01*
X002629Y006662D02*
X006963Y006662D01*
X006904Y006603D02*
X002687Y006603D01*
X002746Y006545D02*
X006846Y006545D01*
X006817Y006486D02*
X002775Y006486D01*
X002799Y006428D02*
X006792Y006428D01*
X006768Y006369D02*
X002823Y006369D01*
X002847Y006311D02*
X006744Y006311D01*
X006740Y006252D02*
X002852Y006252D01*
X002852Y006194D02*
X006740Y006194D01*
X006740Y006135D02*
X002852Y006135D01*
X003121Y005667D02*
X003219Y005667D01*
X003160Y005609D02*
X003063Y005609D01*
X003118Y005550D02*
X003004Y005550D01*
X002947Y005492D02*
X003094Y005492D01*
X003078Y005433D02*
X002947Y005433D01*
X002947Y005375D02*
X003078Y005375D01*
X003078Y005316D02*
X002947Y005316D01*
X002947Y005258D02*
X003103Y005258D01*
X003127Y005199D02*
X002947Y005199D01*
X002947Y005141D02*
X003181Y005141D01*
X003028Y005082D02*
X002947Y005082D01*
X002947Y005024D02*
X002969Y005024D01*
X003221Y004795D02*
X003221Y004696D01*
X003555Y004362D01*
X002827Y004204D02*
X004284Y002748D01*
X004284Y001570D01*
X004164Y002450D02*
X003273Y002450D01*
X003273Y002508D02*
X004164Y002508D01*
X004164Y002567D02*
X003273Y002567D01*
X003446Y002625D02*
X004164Y002625D01*
X004164Y002684D02*
X003511Y002684D01*
X003550Y002742D02*
X004119Y002742D01*
X004061Y002801D02*
X003574Y002801D01*
X003578Y002859D02*
X004002Y002859D01*
X003944Y002918D02*
X003578Y002918D01*
X003555Y002976D02*
X003885Y002976D01*
X003827Y003035D02*
X003524Y003035D01*
X003465Y003093D02*
X003768Y003093D01*
X005034Y004497D02*
X005413Y004497D01*
X005341Y004556D02*
X005093Y004556D01*
X005132Y004614D02*
X005290Y004614D01*
X005266Y004673D02*
X005156Y004673D01*
X005170Y004731D02*
X005243Y004731D01*
X005753Y004497D02*
X006200Y004497D01*
X006129Y004556D02*
X005825Y004556D01*
X005876Y004614D02*
X006077Y004614D01*
X006053Y004673D02*
X005901Y004673D01*
X005923Y004731D02*
X006030Y004731D01*
X006030Y004790D02*
X005923Y004790D01*
X005923Y004848D02*
X006030Y004848D01*
X006049Y004907D02*
X005905Y004907D01*
X005880Y004965D02*
X006073Y004965D01*
X006119Y005024D02*
X005835Y005024D01*
X005776Y005082D02*
X006017Y005082D01*
X006473Y005550D02*
X007206Y005550D01*
X007065Y005609D02*
X006431Y005609D01*
X007473Y004834D02*
X007473Y001610D01*
X007433Y001570D01*
X007797Y001689D02*
X007830Y001689D01*
X007830Y001748D02*
X007797Y001748D01*
X007797Y001806D02*
X007830Y001806D01*
X007830Y001865D02*
X007797Y001865D01*
X007797Y001923D02*
X007830Y001923D01*
X007830Y001982D02*
X007797Y001982D01*
X007797Y002040D02*
X007830Y002040D01*
X007830Y002099D02*
X007797Y002099D01*
X007797Y002157D02*
X007830Y002157D01*
X007830Y002216D02*
X007797Y002216D01*
X007797Y002274D02*
X007830Y002274D01*
X007830Y002333D02*
X007797Y002333D01*
X007797Y002391D02*
X007830Y002391D01*
X007830Y002450D02*
X007797Y002450D01*
X007830Y002508D02*
X007593Y002508D01*
X007593Y002450D02*
X007630Y002450D01*
X007593Y002567D02*
X007830Y002567D01*
X007830Y002625D02*
X007593Y002625D01*
X007593Y002684D02*
X007830Y002684D01*
X007830Y002742D02*
X007593Y002742D01*
X007593Y002801D02*
X007830Y002801D01*
X007830Y002859D02*
X007593Y002859D01*
X007593Y002918D02*
X007830Y002918D01*
X007830Y002976D02*
X007593Y002976D01*
X007593Y003035D02*
X007830Y003035D01*
X007830Y003093D02*
X007593Y003093D01*
X007593Y003152D02*
X007779Y003152D01*
X007746Y003210D02*
X007593Y003210D01*
X007593Y003269D02*
X007746Y003269D01*
X007746Y003327D02*
X007593Y003327D01*
X007593Y003386D02*
X007797Y003386D01*
X007830Y003444D02*
X007593Y003444D01*
X007593Y003503D02*
X007830Y003503D01*
X007830Y003561D02*
X007593Y003561D01*
X007593Y003620D02*
X007830Y003620D01*
X007850Y003678D02*
X007593Y003678D01*
X007593Y003737D02*
X007908Y003737D01*
D16*
X006804Y004263D03*
X007473Y004834D03*
X005563Y002984D03*
X004382Y004165D03*
X003300Y002866D03*
X000937Y002866D03*
X006804Y002689D03*
D17*
X003300Y002866D02*
X003103Y002669D01*
X003103Y001570D01*
X001134Y001570D02*
X000741Y001570D01*
X000347Y001570D01*
X001134Y001570D02*
X001134Y002669D01*
X000937Y002866D01*
D18*
X001012Y011527D02*
X001012Y011708D01*
X001022Y011794D01*
X001036Y011880D01*
X001054Y011965D01*
X001076Y012049D01*
X001101Y012133D01*
X001130Y012215D01*
X001163Y012295D01*
X001199Y012375D01*
X001238Y012452D01*
X001281Y012528D01*
X001327Y012602D01*
X001376Y012674D01*
X001428Y012743D01*
X001483Y012810D01*
X001542Y012875D01*
X001603Y012937D01*
X001666Y012997D01*
X001732Y013053D01*
X001801Y013107D01*
X001871Y013158D01*
X001944Y013205D01*
X002019Y013249D01*
X002096Y013290D01*
X002174Y013328D01*
X002254Y013362D01*
X002336Y013393D01*
X002419Y013420D01*
X002502Y013443D01*
X002587Y013463D01*
X002673Y013479D01*
X002759Y013491D01*
X002845Y013499D01*
X002932Y013504D01*
X003019Y013505D01*
X003106Y013502D01*
X003193Y013495D01*
X002119Y015070D02*
X002119Y018614D01*
X002118Y018614D02*
X002120Y018653D01*
X002126Y018691D01*
X002135Y018728D01*
X002148Y018765D01*
X002165Y018800D01*
X002184Y018833D01*
X002207Y018864D01*
X002233Y018893D01*
X002262Y018919D01*
X002293Y018942D01*
X002326Y018961D01*
X002361Y018978D01*
X002398Y018991D01*
X002435Y019000D01*
X002473Y019006D01*
X002512Y019008D01*
X002512Y019007D02*
X007079Y019007D01*
X007079Y019008D02*
X007130Y019006D01*
X007182Y019000D01*
X007232Y018991D01*
X007282Y018977D01*
X007331Y018960D01*
X007378Y018940D01*
X007424Y018916D01*
X007467Y018888D01*
X007509Y018858D01*
X007548Y018824D01*
X007584Y018788D01*
X007618Y018749D01*
X007648Y018707D01*
X007676Y018664D01*
X007700Y018618D01*
X007720Y018571D01*
X007737Y018522D01*
X007751Y018472D01*
X007760Y018422D01*
X007766Y018370D01*
X007768Y018319D01*
X005012Y017531D02*
X005012Y016547D01*
X004619Y015759D01*
X005012Y016547D02*
X004225Y016547D01*
X005012Y017531D02*
X004619Y018319D01*
X005449Y013889D02*
X005449Y012346D01*
X005451Y012318D01*
X005456Y012291D01*
X005465Y012264D01*
X005478Y012240D01*
X005493Y012216D01*
X005511Y012195D01*
X005532Y012177D01*
X005556Y012162D01*
X005580Y012149D01*
X005607Y012140D01*
X005634Y012135D01*
X005662Y012133D01*
X004619Y012133D01*
X004571Y012131D01*
X004524Y012126D01*
X004478Y012116D01*
X004432Y012103D01*
X004387Y012087D01*
X004344Y012067D01*
X004302Y012044D01*
X004263Y012017D01*
X004225Y011988D01*
X004190Y011956D01*
X004158Y011921D01*
X004129Y011883D01*
X004102Y011844D01*
X004079Y011802D01*
X004059Y011759D01*
X004043Y011714D01*
X004030Y011668D01*
X004020Y011622D01*
X004015Y011575D01*
X004013Y011527D01*
D19*
X002119Y015070D03*
M02*
